<svg width="36" height="14" viewBox="0 0 36 14" fill="none" xmlns="http://www.w3.org/2000/svg">
<rect y="0.418457" width="36.0004" height="13.1633" rx="1.89418" fill="#FF6500"/>
<path fill-rule="evenodd" clip-rule="evenodd" d="M4.56614 5.29129V6.50699L4.86426 6.80528L4.51538 7.15416L4.1665 6.80528L4.4648 6.50699V5.25213H4.46429L7.25768 4.17944L10.0549 5.25213L8.98107 5.66369V5.61378C8.98107 5.49312 8.86041 5.38506 8.66984 5.33515C7.77109 5.13567 6.74411 5.13567 5.84922 5.33515C5.65865 5.38506 5.53412 5.49329 5.53412 5.61378V5.66369L4.56614 5.29129ZM5.85945 5.48714C5.75811 5.51151 5.68921 5.56411 5.68921 5.61687V6.41126C6.26076 6.05062 6.94978 5.86408 7.56586 5.90055C8.04818 5.90862 8.49822 6.08709 8.83047 6.37076V5.61687C8.83047 5.56411 8.75753 5.51151 8.65216 5.48714C7.76854 5.30077 6.75114 5.30077 5.85945 5.48714ZM9.46011 8.71322C9.34634 8.74297 9.22299 8.64398 9.23173 8.55844C9.24954 8.24334 9.25559 7.79111 9.25845 7.46895C9.23223 6.7238 8.44608 6.06738 7.55842 6.05092C6.28004 5.9758 4.84234 6.87555 4.65445 8.08873C4.45313 9.05857 5.37675 10.0398 6.62875 9.77784C7.19442 9.67902 7.69438 9.40006 8.03536 9.03672C5.9488 10.5016 4.24676 8.66364 5.67404 7.13705C6.53195 6.17091 8.63094 6.14671 8.78908 7.4671L8.79287 7.5873C8.80117 7.85277 8.81334 8.24213 8.83109 8.55827C8.86168 8.8969 9.31475 9.14478 9.61977 9.00412C10.1735 8.67121 10.6439 8.37695 11.1134 8.06235C10.775 8.18486 10.4137 8.33057 10.0492 8.47759L10.0491 8.47763L10.049 8.47767L10.0488 8.47774C9.85245 8.55694 9.65513 8.63652 9.45995 8.71305L9.46011 8.71322ZM4.05976 6.49811L3.95996 6.59795L4.0598 6.69775L4.1596 6.59791L4.05976 6.49811ZM3.75781 6.98964L3.9685 6.77895L4.17919 6.98964L3.9685 7.20033L3.75781 6.98964Z" fill="white"/>
<path fill-rule="evenodd" clip-rule="evenodd" d="M13.9458 8.62173H15.8174L16.1174 9.50749H17.4103L15.5959 4.49292H14.1816L12.3672 9.50749H13.6458L13.9458 8.62173ZM14.8816 5.843L15.5031 7.67882H14.2673L14.8816 5.843ZM19.2203 8.56458H20.8204V9.50749H17.9988V4.49292H19.2203V8.56458ZM22.6601 9.50749V4.49292H21.4386V9.50749H22.6601ZM26.8432 4.49292V5.47155H24.8002V6.52875H26.3289V7.47881H24.8002V9.50749H23.5787V4.49292H26.8432ZM28.7719 8.62173L28.4719 9.50749H27.1932L29.0076 4.49292H30.422L32.2364 9.50749H30.9435L30.6434 8.62173H28.7719ZM30.3291 7.67882L29.7077 5.843L29.0933 7.67882H30.3291Z" fill="white"/>
</svg>
