<svg width="16" height="16" viewBox="0 0 16 16" fill="none" xmlns="http://www.w3.org/2000/svg">
<path d="M13.3359 8L14.043 7.29289L14.7502 8L14.043 8.70711L13.3359 8ZM3.33594 9C2.78365 9 2.33594 8.55228 2.33594 8C2.33594 7.44772 2.78365 7 3.33594 7V8V9ZM9.33594 4L10.043 3.29289L14.043 7.29289L13.3359 8L12.6288 8.70711L8.62883 4.70711L9.33594 4ZM13.3359 8L14.043 8.70711L10.043 12.7071L9.33594 12L8.62883 11.2929L12.6288 7.29289L13.3359 8ZM13.3359 8V9H3.33594V8V7H13.3359V8Z" fill="#FF6500"/>
</svg>
