<svg width="24" height="18" viewBox="0 0 24 18" fill="none" xmlns="http://www.w3.org/2000/svg">
<path d="M21.8182 0.0996094H2.18182C0.981818 0.0996094 0 1.08143 0 2.28143V15.3723C0 16.5723 0.981818 17.5542 2.18182 17.5542H21.8182C23.0182 17.5542 24 16.5723 24 15.3723V2.28143C24 1.08143 23.0182 0.0996094 21.8182 0.0996094Z" fill="#ED1C24"/>
<path opacity="0.3" d="M21.8146 17.5542C23.0146 17.5542 23.9964 16.5723 23.9964 15.3723V2.28143C23.9964 1.08143 23.0146 0.0996094 21.8146 0.0996094H19.6328C19.7419 0.317791 24.651 8.49961 19.6328 17.5542" fill="black"/>
<path d="M5.57141 4.82715L6.81287 7.34169L9.58814 7.74533L7.57978 9.70351L8.05432 12.4679L5.57141 11.1621L3.08851 12.4679L3.56305 9.70351L1.55469 7.74533L4.32996 7.34169L5.57141 4.82715Z" fill="#FFF200"/>
<path d="M10.2853 3.99316L10.5449 4.51898L11.1242 4.60407L10.7053 5.01316L10.8035 5.59025L10.2853 5.31753L9.76604 5.59025L9.86531 5.01316L9.44531 4.60407L10.0257 4.51898L10.2853 3.99316Z" fill="#FFF200"/>
<path d="M10.2853 12.1572L10.5449 12.683L11.1242 12.7681L10.7053 13.1772L10.8035 13.7543L10.2853 13.4816L9.76604 13.7543L9.86531 13.1772L9.44531 12.7681L10.0257 12.683L10.2853 12.1572Z" fill="#FFF200"/>
<path d="M12.7931 6.18164L13.0528 6.70746L13.632 6.79146L13.2131 7.20055L13.3113 7.77873L12.7931 7.50601L12.2739 7.77873L12.3731 7.20055L11.9531 6.79146L12.5335 6.70746L12.7931 6.18164Z" fill="#FFF200"/>
<path d="M12.7931 9.43555L13.0528 9.96137L13.632 10.0454L13.2131 10.4545L13.3113 11.0326L12.7931 10.7599L12.2739 11.0326L12.3731 10.4545L11.9531 10.0454L12.5335 9.96137L12.7931 9.43555Z" fill="#FFF200"/>
</svg>
