<svg width="20" height="21" viewBox="0 0 20 21" fill="none" xmlns="http://www.w3.org/2000/svg">
<path d="M10 13.8335L9.29289 14.5406L10 15.2477L10.7071 14.5406L10 13.8335ZM11 3.8335C11 3.28121 10.5523 2.8335 10 2.8335C9.44772 2.8335 9 3.28121 9 3.8335L11 3.8335ZM5 8.8335L4.29289 9.5406L9.29289 14.5406L10 13.8335L10.7071 13.1264L5.70711 8.12639L5 8.8335ZM10 13.8335L10.7071 14.5406L15.7071 9.5406L15 8.8335L14.2929 8.12639L9.29289 13.1264L10 13.8335ZM10 13.8335L11 13.8335L11 3.8335L10 3.8335L9 3.8335L9 13.8335L10 13.8335Z" fill="#FF6500"/>
<path d="M4.16406 18L15.8307 18" stroke="#FF6500" stroke-width="2"/>
</svg>
