<svg width="37" height="32" viewBox="0 0 37 32" fill="none" xmlns="http://www.w3.org/2000/svg">
<path d="M17.3464 31.9375V29.125H31.048C31.2042 29.125 31.3395 29.0769 31.4539 28.9806C31.568 28.8847 31.625 28.7586 31.625 28.6023V15.4881C31.625 11.9037 30.3425 8.88625 27.7775 6.43563C25.2128 3.985 22.1203 2.75969 18.5 2.75969C14.8797 2.75969 11.7872 3.985 9.2225 6.43563C6.6575 8.88625 5.375 11.9037 5.375 15.4881V26.5286H3.96875C3.06969 26.5286 2.29813 26.2156 1.65406 25.5897C1.00969 24.9634 0.6875 24.2008 0.6875 23.3017V19.66C0.6875 19.0519 0.860625 18.4947 1.20688 17.9884C1.55313 17.4825 2.005 17.0758 2.5625 16.7683L2.64922 14.3739C2.80297 12.333 3.33297 10.4423 4.23922 8.70203C5.14547 6.96172 6.30766 5.44672 7.72578 4.15703C9.14422 2.86734 10.7813 1.8625 12.6369 1.1425C14.4928 0.422499 16.4472 0.0625 18.5 0.0625C20.5528 0.0625 22.5023 0.422499 24.3486 1.1425C26.1948 1.8625 27.8319 2.8625 29.2597 4.1425C30.6875 5.4225 31.8497 6.93266 32.7463 8.67297C33.6428 10.4136 34.1777 12.3042 34.3508 14.3448L34.4375 16.6923C34.9831 16.9495 35.432 17.3173 35.7842 17.7958C36.1364 18.2742 36.3125 18.8078 36.3125 19.3966V23.583C36.3125 24.1717 36.1364 24.7053 35.7842 25.1838C35.432 25.6622 34.9831 26.03 34.4375 26.2872V28.6023C34.4375 29.5252 34.1064 30.3117 33.4442 30.962C32.7817 31.6123 31.983 31.9375 31.048 31.9375H17.3464ZM13.2355 19.3173C12.7764 19.3173 12.3852 19.1617 12.0617 18.8505C11.7386 18.5392 11.577 18.1539 11.577 17.6945C11.577 17.2355 11.7386 16.8473 12.0617 16.5302C12.3852 16.2127 12.7764 16.0539 13.2355 16.0539C13.6948 16.0539 14.0861 16.2127 14.4092 16.5302C14.7327 16.8473 14.8944 17.2355 14.8944 17.6945C14.8944 18.1539 14.7327 18.5392 14.4092 18.8505C14.0861 19.1617 13.6948 19.3173 13.2355 19.3173ZM23.7645 19.3173C23.3052 19.3173 22.9139 19.1617 22.5908 18.8505C22.2673 18.5392 22.1056 18.1539 22.1056 17.6945C22.1056 17.2355 22.2673 16.8473 22.5908 16.5302C22.9139 16.2127 23.3052 16.0539 23.7645 16.0539C24.2236 16.0539 24.6148 16.2127 24.9383 16.5302C25.2614 16.8473 25.423 17.2355 25.423 17.6945C25.423 18.1539 25.2614 18.5392 24.9383 18.8505C24.6148 19.1617 24.2236 19.3173 23.7645 19.3173ZM7.94609 16.375C7.75141 13.315 8.70328 10.6966 10.8017 8.51969C12.9002 6.34312 15.4975 5.25484 18.5938 5.25484C21.1947 5.25484 23.4897 6.05953 25.4788 7.66891C27.4681 9.27828 28.6755 11.3617 29.1008 13.9192C26.4373 13.888 23.9764 13.1886 21.718 11.8211C19.4595 10.4533 17.7258 8.57828 16.5167 6.19609C16.0408 8.52766 15.0433 10.5889 13.5242 12.3798C12.0048 14.1708 10.1455 15.5025 7.94609 16.375Z" fill="#FF6500"/>
</svg>
