<svg width="20" height="18" viewBox="0 0 20 18" fill="none" xmlns="http://www.w3.org/2000/svg">
<path d="M9.38475 17.5V16H16.6923C16.7756 16 16.8477 15.9743 16.9088 15.923C16.9696 15.8718 17 15.8046 17 15.7212V8.727C17 6.81533 16.316 5.206 14.948 3.899C13.5802 2.592 11.9308 1.9385 10 1.9385C8.06917 1.9385 6.41983 2.592 5.052 3.899C3.684 5.206 3 6.81533 3 8.727V14.6152H2.25C1.7705 14.6152 1.359 14.4483 1.0155 14.1145C0.671833 13.7805 0.5 13.3737 0.5 12.8942V10.952C0.5 10.6277 0.592333 10.3305 0.777 10.0605C0.961667 9.79067 1.20267 9.57375 1.5 9.40975L1.54625 8.13275C1.62825 7.04425 1.91092 6.03592 2.39425 5.10775C2.87758 4.17958 3.49742 3.37158 4.25375 2.68375C5.01025 1.99592 5.88333 1.46 6.873 1.076C7.86283 0.691999 8.90517 0.5 10 0.5C11.0948 0.5 12.1346 0.691999 13.1193 1.076C14.1039 1.46 14.977 1.99333 15.7385 2.676C16.5 3.35867 17.1198 4.16408 17.598 5.09225C18.0762 6.02058 18.3614 7.02892 18.4538 8.11725L18.5 9.36925C18.791 9.50642 19.0304 9.70258 19.2183 9.95775C19.4061 10.2129 19.5 10.4975 19.5 10.8115V13.0442C19.5 13.3582 19.4061 13.6428 19.2183 13.898C19.0304 14.1532 18.791 14.3493 18.5 14.4865V15.7212C18.5 16.2134 18.3234 16.6329 17.9703 16.9797C17.6169 17.3266 17.1909 17.5 16.6923 17.5H9.38475ZM7.19225 10.7692C6.94742 10.7692 6.73875 10.6862 6.56625 10.5203C6.39392 10.3542 6.30775 10.1488 6.30775 9.90375C6.30775 9.65892 6.39392 9.45192 6.56625 9.28275C6.73875 9.11342 6.94742 9.02875 7.19225 9.02875C7.43725 9.02875 7.64592 9.11342 7.81825 9.28275C7.99075 9.45192 8.077 9.65892 8.077 9.90375C8.077 10.1488 7.99075 10.3542 7.81825 10.5203C7.64592 10.6862 7.43725 10.7692 7.19225 10.7692ZM12.8077 10.7692C12.5627 10.7692 12.3541 10.6862 12.1818 10.5203C12.0093 10.3542 11.923 10.1488 11.923 9.90375C11.923 9.65892 12.0093 9.45192 12.1818 9.28275C12.3541 9.11342 12.5627 9.02875 12.8077 9.02875C13.0526 9.02875 13.2612 9.11342 13.4337 9.28275C13.6061 9.45192 13.6923 9.65892 13.6923 9.90375C13.6923 10.1488 13.6061 10.3542 13.4337 10.5203C13.2612 10.6862 13.0526 10.7692 12.8077 10.7692ZM4.37125 9.2C4.26742 7.568 4.77508 6.1715 5.89425 5.0105C7.01342 3.84967 8.39867 3.26925 10.05 3.26925C11.4372 3.26925 12.6612 3.69842 13.722 4.55675C14.783 5.41508 15.4269 6.52625 15.6538 7.89025C14.2333 7.87358 12.9208 7.50058 11.7163 6.77125C10.5118 6.04175 9.58708 5.04175 8.94225 3.77125C8.68842 5.01475 8.15642 6.11408 7.34625 7.06925C6.53592 8.02442 5.54425 8.73467 4.37125 9.2Z" fill="#402013"/>
</svg>
