<svg width="20" height="16" viewBox="0 0 20 16" fill="none" xmlns="http://www.w3.org/2000/svg">
<path d="M14.9392 10.3079C14.3162 10.3079 13.7854 10.0886 13.3469 9.65013C12.9084 9.21163 12.6892 8.68088 12.6892 8.05788C12.6892 7.43472 12.9084 6.90388 13.3469 6.46538C13.7854 6.02705 14.3162 5.80788 14.9392 5.80788C15.5624 5.80788 16.0931 6.02705 16.5314 6.46538C16.9699 6.90388 17.1892 7.43472 17.1892 8.05788C17.1892 8.68088 16.9699 9.21163 16.5314 9.65013C16.0931 10.0886 15.5624 10.3079 14.9392 10.3079ZM10.1892 15.3079V14.1579C10.1892 13.8027 10.28 13.4766 10.4617 13.1796C10.6434 12.8826 10.9013 12.669 11.2354 12.5386C11.8171 12.295 12.4189 12.1122 13.0409 11.9904C13.6629 11.8687 14.2957 11.8079 14.9392 11.8079C15.5699 11.8079 16.1964 11.8687 16.8189 11.9904C17.4414 12.1122 18.0495 12.295 18.6432 12.5386C18.9774 12.669 19.2352 12.8826 19.4167 13.1796C19.5984 13.4766 19.6892 13.8027 19.6892 14.1579V15.3079H10.1892ZM7.80469 7.69238C6.84219 7.69238 6.01819 7.34972 5.33269 6.66438C4.64735 5.97888 4.30469 5.15488 4.30469 4.19238C4.30469 3.22988 4.64735 2.40597 5.33269 1.72063C6.01819 1.03513 6.84219 0.692383 7.80469 0.692383C8.76719 0.692383 9.5911 1.03513 10.2764 1.72063C10.9619 2.40597 11.3047 3.22988 11.3047 4.19238C11.3047 5.15488 10.9619 5.97888 10.2764 6.66438C9.5911 7.34972 8.76719 7.69238 7.80469 7.69238ZM0.304688 15.3079V13.0846C0.304688 12.5851 0.435104 12.126 0.695938 11.7071C0.956938 11.2883 1.31494 10.9731 1.76994 10.7616C2.71227 10.2873 3.69035 9.92638 4.70419 9.67888C5.71802 9.43155 6.75152 9.30788 7.80469 9.30788C8.29819 9.30788 8.79177 9.34347 9.28544 9.41463C9.77894 9.4858 10.2725 9.57197 10.7662 9.67313C10.5534 9.88913 10.3405 10.1052 10.1277 10.3214L9.48919 10.9694C9.20852 10.902 8.92777 10.8583 8.64694 10.8381C8.3661 10.818 8.08535 10.8079 7.80469 10.8079C6.87002 10.8079 5.95144 10.9149 5.04894 11.1289C4.14627 11.343 3.28277 11.6668 2.45844 12.1001C2.2661 12.2026 2.10902 12.3369 1.98719 12.5029C1.86552 12.669 1.80469 12.863 1.80469 13.0846V13.8079H7.80469V15.3079H0.304688ZM7.80469 6.19238C8.35469 6.19238 8.82552 5.99655 9.21719 5.60488C9.60885 5.21322 9.80469 4.74238 9.80469 4.19238C9.80469 3.64238 9.60885 3.17155 9.21719 2.77988C8.82552 2.38822 8.35469 2.19238 7.80469 2.19238C7.25469 2.19238 6.78385 2.38822 6.39219 2.77988C6.00052 3.17155 5.80469 3.64238 5.80469 4.19238C5.80469 4.74238 6.00052 5.21322 6.39219 5.60488C6.78385 5.99655 7.25469 6.19238 7.80469 6.19238Z" fill="#402013"/>
</svg>
