<svg width="37" height="28" viewBox="0 0 37 28" fill="none" xmlns="http://www.w3.org/2000/svg">
<path d="M27.7678 18.3269C26.5997 18.3269 25.6045 17.9158 24.7823 17.0936C23.9602 16.2714 23.5491 15.2763 23.5491 14.1082C23.5491 12.9397 23.9602 11.9444 24.7823 11.1222C25.6045 10.3004 26.5997 9.88941 27.7678 9.88941C28.9363 9.88941 29.9314 10.3004 30.7533 11.1222C31.5755 11.9444 31.9866 12.9397 31.9866 14.1082C31.9866 15.2763 31.5755 16.2714 30.7533 17.0936C29.9314 17.9158 28.9363 18.3269 27.7678 18.3269ZM18.8616 27.7019V25.5457C18.8616 24.8797 19.0319 24.2683 19.3725 23.7114C19.7131 23.1546 20.1967 22.7539 20.8233 22.5096C21.9139 22.0527 23.0423 21.71 24.2086 21.4816C25.3748 21.2535 26.5613 21.1394 27.7678 21.1394C28.9503 21.1394 30.1252 21.2535 31.2923 21.4816C32.4595 21.71 33.5997 22.0527 34.7128 22.5096C35.3394 22.7539 35.8228 23.1546 36.1631 23.7114C36.5038 24.2683 36.6741 24.8797 36.6741 25.5457V27.7019H18.8616ZM14.3906 13.4229C12.5859 13.4229 11.0409 12.7804 9.75563 11.4954C8.47062 10.21 7.82813 8.66504 7.82813 6.86035C7.82813 5.05566 8.47062 3.51082 9.75563 2.22582C11.0409 0.940508 12.5859 0.297852 14.3906 0.297852C16.1953 0.297852 17.7402 0.940508 19.0252 2.22582C20.3105 3.51082 20.9531 5.05566 20.9531 6.86035C20.9531 8.66504 20.3105 10.21 19.0252 11.4954C17.7402 12.7804 16.1953 13.4229 14.3906 13.4229ZM0.328125 27.7019V23.5333C0.328125 22.5968 0.572656 21.7358 1.06172 20.9505C1.55109 20.1652 2.22234 19.5743 3.07547 19.1777C4.84234 18.2883 6.67625 17.6116 8.57719 17.1475C10.4781 16.6838 12.4159 16.4519 14.3906 16.4519C15.3159 16.4519 16.2414 16.5186 17.167 16.6521C18.0923 16.7855 19.0178 16.9471 19.9434 17.1368C19.5444 17.5418 19.1453 17.9469 18.7463 18.3522L17.5491 19.5672C17.0228 19.441 16.4964 19.3589 15.9698 19.3211C15.4433 19.2833 14.9169 19.2644 14.3906 19.2644C12.6381 19.2644 10.9158 19.465 9.22359 19.8663C7.53109 20.2679 5.91203 20.8749 4.36641 21.6874C4.00578 21.8796 3.71125 22.1313 3.48281 22.4425C3.25469 22.7541 3.14063 23.1177 3.14063 23.5333V24.8894H14.3906V27.7019H0.328125ZM14.3906 10.6104C15.4219 10.6104 16.3047 10.2432 17.0391 9.50879C17.7734 8.77442 18.1406 7.8916 18.1406 6.86035C18.1406 5.8291 17.7734 4.94629 17.0391 4.21191C16.3047 3.47754 15.4219 3.11035 14.3906 3.11035C13.3594 3.11035 12.4766 3.47754 11.7422 4.21191C11.0078 4.94629 10.6406 5.8291 10.6406 6.86035C10.6406 7.8916 11.0078 8.77442 11.7422 9.50879C12.4766 10.2432 13.3594 10.6104 14.3906 10.6104Z" fill="#FF6500"/>
</svg>
