<svg width="20" height="20" viewBox="0 0 20 20" fill="none" xmlns="http://www.w3.org/2000/svg">
<g id="vuesax/bold/whatsapp">
<g id="whatsapp">
<path id="Vector" d="M18.3166 9.50805C18.0333 4.67472 13.6416 0.949724 8.58329 1.78306C5.09995 2.35806 2.30829 5.18304 1.76663 8.66637C1.44996 10.683 1.86664 12.5914 2.77498 14.1664L2.0333 16.9247C1.86663 17.5497 2.44162 18.1164 3.05828 17.9414L5.77496 17.1914C7.00829 17.9164 8.44995 18.333 9.99162 18.333C14.6916 18.333 18.5916 14.1914 18.3166 9.50805ZM14.0666 13.0997C13.9916 13.2497 13.8999 13.3914 13.7833 13.5247C13.5749 13.7497 13.3499 13.9164 13.0999 14.0164C12.8499 14.1247 12.575 14.1747 12.2833 14.1747C11.8583 14.1747 11.4 14.0747 10.925 13.8664C10.4416 13.6581 9.96664 13.383 9.49164 13.0414C9.00831 12.6914 8.5583 12.2997 8.12496 11.8747C7.69163 11.4414 7.30828 10.983 6.95828 10.508C6.61661 10.033 6.34163 9.55804 6.14163 9.08304C5.94163 8.60804 5.84164 8.14972 5.84164 7.71639C5.84164 7.43305 5.89163 7.15805 5.99163 6.90805C6.09163 6.64972 6.24998 6.41639 6.47498 6.20806C6.74165 5.94139 7.03329 5.81639 7.34163 5.81639C7.45829 5.81639 7.57494 5.84138 7.68327 5.89138C7.7916 5.94138 7.89163 6.01638 7.96663 6.12472L8.93327 7.49137C9.00827 7.5997 9.06662 7.69138 9.09995 7.78304C9.14162 7.87471 9.15829 7.95804 9.15829 8.04137C9.15829 8.14137 9.12497 8.24139 9.06663 8.34139C9.0083 8.44139 8.93328 8.54137 8.83328 8.64137L8.51661 8.9747C8.46661 9.0247 8.44998 9.07471 8.44998 9.14138C8.44998 9.17471 8.45827 9.20804 8.46661 9.24138C8.48327 9.27471 8.49164 9.29971 8.49997 9.32471C8.57497 9.46638 8.70828 9.64137 8.89162 9.85803C9.08328 10.0747 9.28332 10.2997 9.49998 10.5164C9.72498 10.7414 9.94164 10.9414 10.1666 11.133C10.3833 11.3164 10.5666 11.4414 10.7083 11.5164C10.7333 11.5247 10.7583 11.5414 10.7833 11.5497C10.8166 11.5664 10.85 11.5664 10.8916 11.5664C10.9666 11.5664 11.0167 11.5414 11.0667 11.4914L11.3833 11.1747C11.4916 11.0664 11.5916 10.9914 11.6833 10.9414C11.7833 10.883 11.875 10.8497 11.9833 10.8497C12.0666 10.8497 12.15 10.8664 12.2416 10.908C12.3333 10.9497 12.4333 10.9997 12.5333 11.0747L13.9166 12.058C14.025 12.133 14.0999 12.2247 14.1499 12.3247C14.1916 12.4331 14.2166 12.533 14.2166 12.6497C14.1666 12.7914 14.1333 12.9497 14.0666 13.0997Z" fill="#4CAF50"/>
</g>
</g>
</svg>
