<svg width="20" height="20" viewBox="0 0 20 20" fill="none" xmlns="http://www.w3.org/2000/svg">
<g id="Ages" clip-path="url(#clip0_11942_119312)">
<path id="Vector" d="M19.677 10.9485C19.1874 10.1227 18.4902 9.43085 17.6607 8.9479C17.4305 8.81378 17.191 8.69736 16.9451 8.59787C16.9866 8.56048 17.0273 8.52218 17.0671 8.48221C18.2997 7.24975 18.2997 5.24429 17.0671 4.01184C15.8347 2.77924 13.8292 2.77924 12.5968 4.01184C12.0238 4.58466 11.7176 5.32471 11.6774 6.07635C11.1794 5.76324 10.6028 5.59479 10 5.59479C9.39793 5.59479 8.82206 5.76294 8.32432 6.07529C8.28281 5.29556 7.95979 4.56818 7.4033 4.01184C6.80622 3.41476 6.01246 3.08594 5.16804 3.08594C4.32377 3.08594 3.52986 3.41476 2.93293 4.01184C2.33586 4.60892 2.00703 5.40268 2.00703 6.2471C2.00703 7.09137 2.33586 7.88528 2.93293 8.48221C2.97261 8.52203 3.0135 8.56048 3.055 8.59787C2.80903 8.69736 2.56962 8.81378 2.33937 8.9479C1.5099 9.43085 0.812725 10.1227 0.32307 10.9485C-0.101582 11.6649 -0.10799 12.5265 0.306133 13.2533C0.724376 13.9876 1.4777 14.426 2.32106 14.426H4.84089C4.80091 14.8804 4.89964 15.3436 5.13813 15.7622C5.55638 16.4964 6.3097 16.9348 7.15305 16.9348H12.8472C13.6905 16.9348 14.4437 16.4964 14.8621 15.7622C15.1004 15.3436 15.1992 14.8804 15.1592 14.426H17.679C18.5224 14.426 19.2757 13.9876 19.6939 13.2533C20.1081 12.5265 20.1017 11.6649 19.677 10.9485ZM18.6324 12.6485C18.4342 12.9965 18.0777 13.2042 17.679 13.2042H14.6848C14.2083 12.4901 13.5718 11.8895 12.8287 11.4568C12.5985 11.3228 12.3592 11.2062 12.1132 11.1067C12.1546 11.0693 12.1955 11.031 12.2353 10.9912C12.5716 10.6549 12.8228 10.256 12.9781 9.82086C13.5515 9.55398 14.1832 9.40811 14.832 9.40811C16.3811 9.40811 17.835 10.2371 18.626 11.5715C18.824 11.9054 18.8263 12.308 18.6324 12.6485ZM13.794 14.0803C13.992 14.4144 13.9945 14.817 13.8004 15.1575C13.6022 15.5054 13.2459 15.7132 12.847 15.7132H7.15305C6.75419 15.7132 6.39775 15.5054 6.19953 15.1575C6.00559 14.817 6.00804 14.4144 6.20594 14.0803C6.99711 12.746 8.45081 11.917 10 11.917C11.5493 11.917 13.003 12.746 13.794 14.0803ZM1.36769 12.6486C1.17359 12.308 1.17604 11.9054 1.3741 11.5715C2.16511 10.2371 3.61882 9.40811 5.16804 9.40811C5.81669 9.40811 6.4484 9.55398 7.02198 9.82086C7.17732 10.2559 7.42848 10.6548 7.76478 10.9912C7.80461 11.0309 7.84535 11.0693 7.88685 11.1067C7.64088 11.2062 7.40162 11.3228 7.17121 11.4568C6.42826 11.8895 5.79182 12.4901 5.31513 13.2042H2.32106C1.92234 13.2042 1.5659 12.9965 1.36769 12.6486ZM3.79673 7.61841C3.43052 7.25204 3.2288 6.76498 3.2288 6.2471C3.2288 5.72906 3.43052 5.242 3.79673 4.87564C4.1631 4.50943 4.65 4.30771 5.16804 4.30771C5.68608 4.30771 6.17314 4.50943 6.5395 4.87564C6.90571 5.242 7.10743 5.72906 7.10743 6.2471C7.10743 6.76498 6.90571 7.25204 6.5395 7.61841C6.17314 7.98462 5.68608 8.18649 5.16804 8.18649C4.65 8.18649 4.1631 7.98462 3.79673 7.61841ZM14.8319 4.30862C15.3286 4.30862 15.8252 4.49753 16.2033 4.87564C16.9594 5.63187 16.9594 6.86218 16.2033 7.61841C15.4471 8.37463 14.2168 8.37448 13.4606 7.61841C12.7045 6.86218 12.7045 5.63187 13.4606 4.87564C13.8387 4.49768 14.3354 4.30862 14.8319 4.30862ZM11.3713 7.38464C11.7377 7.75085 11.9394 8.23791 11.9394 8.75595C11.9394 9.27398 11.7377 9.76089 11.3713 10.1273C11.0051 10.4936 10.5181 10.6953 10 10.6953C9.482 10.6953 8.99494 10.4936 8.62873 10.1273C8.26237 9.76089 8.06065 9.27398 8.06065 8.75595C8.06065 8.23791 8.26237 7.75085 8.62873 7.38464C8.99494 7.01828 9.482 6.81656 10 6.81656C10.5181 6.81656 11.0051 7.01828 11.3713 7.38464Z" fill="#808080"/>
</g>
<defs>
<clipPath id="clip0_11942_119312">
<rect width="20" height="20" fill="white"/>
</clipPath>
</defs>
</svg>
