<svg width="20" height="20" viewBox="0 0 20 20" fill="none" xmlns="http://www.w3.org/2000/svg">
<g id="Group">
<g id="Group_2">
<path id="Vector" d="M19.2858 5.08747e-08C19.1748 -4.18012e-05 19.0654 0.0257391 18.9661 0.0753337L13.5534 2.78245L7.43275 0.0617737C7.42275 0.0575047 7.41133 0.0567514 7.40061 0.0524825C7.37307 0.0421869 7.34491 0.0336072 7.31632 0.0267854C7.2879 0.0191264 7.25903 0.0131416 7.2299 0.00891453C7.17189 0.0041434 7.11359 0.0041434 7.05563 0.00891453C7.0265 0.0131416 6.99762 0.0191264 6.9692 0.0267854C6.94062 0.0336072 6.91245 0.0421869 6.88491 0.0524825C6.8742 0.0567514 6.86277 0.0574629 6.85277 0.0617737L0.424296 2.91889C0.166236 3.03348 -4.18441e-05 3.28936 7.89875e-09 3.57169V19.2858C0.000125564 19.5274 0.122375 19.7526 0.324981 19.8843C0.527629 20.0162 0.783219 20.0367 1.00424 19.9386L7.14272 17.2101L13.2812 19.9386C13.2919 19.9429 13.3033 19.9386 13.3141 19.945C13.487 20.0224 13.6855 20.018 13.8547 19.9329C13.8662 19.9279 13.879 19.9329 13.8904 19.925L19.6046 17.0679C19.8468 16.9469 19.9997 16.6994 19.9996 16.4286V0.714624C19.9999 0.320126 19.6802 0.000167459 19.2858 5.08747e-08ZM6.42847 15.9644L1.42854 18.1865V4.036L6.42847 1.81387V15.9644ZM12.8569 18.1865L7.85701 15.9644V1.81387L12.8569 4.03596V18.1865ZM18.5711 15.9872L14.2855 18.1301V4.01311L18.5711 1.87028V15.9872Z" fill="#808080"/>
</g>
</g>
</svg>
