<svg width="20" height="20" viewBox="0 0 20 20" fill="none" xmlns="http://www.w3.org/2000/svg">
<g id="Rounded - Bold/fi-br-caret-down">
<path id="Vector" d="M5.345 7.5H14.655C14.8198 7.50004 14.9809 7.54893 15.1179 7.6405C15.2549 7.73207 15.3617 7.8622 15.4247 8.01445C15.4878 8.1667 15.5043 8.33423 15.4721 8.49586C15.44 8.65748 15.3607 8.80595 15.2442 8.9225L10.5892 13.5775C10.4329 13.7337 10.221 13.8215 10 13.8215C9.77903 13.8215 9.5671 13.7337 9.41083 13.5775L4.75583 8.9225C4.63932 8.80595 4.55998 8.65748 4.52784 8.49586C4.4957 8.33423 4.51221 8.1667 4.57527 8.01445C4.63832 7.8622 4.74511 7.73207 4.88211 7.6405C5.01912 7.54893 5.1802 7.50004 5.345 7.5Z" fill="#1A1A1A"/>
</g>
</svg>
