<svg width="20" height="14" viewBox="0 0 20 14" fill="none" xmlns="http://www.w3.org/2000/svg">
<g id="Group 26961">
<g id="reio">
<rect id="Rectangle 8994" x="1.17236" y="1" width="17.6551" height="11" fill="#FE4040"/>
<path id="Vector" d="M11.3801 10.75C11.1988 10.75 11.0194 10.7823 10.8519 10.8452C10.6845 10.9081 10.5323 11.0002 10.4042 11.1163C10.276 11.2325 10.1744 11.3703 10.105 11.5221C10.0357 11.6738 9.99997 11.8365 9.99997 12.0007C9.99997 11.8365 9.96427 11.6738 9.89492 11.5221C9.82556 11.3703 9.7239 11.2325 9.59575 11.1163C9.46759 11.0002 9.31545 10.9081 9.14801 10.8452C8.98056 10.7823 8.8011 10.75 8.61986 10.75H1.72412V12L8.61969 11.9993C8.80095 11.9993 8.98043 12.0316 9.14789 12.0944C9.31535 12.1573 9.46751 12.2494 9.59569 12.3655C9.72386 12.4817 9.82553 12.6196 9.8949 12.7713C9.96427 12.9231 9.99997 13.0857 9.99997 13.25C9.99997 13.0857 10.0357 12.9231 10.105 12.7713C10.1744 12.6196 10.2761 12.4817 10.4042 12.3655C10.5324 12.2494 10.6846 12.1573 10.852 12.0944C11.0195 12.0316 11.199 11.9993 11.3802 11.9993L18.2758 12V10.75H11.3801Z" fill="#FFF200"/>
<path id="Vector_2" d="M10 13.5625H0.344844C0.299436 13.5629 0.254395 13.5551 0.212356 13.5396C0.170318 13.524 0.132126 13.501 0.100016 13.4719C0.0679062 13.4428 0.0425233 13.4082 0.0253528 13.3701C0.00818222 13.332 -0.000431105 13.2912 1.68224e-05 13.25V2.00002C-0.00043392 1.95886 0.00817747 1.91804 0.025347 1.87994C0.0425166 1.84185 0.0678994 1.80723 0.10001 1.77813C0.13212 1.74903 0.170313 1.72603 0.212353 1.71047C0.254393 1.69491 0.299435 1.68711 0.344844 1.68752H1.37932V12C1.37888 12.0412 1.38749 12.082 1.40466 12.1201C1.42183 12.1582 1.44721 12.1928 1.47932 12.2219C1.51143 12.251 1.54963 12.274 1.59166 12.2896C1.6337 12.3051 1.67874 12.3129 1.72415 12.3125H8.62069C8.75718 12.3123 8.8923 12.3371 9.01793 12.3854C9.14356 12.4338 9.2571 12.5046 9.35173 12.5938C9.46266 12.6871 9.54368 12.8059 9.58621 12.9375C9.63281 13.0362 9.65629 13.1426 9.65517 13.25C9.65473 13.2912 9.66334 13.332 9.68051 13.3701C9.69768 13.4082 9.72306 13.4428 9.75517 13.4719C9.78728 13.501 9.82547 13.524 9.86751 13.5396C9.90955 13.5551 9.95459 13.5629 10 13.5625Z" fill="#FE4040"/>
<path id="Vector_3" d="M20 2.00002V13.25C20.0004 13.2912 19.9918 13.332 19.9746 13.3701C19.9575 13.4082 19.9321 13.4428 19.9 13.4719C19.8679 13.501 19.8297 13.524 19.7876 13.5396C19.7456 13.5551 19.7006 13.5629 19.6552 13.5625H10C10.0454 13.5629 10.0904 13.5551 10.1325 13.5396C10.1745 13.524 10.2127 13.501 10.2448 13.4719C10.2769 13.4428 10.3023 13.4082 10.3195 13.3701C10.3367 13.332 10.3453 13.2912 10.3448 13.25C10.3441 13.1433 10.3651 13.0373 10.4069 12.9375C10.4776 12.7549 10.6092 12.5967 10.7833 12.4848C10.9575 12.3728 11.1658 12.3126 11.3793 12.3125H18.2758C18.3666 12.3105 18.453 12.2769 18.5172 12.2188C18.5814 12.1606 18.6184 12.0823 18.6207 12V1.68752H19.6552C19.7006 1.68711 19.7456 1.69491 19.7876 1.71047C19.8297 1.72603 19.8679 1.74903 19.9 1.77813C19.9321 1.80723 19.9575 1.84185 19.9747 1.87994C19.9918 1.91804 20.0004 1.95886 20 2.00002Z" fill="#FE4040"/>
<path id="Vector_4" d="M16.2069 2.9375H14.4827V2.625C14.4827 2.54212 14.4464 2.46263 14.3817 2.40403C14.3171 2.34542 14.2294 2.3125 14.1379 2.3125C14.0465 2.3125 13.9587 2.34542 13.8941 2.40403C13.8294 2.46263 13.7931 2.54212 13.7931 2.625V2.9375H12.0689C11.9775 2.9375 11.8898 2.97042 11.8251 3.02903C11.7605 3.08763 11.7241 3.16712 11.7241 3.25C11.7241 3.33288 11.7605 3.41237 11.8251 3.47097C11.8898 3.52958 11.9775 3.5625 12.0689 3.5625H15.1724V3.875C15.1718 4.2266 15.0776 4.57289 14.8978 4.88442C14.7179 5.19595 14.4577 5.46352 14.1392 5.66437C13.6651 5.36804 13.3245 4.92702 13.1795 4.42188C13.1682 4.38212 13.1484 4.34477 13.1211 4.31197C13.0939 4.27917 13.0598 4.25155 13.0207 4.23069C12.9817 4.20984 12.9385 4.19615 12.8937 4.19041C12.8488 4.18468 12.8031 4.18701 12.7593 4.19727C12.7154 4.20753 12.6742 4.22551 12.638 4.25021C12.6018 4.2749 12.5713 4.30581 12.5483 4.34118C12.5253 4.37654 12.5102 4.41567 12.5039 4.45633C12.4975 4.49698 12.5001 4.53837 12.5114 4.57812C12.6658 5.11282 12.9918 5.59394 13.4483 5.96049C13.2252 6.02507 12.9928 6.05944 12.7586 6.0625C12.6671 6.0625 12.5794 6.09542 12.5148 6.15403C12.4501 6.21263 12.4138 6.29212 12.4138 6.375C12.4138 6.45788 12.4501 6.53737 12.5148 6.59597C12.5794 6.65458 12.6671 6.6875 12.7586 6.6875C13.2355 6.68475 13.7052 6.58117 14.1302 6.385C14.5602 6.58242 15.0352 6.68601 15.5172 6.6875C15.6087 6.6875 15.6964 6.65458 15.761 6.59597C15.8257 6.53737 15.862 6.45788 15.862 6.375C15.862 6.29212 15.8257 6.21263 15.761 6.15403C15.6964 6.09542 15.6087 6.0625 15.5172 6.0625C15.2799 6.06091 15.0442 6.02752 14.8176 5.96339C15.1447 5.702 15.407 5.3807 15.587 5.02072C15.767 4.66073 15.8608 4.27023 15.862 3.875V3.5625H16.2069C16.2983 3.5625 16.386 3.52958 16.4507 3.47097C16.5154 3.41237 16.5517 3.33288 16.5517 3.25C16.5517 3.16712 16.5154 3.08763 16.4507 3.02903C16.386 2.97042 16.2983 2.9375 16.2069 2.9375Z" fill="black"/>
<path id="Vector_5" d="M5.86195 2.3125C5.40473 2.31265 4.96629 2.47732 4.64299 2.77031C4.31969 3.0633 4.13798 3.46065 4.13782 3.875V6.375C4.13782 6.45788 4.17415 6.53737 4.23881 6.59597C4.30348 6.65458 4.39119 6.6875 4.48264 6.6875C4.5741 6.6875 4.66181 6.65458 4.72647 6.59597C4.79114 6.53737 4.82747 6.45788 4.82747 6.375V5.4375H6.89643V6.375C6.89643 6.45788 6.93276 6.53737 6.99743 6.59597C7.0621 6.65458 7.14981 6.6875 7.24126 6.6875C7.33271 6.6875 7.42042 6.65458 7.48509 6.59597C7.54976 6.53737 7.58609 6.45788 7.58609 6.375V3.875C7.58592 3.46065 7.40422 3.0633 7.08092 2.77031C6.75761 2.47732 6.31917 2.31265 5.86195 2.3125ZM6.89643 4.8125H4.82747V3.875C4.82747 3.62636 4.93646 3.3879 5.13046 3.21209C5.32447 3.03627 5.58759 2.9375 5.86195 2.9375C6.13631 2.9375 6.39944 3.03627 6.59344 3.21209C6.78744 3.3879 6.89643 3.62636 6.89643 3.875V4.8125Z" fill="black"/>
<path id="Vector_6" d="M7.93099 8.5625H3.79307C3.70162 8.5625 3.61391 8.52958 3.54924 8.47097C3.48457 8.41237 3.44824 8.33288 3.44824 8.25C3.44824 8.16712 3.48457 8.08763 3.54924 8.02903C3.61391 7.97042 3.70162 7.9375 3.79307 7.9375H7.93099C8.02245 7.9375 8.11016 7.97042 8.17482 8.02903C8.23949 8.08763 8.27582 8.16712 8.27582 8.25C8.27582 8.33288 8.23949 8.41237 8.17482 8.47097C8.11016 8.52958 8.02245 8.5625 7.93099 8.5625Z" fill="black"/>
<path id="Vector_7" d="M7.93099 9.8125H3.79307C3.70162 9.8125 3.61391 9.77958 3.54924 9.72097C3.48457 9.66237 3.44824 9.58288 3.44824 9.5C3.44824 9.41712 3.48457 9.33763 3.54924 9.27903C3.61391 9.22042 3.70162 9.1875 3.79307 9.1875H7.93099C8.02245 9.1875 8.11016 9.22042 8.17482 9.27903C8.23949 9.33763 8.27582 9.41712 8.27582 9.5C8.27582 9.58288 8.23949 9.66237 8.17482 9.72097C8.11016 9.77958 8.02245 9.8125 7.93099 9.8125Z" fill="black"/>
<path id="Vector_8" d="M16.2069 8.5625H12.0689C11.9775 8.5625 11.8898 8.52958 11.8251 8.47097C11.7605 8.41237 11.7241 8.33288 11.7241 8.25C11.7241 8.16712 11.7605 8.08763 11.8251 8.02903C11.8898 7.97042 11.9775 7.9375 12.0689 7.9375H16.2069C16.2983 7.9375 16.386 7.97042 16.4507 8.02903C16.5154 8.08763 16.5517 8.16712 16.5517 8.25C16.5517 8.33288 16.5154 8.41237 16.4507 8.47097C16.386 8.52958 16.2983 8.5625 16.2069 8.5625Z" fill="black"/>
<path id="Vector_9" d="M16.2069 9.8125H12.0689C11.9775 9.8125 11.8898 9.77958 11.8251 9.72097C11.7605 9.66237 11.7241 9.58288 11.7241 9.5C11.7241 9.41712 11.7605 9.33763 11.8251 9.27903C11.8898 9.22042 11.9775 9.1875 12.0689 9.1875H16.2069C16.2983 9.1875 16.386 9.22042 16.4507 9.27903C16.5154 9.33763 16.5517 9.41712 16.5517 9.5C16.5517 9.58288 16.5154 9.66237 16.4507 9.72097C16.386 9.77958 16.2983 9.8125 16.2069 9.8125Z" fill="black"/>
<path id="Vector_10" d="M1.72416 9.8125C1.9146 9.8125 2.06899 9.67259 2.06899 9.5C2.06899 9.32741 1.9146 9.1875 1.72416 9.1875C1.53372 9.1875 1.37933 9.32741 1.37933 9.5C1.37933 9.67259 1.53372 9.8125 1.72416 9.8125Z" fill="black"/>
<path id="Vector_11" d="M18.2759 0.437515H11.3793C11.1103 0.438017 10.8452 0.496006 10.6056 0.606772C10.3659 0.717539 10.1584 0.877961 10 1.07502C9.84161 0.877961 9.63416 0.717539 9.3945 0.606772C9.15484 0.496006 8.88974 0.438017 8.62072 0.437515H1.72418C1.67877 0.437107 1.63373 0.444911 1.59169 0.460471C1.54965 0.476031 1.51145 0.499034 1.47934 0.528134C1.44723 0.557234 1.42185 0.591846 1.40468 0.629945C1.38751 0.668044 1.3789 0.708864 1.37935 0.750015V8.25002C1.37935 8.3329 1.41568 8.41238 1.48035 8.47099C1.54502 8.52959 1.63272 8.56252 1.72418 8.56252C1.81563 8.56252 1.90334 8.52959 1.96801 8.47099C2.03267 8.41238 2.069 8.3329 2.069 8.25002V1.06252H8.62072C8.75662 1.06235 8.89122 1.08649 9.01681 1.13354C9.1424 1.1806 9.25651 1.24965 9.35261 1.33674C9.44871 1.42382 9.5249 1.52724 9.57682 1.64105C9.62875 1.75487 9.65538 1.87685 9.6552 2.00002V12C9.35667 11.7973 8.99374 11.6877 8.62072 11.6875H2.069V10.75C2.069 10.6671 2.03267 10.5876 1.96801 10.529C1.90334 10.4704 1.81563 10.4375 1.72418 10.4375C1.63272 10.4375 1.54502 10.4704 1.48035 10.529C1.41568 10.5876 1.37935 10.6671 1.37935 10.75V12C1.3789 12.0412 1.38752 12.082 1.40469 12.1201C1.42186 12.1582 1.44724 12.1928 1.47935 12.2219C1.51146 12.251 1.54965 12.274 1.59169 12.2896C1.63373 12.3051 1.67877 12.3129 1.72418 12.3125H8.62072C8.7572 12.3123 8.89232 12.3371 9.01796 12.3854C9.14359 12.4338 9.25713 12.5046 9.35175 12.5938C9.46269 12.6871 9.54371 12.8059 9.58623 12.9375C9.63283 13.0362 9.65632 13.1426 9.6552 13.25C9.6552 13.3329 9.69153 13.4124 9.7562 13.471C9.82086 13.5296 9.90857 13.5625 10 13.5625C10.0915 13.5625 10.1792 13.5296 10.2439 13.471C10.3085 13.4124 10.3449 13.3329 10.3449 13.25C10.3441 13.1433 10.3652 13.0373 10.4069 12.9375C10.4776 12.7549 10.6092 12.5967 10.7834 12.4848C10.9576 12.3728 11.1658 12.3126 11.3793 12.3125H18.2759C18.3666 12.3105 18.453 12.2769 18.5172 12.2188C18.5814 12.1606 18.6185 12.0823 18.6207 12V0.750015C18.6211 0.708864 18.6125 0.668044 18.5954 0.629945C18.5782 0.591846 18.5528 0.557234 18.5207 0.528134C18.4886 0.499034 18.4504 0.476031 18.4084 0.460471C18.3663 0.444911 18.3213 0.437107 18.2759 0.437515ZM17.931 11.6875H11.3793C11.0065 11.6887 10.6439 11.7982 10.3449 12V2.00002C10.3447 1.87685 10.3713 1.75487 10.4232 1.64105C10.4752 1.52724 10.5513 1.42382 10.6474 1.33674C10.7435 1.24965 10.8576 1.1806 10.9832 1.13354C11.1088 1.08649 11.2434 1.06235 11.3793 1.06252H17.931V11.6875Z" fill="black"/>
<path id="Vector_12" d="M1.72416 9.8125C1.9146 9.8125 2.06899 9.67259 2.06899 9.5C2.06899 9.32741 1.9146 9.1875 1.72416 9.1875C1.53372 9.1875 1.37933 9.32741 1.37933 9.5C1.37933 9.67259 1.53372 9.8125 1.72416 9.8125Z" fill="black"/>
</g>
</g>
</svg>
