<svg width="20" height="15" viewBox="0 0 20 15" fill="none" xmlns="http://www.w3.org/2000/svg">
<g id="Group 26960">
<path id="Vector" d="M18.1818 0H1.81818C0.818182 0 0 0.818182 0 1.81818V12.7273C0 13.7273 0.818182 14.5455 1.81818 14.5455H18.1818C19.1818 14.5455 20 13.7273 20 12.7273V1.81818C20 0.818182 19.1818 0 18.1818 0Z" fill="#ED1C24"/>
<path id="Vector_2" opacity="0.3" d="M18.1818 14.5455C19.1818 14.5455 20 13.7273 20 12.7273V1.81818C20 0.818182 19.1818 0 18.1818 0H16.3636C16.4545 0.181818 20.5454 7 16.3636 14.5455" fill="black"/>
<g id="Group">
<path id="Vector_3" d="M4.64531 3.93896L5.67985 6.03442L7.99258 6.37078L6.31894 8.0026L6.7144 10.3062L4.64531 9.21805L2.57622 10.3062L2.97167 8.0026L1.29803 6.37078L3.61076 6.03442L4.64531 3.93896Z" fill="#FFF200"/>
<path id="Vector_4" d="M8.57598 3.24402L8.79234 3.6822L9.27507 3.75311L8.92598 4.09402L9.0078 4.57493L8.57598 4.34765L8.14325 4.57493L8.22598 4.09402L7.87598 3.75311L8.35961 3.6822L8.57598 3.24402Z" fill="#FFF200"/>
<path id="Vector_5" d="M8.57598 10.0471L8.79234 10.4853L9.27507 10.5562L8.92598 10.8971L9.0078 11.378L8.57598 11.1508L8.14325 11.378L8.22598 10.8971L7.87598 10.5562L8.35961 10.4853L8.57598 10.0471Z" fill="#FFF200"/>
<path id="Vector_6" d="M10.6622 5.06763L10.8786 5.50581L11.3613 5.57581L11.0122 5.91672L11.094 6.39854L10.6622 6.17126L10.2295 6.39854L10.3122 5.91672L9.96222 5.57581L10.4459 5.50581L10.6622 5.06763Z" fill="#FFF200"/>
<path id="Vector_7" d="M10.6622 7.77942L10.8786 8.2176L11.3613 8.2876L11.0122 8.62851L11.094 9.11033L10.6622 8.88305L10.2295 9.11033L10.3122 8.62851L9.96222 8.2876L10.4459 8.2176L10.6622 7.77942Z" fill="#FFF200"/>
</g>
</g>
</svg>
