<svg width="20" height="20" viewBox="0 0 20 20" fill="none" xmlns="http://www.w3.org/2000/svg">
<g id="Page-1">
<g id="037---Waypoint-Flag">
<path id="Shape" d="M19.6913 9.16866C18.4358 8.54405 17.2744 7.74604 16.2411 6.79807C16.7719 4.79102 17.1657 2.75023 17.4198 0.689799C17.4794 0.209799 17.2122 0.0548986 17.1292 0.0189319C16.8953 -0.0701081 16.631 0.0175348 16.4967 0.228699C14.6725 2.41133 12.1737 2.1623 9.52822 1.89717C6.86205 1.6305 4.11135 1.35997 2.07208 3.70097C1.78691 3.345 1.31697 3.19335 0.877516 3.31547L0.831616 3.32833C0.226908 3.49817 -0.126313 4.12534 0.0419158 4.7305L4.11155 19.2935C4.22961 19.715 4.61329 20.0068 5.05102 20.008C5.14026 20.0079 5.22907 19.9956 5.31502 19.9716L5.67112 19.8721C5.92064 19.8024 6.13258 19.6364 6.25968 19.4106C6.38679 19.1849 6.41898 18.9179 6.34918 18.6684L5.08878 14.1575C6.92432 11.7972 9.48212 12.0472 12.1884 12.3175C14.8915 12.5875 17.6838 12.8661 19.7351 10.4132L19.736 10.4119C19.9375 10.1607 20.0205 9.8347 19.9636 9.5178C19.9335 9.36472 19.8325 9.23508 19.6913 9.16866ZM5.67862 19.0835C5.63856 19.1555 5.57131 19.2083 5.49195 19.2302L5.13582 19.3296C4.97084 19.3755 4.79987 19.2792 4.75365 19.1143L0.683816 4.55113C0.614348 4.30034 0.76078 4.04059 1.01132 3.9702L1.05688 3.9575C1.0981 3.94589 1.14073 3.94003 1.18355 3.94007C1.39498 3.9404 1.58049 4.08105 1.63792 4.28453L1.67402 4.41373V4.41443L3.75832 11.8729L5.70725 18.8475C5.72957 18.9269 5.71926 19.0118 5.67862 19.0835ZM19.2229 9.98603C17.3984 12.168 14.8994 11.9185 12.2548 11.654C9.62038 11.3907 6.90148 11.119 4.86975 13.3726L3.04875 6.8566L2.36065 4.39417C4.19625 2.03437 6.75385 2.2902 9.46215 2.5606C12.0337 2.8171 14.6884 3.08273 16.7079 0.990765C16.459 2.8908 16.088 4.77284 15.5972 6.6252C15.5308 6.8647 15.6062 7.12115 15.7916 7.28666C16.8511 8.25668 18.0371 9.07876 19.3173 9.7305C19.3102 9.82278 19.2775 9.91126 19.2229 9.98603Z" fill="#808080"/>
</g>
</g>
</svg>
