<svg width="20" height="20" viewBox="0 0 20 20" fill="none" xmlns="http://www.w3.org/2000/svg">
<path fill-rule="evenodd" clip-rule="evenodd" d="M17.7079 13.1736C15.5096 10.5069 14.4138 10.7461 13.2088 11.3319C12.3746 11.7369 11.6546 12.0886 9.78292 10.2161C7.91126 8.34359 8.26209 7.62442 8.66709 6.79192C9.25459 5.58609 9.49292 4.48775 6.82376 2.29025C6.18792 1.76942 5.49459 1.56942 4.77292 1.70942C3.24542 1.99525 2.16626 3.69525 2.16792 3.69525C1.49126 4.64192 0.564591 7.48859 6.53709 13.4619C10.4654 17.3911 13.0413 18.3336 14.6046 18.3336C15.4188 18.3336 15.9571 18.0786 16.2688 17.8544C16.2863 17.8444 18.0013 16.7819 18.2904 15.2244C18.4254 14.5003 18.2296 13.8111 17.7079 13.1736Z" fill="#FF6500"/>
</svg>
