<svg width="36" height="36" viewBox="0 0 36 36" fill="none" xmlns="http://www.w3.org/2000/svg">
<path d="M0 12.8C0 8.31958 0 6.07937 0.871948 4.36808C1.63893 2.86278 2.86278 1.63893 4.36808 0.871948C6.07937 0 8.31958 0 12.8 0H23.2C27.6804 0 29.9206 0 31.6319 0.871948C33.1372 1.63893 34.3611 2.86278 35.1281 4.36808C36 6.07937 36 8.31958 36 12.8V23.2C36 27.6804 36 29.9206 35.1281 31.6319C34.3611 33.1372 33.1372 34.3611 31.6319 35.1281C29.9206 36 27.6804 36 23.2 36H12.8C8.31958 36 6.07937 36 4.36808 35.1281C2.86278 34.3611 1.63893 33.1372 0.871948 31.6319C0 29.9206 0 27.6804 0 23.2V12.8Z" fill="#FF6500"/>
<g clip-path="url(#clip0_7726_52240)">
<path d="M26.3283 8.61523H9.64737C9.07619 8.61558 8.61317 9.07883 8.61328 9.65024V26.3311C8.61362 26.9023 9.07688 27.3653 9.64828 27.3652H18.6292V20.1143H16.1938V17.2761H18.6292V15.1875C18.6292 12.7653 20.1078 11.447 22.2685 11.447C23.3034 11.447 24.1927 11.5241 24.4519 11.5585V14.0901H22.962C21.7865 14.0901 21.5588 14.6487 21.5588 15.4685V17.2761H24.3695L24.0033 20.1143H21.5588V27.3652H26.3283C26.8998 27.3653 27.3632 26.9022 27.3633 26.3307C27.3633 26.3306 27.3633 26.3305 27.3633 26.3302V9.64932C27.3631 9.07815 26.8997 8.61512 26.3283 8.61523Z" fill="white"/>
</g>
<defs>
<clipPath id="clip0_7726_52240">
<rect width="20" height="20" fill="white" transform="translate(8 8)"/>
</clipPath>
</defs>
</svg>
