<svg width="20" height="20" viewBox="0 0 20 20" fill="none" xmlns="http://www.w3.org/2000/svg">
<path fill-rule="evenodd" clip-rule="evenodd" d="M9.99884 11.2459C8.74134 11.2459 7.718 10.2234 7.718 8.96594C7.718 7.70844 8.74134 6.6851 9.99884 6.6851C11.2563 6.6851 12.2788 7.70844 12.2788 8.96594C12.2788 10.2234 11.2563 11.2459 9.99884 11.2459ZM14.6772 3.87677C13.4013 2.56094 11.7397 1.83594 9.99884 1.83594C8.25634 1.83594 6.59467 2.56094 5.318 3.8776C4.02217 5.21427 3.3105 7.0101 3.36634 8.8051C3.52384 13.8918 9.5155 17.8526 9.77134 18.0184L9.9955 18.1643L10.2222 18.0209C10.4772 17.8593 16.473 13.9943 16.6313 8.80427C16.6863 7.0101 15.9738 5.21344 14.6772 3.87677Z" fill="#FF6500"/>
</svg>
