<svg width="254" height="47" viewBox="0 0 254 47" fill="none" xmlns="http://www.w3.org/2000/svg">
<g id="Group">
<g id="Group_2">
<path id="Vector" d="M46.9321 37.3224C45.9949 37.5682 44.9795 36.7524 45.0514 36.0483C45.1982 33.4555 45.2477 29.7324 45.2717 27.0806C45.0561 20.9466 38.5854 15.5439 31.278 15.4082C20.7552 14.7888 8.92001 22.1967 7.37456 32.1815C5.71735 40.1642 13.3201 48.2411 23.6258 46.0858C28.2813 45.2731 32.3972 42.9773 35.2039 39.9854C18.0299 52.0441 4.01868 36.9152 15.7676 24.3489C22.8291 16.3965 40.1069 16.1969 41.4096 27.0662C41.4767 29.1688 41.5853 33.0165 41.7561 36.0483C42.0083 38.8359 45.7362 40.8763 48.2492 39.7172C52.8057 36.9775 56.679 34.5556 60.5442 31.9644C56.2543 33.5178 51.5221 35.5215 46.9321 37.3224Z" fill="#FF6600"/>
<path id="Vector_2" d="M17.2967 10.7659C16.4633 10.9671 15.8949 11.3998 15.8949 11.834V18.3735C20.5999 15.4039 26.2708 13.8696 31.343 14.1698C35.3136 14.2368 39.0176 15.704 41.7524 18.0398V11.834C41.7524 11.3998 41.1522 10.9671 40.2852 10.7659C33.0114 9.23167 24.636 9.23167 17.2967 10.7659Z" fill="#FF6600"/>
<path id="Vector_3" d="M6.64801 19.1617V9.15297L14.6164 12.2183V11.808C14.6164 10.8166 15.6414 9.92569 17.2108 9.51538C24.5756 7.87254 33.0309 7.87254 40.4276 9.51538C41.997 9.92569 42.9901 10.8166 42.9901 11.808V12.2183L51.8286 8.83047L28.8032 0L5.80983 8.83047L5.81466 8.83207V19.1601L3.35912 21.6156L6.23133 24.4877L9.10347 21.6156L6.64801 19.1617Z" fill="#FF6600"/>
<path id="Vector_4" d="M2.49345 19.094L1.67168 19.916L2.49365 20.7377L3.31541 19.9157L2.49345 19.094Z" fill="#FF6600"/>
<path id="Vector_5" d="M1.734 21.3939L0 23.1279L1.73402 24.8619L3.46801 23.128L1.734 21.3939Z" fill="#FF6600"/>
</g>
<g id="Group_3">
<g id="Group_4">
<g id="Group_5">
<path id="Vector_6" d="M68.4156 28.8353L77.7236 4.46973H83.3225L92.5915 28.8353H87.2966L84.986 22.9713H76.0211L73.7495 28.8353H68.4156ZM76.7751 19.0385H84.2297L80.4841 9.2368L76.7751 19.0385Z" fill="#FF6600"/>
</g>
<g id="Group_6">
<path id="Vector_7" d="M98.27 29.2143C96.5285 29.2143 95.2614 28.813 94.4685 28.0031C93.6732 27.198 93.2768 25.909 93.2768 24.1456V3.33594H98.3843V23.7273C98.3843 24.3572 98.5108 24.7926 98.7638 25.0334C99.0143 25.2717 99.3791 25.3909 99.8583 25.3909C100.515 25.3909 101.108 25.3034 101.636 25.1258V28.6452C100.68 29.0221 99.5566 29.2143 98.27 29.2143Z" fill="#FF6600"/>
</g>
<g id="Group_7">
<path id="Vector_8" d="M103.946 28.8354V14.685H101.261L101.714 10.9005H109.054V28.8354H103.946ZM103.53 7.60978V3.60156H109.093V7.61222H103.53V7.60978Z" fill="#FF6600"/>
</g>
<g id="Group_8">
<path id="Vector_9" d="M113.401 28.836V14.8388H110.903V10.9036H113.401V9.08916C113.401 7.22125 113.929 5.69627 114.989 4.50937C116.05 3.32246 117.614 2.73145 119.683 2.73145C120.515 2.73145 121.257 2.79711 121.914 2.92115C122.568 3.04762 123.176 3.22275 123.731 3.44894V6.96829C123.351 6.84182 122.984 6.7421 122.634 6.6667C122.278 6.59131 121.887 6.5524 121.459 6.5524C120.376 6.5524 119.613 6.7494 119.173 7.13855C118.73 7.53013 118.509 8.20384 118.509 9.16455V10.9011H123.049L122.821 14.8364H118.509V28.836H113.401Z" fill="#FF6600"/>
</g>
<g id="Group_9">
<path id="Vector_10" d="M129.098 29.2142C127.965 29.2142 126.911 29.0051 125.939 28.5892C124.968 28.1733 124.185 27.5555 123.594 26.7358C123.001 25.9162 122.704 24.8874 122.704 23.6518C122.704 21.8885 123.329 20.473 124.577 19.415C125.824 18.3546 127.673 17.8244 130.12 17.8244H135.417V17.333C135.417 16.224 135.106 15.4408 134.49 14.9884C133.87 14.5336 132.63 14.3074 130.762 14.3074C128.719 14.3074 126.751 14.6212 124.861 15.2535V11.6588C125.693 11.3329 126.707 11.0605 127.906 10.8464C129.103 10.6324 130.409 10.5254 131.822 10.5254C134.522 10.5254 136.609 11.0702 138.083 12.1695C139.559 13.2665 140.296 15.0249 140.296 17.4474V28.8372H135.869L135.604 27.2101C134.896 27.84 134.028 28.3314 132.994 28.684C131.961 29.0367 130.662 29.2142 129.098 29.2142ZM130.499 25.8481C131.635 25.8481 132.617 25.6584 133.449 25.279C134.283 24.9044 134.938 24.4228 135.419 23.844V21.0056H130.236C128.244 21.0056 127.247 21.8253 127.247 23.4646C127.247 25.0503 128.329 25.8481 130.499 25.8481Z" fill="#FF6600"/>
</g>
<g id="Group_10">
<path id="Vector_11" d="M160.048 29.2138C156.818 29.2138 154.469 28.45 152.992 26.9251C151.516 25.3977 150.779 23.0093 150.779 19.7575C150.779 16.8802 151.429 14.6231 152.727 12.9838C154.024 11.347 156.137 10.5273 159.066 10.5273C160.807 10.5273 162.218 10.8484 163.302 11.4905C164.39 12.1326 165.19 12.9984 165.705 14.0832C166.221 15.1704 166.481 16.3792 166.481 17.7169V20.9687H152.861C152.961 23.2914 153.566 24.9599 154.678 25.9814C155.787 27.0029 157.716 27.5136 160.467 27.5136C162.13 27.5136 163.745 27.1999 165.307 26.5675V28.2701C163.767 28.8951 162.016 29.2138 160.048 29.2138ZM152.861 19.3391H164.592V17.6366C164.592 15.973 164.161 14.6596 163.302 13.7013C162.446 12.7455 161.045 12.2639 159.105 12.2639C156.733 12.2639 155.099 12.8768 154.204 14.1026C153.306 15.3236 152.861 17.0675 152.861 19.3391Z" fill="#FF6600"/>
</g>
<g id="Group_11">
<path id="Vector_12" d="M177.713 29.2143C176.151 29.2143 174.762 28.8981 173.553 28.2682C172.342 27.6382 171.396 26.6483 170.715 25.2985C170.034 23.9486 169.694 22.1902 169.694 20.0207C169.694 16.7664 170.431 14.3707 171.907 12.8311C173.383 11.294 175.383 10.523 177.905 10.523C179.14 10.523 180.244 10.6665 181.215 10.9584C182.183 11.2478 183.127 11.7342 184.034 12.4153V3.33594H186.116V28.8349H184.374L184.187 26.8307C183.326 27.6382 182.382 28.2365 181.349 28.6281C180.31 29.0173 179.101 29.2143 177.713 29.2143ZM178.204 27.5118C180.575 27.5118 182.516 26.7043 184.031 25.0893V14.2321C183.324 13.624 182.531 13.1449 181.648 12.7947C180.765 12.4444 179.704 12.2645 178.469 12.2645C176.251 12.2645 174.573 12.8847 173.437 14.1202C172.301 15.3558 171.734 17.3234 171.734 20.0231C171.734 22.572 172.262 24.4545 173.323 25.6803C174.383 26.9061 176.01 27.5118 178.204 27.5118Z" fill="#FF6600"/>
</g>
<g id="Group_12">
<path id="Vector_13" d="M197.084 29.2138C195.496 29.2138 194.272 28.7736 193.414 27.8907C192.555 27.0078 192.127 25.7723 192.127 24.1841V12.6434H189.328V10.902H192.127V6.2103L194.209 5.5293V10.902H199.392L199.278 12.6434H194.209V24.1087C194.209 25.2688 194.479 26.125 195.021 26.6795C195.564 27.234 196.454 27.5137 197.689 27.5137C198.015 27.5137 198.361 27.4821 198.728 27.4189C199.095 27.3532 199.492 27.2486 199.92 27.0954V28.759C199.09 29.0606 198.144 29.2138 197.084 29.2138Z" fill="#FF6600"/>
</g>
<g id="Group_13">
<path id="Vector_14" d="M211.465 29.2138C208.235 29.2138 205.885 28.45 204.409 26.9251C202.933 25.3977 202.196 23.0093 202.196 19.7575C202.196 16.8802 202.845 14.6231 204.144 12.9838C205.44 11.347 207.554 10.5273 210.482 10.5273C212.224 10.5273 213.634 10.8484 214.719 11.4905C215.806 12.1326 216.607 12.9984 217.122 14.0832C217.638 15.1704 217.898 16.3792 217.898 17.7169V20.9687H204.278C204.378 23.2914 204.983 24.9599 206.095 25.9814C207.204 27.0029 209.132 27.5136 211.883 27.5136C213.547 27.5136 215.162 27.1999 216.723 26.5675V28.2701C215.186 28.8951 213.433 29.2138 211.465 29.2138ZM204.278 19.3391H216.008V17.6366C216.008 15.973 215.578 14.6596 214.719 13.7013C213.863 12.7455 212.462 12.2639 210.521 12.2639C208.15 12.2639 206.515 12.8768 205.62 14.1026C204.723 15.3236 204.278 17.0675 204.278 19.3391Z" fill="#FF6600"/>
</g>
<g id="Group_14">
<path id="Vector_15" d="M230.001 29.2142C226.897 29.2142 224.64 28.3946 223.229 26.7553C221.814 25.1184 221.111 22.8225 221.111 19.8698C221.111 16.7177 221.935 14.3731 223.589 12.8335C225.241 11.2964 227.481 10.5254 230.305 10.5254C231.465 10.5254 232.396 10.6081 233.104 10.7686C233.809 10.934 234.505 11.1796 235.186 11.508V13.2105C233.848 12.5806 232.335 12.262 230.645 12.262C228.274 12.262 226.433 12.87 225.122 14.0788C223.811 15.29 223.154 17.2187 223.154 19.8674C223.154 22.4649 223.716 24.3912 224.84 25.6389C225.961 26.8866 227.846 27.5117 230.492 27.5117C231.299 27.5117 232.112 27.4241 232.934 27.2466C233.753 27.0715 234.517 26.8307 235.222 26.5267V28.2681C234.515 28.5697 233.727 28.8032 232.856 28.9661C231.988 29.1315 231.034 29.2142 230.001 29.2142Z" fill="#FF6600"/>
</g>
<g id="Group_15">
<path id="Vector_16" d="M237.954 28.8349V3.33594H240.036V13.0574C240.917 12.3009 241.933 11.6905 243.081 11.2235C244.229 10.7565 245.611 10.5254 247.226 10.5254C249.395 10.5254 251.001 11.0411 252.049 12.0747C253.095 13.1084 253.62 14.7477 253.62 16.995V28.8373H251.538V17.034C251.538 15.2658 251.166 14.0302 250.422 13.3224C249.675 12.6171 248.347 12.262 246.431 12.262C245.195 12.262 244.02 12.5077 242.911 13.0014C241.802 13.4927 240.844 14.1275 240.036 14.9131V28.8349H237.954Z" fill="#FF6600"/>
</g>
</g>
<g id="Group_16">
<path id="Vector_17" d="M67.5891 43.0666C67.4505 43.0666 67.3824 43.0009 67.3824 42.872C67.3824 42.8112 67.4068 42.7285 67.4554 42.6264C67.5065 42.5242 67.5502 42.4294 67.5891 42.3443C67.8178 41.8627 68.1218 41.2936 68.5012 40.6369C68.8782 39.9802 69.3331 39.2384 69.8609 38.4139C69.6541 38.4139 69.5495 38.3531 69.5495 38.229C69.5495 38.1001 69.6224 38.0344 69.7684 38.0344L70.1113 38.0466C70.3497 37.6866 70.5516 37.3851 70.7194 37.1394C70.8896 36.8938 71.0209 36.704 71.1207 36.5654C71.2885 36.3441 71.4709 36.1203 71.663 35.8941C71.8576 35.6679 72.074 35.449 72.3124 35.235C72.6724 35.1596 73.0396 35.1037 73.4166 35.0696C73.796 35.0356 74.1804 35.0186 74.5695 35.0186C75.2578 35.0186 75.7394 35.0526 76.0142 35.1207C76.1139 35.1426 76.182 35.1693 76.2136 35.201C76.2477 35.2326 76.2647 35.2739 76.2647 35.3274C76.2647 35.4588 76.2063 35.522 76.092 35.522C76.002 35.522 75.8245 35.5001 75.5643 35.4588C75.304 35.4174 74.9076 35.3955 74.3725 35.3955C74.1123 35.3955 73.8253 35.4101 73.5115 35.4418C73.1978 35.4734 72.8549 35.5196 72.4803 35.5804C72.1593 35.826 71.5147 36.6457 70.5418 38.0466H73.3509C73.4726 38.0466 73.5359 38.1074 73.5359 38.229C73.5359 38.3506 73.475 38.4139 73.3509 38.4139H70.301C69.1919 40.1115 68.3797 41.51 67.8592 42.6094C69.9241 42.1497 71.4831 41.9211 72.5363 41.9211C73.2708 41.9211 73.638 42.0962 73.638 42.4488C73.638 42.5705 73.5772 42.6337 73.4532 42.6337C73.3535 42.6337 73.2999 42.5948 73.2926 42.5194C73.2853 42.4343 73.2172 42.3807 73.0931 42.354C72.9666 42.3272 72.7697 42.3151 72.5022 42.3151C72.1665 42.3151 71.7895 42.3394 71.3736 42.3905C70.9577 42.4391 70.5127 42.5024 70.0384 42.5802C69.3647 42.6799 68.8175 42.7869 68.3967 42.9012C67.9808 43.0107 67.7107 43.0666 67.5891 43.0666Z" fill="#FF6600"/>
<path id="Vector_18" d="M74.36 42.9291C74.2311 42.9291 74.1655 42.8683 74.1655 42.7443C74.1655 42.6835 74.2579 42.5521 74.4452 42.3478C74.6324 42.1459 74.9219 41.8808 75.311 41.5501L76.6876 40.3802C76.6341 40.1735 76.5855 39.991 76.5441 39.8305C76.5028 39.67 76.4615 39.5362 76.425 39.4292C76.2791 38.9865 76.1501 38.7068 76.0358 38.5925C75.9896 38.5463 75.9677 38.4977 75.9677 38.4442C75.9677 38.3299 76.0236 38.2715 76.1403 38.2715C76.3179 38.2715 76.5003 38.539 76.6924 39.0741C76.7532 39.2492 76.8116 39.4268 76.8651 39.6019C76.9186 39.777 76.9722 39.9546 77.0257 40.1297C77.8599 39.4414 78.4023 38.9671 78.6553 38.7093C78.7161 38.6485 78.7574 38.6023 78.7818 38.5707C78.8061 38.539 78.8207 38.5123 78.828 38.4904C78.8669 38.4053 78.9301 38.3639 79.0225 38.3639C79.1465 38.3639 79.2074 38.4223 79.2074 38.5366C79.2074 38.7652 78.5191 39.4195 77.1449 40.4969C77.2373 40.818 77.3321 41.1196 77.4318 41.4017C77.5315 41.6838 77.6483 41.9149 77.782 42.0949C77.9158 42.2749 78.0667 42.3648 78.2345 42.3648C78.395 42.3648 78.5652 42.3235 78.7452 42.2384C78.9252 42.1533 79.1076 42.0487 79.29 41.9222C79.4725 41.7957 79.6378 41.6765 79.7837 41.5598C80.0586 41.3458 80.2653 41.1731 80.4015 41.0442C80.5401 40.9153 80.6886 40.7766 80.8491 40.6307C80.8953 40.6015 80.9367 40.5845 80.9756 40.5845C81.0121 40.5845 81.0509 40.5967 81.0898 40.6185C81.1263 40.6404 81.1458 40.6769 81.1458 40.7207C81.1458 40.8058 81.0704 40.9226 80.9172 41.0758C80.7882 41.1974 80.6496 41.3263 80.5061 41.4601C80.3602 41.5938 80.1316 41.7787 79.8178 42.017C79.6792 42.1241 79.5186 42.2311 79.3314 42.3381C79.1441 42.4451 78.9568 42.5327 78.7695 42.6032C78.5822 42.6713 78.412 42.7054 78.2587 42.7054C77.9985 42.7054 77.7772 42.6129 77.5996 42.4256C77.4197 42.2384 77.2689 41.9952 77.1473 41.6984C77.0257 41.3993 76.9138 41.0855 76.814 40.7572L75.632 41.7665C75.3961 41.966 75.1846 42.1557 75.0021 42.3405C74.8197 42.5254 74.6592 42.6956 74.5206 42.8561C74.4792 42.9048 74.4306 42.9291 74.36 42.9291Z" fill="#FF6600"/>
<path id="Vector_19" d="M79.8427 45.8089C79.4828 45.8089 79.3027 45.5535 79.3027 45.0403C79.3027 44.3666 79.5971 43.2965 80.1857 41.8299C80.2854 41.5867 80.4045 41.3288 80.5432 41.0613C80.6794 40.7938 80.8399 40.5116 81.0247 40.2125C81.2169 39.8914 81.3994 39.6117 81.5696 39.3758C81.7423 39.1399 81.8931 38.9478 82.022 38.8018C82.0682 38.7556 82.1071 38.7264 82.1436 38.7094C82.1776 38.6948 82.2068 38.6875 82.2287 38.6875C82.4257 38.6875 82.6519 38.7459 82.9048 38.8602C83.1553 38.9745 83.3816 39.1204 83.581 39.2955C83.7634 39.4488 83.9142 39.6312 84.0285 39.8452C84.1428 40.0592 84.2012 40.2806 84.2012 40.5092C84.2012 40.677 84.1696 40.8473 84.1039 41.02C84.0407 41.1926 83.9531 41.3629 83.8461 41.5307C84.0431 41.4918 84.2864 41.4042 84.5734 41.2656C84.8604 41.1294 85.1522 40.9178 85.4514 40.6357C85.4805 40.6065 85.5243 40.5895 85.5778 40.5895C85.6921 40.5895 85.7505 40.6357 85.7505 40.7281C85.7505 40.767 85.7335 40.8157 85.6994 40.8716C85.6654 40.93 85.6045 41.0005 85.5194 41.0832C84.9551 41.6037 84.2742 41.9004 83.4789 41.9782C83.3646 42.0998 83.2405 42.2166 83.1067 42.3285C82.9729 42.4404 82.8319 42.5401 82.6884 42.6325C82.2458 42.9 81.8663 43.0338 81.555 43.0338C81.4237 43.0338 81.3191 42.9925 81.234 42.9073C81.1489 42.8222 81.1075 42.7274 81.1075 42.6203C81.1075 42.2677 81.414 42.0001 82.0245 41.8177C82.2458 41.7569 82.4671 41.7034 82.6884 41.6572C82.9098 41.611 83.1286 41.5623 83.3427 41.5088C83.4959 41.2729 83.6077 41.0662 83.6807 40.8886C83.7536 40.7111 83.7902 40.5627 83.7902 40.4411C83.7902 40.0349 83.4885 39.6506 82.8853 39.2834C82.647 39.1375 82.4622 39.0694 82.3236 39.0767C81.6961 39.765 81.1026 40.7281 80.5457 41.9661C79.9644 43.243 79.6724 44.2475 79.6724 44.982C79.6724 45.1571 79.687 45.2763 79.7186 45.3371C79.7503 45.3979 79.8038 45.4295 79.8792 45.4295C79.9011 45.4295 79.9206 45.4271 79.9376 45.4246C79.9522 45.4198 79.9668 45.4198 79.9838 45.4198C80.0835 45.4198 80.1322 45.4806 80.1322 45.6046C80.1297 45.7408 80.0324 45.8089 79.8427 45.8089ZM81.6304 42.6666C81.9125 42.6666 82.3235 42.4452 82.8586 42.0026C82.7346 42.0171 82.6203 42.0366 82.5084 42.0609C82.3965 42.0852 82.2384 42.1266 82.0317 42.1874C81.6888 42.2871 81.516 42.4136 81.516 42.5644C81.516 42.6325 81.555 42.6666 81.6304 42.6666Z" fill="#FF6600"/>
<path id="Vector_20" d="M86.2673 42.8514C85.9463 42.8514 85.6958 42.7395 85.511 42.5182C85.3261 42.2969 85.2362 42.0245 85.2362 41.7034C85.2362 41.1513 85.4186 40.5871 85.7883 40.0058C85.888 39.8453 86.0022 39.6872 86.1311 39.5315C86.2625 39.3734 86.4036 39.2226 86.5544 39.0791C86.783 38.8578 87.0262 38.6729 87.2767 38.5294C87.5296 38.3835 87.7753 38.3105 88.0112 38.3105C88.4003 38.3105 88.595 38.4954 88.595 38.8602C88.595 39.3199 88.3274 39.7358 87.7923 40.1104C87.2962 40.446 86.8073 40.6138 86.3258 40.6138C86.2406 40.6138 86.1653 40.609 86.102 40.5968C86.0364 40.5846 85.9779 40.5725 85.9244 40.5554C85.8465 40.7014 85.7785 40.8886 85.7177 41.1173C85.6569 41.3459 85.6252 41.5453 85.6252 41.7132C85.6252 42.2166 85.8465 42.4696 86.2892 42.4696C86.6492 42.4696 86.9897 42.4063 87.3108 42.2799C87.6318 42.1534 88.0136 41.915 88.4563 41.5624C88.7311 41.3483 88.9379 41.1756 89.0741 41.0467C89.2127 40.9178 89.361 40.7792 89.5216 40.6333C89.5653 40.6041 89.6091 40.5871 89.648 40.5871C89.6845 40.5871 89.7235 40.5992 89.7624 40.6211C89.7989 40.643 89.8183 40.6795 89.8183 40.7233C89.8183 40.8084 89.743 40.9251 89.5897 41.0784C89.4608 41.2 89.3222 41.3289 89.1787 41.4627C89.0328 41.5964 88.8041 41.7813 88.4904 42.0196C88.1547 42.2799 87.7874 42.4817 87.3885 42.6277C86.9921 42.7785 86.6176 42.8514 86.2673 42.8514ZM86.2552 40.249C86.4984 40.249 86.7319 40.2101 86.9557 40.1347C87.177 40.0593 87.3861 39.9474 87.5856 39.8015C88.0282 39.4731 88.2495 39.1618 88.2495 38.8724C88.2495 38.7435 88.1693 38.6778 88.0088 38.6778C87.7024 38.6778 87.3472 38.8651 86.9411 39.2396C86.7441 39.4221 86.5787 39.5899 86.4546 39.7382C86.3281 39.8866 86.2114 40.0496 86.1044 40.2247C86.1506 40.2417 86.2017 40.249 86.2552 40.249Z" fill="#FF6600"/>
<path id="Vector_21" d="M88.7549 42.9283C88.6308 42.9283 88.5701 42.8773 88.5701 42.78C88.5701 42.7338 88.5822 42.6876 88.6089 42.6414C88.6357 42.5951 88.6552 42.5562 88.6722 42.527L89.7156 40.4183C90.1583 39.516 90.3796 39.015 90.3796 38.9153C90.3796 38.8082 90.4332 38.7547 90.5402 38.7547C90.6861 38.7547 90.7565 38.8277 90.7565 38.9736C90.7565 39.0515 90.7225 39.1731 90.6544 39.3409C90.5863 39.5087 90.4963 39.7033 90.3917 39.9246C90.2093 40.3211 90.0537 40.6275 89.9321 40.8415C90.1607 40.574 90.3942 40.3211 90.6326 40.0851C90.8685 39.8492 91.1092 39.623 91.3549 39.409C92.0821 38.7742 92.6391 38.458 93.0283 38.458C93.2958 38.458 93.4296 38.5845 93.4296 38.835C93.4296 39.0806 93.3492 39.2023 93.1887 39.2023C93.1133 39.2023 93.055 39.1366 93.016 39.0077C92.9942 38.9153 92.9406 38.869 92.8555 38.869C92.7241 38.869 92.4737 39.0101 92.0991 39.2947C91.6856 39.6011 91.2721 39.9635 90.8538 40.3843C90.4379 40.8051 89.9953 41.3401 89.5307 41.9895L88.9568 42.7921C88.9276 42.8311 88.8984 42.8627 88.8716 42.8894C88.8473 42.9138 88.8084 42.9283 88.7549 42.9283Z" fill="#FF6600"/>
<path id="Vector_22" d="M93.3504 42.77C93.1364 42.77 92.9808 42.7287 92.8859 42.6435C92.7911 42.5584 92.7424 42.4344 92.7424 42.2666C92.7424 42.106 92.791 41.8871 92.8932 41.6074C92.9929 41.3277 93.1194 41.0286 93.2775 40.7075C93.4332 40.3865 93.6009 40.08 93.776 39.7906C93.9536 39.5012 94.1239 39.2604 94.2868 39.0731C94.4522 38.8858 94.5836 38.7934 94.6809 38.7934C94.8195 38.7934 94.8876 38.8542 94.8876 38.9783C94.8876 39.0561 94.8219 39.1996 94.693 39.4136C94.5616 39.6276 94.4206 39.849 94.2673 40.0776C94.2065 40.1627 94.1215 40.277 94.0169 40.423C93.9099 40.5689 93.8077 40.7027 93.7055 40.8291C93.6058 40.9556 93.5402 41.0407 93.511 41.0869C93.4356 41.2013 93.3529 41.3885 93.2702 41.6488C93.1778 41.909 93.1315 42.1085 93.1315 42.2447C93.1315 42.3055 93.1437 42.3517 93.1705 42.3809C93.1972 42.4125 93.2604 42.4271 93.3601 42.4271C93.5499 42.4271 93.7639 42.3663 94.0023 42.2447C94.2382 42.1231 94.4815 41.9674 94.7247 41.7801C94.9703 41.5929 95.2013 41.4007 95.4178 41.2013C95.6367 41.0043 95.8215 40.8316 95.9747 40.6856C96.0039 40.6565 96.0501 40.6394 96.111 40.6394C96.2253 40.6394 96.2836 40.6857 96.2836 40.7781C96.2836 40.8632 96.2302 40.9581 96.1232 41.0651C95.9165 41.2718 95.7267 41.4542 95.5491 41.6147C95.374 41.7753 95.2062 41.9163 95.0457 42.0379C94.7927 42.2228 94.5131 42.3906 94.209 42.5414C93.905 42.6922 93.618 42.77 93.3504 42.77ZM95.2986 38.127C95.1673 38.127 95.104 38.0613 95.104 37.9324C95.104 37.8935 95.1308 37.823 95.1843 37.7208C95.2378 37.6187 95.2986 37.5117 95.3667 37.4046C95.4348 37.2976 95.4883 37.2247 95.5273 37.1857C95.6586 37.0398 95.7583 36.9498 95.8313 36.9109C95.9042 36.872 95.9699 36.8525 96.0307 36.8525C96.1912 36.8525 96.2715 36.9255 96.2715 37.069C96.2715 37.1225 96.2399 37.1857 96.1743 37.2587C96.1086 37.3317 96.0332 37.3998 95.9505 37.4606C95.8265 37.536 95.751 37.5968 95.7218 37.643L95.4688 37.9981C95.4615 38.0273 95.4445 38.0565 95.4178 38.0832C95.3934 38.1124 95.3522 38.127 95.2986 38.127Z" fill="#FF6600"/>
<path id="Vector_23" d="M96.7807 42.8514C96.4596 42.8514 96.2066 42.7395 96.0242 42.5182C95.8418 42.2969 95.7494 42.0245 95.7494 41.7034C95.7494 41.1513 95.9319 40.5871 96.2991 40.0058C96.3988 39.8453 96.5131 39.6872 96.6445 39.5315C96.7734 39.3734 96.9144 39.2226 97.0676 39.0791C97.2962 38.8578 97.5371 38.6729 97.79 38.5294C98.043 38.386 98.2862 38.3105 98.5245 38.3105C98.9137 38.3105 99.1082 38.4954 99.1082 38.8602C99.1082 39.3199 98.8407 39.7358 98.3057 40.1104C97.8095 40.446 97.3206 40.6138 96.8366 40.6138C96.7515 40.6138 96.6785 40.609 96.6129 40.5968C96.5472 40.5846 96.4888 40.5725 96.4353 40.5554C96.3599 40.7014 96.2894 40.8886 96.2286 41.1173C96.1678 41.3459 96.1362 41.5453 96.1362 41.7132C96.1362 42.2166 96.3574 42.4696 96.8025 42.4696C97.1625 42.4696 97.503 42.4063 97.8216 42.2799C98.1427 42.1534 98.5245 41.915 98.9671 41.5624C99.242 41.3483 99.4488 41.1756 99.5874 41.0467C99.7261 40.9178 99.8744 40.7792 100.035 40.6333C100.081 40.6041 100.122 40.5871 100.161 40.5871C100.2 40.5871 100.239 40.5992 100.276 40.6211C100.315 40.643 100.334 40.6795 100.334 40.7233C100.334 40.8084 100.256 40.9251 100.105 41.0784C99.9741 41.2 99.8379 41.3289 99.6919 41.4627C99.546 41.5964 99.3174 41.7813 99.0036 42.0196C98.6655 42.2799 98.3008 42.4817 97.9019 42.6277C97.503 42.7736 97.1334 42.8514 96.7807 42.8514ZM96.7685 40.249C97.0141 40.249 97.2477 40.2101 97.469 40.1347C97.6903 40.0593 97.9019 39.9474 98.0989 39.8015C98.5416 39.4731 98.7653 39.1618 98.7653 38.8724C98.7653 38.7435 98.6851 38.6778 98.5245 38.6778C98.2181 38.6778 97.863 38.8651 97.4593 39.2396C97.2598 39.4221 97.0992 39.5899 96.9703 39.7382C96.8439 39.8866 96.7271 40.0496 96.6201 40.2247C96.6663 40.2417 96.7174 40.249 96.7685 40.249Z" fill="#FF6600"/>
<path id="Vector_24" d="M99.2619 42.9283C99.1403 42.9283 99.0795 42.8773 99.0795 42.78C99.0795 42.7411 99.0941 42.6924 99.1257 42.6365C99.1549 42.5781 99.1841 42.5319 99.206 42.493L100.237 40.4183C100.68 39.516 100.901 39.015 100.901 38.9153C100.901 38.8082 100.955 38.7547 101.062 38.7547C101.208 38.7547 101.278 38.8326 101.278 38.9834C101.278 39.0369 101.244 39.1512 101.176 39.3287C101.108 39.5063 101.018 39.7033 100.913 39.9246C100.731 40.3211 100.575 40.6275 100.454 40.8415C100.682 40.574 100.916 40.3211 101.154 40.0851C101.39 39.8492 101.631 39.623 101.877 39.409C102.604 38.7742 103.161 38.458 103.55 38.458C103.817 38.458 103.951 38.5845 103.951 38.835C103.951 39.0636 103.757 39.5792 103.367 40.3843C102.978 41.1942 102.784 41.7074 102.784 41.9214C102.784 42.0211 102.818 42.0698 102.886 42.0698C102.908 42.0698 102.944 42.0601 102.995 42.0406C103.044 42.0211 103.097 42.0114 103.151 42.0114C103.282 42.0114 103.346 42.0722 103.346 42.1963C103.346 42.3495 103.18 42.4249 102.852 42.4249C102.699 42.4249 102.587 42.3884 102.519 42.3154C102.45 42.2425 102.416 42.1452 102.416 42.0236C102.416 41.6563 102.604 41.0994 102.978 40.3502C103.353 39.6084 103.54 39.1609 103.54 39.0077C103.54 38.9153 103.506 38.869 103.438 38.869C103.268 38.869 102.998 39.0101 102.623 39.2947C102.217 39.6011 101.813 39.9514 101.407 40.3502C101.001 40.7467 100.617 41.2015 100.249 41.7147L99.4467 42.8262C99.4005 42.8943 99.3373 42.9283 99.2619 42.9283Z" fill="#FF6600"/>
<path id="Vector_25" d="M105.627 42.8049C105.223 42.8049 104.904 42.6858 104.676 42.4498C104.447 42.2139 104.333 41.8953 104.333 41.4988C104.333 40.8105 104.656 40.0614 105.306 39.2515C105.644 38.838 105.984 38.5219 106.332 38.3054C106.68 38.0865 107.006 37.9795 107.312 37.9795C107.58 37.9795 107.786 38.0719 107.932 38.2543C108.078 38.4392 108.149 38.6678 108.149 38.9426C108.149 39.1104 108.127 39.2831 108.081 39.4583C108.052 39.5799 107.988 39.6431 107.898 39.6431C107.752 39.6431 107.682 39.5628 107.682 39.4023C107.682 39.3342 107.694 39.2442 107.721 39.1323C107.747 39.0229 107.76 38.9134 107.76 38.8064C107.76 38.5 107.611 38.3468 107.312 38.3468C107.152 38.3468 106.957 38.4051 106.733 38.5194C106.507 38.6337 106.283 38.7845 106.062 38.9718C105.841 39.1591 105.646 39.3707 105.478 39.6091C104.965 40.3047 104.71 40.9273 104.71 41.477C104.71 42.1118 104.997 42.4279 105.571 42.4279C105.931 42.4279 106.274 42.372 106.602 42.2625C106.93 42.1531 107.317 41.9196 107.76 41.5694C108.034 41.3554 108.241 41.1827 108.38 41.0538C108.518 40.9249 108.667 40.7862 108.827 40.6403C108.874 40.6111 108.915 40.5941 108.954 40.5941C108.993 40.5941 109.029 40.6062 109.068 40.6281C109.107 40.65 109.126 40.6865 109.126 40.7303C109.126 40.8154 109.049 40.9322 108.898 41.0854C108.767 41.207 108.63 41.3359 108.484 41.4697C108.338 41.6034 108.11 41.7883 107.796 42.0266C107.458 42.2869 107.103 42.4814 106.724 42.6103C106.344 42.7393 105.979 42.8049 105.627 42.8049Z" fill="#FF6600"/>
<path id="Vector_26" d="M109.621 42.8514C109.3 42.8514 109.047 42.7395 108.864 42.5182C108.682 42.2969 108.589 42.0245 108.589 41.7034C108.589 41.1513 108.772 40.5871 109.139 40.0058C109.239 39.8453 109.353 39.6872 109.484 39.5315C109.613 39.3734 109.754 39.2226 109.908 39.0791C110.136 38.8578 110.377 38.6729 110.63 38.5294C110.883 38.386 111.126 38.3105 111.364 38.3105C111.754 38.3105 111.948 38.4954 111.948 38.8602C111.948 39.3199 111.681 39.7358 111.146 40.1104C110.649 40.446 110.16 40.6138 109.676 40.6138C109.591 40.6138 109.518 40.609 109.453 40.5968C109.387 40.5846 109.329 40.5725 109.275 40.5554C109.2 40.7014 109.129 40.8886 109.068 41.1173C109.008 41.3459 108.976 41.5453 108.976 41.7132C108.976 42.2166 109.197 42.4696 109.642 42.4696C110.002 42.4696 110.343 42.4063 110.662 42.2799C110.983 42.1534 111.364 41.915 111.807 41.5624C112.082 41.3483 112.289 41.1756 112.427 41.0467C112.566 40.9178 112.714 40.7792 112.875 40.6333C112.921 40.6041 112.962 40.5871 113.001 40.5871C113.04 40.5871 113.079 40.5992 113.116 40.6211C113.155 40.643 113.174 40.6795 113.174 40.7233C113.174 40.8084 113.096 40.9251 112.945 41.0784C112.814 41.2 112.678 41.3289 112.532 41.4627C112.386 41.5964 112.157 41.7813 111.844 42.0196C111.506 42.2799 111.141 42.4817 110.744 42.6277C110.348 42.7736 109.973 42.8514 109.621 42.8514ZM109.608 40.249C109.854 40.249 110.088 40.2101 110.309 40.1347C110.53 40.0593 110.742 39.9474 110.939 39.8015C111.381 39.4731 111.605 39.1618 111.605 38.8724C111.605 38.7435 111.525 38.6778 111.364 38.6778C111.058 38.6778 110.703 38.8651 110.299 39.2396C110.1 39.4221 109.937 39.5899 109.81 39.7382C109.684 39.8866 109.567 40.0496 109.46 40.2247C109.506 40.2417 109.555 40.249 109.608 40.249Z" fill="#FF6600"/>
<path id="Vector_27" d="M115.264 43.0666C115.125 43.0666 115.057 43.0009 115.057 42.872C115.057 42.8112 115.081 42.7285 115.132 42.6264C115.181 42.5242 115.225 42.4294 115.264 42.3443C115.492 41.8627 115.796 41.2936 116.176 40.6369C116.553 39.9802 117.008 39.2384 117.533 38.4139C117.326 38.4139 117.224 38.3531 117.224 38.229C117.224 38.1001 117.297 38.0344 117.441 38.0344L117.786 38.0466C118.022 37.6866 118.226 37.3851 118.394 37.1394C118.562 36.8938 118.695 36.704 118.795 36.5654C118.963 36.3441 119.145 36.1203 119.34 35.8941C119.535 35.6679 119.751 35.449 119.987 35.235C120.347 35.1596 120.717 35.1037 121.094 35.0696C121.471 35.0356 121.855 35.0186 122.246 35.0186C122.935 35.0186 123.416 35.0526 123.691 35.1207C123.791 35.1426 123.857 35.1693 123.891 35.201C123.925 35.2326 123.942 35.2739 123.942 35.3274C123.942 35.4588 123.886 35.522 123.769 35.522C123.677 35.522 123.502 35.5001 123.241 35.4588C122.981 35.4174 122.584 35.3955 122.049 35.3955C121.789 35.3955 121.502 35.4101 121.191 35.4418C120.877 35.4734 120.532 35.5196 120.16 35.5804C119.839 35.826 119.192 36.6457 118.221 38.0466H121.03C121.152 38.0466 121.213 38.1074 121.213 38.229C121.213 38.3506 121.152 38.4139 121.03 38.4139H117.98C116.874 40.1115 116.059 41.51 115.538 42.6094C117.601 42.1497 119.163 41.9211 120.216 41.9211C120.95 41.9211 121.317 42.0962 121.317 42.4488C121.317 42.5705 121.257 42.6337 121.132 42.6337C121.033 42.6337 120.979 42.5948 120.972 42.5194C120.965 42.4343 120.899 42.3807 120.773 42.354C120.646 42.3272 120.449 42.3151 120.182 42.3151C119.846 42.3151 119.469 42.3394 119.053 42.3905C118.637 42.4391 118.19 42.5024 117.718 42.5802C117.044 42.6799 116.499 42.7869 116.078 42.9012C115.658 43.0107 115.385 43.0666 115.264 43.0666Z" fill="#FF6600"/>
<path id="Vector_28" d="M122.035 42.9291C121.904 42.9291 121.841 42.8683 121.841 42.7443C121.841 42.6835 121.936 42.5521 122.123 42.3478C122.31 42.1459 122.6 41.8808 122.989 41.5501L124.365 40.3802C124.312 40.1735 124.263 39.991 124.222 39.8305C124.18 39.67 124.139 39.5362 124.1 39.4292C123.954 38.9865 123.825 38.7068 123.711 38.5925C123.665 38.5463 123.643 38.4977 123.643 38.4442C123.643 38.3299 123.701 38.2715 123.816 38.2715C123.991 38.2715 124.176 38.539 124.365 39.0741C124.426 39.2492 124.484 39.4268 124.538 39.6019C124.591 39.777 124.645 39.9546 124.698 40.1297C125.53 39.4414 126.073 38.9671 126.326 38.7093C126.386 38.6485 126.43 38.6023 126.452 38.5707C126.474 38.539 126.489 38.5123 126.498 38.4904C126.535 38.4053 126.6 38.3639 126.693 38.3639C126.815 38.3639 126.875 38.4223 126.875 38.5366C126.875 38.7652 126.187 39.4195 124.81 40.4969C124.903 40.818 124.998 41.1196 125.097 41.4017C125.197 41.6838 125.311 41.9149 125.448 42.0949C125.581 42.2749 125.732 42.3648 125.9 42.3648C126.06 42.3648 126.231 42.3235 126.411 42.2384C126.591 42.1533 126.773 42.0487 126.956 41.9222C127.14 41.7957 127.303 41.6765 127.449 41.5598C127.724 41.3458 127.931 41.1731 128.069 41.0442C128.208 40.9153 128.357 40.7766 128.517 40.6307C128.563 40.6015 128.605 40.5845 128.644 40.5845C128.682 40.5845 128.719 40.5967 128.758 40.6185C128.797 40.6404 128.816 40.6769 128.816 40.7207C128.816 40.8058 128.738 40.9226 128.588 41.0758C128.456 41.1974 128.32 41.3263 128.174 41.4601C128.028 41.5938 127.799 41.7787 127.486 42.017C127.347 42.1241 127.184 42.2311 126.997 42.3381C126.81 42.4451 126.622 42.5327 126.435 42.6032C126.248 42.6713 126.078 42.7054 125.924 42.7054C125.664 42.7054 125.445 42.6129 125.265 42.4256C125.088 42.2384 124.934 41.9952 124.813 41.6984C124.691 41.3993 124.579 41.0855 124.48 40.7572L123.3 41.7665C123.064 41.966 122.852 42.1557 122.67 42.3405C122.488 42.5254 122.325 42.6956 122.189 42.8561C122.154 42.9048 122.106 42.9291 122.035 42.9291Z" fill="#FF6600"/>
<path id="Vector_29" d="M129.535 42.8049C129.131 42.8049 128.813 42.6858 128.584 42.4498C128.356 42.2139 128.239 41.8953 128.239 41.4988C128.239 40.8105 128.565 40.0614 129.214 39.2515C129.55 38.838 129.893 38.5219 130.241 38.3054C130.588 38.0865 130.914 37.9795 131.221 37.9795C131.488 37.9795 131.695 38.0719 131.838 38.2543C131.984 38.4392 132.055 38.6678 132.055 38.9426C132.055 39.1104 132.033 39.2831 131.987 39.4583C131.958 39.5799 131.897 39.6431 131.804 39.6431C131.658 39.6431 131.586 39.5628 131.586 39.4023C131.586 39.3342 131.598 39.2442 131.627 39.1323C131.654 39.0229 131.666 38.9134 131.666 38.8064C131.666 38.5 131.515 38.3468 131.218 38.3468C131.058 38.3468 130.863 38.4051 130.639 38.5194C130.416 38.6337 130.192 38.7845 129.968 38.9718C129.747 39.1591 129.552 39.3707 129.384 39.6091C128.871 40.3047 128.616 40.9273 128.616 41.477C128.616 42.1118 128.903 42.4279 129.477 42.4279C129.837 42.4279 130.18 42.372 130.508 42.2625C130.836 42.1531 131.223 41.9196 131.666 41.5694C131.941 41.3554 132.147 41.1827 132.284 41.0538C132.422 40.9249 132.571 40.7862 132.731 40.6403C132.777 40.6111 132.819 40.5941 132.858 40.5941C132.894 40.5941 132.933 40.6062 132.972 40.6281C133.008 40.65 133.028 40.6865 133.028 40.7303C133.028 40.8154 132.952 40.9322 132.799 41.0854C132.67 41.207 132.532 41.3359 132.388 41.4697C132.242 41.6034 132.014 41.7883 131.7 42.0266C131.364 42.2869 131.007 42.4814 130.627 42.6103C130.253 42.7393 129.885 42.8049 129.535 42.8049Z" fill="#FF6600"/>
<path id="Vector_30" d="M133.523 42.8514C133.202 42.8514 132.949 42.7395 132.767 42.5182C132.584 42.2969 132.492 42.0245 132.492 41.7034C132.492 41.1513 132.674 40.5871 133.041 40.0058C133.141 39.8453 133.255 39.6872 133.387 39.5315C133.516 39.3734 133.657 39.2226 133.81 39.0791C134.039 38.8578 134.279 38.6729 134.532 38.5294C134.785 38.386 135.029 38.3105 135.267 38.3105C135.656 38.3105 135.851 38.4954 135.851 38.8602C135.851 39.3199 135.583 39.7358 135.048 40.1104C134.552 40.446 134.063 40.6138 133.579 40.6138C133.494 40.6138 133.421 40.609 133.355 40.5968C133.29 40.5846 133.231 40.5725 133.178 40.5554C133.102 40.7014 133.032 40.8886 132.971 41.1173C132.91 41.3459 132.879 41.5453 132.879 41.7132C132.879 42.2166 133.1 42.4696 133.545 42.4696C133.905 42.4696 134.245 42.4063 134.564 42.2799C134.885 42.1534 135.267 41.915 135.71 41.5624C135.984 41.3483 136.191 41.1756 136.33 41.0467C136.468 40.9178 136.617 40.7792 136.777 40.6333C136.823 40.6041 136.865 40.5871 136.904 40.5871C136.943 40.5871 136.982 40.5992 137.018 40.6211C137.057 40.643 137.076 40.6795 137.076 40.7233C137.076 40.8084 136.999 40.9251 136.848 41.0784C136.716 41.2 136.58 41.3289 136.434 41.4627C136.288 41.5964 136.06 41.7813 135.746 42.0196C135.408 42.2799 135.043 42.4817 134.647 42.6277C134.248 42.7785 133.873 42.8514 133.523 42.8514ZM133.511 40.249C133.757 40.249 133.99 40.2101 134.211 40.1347C134.433 40.0593 134.644 39.9474 134.841 39.8015C135.284 39.4731 135.508 39.1618 135.508 38.8724C135.508 38.7435 135.427 38.6778 135.267 38.6778C134.96 38.6778 134.605 38.8651 134.202 39.2396C134.002 39.4221 133.839 39.5899 133.713 39.7382C133.586 39.8866 133.469 40.0496 133.362 40.2247C133.406 40.2417 133.457 40.249 133.511 40.249Z" fill="#FF6600"/>
<path id="Vector_31" d="M137.659 42.9526C137.307 42.9526 137.039 42.8431 136.852 42.6267C136.665 42.4078 136.572 42.1208 136.572 41.7608C136.572 41.5006 136.618 41.1868 136.708 40.822C136.869 40.2018 137.141 39.4843 137.523 38.6671C137.822 38.0469 138.143 37.4388 138.486 36.8381C138.832 36.2373 139.209 35.6463 139.622 35.0674C140.279 34.1359 140.739 33.6689 140.999 33.6689C141.167 33.6689 141.252 33.7152 141.252 33.8076C141.252 33.9365 141.038 34.2624 140.61 34.7829L139.807 35.7582C139.111 36.5997 138.542 37.4583 138.104 38.3363C137.664 39.2143 137.324 40.0948 137.078 40.9728C137.01 41.2257 136.976 41.4616 136.976 41.683C136.976 42.2643 137.212 42.5537 137.686 42.5537C137.854 42.5537 138.027 42.5051 138.202 42.4053C138.379 42.3129 138.474 42.2691 138.489 42.2691C138.581 42.2691 138.627 42.3348 138.627 42.4637C138.627 42.578 138.586 42.6656 138.501 42.7288C138.238 42.8772 137.959 42.9526 137.659 42.9526Z" fill="#FF6600"/>
<path id="Vector_32" d="M140.566 42.9526C140.213 42.9526 139.946 42.8431 139.759 42.6267C139.571 42.4078 139.479 42.1208 139.479 41.7608C139.479 41.5006 139.525 41.1868 139.615 40.822C139.776 40.2018 140.048 39.4843 140.43 38.6671C140.729 38.0469 141.05 37.4388 141.393 36.8381C141.738 36.2373 142.116 35.6463 142.529 35.0674C143.186 34.1359 143.645 33.6689 143.906 33.6689C144.073 33.6689 144.158 33.7152 144.158 33.8076C144.158 33.9365 143.944 34.2624 143.516 34.7829L142.714 35.7582C142.018 36.5997 141.449 37.4583 141.011 38.3363C140.571 39.2143 140.23 40.0948 139.985 40.9728C139.917 41.2257 139.883 41.4616 139.883 41.683C139.883 42.2643 140.119 42.5537 140.593 42.5537C140.761 42.5537 140.933 42.5051 141.109 42.4053C141.286 42.3129 141.381 42.2691 141.396 42.2691C141.488 42.2691 141.534 42.3348 141.534 42.4637C141.534 42.578 141.493 42.6656 141.408 42.7288C141.143 42.8772 140.865 42.9526 140.566 42.9526Z" fill="#FF6600"/>
<path id="Vector_33" d="M143.245 42.8514C142.924 42.8514 142.671 42.7395 142.488 42.5182C142.306 42.2969 142.213 42.0245 142.213 41.7034C142.213 41.1513 142.396 40.5871 142.763 40.0058C142.863 39.8453 142.977 39.6872 143.108 39.5315C143.237 39.3734 143.378 39.2226 143.532 39.0791C143.76 38.8578 144.001 38.6729 144.254 38.5294C144.507 38.386 144.75 38.3105 144.988 38.3105C145.378 38.3105 145.572 38.4954 145.572 38.8602C145.572 39.3199 145.305 39.7358 144.77 40.1104C144.273 40.446 143.785 40.6138 143.301 40.6138C143.215 40.6138 143.142 40.609 143.077 40.5968C143.011 40.5846 142.953 40.5725 142.899 40.5554C142.824 40.7014 142.753 40.8886 142.692 41.1173C142.632 41.3459 142.6 41.5453 142.6 41.7132C142.6 42.2166 142.821 42.4696 143.266 42.4696C143.626 42.4696 143.967 42.4063 144.286 42.2799C144.607 42.1534 144.988 41.915 145.431 41.5624C145.706 41.3483 145.913 41.1756 146.051 41.0467C146.19 40.9178 146.338 40.7792 146.499 40.6333C146.545 40.6041 146.586 40.5871 146.625 40.5871C146.664 40.5871 146.703 40.5992 146.74 40.6211C146.778 40.643 146.798 40.6795 146.798 40.7233C146.798 40.8084 146.72 40.9251 146.569 41.0784C146.438 41.2 146.302 41.3289 146.156 41.4627C146.01 41.5964 145.781 41.7813 145.468 42.0196C145.129 42.2799 144.765 42.4817 144.366 42.6277C143.967 42.7736 143.597 42.8514 143.245 42.8514ZM143.232 40.249C143.478 40.249 143.711 40.2101 143.933 40.1347C144.154 40.0593 144.366 39.9474 144.563 39.8015C145.005 39.4731 145.229 39.1618 145.229 38.8724C145.229 38.7435 145.149 38.6778 144.988 38.6778C144.682 38.6778 144.327 38.8651 143.923 39.2396C143.724 39.4221 143.563 39.5899 143.434 39.7382C143.308 39.8866 143.191 40.0496 143.084 40.2247C143.13 40.2417 143.179 40.249 143.232 40.249Z" fill="#FF6600"/>
<path id="Vector_34" d="M145.733 42.9283C145.612 42.9283 145.551 42.8773 145.551 42.78C145.551 42.7411 145.566 42.6924 145.597 42.6365C145.626 42.5781 145.656 42.5319 145.677 42.493L146.709 40.4183C147.151 39.516 147.373 39.015 147.373 38.9153C147.373 38.8082 147.426 38.7547 147.533 38.7547C147.679 38.7547 147.75 38.8326 147.75 38.9834C147.75 39.0369 147.716 39.1512 147.647 39.3287C147.579 39.5063 147.489 39.7033 147.385 39.9246C147.202 40.3211 147.047 40.6275 146.925 40.8415C147.154 40.574 147.387 40.3211 147.626 40.0851C147.862 39.8492 148.102 39.623 148.348 39.409C149.075 38.7742 149.632 38.458 150.021 38.458C150.289 38.458 150.423 38.5845 150.423 38.835C150.423 39.0636 150.228 39.5792 149.839 40.3843C149.45 41.1942 149.255 41.7074 149.255 41.9214C149.255 42.0211 149.289 42.0698 149.357 42.0698C149.379 42.0698 149.416 42.0601 149.467 42.0406C149.515 42.0211 149.569 42.0114 149.622 42.0114C149.754 42.0114 149.817 42.0722 149.817 42.1963C149.817 42.3495 149.652 42.4249 149.323 42.4249C149.17 42.4249 149.058 42.3884 148.99 42.3154C148.922 42.2425 148.888 42.1452 148.888 42.0236C148.888 41.6563 149.075 41.0994 149.45 40.3502C149.824 39.6084 150.012 39.1609 150.012 39.0077C150.012 38.9153 149.978 38.869 149.909 38.869C149.739 38.869 149.469 39.0101 149.095 39.2947C148.688 39.6011 148.285 39.9514 147.879 40.3502C147.472 40.7467 147.088 41.2015 146.721 41.7147L145.918 42.8262C145.872 42.8943 145.809 42.9283 145.733 42.9283Z" fill="#FF6600"/>
<path id="Vector_35" d="M152.097 42.8049C151.694 42.8049 151.375 42.6858 151.147 42.4498C150.918 42.2139 150.804 41.8953 150.804 41.4988C150.804 40.8105 151.127 40.0614 151.776 39.2515C152.114 38.838 152.455 38.5219 152.803 38.3054C153.151 38.0865 153.476 37.9795 153.783 37.9795C154.05 37.9795 154.257 38.0719 154.403 38.2543C154.549 38.4392 154.62 38.6678 154.62 38.9426C154.62 39.1104 154.598 39.2831 154.552 39.4583C154.522 39.5799 154.459 39.6431 154.369 39.6431C154.223 39.6431 154.153 39.5628 154.153 39.4023C154.153 39.3342 154.165 39.2442 154.192 39.1323C154.218 39.0229 154.23 38.9134 154.23 38.8064C154.23 38.5 154.082 38.3468 153.783 38.3468C153.622 38.3468 153.428 38.4051 153.204 38.5194C152.978 38.6337 152.754 38.7845 152.533 38.9718C152.311 39.1591 152.117 39.3707 151.949 39.6091C151.436 40.3047 151.18 40.9273 151.18 41.477C151.18 42.1118 151.467 42.4279 152.041 42.4279C152.401 42.4279 152.744 42.372 153.073 42.2625C153.401 42.1531 153.788 41.9196 154.23 41.5694C154.505 41.3554 154.712 41.1827 154.851 41.0538C154.989 40.9249 155.138 40.7862 155.298 40.6403C155.344 40.6111 155.386 40.5941 155.425 40.5941C155.464 40.5941 155.5 40.6062 155.539 40.6281C155.578 40.65 155.597 40.6865 155.597 40.7303C155.597 40.8154 155.52 40.9322 155.369 41.0854C155.237 41.207 155.101 41.3359 154.955 41.4697C154.809 41.6034 154.581 41.7883 154.267 42.0266C153.929 42.2869 153.574 42.4814 153.194 42.6103C152.815 42.7393 152.45 42.8049 152.097 42.8049Z" fill="#FF6600"/>
<path id="Vector_36" d="M156.088 42.8514C155.767 42.8514 155.514 42.7395 155.331 42.5182C155.149 42.2969 155.056 42.0245 155.056 41.7034C155.056 41.1513 155.239 40.5871 155.606 40.0058C155.706 39.8453 155.82 39.6872 155.952 39.5315C156.08 39.3734 156.222 39.2226 156.375 39.0791C156.603 38.8578 156.844 38.6729 157.097 38.5294C157.35 38.386 157.593 38.3105 157.832 38.3105C158.221 38.3105 158.415 38.4954 158.415 38.8602C158.415 39.3199 158.148 39.7358 157.613 40.1104C157.117 40.446 156.628 40.6138 156.144 40.6138C156.059 40.6138 155.986 40.609 155.92 40.5968C155.854 40.5846 155.796 40.5725 155.742 40.5554C155.667 40.7014 155.596 40.8886 155.536 41.1173C155.475 41.3459 155.443 41.5453 155.443 41.7132C155.443 42.2166 155.664 42.4696 156.11 42.4696C156.47 42.4696 156.81 42.4063 157.129 42.2799C157.45 42.1534 157.832 41.915 158.274 41.5624C158.549 41.3483 158.756 41.1756 158.894 41.0467C159.033 40.9178 159.181 40.7792 159.342 40.6333C159.388 40.6041 159.43 40.5871 159.468 40.5871C159.507 40.5871 159.546 40.5992 159.583 40.6211C159.622 40.643 159.641 40.6795 159.641 40.7233C159.641 40.8084 159.563 40.9251 159.412 41.0784C159.281 41.2 159.145 41.3289 158.999 41.4627C158.853 41.5964 158.625 41.7813 158.311 42.0196C157.973 42.2799 157.608 42.4817 157.211 42.6277C156.815 42.7736 156.438 42.8514 156.088 42.8514ZM156.076 40.249C156.321 40.249 156.555 40.2101 156.776 40.1347C156.997 40.0593 157.209 39.9474 157.406 39.8015C157.849 39.4731 158.072 39.1618 158.072 38.8724C158.072 38.7435 157.992 38.6778 157.832 38.6778C157.525 38.6778 157.17 38.8651 156.766 39.2396C156.567 39.4221 156.404 39.5899 156.277 39.7382C156.151 39.8866 156.034 40.0496 155.927 40.2247C155.973 40.2417 156.022 40.249 156.076 40.249Z" fill="#FF6600"/>
<path id="Vector_37" d="M157.74 44.7661C157.601 44.7661 157.533 44.7053 157.533 44.5836C157.533 44.5447 157.548 44.5131 157.579 44.4864C157.611 44.4596 157.664 44.4207 157.74 44.3672C158.092 44.1142 158.392 43.8516 158.64 43.5767C158.888 43.3019 159.046 43.0003 159.116 42.672C159.07 42.6647 159.024 42.6355 158.978 42.5868C158.932 42.5358 158.91 42.4823 158.91 42.419C158.91 42.1758 159.017 42.0518 159.231 42.0518C159.36 42.0518 159.454 42.0907 159.51 42.1661C159.569 42.2415 159.6 42.3412 159.608 42.4628C159.608 42.6403 159.554 42.8325 159.447 43.0417C159.34 43.2508 159.204 43.4624 159.036 43.6716C158.866 43.8807 158.688 44.0753 158.496 44.2504C158.304 44.4256 158.129 44.5666 157.968 44.6761C157.939 44.698 157.903 44.7199 157.859 44.7393C157.82 44.7563 157.779 44.7661 157.74 44.7661Z" fill="#FF6600"/>
<path id="Vector_38" d="M163.739 43.0666C163.6 43.0666 163.532 43.0009 163.532 42.872C163.532 42.8112 163.556 42.7285 163.605 42.6264C163.656 42.5242 163.7 42.4294 163.739 42.3443C163.967 41.8627 164.271 41.2936 164.651 40.6369C165.028 39.9802 165.483 39.2384 166.01 38.4139C165.804 38.4139 165.699 38.3531 165.699 38.229C165.699 38.1001 165.772 38.0344 165.918 38.0344L166.261 38.0466C166.499 37.6866 166.701 37.3851 166.869 37.1394C167.039 36.8938 167.171 36.704 167.27 36.5654C167.438 36.3441 167.621 36.1203 167.815 35.8941C168.01 35.6679 168.226 35.449 168.465 35.235C168.825 35.1596 169.192 35.1037 169.569 35.0696C169.948 35.0356 170.332 35.0186 170.722 35.0186C171.41 35.0186 171.891 35.0526 172.166 35.1207C172.266 35.1426 172.334 35.1693 172.366 35.201C172.4 35.2326 172.417 35.2739 172.417 35.3274C172.417 35.4588 172.358 35.522 172.244 35.522C172.154 35.522 171.977 35.5001 171.716 35.4588C171.456 35.4174 171.06 35.3955 170.525 35.3955C170.264 35.3955 169.977 35.4101 169.664 35.4418C169.35 35.4734 169.007 35.5196 168.632 35.5804C168.311 35.826 167.667 36.6457 166.694 38.0466H169.503C169.625 38.0466 169.688 38.1074 169.688 38.229C169.688 38.3506 169.627 38.4139 169.503 38.4139H166.453C165.344 40.1115 164.532 41.51 164.011 42.6094C166.076 42.1497 167.635 41.9211 168.688 41.9211C169.423 41.9211 169.79 42.0962 169.79 42.4488C169.79 42.5705 169.729 42.6337 169.605 42.6337C169.505 42.6337 169.452 42.5948 169.445 42.5194C169.437 42.4343 169.369 42.3807 169.245 42.354C169.119 42.3272 168.922 42.3151 168.654 42.3151C168.319 42.3151 167.942 42.3394 167.526 42.3905C167.11 42.4391 166.665 42.5024 166.19 42.5802C165.517 42.6799 164.969 42.7869 164.549 42.9012C164.13 43.0107 163.86 43.0666 163.739 43.0666Z" fill="#FF6600"/>
<path id="Vector_39" d="M170.837 43.0326C170.705 43.0326 170.642 42.9718 170.642 42.8502C170.642 42.8429 170.688 42.7481 170.781 42.5632C170.871 42.3784 171.002 42.1084 171.17 41.7484L171.754 40.5226C171.99 40.0265 172.16 39.6324 172.264 39.3406C172.367 39.0512 172.42 38.8639 172.42 38.7788C172.42 38.6571 172.481 38.5963 172.602 38.5963C172.724 38.5963 172.785 38.6571 172.785 38.7788C172.785 38.8785 172.753 39.0341 172.688 39.2433C172.622 39.4525 172.517 39.7224 172.371 40.0508L171.788 41.3812C173.386 39.3625 174.587 38.3531 175.399 38.3531C175.553 38.3531 175.672 38.4164 175.754 38.5428C175.84 38.6693 175.881 38.8079 175.881 38.9612C175.881 39.3284 175.618 39.9657 175.091 40.8753C175.494 40.4618 175.905 40.0484 176.324 39.6325C176.74 39.2165 177.158 38.8055 177.579 38.3993C177.686 38.2996 177.773 38.251 177.844 38.251C177.936 38.251 178.012 38.2948 178.072 38.3823C178.133 38.4699 178.165 38.5647 178.165 38.662C178.165 38.7374 178.131 38.8347 178.063 38.949C177.963 39.1168 177.871 39.3187 177.788 39.5522C177.705 39.7857 177.608 40.0459 177.501 40.3378C177.379 40.6661 177.292 40.9531 177.238 41.1963C177.185 41.442 177.158 41.639 177.158 41.7922C177.158 41.9844 177.204 42.123 177.297 42.2106C177.389 42.2981 177.479 42.3419 177.571 42.3419C177.732 42.3419 177.907 42.3005 178.099 42.2154C178.291 42.1303 178.447 42.0476 178.571 41.9625C178.814 41.802 179.072 41.6001 179.337 41.3617C179.605 41.1209 179.862 40.8777 180.106 40.6321C180.135 40.6029 180.181 40.5859 180.244 40.5859C180.359 40.5859 180.417 40.6321 180.417 40.7245C180.417 40.8096 180.364 40.9045 180.257 41.0115C179.95 41.3179 179.675 41.5782 179.43 41.7971C179.186 42.016 178.953 42.1935 178.729 42.3297C178.583 42.4149 178.408 42.5024 178.201 42.5924C177.995 42.6848 177.773 42.731 177.535 42.731C177.314 42.731 177.129 42.6629 176.98 42.5243C176.832 42.3857 176.757 42.0914 176.757 41.6414C176.757 41.4663 176.786 41.2571 176.849 41.0164C176.91 40.7756 177.002 40.5056 177.124 40.2089L177.732 38.7642L176.093 40.4156C175.9 40.6053 175.745 40.7683 175.623 40.8972C175.499 41.0261 175.402 41.1331 175.324 41.2182C175.178 41.3715 175.049 41.5198 174.94 41.6657C174.828 41.8117 174.735 41.9381 174.658 42.0427C174.604 42.1279 174.543 42.1692 174.473 42.1692C174.344 42.1692 174.278 42.1157 174.278 42.0087C174.278 41.7728 174.492 41.2255 174.92 40.3694C175.348 39.5133 175.562 39.0001 175.562 38.8323C175.562 38.7569 175.477 38.718 175.309 38.718C174.628 38.718 173.417 39.8295 171.676 42.0549C171.53 42.2616 171.289 42.5705 170.953 42.984C170.929 43.018 170.89 43.0326 170.837 43.0326Z" fill="#FF6600"/>
<path id="Vector_40" d="M180.474 43.3214C180.26 43.3214 180.083 43.2557 179.939 43.1268C179.798 42.9979 179.728 42.8301 179.728 42.6233C179.728 42.548 179.732 42.4969 179.737 42.475C179.63 42.7206 179.53 42.8423 179.438 42.8423C179.316 42.8423 179.256 42.7693 179.256 42.6233L180.151 40.2836C180.289 39.9163 180.445 39.5369 180.62 39.1429C180.795 38.7489 180.973 38.3719 181.153 38.0071C181.333 37.6447 181.501 37.3164 181.659 37.0221C181.814 36.7278 181.943 36.4918 182.043 36.3167C182.286 35.896 182.522 35.5701 182.748 35.3366C182.974 35.1031 183.152 34.9863 183.283 34.9863C183.429 34.9863 183.5 35.0666 183.5 35.2271C183.5 35.3195 183.454 35.3657 183.361 35.3657C183.164 35.3657 182.821 35.7817 182.34 36.6159C182.186 36.8761 182.043 37.1339 181.912 37.3893C181.778 37.6447 181.649 37.9001 181.527 38.153C181.357 38.513 181.182 38.8973 181 39.3107C180.817 39.7242 180.625 40.1596 180.428 40.6168C180.678 40.2495 180.958 39.9139 181.265 39.6075C181.532 39.3399 181.809 39.1234 182.096 38.9605C182.383 38.7951 182.668 38.7149 182.95 38.7149C183.264 38.7149 183.512 38.7805 183.694 38.9094C183.879 39.0408 183.969 39.284 183.969 39.6439C183.969 39.9431 183.884 40.2593 183.711 40.5949C183.539 40.9306 183.317 41.2589 183.045 41.5824C182.773 41.9034 182.481 42.1953 182.162 42.4604C181.846 42.7231 181.537 42.9347 181.24 43.0903C180.944 43.2436 180.686 43.3214 180.474 43.3214ZM180.438 42.942C180.666 42.942 180.919 42.8641 181.194 42.706C181.469 42.5504 181.746 42.3437 182.021 42.0931C182.296 41.8402 182.549 41.5678 182.777 41.2735C183.006 40.9792 183.191 40.6898 183.329 40.4028C183.468 40.1158 183.534 39.8628 183.534 39.6415C183.534 39.2986 183.361 39.1259 183.018 39.1259C182.712 39.1259 182.415 39.2183 182.123 39.4007C181.834 39.5856 181.552 39.8288 181.282 40.1352C181.009 40.4417 180.756 40.7773 180.52 41.1446C180.282 41.5119 180.066 41.8815 179.866 42.2561C179.934 42.188 180 42.1539 180.061 42.1539C180.168 42.1539 180.221 42.2026 180.221 42.3023C180.221 42.3485 180.202 42.3972 180.163 42.4507C180.148 42.4726 180.134 42.5017 180.117 42.5309C180.102 42.5625 180.095 42.6088 180.095 42.6696C180.095 42.852 180.209 42.942 180.438 42.942Z" fill="#FF6600"/>
<path id="Vector_41" d="M183.799 42.9283C183.675 42.9283 183.616 42.8773 183.616 42.78C183.616 42.7338 183.628 42.6876 183.655 42.6414C183.682 42.5951 183.701 42.5562 183.718 42.527L184.762 40.4183C185.204 39.516 185.426 39.015 185.426 38.9153C185.426 38.8082 185.479 38.7547 185.586 38.7547C185.732 38.7547 185.803 38.8277 185.803 38.9736C185.803 39.0515 185.769 39.1731 185.701 39.3409C185.632 39.5087 185.543 39.7033 185.438 39.9246C185.256 40.3211 185.1 40.6275 184.978 40.8415C185.207 40.574 185.44 40.3211 185.679 40.0851C185.915 39.8492 186.155 39.623 186.401 39.409C187.128 38.7742 187.685 38.458 188.074 38.458C188.342 38.458 188.476 38.5845 188.476 38.835C188.476 39.0806 188.395 39.2023 188.235 39.2023C188.16 39.2023 188.101 39.1366 188.062 39.0077C188.04 38.9153 187.987 38.869 187.902 38.869C187.77 38.869 187.52 39.0101 187.145 39.2947C186.732 39.6011 186.318 39.9635 185.9 40.3843C185.484 40.8051 185.041 41.3401 184.577 41.9895L184.003 42.7921C183.974 42.8311 183.945 42.8627 183.918 42.8894C183.891 42.9138 183.85 42.9283 183.799 42.9283Z" fill="#FF6600"/>
<path id="Vector_42" d="M188.372 42.7589C187.929 42.7589 187.708 42.5497 187.708 42.1289C187.708 41.8541 187.774 41.5574 187.907 41.2412C188.041 40.925 188.223 40.6137 188.452 40.3121C188.681 40.0105 188.936 39.7357 189.221 39.4876C189.503 39.2395 189.792 39.0401 190.091 38.8917C190.391 38.7434 190.675 38.668 190.952 38.668C191.441 38.668 191.684 38.9087 191.684 39.3903C191.684 39.7041 191.609 39.8597 191.456 39.8597C191.317 39.8597 191.249 39.7941 191.249 39.6652C191.249 39.6116 191.261 39.5557 191.291 39.4998C191.317 39.4414 191.329 39.3782 191.329 39.3101C191.329 39.096 191.183 38.989 190.894 38.989C190.427 38.989 189.843 39.3441 189.14 40.0543C188.973 40.2318 188.807 40.4362 188.647 40.6745C188.486 40.9129 188.355 41.1512 188.253 41.392C188.148 41.6328 188.097 41.859 188.097 42.073C188.097 42.2797 188.211 42.3819 188.442 42.3819C188.642 42.3819 188.853 42.3211 189.08 42.1995C189.303 42.0779 189.5 41.9514 189.671 41.8201C190.006 41.5671 190.352 41.2242 190.702 40.7888C190.755 40.728 190.824 40.6478 190.909 40.548C190.991 40.4483 191.089 40.3389 191.196 40.2148C191.232 40.1759 191.278 40.1565 191.334 40.1565C191.456 40.1565 191.517 40.2173 191.517 40.3413L191.081 40.9955C190.789 41.4236 190.646 41.7739 190.646 42.0511C190.646 42.2506 190.741 42.3478 190.933 42.3478C191.093 42.3478 191.269 42.3065 191.461 42.2214C191.65 42.1362 191.809 42.0535 191.93 41.9684C192.176 41.8079 192.431 41.606 192.699 41.3677C192.966 41.1269 193.222 40.8837 193.467 40.638C193.496 40.6088 193.543 40.5918 193.606 40.5918C193.72 40.5918 193.779 40.638 193.779 40.7304C193.779 40.8156 193.725 40.9104 193.618 41.0174C193.312 41.3239 193.037 41.5841 192.794 41.803C192.55 42.0219 192.317 42.1995 192.093 42.3357C191.947 42.4208 191.767 42.5084 191.553 42.5984C191.339 42.6908 191.093 42.737 190.819 42.737C190.444 42.737 190.257 42.5376 190.257 42.1411C190.257 41.9879 190.274 41.8614 190.313 41.7617C189.615 42.4257 188.968 42.7589 188.372 42.7589Z" fill="#FF6600"/>
<path id="Vector_43" d="M194.497 42.8049C194.093 42.8049 193.774 42.6858 193.546 42.4498C193.317 42.2139 193.203 41.8953 193.203 41.4988C193.203 40.8105 193.526 40.0614 194.176 39.2515C194.514 38.838 194.854 38.5219 195.202 38.3054C195.55 38.0865 195.876 37.9795 196.182 37.9795C196.45 37.9795 196.657 38.0719 196.803 38.2543C196.949 38.4392 197.019 38.6678 197.019 38.9426C197.019 39.1104 196.997 39.2831 196.951 39.4583C196.922 39.5799 196.858 39.6431 196.768 39.6431C196.623 39.6431 196.552 39.5628 196.552 39.4023C196.552 39.3342 196.564 39.2442 196.591 39.1323C196.618 39.0229 196.63 38.9134 196.63 38.8064C196.63 38.5 196.481 38.3468 196.182 38.3468C196.022 38.3468 195.827 38.4051 195.603 38.5194C195.377 38.6337 195.154 38.7845 194.932 38.9718C194.711 39.1591 194.516 39.3707 194.348 39.6091C193.835 40.3047 193.58 40.9273 193.58 41.477C193.58 42.1118 193.867 42.4279 194.441 42.4279C194.801 42.4279 195.144 42.372 195.472 42.2625C195.8 42.1531 196.187 41.9196 196.63 41.5694C196.905 41.3554 197.111 41.1827 197.25 41.0538C197.389 40.9249 197.537 40.7862 197.698 40.6403C197.744 40.6111 197.785 40.5941 197.824 40.5941C197.863 40.5941 197.899 40.6062 197.938 40.6281C197.977 40.65 197.997 40.6865 197.997 40.7303C197.997 40.8154 197.919 40.9322 197.768 41.0854C197.637 41.207 197.501 41.3359 197.355 41.4697C197.209 41.6034 196.98 41.7883 196.666 42.0266C196.328 42.2869 195.973 42.4814 195.594 42.6103C195.214 42.7393 194.85 42.8049 194.497 42.8049Z" fill="#FF6600"/>
<path id="Vector_44" d="M198.487 42.8514C198.166 42.8514 197.913 42.7395 197.731 42.5182C197.548 42.2969 197.456 42.0245 197.456 41.7034C197.456 41.1513 197.638 40.5871 198.005 40.0058C198.105 39.8453 198.219 39.6872 198.351 39.5315C198.48 39.3734 198.621 39.2226 198.774 39.0791C199.003 38.8578 199.243 38.6729 199.496 38.5294C199.749 38.386 199.993 38.3105 200.231 38.3105C200.62 38.3105 200.815 38.4954 200.815 38.8602C200.815 39.3199 200.547 39.7358 200.012 40.1104C199.516 40.446 199.027 40.6138 198.543 40.6138C198.458 40.6138 198.385 40.609 198.319 40.5968C198.253 40.5846 198.195 40.5725 198.142 40.5554C198.066 40.7014 197.996 40.8886 197.935 41.1173C197.874 41.3459 197.842 41.5453 197.842 41.7132C197.842 42.2166 198.064 42.4696 198.509 42.4696C198.869 42.4696 199.209 42.4063 199.528 42.2799C199.849 42.1534 200.231 41.915 200.674 41.5624C200.948 41.3483 201.155 41.1756 201.294 41.0467C201.432 40.9178 201.581 40.7792 201.741 40.6333C201.788 40.6041 201.829 40.5871 201.868 40.5871C201.907 40.5871 201.946 40.5992 201.982 40.6211C202.021 40.643 202.04 40.6795 202.04 40.7233C202.04 40.8084 201.963 40.9251 201.812 41.0784C201.681 41.2 201.544 41.3289 201.398 41.4627C201.252 41.5964 201.024 41.7813 200.71 42.0196C200.372 42.2799 200.007 42.4817 199.611 42.6277C199.214 42.7785 198.84 42.8514 198.487 42.8514ZM198.475 40.249C198.72 40.249 198.954 40.2101 199.175 40.1347C199.397 40.0593 199.608 39.9474 199.805 39.8015C200.248 39.4731 200.472 39.1618 200.472 38.8724C200.472 38.7435 200.391 38.6778 200.231 38.6778C199.924 38.6778 199.569 38.8651 199.166 39.2396C198.966 39.4221 198.803 39.5899 198.677 39.7382C198.55 39.8866 198.434 40.0496 198.327 40.2247C198.373 40.2417 198.421 40.249 198.475 40.249Z" fill="#FF6600"/>
<path id="Vector_45" d="M207.78 43.1338C207.306 43.1338 206.858 43.0414 206.433 42.8589C206.009 42.6741 205.662 42.3968 205.394 42.0271C205.127 41.6574 204.993 41.1929 204.993 40.6335C204.993 40.3441 205.059 40.006 205.188 39.6193C205.319 39.2326 205.482 38.8507 205.681 38.4713C205.881 38.0943 206.087 37.7708 206.301 37.5033C206.537 37.2041 206.82 36.922 207.143 36.6545C207.469 36.3869 207.814 36.151 208.182 35.9443C208.549 35.7375 208.921 35.5746 209.293 35.4578C209.668 35.3387 210.023 35.2803 210.358 35.2803C210.772 35.2803 211.171 35.3605 211.557 35.5211C211.944 35.6816 212.289 35.9029 212.596 36.1851C212.902 36.4672 213.146 36.7955 213.326 37.1652C213.503 37.5349 213.595 37.9265 213.595 38.34C213.595 38.7364 213.508 39.1304 213.33 39.522C213.155 39.9111 212.924 40.2808 212.637 40.6286C212.35 40.9764 212.032 41.295 211.681 41.5869C211.124 42.0466 210.507 42.4187 209.83 42.7033C209.154 42.9903 208.476 43.1338 207.797 43.1338H207.78ZM207.712 42.7568C208.361 42.7568 209.001 42.6206 209.633 42.3506C210.263 42.0782 210.835 41.7328 211.348 41.3121C211.684 41.0372 211.99 40.7332 212.265 40.4C212.54 40.0668 212.761 39.719 212.929 39.3566C213.097 38.9942 213.182 38.6367 213.182 38.284C213.182 37.9411 213.104 37.6127 212.946 37.299C212.79 36.9852 212.581 36.7055 212.316 36.4623C212.051 36.2167 211.752 36.0245 211.416 35.8835C211.078 35.7424 210.73 35.6719 210.373 35.6719C210.052 35.6719 209.714 35.7302 209.359 35.8445C209.004 35.9589 208.653 36.1145 208.31 36.3091C207.965 36.5037 207.644 36.7299 207.342 36.9852C207.041 37.2406 206.781 37.5082 206.569 37.783C206.369 38.0432 206.18 38.3521 205.997 38.7121C205.815 39.072 205.667 39.4296 205.555 39.7895C205.443 40.1495 205.389 40.4608 205.389 40.7284C205.389 41.1564 205.489 41.5212 205.693 41.8228C205.895 42.1244 206.173 42.3555 206.525 42.516C206.878 42.6765 207.267 42.7568 207.712 42.7568Z" fill="#FF6600"/>
<path id="Vector_46" d="M213.435 45.8089C213.075 45.8089 212.895 45.5535 212.895 45.0403C212.895 44.3666 213.189 43.2965 213.778 41.8299C213.877 41.5867 213.996 41.3288 214.135 41.0613C214.271 40.7938 214.432 40.5116 214.617 40.2125C214.806 39.8914 214.989 39.6117 215.161 39.3758C215.334 39.1399 215.485 38.9478 215.614 38.8018C215.66 38.7556 215.699 38.7264 215.735 38.7094C215.769 38.6948 215.799 38.6875 215.821 38.6875C216.018 38.6875 216.244 38.7459 216.497 38.8602C216.747 38.9745 216.973 39.1204 217.173 39.2955C217.355 39.4488 217.506 39.6312 217.62 39.8452C217.735 40.0592 217.793 40.2806 217.793 40.5092C217.793 40.677 217.761 40.8473 217.696 41.02C217.633 41.1926 217.545 41.3629 217.438 41.5307C217.635 41.4918 217.878 41.4042 218.165 41.2656C218.452 41.1294 218.744 40.9178 219.043 40.6357C219.072 40.6065 219.116 40.5895 219.17 40.5895C219.284 40.5895 219.342 40.6357 219.342 40.7281C219.342 40.767 219.325 40.8157 219.291 40.8716C219.257 40.93 219.196 41.0005 219.114 41.0832C218.55 41.6037 217.868 41.9004 217.073 41.9782C216.959 42.0998 216.835 42.2166 216.701 42.3285C216.567 42.4404 216.426 42.5401 216.283 42.6325C215.84 42.9 215.461 43.0338 215.149 43.0338C215.018 43.0338 214.913 42.9925 214.828 42.9073C214.743 42.8222 214.702 42.7274 214.702 42.6203C214.702 42.2677 215.008 42.0001 215.619 41.8177C215.84 41.7569 216.061 41.7034 216.283 41.6572C216.504 41.611 216.723 41.5623 216.937 41.5088C217.09 41.2729 217.202 41.0662 217.275 40.8886C217.348 40.7135 217.384 40.5627 217.384 40.4411C217.384 40.0349 217.083 39.6506 216.48 39.2834C216.241 39.1375 216.056 39.0694 215.918 39.0767C215.29 39.765 214.697 40.7281 214.14 41.9661C213.559 43.243 213.267 44.2475 213.267 44.982C213.267 45.1571 213.281 45.2763 213.313 45.3371C213.345 45.3979 213.398 45.4295 213.474 45.4295C213.495 45.4295 213.515 45.4271 213.532 45.4246C213.546 45.4198 213.561 45.4198 213.578 45.4198C213.678 45.4198 213.727 45.4806 213.727 45.6046C213.722 45.7408 213.624 45.8089 213.435 45.8089ZM215.222 42.6666C215.504 42.6666 215.915 42.4452 216.45 42.0026C216.326 42.0171 216.212 42.0366 216.1 42.0609C215.988 42.0852 215.83 42.1266 215.624 42.1874C215.281 42.2871 215.108 42.4136 215.108 42.5644C215.108 42.6325 215.147 42.6666 215.222 42.6666Z" fill="#FF6600"/>
<path id="Vector_47" d="M218.107 45.8089C217.747 45.8089 217.567 45.5535 217.567 45.0403C217.567 44.3666 217.861 43.2965 218.45 41.8299C218.55 41.5867 218.669 41.3288 218.807 41.0613C218.944 40.7938 219.104 40.5116 219.289 40.2125C219.481 39.8914 219.664 39.6117 219.834 39.3758C220.007 39.1399 220.157 38.9478 220.286 38.8018C220.332 38.7556 220.371 38.7264 220.408 38.7094C220.442 38.6948 220.471 38.6875 220.493 38.6875C220.69 38.6875 220.916 38.7459 221.169 38.8602C221.42 38.9745 221.646 39.1204 221.845 39.2955C222.028 39.4488 222.178 39.6312 222.293 39.8452C222.407 40.0592 222.465 40.2806 222.465 40.5092C222.465 40.677 222.434 40.8473 222.368 41.02C222.305 41.1926 222.217 41.3629 222.11 41.5307C222.307 41.4918 222.551 41.4042 222.838 41.2656C223.125 41.1294 223.416 40.9178 223.716 40.6357C223.745 40.6065 223.789 40.5895 223.842 40.5895C223.956 40.5895 224.015 40.6357 224.015 40.7281C224.015 40.767 223.998 40.8157 223.964 40.8716C223.93 40.93 223.869 41.0005 223.784 41.0832C223.219 41.6037 222.538 41.9004 221.743 41.9782C221.629 42.0998 221.505 42.2166 221.371 42.3285C221.237 42.4404 221.096 42.5401 220.953 42.6325C220.51 42.9 220.131 43.0338 219.819 43.0338C219.688 43.0338 219.583 42.9925 219.498 42.9073C219.413 42.8222 219.372 42.7274 219.372 42.6203C219.372 42.2677 219.678 42.0001 220.289 41.8177C220.51 41.7569 220.731 41.7034 220.953 41.6572C221.174 41.611 221.393 41.5623 221.607 41.5088C221.76 41.2729 221.872 41.0662 221.945 40.8886C222.018 40.7111 222.054 40.5627 222.054 40.4411C222.054 40.0349 221.753 39.6506 221.15 39.2834C220.911 39.1375 220.727 39.0694 220.588 39.0767C219.96 39.765 219.367 40.7281 218.81 41.9661C218.229 43.243 217.937 44.2475 217.937 44.982C217.937 45.1571 217.951 45.2763 217.983 45.3371C218.015 45.3979 218.068 45.4295 218.143 45.4295C218.165 45.4295 218.185 45.4271 218.202 45.4246C218.217 45.4198 218.231 45.4198 218.248 45.4198C218.348 45.4198 218.396 45.4806 218.396 45.6046C218.394 45.7408 218.297 45.8089 218.107 45.8089ZM219.895 42.6666C220.177 42.6666 220.588 42.4452 221.123 42.0026C220.999 42.0171 220.885 42.0366 220.773 42.0609C220.661 42.0852 220.503 42.1266 220.296 42.1874C219.953 42.2871 219.78 42.4136 219.78 42.5644C219.78 42.6325 219.819 42.6666 219.895 42.6666Z" fill="#FF6600"/>
<path id="Vector_48" d="M224.302 42.5866C223.682 42.5866 223.373 42.2388 223.373 41.5432C223.373 41.2222 223.449 40.8866 223.602 40.5339C223.755 40.1812 223.957 39.8553 224.21 39.5537C224.463 39.2521 224.742 39.004 225.054 38.8143C225.363 38.6246 225.679 38.5273 225.998 38.5273C226.28 38.5273 226.486 38.6344 226.618 38.8484C226.747 39.0624 226.812 39.3008 226.812 39.5586C226.812 39.904 226.744 40.2518 226.606 40.6069C226.469 40.9619 226.28 41.2879 226.044 41.587C225.808 41.8838 225.54 42.127 225.241 42.3094C224.944 42.4942 224.631 42.5866 224.302 42.5866ZM224.29 42.2194C224.336 42.2194 224.363 42.2145 224.37 42.2072C224.669 42.1683 224.942 42.0613 225.195 41.8862C225.448 41.7111 225.667 41.4897 225.854 41.2271C226.041 40.9619 226.185 40.6774 226.284 40.3734C226.384 40.0669 226.433 39.7653 226.433 39.4662C226.433 39.291 226.384 39.1524 226.284 39.0527C226.185 38.953 226.058 38.9043 225.908 38.9043C225.686 38.9043 225.45 38.9968 225.202 39.1792C224.954 39.3616 224.721 39.5951 224.502 39.8796C224.285 40.1618 224.108 40.4585 223.969 40.7674C223.83 41.0763 223.762 41.3535 223.762 41.5992C223.762 42.0127 223.937 42.2194 224.29 42.2194Z" fill="#FF6600"/>
<path id="Vector_49" d="M226.794 42.9283C226.672 42.9283 226.611 42.8773 226.611 42.78C226.611 42.7338 226.624 42.6876 226.65 42.6414C226.677 42.5951 226.699 42.5562 226.714 42.527L227.757 40.4183C228.2 39.516 228.423 39.015 228.423 38.9153C228.423 38.8082 228.477 38.7547 228.584 38.7547C228.73 38.7547 228.8 38.8277 228.8 38.9736C228.8 39.0515 228.766 39.1731 228.696 39.3409C228.628 39.5087 228.54 39.7033 228.433 39.9246C228.251 40.3211 228.097 40.6275 227.976 40.8415C228.204 40.574 228.438 40.3211 228.674 40.0851C228.91 39.8492 229.153 39.623 229.396 39.409C230.121 38.7742 230.68 38.458 231.07 38.458C231.337 38.458 231.471 38.5845 231.471 38.835C231.471 39.0806 231.391 39.2023 231.23 39.2023C231.152 39.2023 231.096 39.1366 231.057 39.0077C231.036 38.9153 230.982 38.869 230.897 38.869C230.766 38.869 230.515 39.0101 230.141 39.2947C229.73 39.6011 229.314 39.9635 228.898 40.3843C228.482 40.8051 228.039 41.3401 227.572 41.9895L227.001 42.7921C226.969 42.8311 226.942 42.8627 226.915 42.8894C226.886 42.9138 226.847 42.9283 226.794 42.9283Z" fill="#FF6600"/>
<path id="Vector_50" d="M230.889 43.4325C230.743 43.4325 230.672 43.3182 230.672 43.0872C230.672 42.7515 230.859 42.1629 231.239 41.3214C231.616 40.4799 232.18 39.3805 232.929 38.0185C232.64 38.0185 232.367 38.055 232.11 38.128C231.854 38.2009 231.718 38.2909 231.703 38.3979C231.696 38.4295 231.679 38.4563 231.652 38.4831C231.626 38.5098 231.587 38.5244 231.533 38.5244C231.409 38.5244 231.348 38.4636 231.348 38.3396C231.348 38.1401 231.504 37.9772 231.818 37.8458C232.131 37.7169 232.569 37.6512 233.136 37.6512L233.926 36.3452C233.98 36.26 234.038 36.1676 234.099 36.063C234.16 35.9609 234.23 35.8466 234.306 35.725C234.381 35.618 234.471 35.5645 234.571 35.5645C234.632 35.5645 234.678 35.5815 234.707 35.6155C234.739 35.6496 234.753 35.6861 234.753 35.725C234.753 35.8393 234.586 36.1457 234.25 36.6419C233.829 37.2621 233.603 37.5977 233.574 37.6512C233.688 37.6512 233.861 37.661 234.089 37.6804C234.318 37.6999 234.59 37.7291 234.904 37.7656C235.018 37.7729 235.077 37.8312 235.077 37.9382C235.077 38.0599 235.009 38.1231 234.87 38.1231C234.817 38.1231 234.71 38.1134 234.549 38.0939C234.389 38.0744 234.216 38.0574 234.034 38.0428C233.851 38.0282 233.693 38.0234 233.562 38.0307L233.389 38.0428C231.837 40.7717 231.066 42.467 231.073 43.1334L231.086 43.2258V43.2477C231.083 43.3717 231.018 43.4325 230.889 43.4325Z" fill="#FF6600"/>
<path id="Vector_51" d="M236.702 43.035C236.328 43.035 236.14 42.7626 236.14 42.2203C236.14 41.9308 236.208 41.5782 236.347 41.1647C235.423 42.2421 234.696 42.7821 234.168 42.7821C233.732 42.7821 233.514 42.517 233.514 41.9916C233.514 41.7922 233.545 41.5538 233.611 41.2741C233.676 40.9944 233.764 40.7074 233.874 40.4083C233.985 40.1091 234.105 39.8319 234.236 39.5716C234.367 39.3114 234.496 39.1022 234.625 38.9417C234.671 38.8882 234.727 38.8614 234.798 38.8614C234.837 38.8614 234.873 38.876 234.912 38.9028C234.951 38.9295 234.968 38.9709 234.968 39.0219C234.968 39.0682 234.941 39.1338 234.888 39.2165C234.542 39.7808 234.299 40.2745 234.153 40.6953C233.971 41.1768 233.878 41.5928 233.878 41.9454C233.878 42.2738 233.961 42.4392 234.131 42.4392C234.238 42.4392 234.379 42.3856 234.554 42.2786C234.73 42.1716 234.912 42.0403 235.099 41.8822C235.287 41.7265 235.45 41.5782 235.586 41.4395C235.968 41.0334 236.313 40.6029 236.617 40.1432C236.756 39.9292 236.88 39.72 236.989 39.5181C237.099 39.3162 237.201 39.1022 237.293 38.8809C237.332 38.7958 237.364 38.7349 237.39 38.6912C237.417 38.6498 237.456 38.6279 237.51 38.6279C237.67 38.6279 237.75 38.6887 237.75 38.8103C237.75 38.8882 237.724 38.9417 237.67 38.9709C236.892 40.5518 236.5 41.6414 236.5 42.2397C236.5 42.4002 236.515 42.5121 236.546 42.5778C236.576 42.6434 236.632 42.6751 236.707 42.6751C236.814 42.6751 236.979 42.607 237.206 42.4683C237.429 42.3321 237.697 42.1205 238.001 41.8384L239.205 40.7366C239.266 40.6758 239.324 40.6442 239.377 40.6442C239.499 40.6442 239.56 40.7026 239.56 40.8169C239.56 40.9166 239.319 41.1841 238.838 41.6195C238.631 41.8092 238.448 41.9722 238.288 42.1011C238.127 42.23 237.977 42.3467 237.84 42.444C237.58 42.6289 237.352 42.7699 237.152 42.8745C236.962 42.984 236.807 43.035 236.702 43.035Z" fill="#FF6600"/>
<path id="Vector_52" d="M238.476 42.9283C238.352 42.9283 238.294 42.8773 238.294 42.78C238.294 42.7411 238.308 42.6924 238.34 42.6365C238.369 42.5781 238.396 42.5319 238.42 42.493L239.451 40.4183C239.894 39.516 240.118 39.015 240.118 38.9153C240.118 38.8082 240.171 38.7547 240.278 38.7547C240.424 38.7547 240.495 38.8326 240.495 38.9834C240.495 39.0369 240.461 39.1512 240.39 39.3287C240.32 39.5063 240.234 39.7033 240.127 39.9246C239.945 40.3211 239.792 40.6275 239.67 40.8415C239.899 40.574 240.132 40.3211 240.368 40.0851C240.604 39.8492 240.847 39.623 241.091 39.409C241.818 38.7742 242.375 38.458 242.764 38.458C243.032 38.458 243.165 38.5845 243.165 38.835C243.165 39.0636 242.971 39.5792 242.582 40.3843C242.192 41.1942 241.998 41.7074 241.998 41.9214C241.998 42.0211 242.032 42.0698 242.1 42.0698C242.122 42.0698 242.158 42.0601 242.209 42.0406C242.258 42.0211 242.309 42.0114 242.365 42.0114C242.494 42.0114 242.56 42.0722 242.56 42.1963C242.56 42.3495 242.394 42.4249 242.066 42.4249C241.913 42.4249 241.803 42.3884 241.733 42.3154C241.662 42.2425 241.628 42.1452 241.628 42.0236C241.628 41.6563 241.815 41.0994 242.19 40.3502C242.564 39.6084 242.752 39.1609 242.752 39.0077C242.752 38.9153 242.718 38.869 242.65 38.869C242.482 38.869 242.209 39.0101 241.835 39.2947C241.431 39.6011 241.025 39.9514 240.619 40.3502C240.215 40.7467 239.828 41.2015 239.461 41.7147L238.658 42.8262C238.615 42.8943 238.554 42.9283 238.476 42.9283Z" fill="#FF6600"/>
<path id="Vector_53" d="M243.946 42.77C243.732 42.77 243.577 42.7287 243.482 42.6435C243.387 42.5584 243.338 42.4344 243.338 42.2666C243.338 42.106 243.387 41.8871 243.487 41.6074C243.586 41.3277 243.713 41.0286 243.871 40.7075C244.029 40.3865 244.195 40.08 244.37 39.7906C244.545 39.5012 244.715 39.2604 244.88 39.0731C245.046 38.8858 245.177 38.7934 245.277 38.7934C245.415 38.7934 245.481 38.8542 245.481 38.9783C245.481 39.0561 245.418 39.1996 245.287 39.4136C245.155 39.6276 245.014 39.849 244.863 40.0776C244.803 40.1627 244.717 40.277 244.61 40.423C244.503 40.5689 244.401 40.7027 244.301 40.8291C244.202 40.9556 244.136 41.0407 244.107 41.0869C244.029 41.2013 243.949 41.3885 243.866 41.6488C243.774 41.909 243.728 42.1085 243.728 42.2447C243.728 42.3055 243.74 42.3517 243.769 42.3809C243.796 42.4125 243.859 42.4271 243.956 42.4271C244.146 42.4271 244.362 42.3663 244.598 42.2447C244.834 42.1231 245.075 41.9674 245.321 41.7801C245.564 41.5929 245.795 41.4007 246.014 41.2013C246.23 41.0043 246.415 40.8316 246.568 40.6856C246.597 40.6565 246.644 40.6394 246.707 40.6394C246.821 40.6394 246.88 40.6857 246.88 40.7781C246.88 40.8632 246.826 40.9581 246.719 41.0651C246.515 41.2718 246.323 41.4542 246.147 41.6147C245.97 41.7753 245.802 41.9163 245.642 42.0379C245.391 42.2228 245.111 42.3906 244.805 42.5414C244.501 42.6922 244.214 42.77 243.946 42.77ZM245.895 38.127C245.763 38.127 245.7 38.0613 245.7 37.9324C245.7 37.8935 245.727 37.823 245.78 37.7208C245.834 37.6187 245.895 37.5117 245.963 37.4046C246.031 37.2976 246.084 37.2247 246.123 37.1857C246.252 37.0398 246.354 36.9498 246.427 36.9109C246.5 36.872 246.568 36.8525 246.629 36.8525C246.79 36.8525 246.87 36.9255 246.87 37.069C246.87 37.1225 246.838 37.1857 246.773 37.2587C246.707 37.3317 246.634 37.3998 246.549 37.4606C246.427 37.536 246.349 37.5968 246.32 37.643L246.067 37.9981C246.06 38.0273 246.043 38.0565 246.016 38.0832C245.989 38.1124 245.948 38.127 245.895 38.127Z" fill="#FF6600"/>
<path id="Vector_54" d="M246.238 43.4325C246.092 43.4325 246.019 43.3182 246.019 43.0872C246.019 42.7515 246.209 42.1629 246.586 41.3214C246.965 40.4799 247.527 39.3805 248.276 38.0185C247.984 38.0185 247.712 38.055 247.457 38.128C247.201 38.2009 247.065 38.2909 247.05 38.3979C247.043 38.4295 247.026 38.4563 246.999 38.4831C246.973 38.5098 246.931 38.5244 246.878 38.5244C246.756 38.5244 246.695 38.4636 246.695 38.3396C246.695 38.1401 246.853 37.9772 247.165 37.8458C247.478 37.7169 247.916 37.6512 248.483 37.6512L249.273 36.3452C249.327 36.26 249.383 36.1676 249.446 36.063C249.507 35.9609 249.575 35.8466 249.653 35.725C249.728 35.618 249.818 35.5645 249.915 35.5645C249.976 35.5645 250.023 35.5815 250.054 35.6155C250.083 35.6496 250.1 35.6861 250.1 35.725C250.1 35.8393 249.932 36.1457 249.594 36.6419C249.174 37.2621 248.95 37.5977 248.918 37.6512C249.033 37.6512 249.205 37.661 249.434 37.6804C249.662 37.6999 249.935 37.7291 250.249 37.7656C250.363 37.7729 250.421 37.8312 250.421 37.9382C250.421 38.0599 250.353 38.1231 250.215 38.1231C250.161 38.1231 250.054 38.1134 249.894 38.0939C249.733 38.0744 249.56 38.0574 249.378 38.0428C249.193 38.0282 249.037 38.0234 248.909 38.0307L248.736 38.0428C247.184 40.7717 246.411 42.467 246.42 43.1334L246.43 43.2258V43.2477C246.433 43.3717 246.367 43.4325 246.238 43.4325Z" fill="#FF6600"/>
<path id="Vector_55" d="M248.692 46.4386C248.225 46.4386 247.991 46.1638 247.991 45.6117C247.991 45.1447 248.091 44.6947 248.29 44.2594C248.32 44.184 248.371 44.1451 248.441 44.1451C248.577 44.1451 248.645 44.2059 248.645 44.3299C248.645 44.3615 248.636 44.4004 248.619 44.4491C248.599 44.5002 248.577 44.5537 248.556 44.6169C248.502 44.7628 248.461 44.9136 248.429 45.0766C248.4 45.2371 248.383 45.4049 248.383 45.58C248.383 45.7795 248.41 45.9132 248.463 45.9813C248.517 46.0494 248.585 46.0835 248.667 46.0835C248.867 46.0835 249.1 45.9911 249.373 45.8087C249.643 45.6238 249.925 45.3344 250.217 44.9379C250.421 44.6558 250.635 44.3177 250.859 43.9286C251.08 43.5394 251.318 43.0919 251.569 42.586C251.907 41.9221 252.216 41.2435 252.498 40.5576C252.306 40.8032 252.109 41.0392 251.902 41.2678C251.695 41.4964 251.474 41.7104 251.236 41.9099C250.601 42.4523 250.073 42.7247 249.655 42.7247C249.149 42.7247 248.898 42.4352 248.898 41.854C248.898 41.6472 248.937 41.3991 249.02 41.1097C249.1 40.8203 249.212 40.4871 249.358 40.1125C249.38 40.0517 249.392 40.0006 249.392 39.9569C249.392 39.9155 249.404 39.8717 249.426 39.8255C249.548 39.558 249.752 39.2588 250.034 38.9305C250.095 38.8624 250.149 38.8283 250.195 38.8283C250.309 38.8283 250.367 38.9134 250.367 39.0813C249.626 40.1757 249.256 41.1 249.256 41.8564C249.256 42.1774 249.382 42.338 249.635 42.338C249.918 42.338 250.312 42.1434 250.815 41.7518C251.175 41.477 251.508 41.1656 251.812 40.8178C252.119 40.47 252.391 40.1076 252.637 39.7331C252.805 39.4801 252.941 39.2564 253.043 39.0618C253.145 38.8672 253.211 38.7359 253.233 38.6678C253.269 38.5535 253.323 38.4951 253.393 38.4951C253.539 38.4951 253.612 38.5559 253.612 38.68C253.612 38.7408 253.583 38.8502 253.527 39.0059C253.469 39.1615 253.398 39.3488 253.315 39.5604C253.194 39.8742 253.016 40.2949 252.788 40.8227C252.559 41.3505 252.272 41.978 251.929 42.7028C251.501 43.6051 251.08 44.3421 250.667 44.9161C250.36 45.3514 250.027 45.7138 249.662 46.0057C249.3 46.2927 248.974 46.4386 248.692 46.4386Z" fill="#FF6600"/>
</g>
</g>
</g>
</svg>
