<svg width="20" height="20" viewBox="0 0 20 20" fill="none" xmlns="http://www.w3.org/2000/svg">
<path fill-rule="evenodd" clip-rule="evenodd" d="M1.68474 7.35149C1.66797 7.92216 1.66797 8.57707 1.66797 9.333V10.6663C1.66797 13.4948 1.66797 14.909 2.54665 15.7877C3.42533 16.6663 4.83954 16.6663 7.66797 16.6663H12.3346C15.1631 16.6663 16.5773 16.6663 17.456 15.7877C18.3346 14.909 18.3346 13.4948 18.3346 10.6663V9.33301C18.3346 8.57708 18.3346 7.92216 18.3179 7.35149L10.9936 11.5368C10.3787 11.8881 9.62389 11.8881 9.00903 11.5368L1.68474 7.35149ZM1.9499 5.23048C2.0231 5.25205 2.09497 5.2824 2.16411 5.32191L10.0013 9.8003L17.8385 5.32191C17.9076 5.2824 17.9795 5.25205 18.0527 5.23048C17.9228 4.81923 17.7331 4.48882 17.456 4.21169C16.5773 3.33301 15.1631 3.33301 12.3346 3.33301H7.66797C4.83954 3.33301 3.42533 3.33301 2.54665 4.21169C2.26951 4.48882 2.07979 4.81923 1.9499 5.23048Z" fill="#FF6500"/>
</svg>
