<svg width="36" height="36" viewBox="0 0 36 36" fill="none" xmlns="http://www.w3.org/2000/svg">
<path d="M0 12.8C0 8.31958 0 6.07937 0.871948 4.36808C1.63893 2.86278 2.86278 1.63893 4.36808 0.871948C6.07937 0 8.31958 0 12.8 0H23.2C27.6804 0 29.9206 0 31.6319 0.871948C33.1372 1.63893 34.3611 2.86278 35.1281 4.36808C36 6.07937 36 8.31958 36 12.8V23.2C36 27.6804 36 29.9206 35.1281 31.6319C34.3611 33.1372 33.1372 34.3611 31.6319 35.1281C29.9206 36 27.6804 36 23.2 36H12.8C8.31958 36 6.07937 36 4.36808 35.1281C2.86278 34.3611 1.63893 33.1372 0.871948 31.6319C0 29.9206 0 27.6804 0 23.2V12.8Z" fill="#FF6500"/>
<path d="M14.5139 25.5087C21.5898 25.5087 25.4592 19.6466 25.4592 14.5634C25.4592 14.3969 25.4558 14.2311 25.4484 14.0663C26.1994 13.5232 26.8522 12.8455 27.3673 12.0742C26.678 12.3807 25.9361 12.5867 25.1581 12.68C25.9523 12.2035 26.5621 11.4502 26.8497 10.5521C26.1064 10.9928 25.2832 11.3129 24.407 11.4858C23.705 10.7381 22.7055 10.2705 21.5988 10.2705C19.4746 10.2705 17.7517 11.9932 17.7517 14.1168C17.7517 14.4188 17.7855 14.7124 17.8515 14.994C14.6543 14.8331 11.8191 13.3025 9.92196 10.9748C9.59172 11.5432 9.40115 12.2036 9.40115 12.9084C9.40115 14.2428 10.0803 15.4212 11.113 16.1104C10.4819 16.091 9.88905 15.9177 9.37076 15.6294C9.37019 15.6455 9.37019 15.6612 9.37019 15.6784C9.37019 17.5415 10.6962 19.097 12.4566 19.4495C12.1333 19.5375 11.7931 19.5848 11.4422 19.5848C11.1947 19.5848 10.9535 19.5605 10.7191 19.5155C11.2088 21.0439 12.6291 22.1562 14.3128 22.1874C12.9961 23.2194 11.3375 23.8341 9.53485 23.8341C9.2248 23.8341 8.9183 23.8163 8.61719 23.7808C10.3197 24.872 12.3414 25.5089 14.514 25.5089" fill="white"/>
</svg>
