<svg width="36" height="36" viewBox="0 0 36 36" fill="none" xmlns="http://www.w3.org/2000/svg">
<path d="M0 12.8C0 8.31958 0 6.07937 0.871948 4.36808C1.63893 2.86278 2.86278 1.63893 4.36808 0.871948C6.07937 0 8.31958 0 12.8 0H23.2C27.6804 0 29.9206 0 31.6319 0.871948C33.1372 1.63893 34.3611 2.86278 35.1281 4.36808C36 6.07937 36 8.31958 36 12.8V23.2C36 27.6804 36 29.9206 35.1281 31.6319C34.3611 33.1372 33.1372 34.3611 31.6319 35.1281C29.9206 36 27.6804 36 23.2 36H12.8C8.31958 36 6.07937 36 4.36808 35.1281C2.86278 34.3611 1.63893 33.1372 0.871948 31.6319C0 29.9206 0 27.6804 0 23.2V12.8Z" fill="#FF6500"/>
<path d="M26.9808 13.314C26.7648 12.5107 26.1315 11.8775 25.3283 11.6612C23.8611 11.2598 17.992 11.2598 17.992 11.2598C17.992 11.2598 12.1231 11.2598 10.6558 11.646C9.86814 11.8621 9.21938 12.5108 9.00331 13.314C8.61719 14.7811 8.61719 17.8238 8.61719 17.8238C8.61719 17.8238 8.61719 20.8817 9.00331 22.3335C9.2196 23.1367 9.85269 23.7699 10.656 23.9862C12.1385 24.3877 17.9922 24.3877 17.9922 24.3877C17.9922 24.3877 23.8611 24.3877 25.3283 24.0015C26.1316 23.7853 26.7648 23.1521 26.9811 22.349C27.3671 20.8817 27.3671 17.8392 27.3671 17.8392C27.3671 17.8392 27.3825 14.7811 26.9808 13.314ZM16.1234 20.6347V15.0129L21.0038 17.8238L16.1234 20.6347Z" fill="white"/>
</svg>
