<svg width="22" height="20" viewBox="0 0 22 20" fill="none" xmlns="http://www.w3.org/2000/svg">
<path fill-rule="evenodd" clip-rule="evenodd" d="M17.9831 13.8924V16.2463C17.9831 16.2697 17.9641 16.2888 17.9407 16.2888H14.8262C13.6314 16.2888 12.4623 16.5932 11.4252 17.1644C11.4085 17.1736 11.3885 17.1708 11.3749 17.1574C11.3613 17.1439 11.3583 17.124 11.3673 17.1072C12.6955 14.6253 14.9799 13.6892 17.943 13.85C17.9656 13.8512 17.9831 13.8698 17.9831 13.8924ZM4.17537 11.7385C3.66988 11.1097 3.41855 10.2817 3.36465 9.4852L3.36129 9.436C3.36047 9.42385 3.36431 9.41305 3.37261 9.40417C3.38092 9.39529 3.39143 9.39069 3.40362 9.39069H5.08501C5.0972 9.39069 5.10772 9.39525 5.11602 9.40417C5.12433 9.4131 5.12817 9.42385 5.12735 9.436L5.12404 9.4852C5.07009 10.2817 4.81881 11.1096 4.31332 11.7385L4.27741 11.7831C4.26906 11.7935 4.25764 11.799 4.24434 11.799C4.23105 11.799 4.21957 11.7935 4.21127 11.7831L4.17537 11.7385ZM5.05554 6.49648C6.06129 6.83507 6.75325 7.75806 6.87508 8.80653L6.88103 8.85789C6.88247 8.87037 6.87892 8.88165 6.87056 8.89101C6.86221 8.90037 6.85141 8.90521 6.83889 8.90521H5.65593C5.63356 8.90521 5.61503 8.88793 5.61359 8.86557C5.56103 8.06805 5.37594 7.31545 4.95196 6.62675L4.88519 6.51832C4.87564 6.50281 4.87679 6.4839 4.88812 6.46965C4.89945 6.45539 4.91764 6.45001 4.93487 6.45582L5.05554 6.49648ZM5.65588 9.39073C5.63351 9.39073 5.61498 9.40806 5.61354 9.43038C5.56098 10.2279 5.37594 10.9805 4.95196 11.6692L4.88524 11.7777C4.87569 11.7932 4.87684 11.8121 4.88816 11.8263C4.89949 11.8406 4.91769 11.846 4.93492 11.8401L5.05559 11.7995C6.06133 11.4609 6.7533 10.5379 6.87508 9.48947L6.88103 9.43811C6.88247 9.42563 6.87892 9.41435 6.87056 9.40499C6.86221 9.39563 6.85141 9.39078 6.83889 9.39078H5.65588V9.39073ZM2.87759 9.47387L2.875 9.43057C2.87365 9.40816 2.85513 9.39069 2.83261 9.39069H1.64975C1.63722 9.39069 1.62642 9.39553 1.61807 9.40489C1.60972 9.41425 1.60617 9.42553 1.60761 9.43801L1.61356 9.48937C1.73533 10.5378 2.4273 11.4608 3.43309 11.7994L3.55377 11.84C3.571 11.8458 3.58919 11.8405 3.60052 11.8262C3.61185 11.8119 3.613 11.793 3.60345 11.7775L3.53668 11.6691C3.13401 11.0152 2.92372 10.237 2.87759 9.47387ZM2.83271 8.90526H1.64975C1.63722 8.90526 1.62642 8.90041 1.61807 8.89105C1.60972 8.88169 1.60617 8.87041 1.60761 8.85793L1.61356 8.80657C1.73533 7.75811 2.42735 6.83507 3.43309 6.49653L3.55377 6.45592C3.571 6.45011 3.58919 6.45549 3.60052 6.46974C3.61185 6.484 3.613 6.50291 3.60345 6.51841L3.53668 6.62685C3.11269 7.31555 2.92761 8.06814 2.87505 8.86566C2.87361 8.88793 2.85513 8.90526 2.83271 8.90526ZM4.31332 6.55753L4.27741 6.51289C4.26906 6.50253 4.25764 6.49705 4.24434 6.49705C4.23105 6.49705 4.21957 6.50253 4.21127 6.51289L4.17537 6.55753C3.66988 7.18633 3.4186 8.01429 3.36465 8.8108L3.36129 8.85995C3.36047 8.87209 3.36431 8.88289 3.37261 8.89177C3.38092 8.90065 3.39143 8.90526 3.40362 8.90526H5.08501C5.0972 8.90526 5.10772 8.9007 5.11602 8.89177C5.12433 8.88284 5.12817 8.87209 5.12735 8.85995L5.12404 8.8108C5.07004 8.01429 4.81876 7.18633 4.31332 6.55753ZM17.321 7.72182H20.925C21.295 7.72182 21.5977 8.02451 21.5977 8.39454V10.1725C21.5977 10.5425 21.2949 10.8452 20.925 10.8452H19.2587C19.2456 10.8452 19.2344 10.8505 19.2261 10.8605L18.2034 12.0921C18.1918 12.1061 18.1735 12.1111 18.1563 12.1049C18.1392 12.0987 18.1283 12.0832 18.1283 12.065V10.8876C18.1283 10.8642 18.1092 10.8452 18.0859 10.8452H17.321C16.951 10.8452 16.6483 10.5424 16.6483 10.1725V8.39449C16.6483 8.02456 16.951 7.72182 17.321 7.72182ZM15.8056 6.12611C15.4356 6.12611 15.1329 6.42885 15.1329 6.79883V8.5768C15.1329 8.94683 15.4356 9.24952 15.8056 9.24952H16.054C16.0773 9.24952 16.0964 9.23046 16.0964 9.20709V8.39454C16.0964 7.71995 16.6464 7.16997 17.321 7.16997H20.0399C20.0633 7.16997 20.0823 7.15091 20.0823 7.12753V6.79883C20.0823 6.42885 19.7796 6.12611 19.4096 6.12611H15.8056ZM11.2034 0.333566L14.6887 2.03929C14.7036 2.04659 14.7125 2.0608 14.7125 2.07741C14.7125 2.09401 14.7036 2.10822 14.6887 2.11552L11.2034 3.8212C11.1913 3.82715 11.1783 3.82715 11.1661 3.8212L8.30082 2.41893C8.28729 2.4123 8.2725 2.41307 8.25969 2.42104C8.24692 2.42901 8.23972 2.44197 8.23972 2.45704V4.16315C8.23972 4.33897 8.09716 4.48153 7.92133 4.48153C7.74551 4.48153 7.60295 4.33897 7.60295 4.16315V2.10385C7.60295 2.08725 7.61183 2.07304 7.62676 2.06574L11.1661 0.333566C11.1783 0.327614 11.1913 0.327614 11.2034 0.333566ZM13.0772 3.58657C13.0772 3.5715 13.07 3.55854 13.0572 3.55057C13.0445 3.54261 13.0296 3.54184 13.0161 3.54846L11.2034 4.4356C11.1913 4.44155 11.1783 4.44155 11.1661 4.4356L9.35346 3.54846C9.33992 3.54184 9.32514 3.54261 9.31233 3.55057C9.29956 3.55854 9.29236 3.5715 9.29236 3.58657V5.01453C9.29236 5.4771 9.67084 5.85558 10.1334 5.85558H12.2361C12.6987 5.85558 13.0772 5.4771 13.0772 5.01453V3.58657ZM0.716821 18.3376H7.18669C8.37268 18.3376 9.44346 18.8466 10.192 19.6574C10.2003 19.6664 10.2109 19.671 10.2231 19.671H11.7897C11.802 19.671 11.8125 19.6664 11.8209 19.6574C12.5694 18.8466 13.6402 18.3376 14.8262 18.3376H21.2139C21.3897 18.3376 21.5323 18.195 21.5323 18.0192C21.5323 17.8434 21.3897 17.7008 21.2139 17.7008H19.6466C19.6232 17.7008 19.6041 17.6818 19.6041 17.6584V16.9679C19.6041 16.9445 19.5851 16.9255 19.5617 16.9255H14.8262C13.4484 16.9255 12.1222 17.3698 11.0315 18.1693C11.0164 18.1804 10.9965 18.1804 10.9814 18.1693C9.89068 17.3698 8.56458 16.9255 7.18669 16.9255H2.45121C2.42783 16.9255 2.40877 16.9445 2.40877 16.9679V17.6584C2.40877 17.6818 2.38972 17.7008 2.36634 17.7008H0.716821C0.540997 17.7008 0.398438 17.8434 0.398438 18.0192C0.398438 18.195 0.540997 18.3376 0.716821 18.3376ZM4.02978 13.8924C4.02978 13.8698 4.04735 13.8512 4.06996 13.85C7.033 13.6892 9.31746 14.6253 10.6456 17.1072C10.6546 17.124 10.6516 17.1439 10.638 17.1574C10.6245 17.1708 10.6044 17.1736 10.5877 17.1644C9.55064 16.5932 8.38156 16.2888 7.18669 16.2888H4.07221C4.04884 16.2888 4.02978 16.2697 4.02978 16.2463V13.8924Z" fill="#FF6500"/>
</svg>
