<svg width="22" height="24" viewBox="0 0 22 24" fill="none" xmlns="http://www.w3.org/2000/svg">
<path fill-rule="evenodd" clip-rule="evenodd" d="M18.5372 11.5847C18.7008 11.429 18.9 11.3137 19.1218 11.2523L19.0768 13.0115C18.7739 13.0739 18.4857 13.2164 18.2475 13.4315L18.0802 13.5829L18.1055 12.5559C18.1163 12.172 18.2794 11.8294 18.5372 11.5847ZM20.9452 9.41482C20.3925 9.40029 19.9299 9.83998 19.9168 10.3926L19.8502 13.0223C20.1891 13.1006 20.5064 13.2801 20.7563 13.5567C21.4125 14.2809 21.3553 15.4101 20.6316 16.0655L19.2296 17.3344C19.0913 17.459 18.8761 17.4487 18.751 17.3104L18.6872 17.2387C18.5625 17.1019 18.5728 16.8867 18.7097 16.7615L20.1127 15.4926C20.5219 15.1219 20.5538 14.4839 20.183 14.0747C20.0822 13.9631 19.9599 13.8792 19.8296 13.8234C19.4799 13.6786 19.0627 13.7344 18.765 14.0044C17.8693 14.8148 16.9725 15.6267 16.0758 16.4386C15.3582 17.0869 14.9808 17.9123 14.9555 18.8794L14.8983 21.1701L19.178 21.1744C19.2628 20.6189 19.5263 20.1379 19.9608 19.7461L20.9428 18.8559C21.4622 18.3858 21.736 17.789 21.7547 17.0887L21.9221 10.4437C21.9361 9.8906 21.4964 9.42842 20.9452 9.41482ZM19.9421 21.9487L14.0691 21.9422C13.9243 21.9422 13.8061 22.0603 13.8061 22.2037L13.8047 23.7079C13.8047 23.8514 13.9214 23.9695 14.0663 23.9695L19.9393 23.9761C20.0841 23.9761 20.2008 23.858 20.2022 23.7145L20.2036 22.2103C20.2036 22.0673 20.0855 21.9487 19.9421 21.9487ZM10.9983 17.1004C5.3391 15.1762 3.23019 9.76451 2.33488 4.3017C4.57785 4.07295 6.35582 2.27389 6.55363 0.0229492H15.4444C15.6422 2.27389 17.4202 4.07295 19.6618 4.3017C18.7674 9.76451 16.6585 15.1762 10.9983 17.1004ZM17.7535 5.51623C16.05 4.8267 14.7146 3.42232 14.1155 1.67764H7.88113C7.28207 3.42232 5.94801 4.8267 4.24457 5.51623C5.11363 9.64873 6.8766 13.664 10.9983 15.3356C15.1214 13.664 16.8844 9.64873 17.7535 5.51623ZM15.2194 5.90857C14.8449 5.69342 14.3625 5.82232 14.146 6.19686L13.0285 8.13139C12.8663 8.41311 12.5874 8.57389 12.263 8.57389H9.73457C9.41019 8.57389 9.13129 8.41311 8.9691 8.13139L7.8516 6.19686C7.63504 5.82232 7.15129 5.69342 6.77676 5.90857C6.40222 6.12514 6.27332 6.60889 6.48988 6.98342C7.37769 8.52092 7.92613 9.47201 8.81394 11.0109C8.93629 11.2209 8.99207 11.4295 8.99207 11.6728V12.5709H13.006V11.6728C13.006 11.4295 13.0618 11.2209 13.1827 11.0109C14.0714 9.47201 14.6203 8.52092 15.5082 6.98342C15.7243 6.60842 15.5944 6.12514 15.2194 5.90857ZM11.0738 7.66779C11.9307 7.66779 12.631 6.96748 12.631 6.11061C12.631 5.25373 11.9307 4.55342 11.0738 4.55342C10.2169 4.55342 9.5166 5.25373 9.5166 6.11061C9.5166 6.96748 10.2169 7.66779 11.0738 7.66779ZM3.91738 13.5829L3.89066 12.5559C3.88129 12.172 3.71676 11.8289 3.46035 11.5847C3.29676 11.429 3.09754 11.3137 2.87582 11.2523L2.91988 13.0115C3.2241 13.0739 3.51238 13.2164 3.75051 13.4315L3.91738 13.5829ZM2.81722 21.1744L7.09832 21.1701L7.04113 18.8794C7.01582 17.9119 6.63847 17.0869 5.91988 16.4386C5.0241 15.6267 4.12738 14.8148 3.23066 14.0044C2.93441 13.7348 2.51582 13.679 2.16754 13.8234C2.03582 13.8792 1.91488 13.9631 1.8141 14.0747C1.44332 14.4839 1.47519 15.1219 1.88441 15.4926L3.28644 16.7615C3.42472 16.8862 3.43504 17.1019 3.31035 17.2387L3.24519 17.3104C3.1205 17.4487 2.90629 17.459 2.76801 17.3344L1.36597 16.0655C0.640349 15.4106 0.584568 14.2809 1.23988 13.5567C1.48972 13.2801 1.80847 13.1011 2.14738 13.0223L2.08082 10.3926C2.06769 9.83998 1.60363 9.40029 1.05238 9.41482C0.50113 9.42795 0.0600365 9.8906 0.0745677 10.4433L0.241911 17.0883C0.259255 17.7886 0.533005 18.3853 1.05379 18.8554L2.03582 19.7456C2.47035 20.1379 2.73191 20.6189 2.81722 21.1744ZM7.92894 21.9422L2.05597 21.9487C1.91254 21.9487 1.79441 22.0669 1.79441 22.2103L1.79582 23.7145C1.79582 23.858 1.91394 23.9761 2.05879 23.9761L7.93176 23.9695C8.07519 23.9695 8.19332 23.8514 8.19332 23.7079L8.19191 22.2037C8.19051 22.0608 8.07379 21.9422 7.92894 21.9422Z" fill="#FF6500"/>
</svg>
