<svg width="38" height="38" viewBox="0 0 38 38" fill="none" xmlns="http://www.w3.org/2000/svg">
<path fill-rule="evenodd" clip-rule="evenodd" d="M25.2777 25.3311C27.6601 25.7541 29.8941 26.3998 31.9648 27.2682C32.2097 27.3721 32.3359 27.6393 32.2617 27.8916L31.757 29.569C33.2636 30.0514 34.5699 30.5487 35.9281 31.2018C36.3882 31.417 36.314 32.0405 35.8761 32.174L33.0632 33.0647L34.0652 36.2858C34.1988 36.7237 33.746 37.1096 33.3378 36.9018C31.1781 35.7959 28.7437 35.0389 26.4281 34.7123C26.1312 34.6678 25.9308 34.3932 25.9902 34.0889L26.3835 31.944C21.6113 30.9049 16.3714 30.9049 11.5992 31.944L11.9925 34.0889C12.0519 34.3932 11.8515 34.6678 11.5546 34.7123C9.23901 35.0463 6.79721 35.7959 4.64487 36.9018C4.23666 37.1096 3.77651 36.7237 3.91752 36.2858L4.91948 33.0647L2.10659 32.174C1.6687 32.0405 1.59448 31.417 2.05463 31.2018C3.41284 30.5487 4.71166 30.0514 6.22573 29.569L5.72104 27.8916C5.64682 27.6319 5.78041 27.3498 6.03276 27.2608C7.94018 26.4666 10.0257 25.8432 12.2449 25.4201C12.4007 25.3905 12.5566 25.3608 12.7124 25.3311C11.7996 24.4182 11.0945 23.3049 10.6492 22.0877C9.23159 18.1987 10.7011 13.8494 14.1894 11.6006C16.0894 10.376 18.457 9.87131 20.8394 10.3834C20.8617 10.3834 20.8765 10.3908 20.8914 10.3983C23.2738 10.9178 25.2183 12.3576 26.4429 14.2576C27.6749 16.1651 28.1722 18.5475 27.6601 20.9373C27.3039 22.6221 26.4726 24.1362 25.2777 25.3311ZM31.4675 30.5635L30.8367 32.6787C30.7847 32.842 30.666 32.9608 30.5175 33.0201L28.2687 33.9924C29.7828 34.3264 31.2894 34.8162 32.7292 35.4619L31.9277 32.8791C31.8386 32.6045 31.9945 32.3151 32.2691 32.2334L34.2878 31.5951C33.3824 31.2092 32.4249 30.8678 31.4675 30.5635ZM28.8847 32.5971C28.4023 32.4487 27.905 32.3076 27.4003 32.1815L27.1925 33.3319L28.8847 32.5971ZM10.5972 32.1815C10.0925 32.3076 9.59526 32.4487 9.11284 32.5971L10.805 33.3319L10.5972 32.1815ZM7.4726 33.0127C7.32416 32.9608 7.21284 32.8346 7.16088 32.6787L6.53002 30.5635C5.5726 30.8678 4.61518 31.2166 3.70971 31.5951L5.72846 32.2334C6.00307 32.3225 6.15151 32.6045 6.06987 32.8791L5.2683 35.4619C6.70815 34.8162 8.21479 34.3264 9.72885 33.9924L7.4726 33.0127ZM9.8476 4.35686L10.5601 5.87835L12.23 6.08616C12.6902 6.14553 12.846 6.69475 12.4972 6.99905L11.2949 8.12717L11.614 9.77483C11.6956 10.2053 11.2355 10.5393 10.857 10.3315L9.38745 9.52249L7.91791 10.3315C7.53198 10.5393 7.07924 10.2053 7.16088 9.77483L7.48002 8.12717L6.24057 6.97678C5.92143 6.67249 6.09956 6.13811 6.53002 6.08616L8.19995 5.87835L8.91245 4.35686C9.09799 3.95608 9.66948 3.9635 9.8476 4.35686ZM29.0851 4.35686L29.7976 5.87835L31.4675 6.08616C31.9203 6.14553 32.0835 6.69475 31.7347 6.99905L30.5324 8.12717L30.8515 9.77483C30.9331 10.2053 30.473 10.5393 30.0945 10.3315L28.6249 9.52249L27.1554 10.3315C26.7695 10.5393 26.3167 10.2053 26.3984 9.77483L26.7175 8.12717L25.4781 6.97678C25.1589 6.67249 25.3371 6.13811 25.7675 6.08616L27.4374 5.87835L28.1499 4.35686C28.3355 3.95608 28.8996 3.9635 29.0851 4.35686ZM19.4664 1.33616L20.1789 2.85022L21.8488 3.05803C22.3015 3.11741 22.4648 3.66663 22.116 3.97092L20.9136 5.09905L21.2328 6.74671C21.3144 7.17717 20.8542 7.51116 20.4757 7.29592L18.9988 6.50178L17.5292 7.31077C17.1433 7.526 16.6906 7.1846 16.7722 6.76155L17.0914 5.11389L15.8667 3.9635C15.5476 3.65921 15.7257 3.12483 16.1562 3.07288L17.8261 2.86506L18.5386 1.351C18.7167 0.942799 19.2808 0.942799 19.4664 1.33616ZM12.6234 23.6166C13.5882 22.4514 14.9835 21.7092 16.5124 21.5756C14.1968 20.0096 13.8628 16.7143 15.8519 14.7252C17.596 12.9811 20.4164 12.9811 22.1605 14.7252C24.1496 16.7143 23.8156 20.0096 21.4999 21.5756C23.0289 21.7092 24.4167 22.4514 25.389 23.6166C25.9976 22.7631 26.4355 21.7908 26.6656 20.7221C27.1257 18.6069 26.6804 16.5065 25.5968 14.8217C24.4984 13.1221 22.7914 11.8826 20.6687 11.4076C18.5535 10.9475 16.4531 11.3928 14.7683 12.4764C10.9906 14.9033 10.0331 19.9799 12.6234 23.6166ZM18.9988 14.458C17.1062 14.458 15.5773 15.9869 15.5773 17.8795C15.5773 19.7721 17.1062 21.301 18.9988 21.301C20.8839 21.301 22.4203 19.7721 22.4203 17.8795C22.4203 15.9869 20.8839 14.458 18.9988 14.458Z" fill="#FF6500"/>
</svg>
