<svg width="24" height="24" viewBox="0 0 24 24" fill="none" xmlns="http://www.w3.org/2000/svg">
<path fill-rule="evenodd" clip-rule="evenodd" d="M20.1287 3.53611L12.4969 0.636184C12.1773 0.515152 11.8555 0.515152 11.5358 0.636184L3.90405 3.53592C3.66597 3.62629 3.51166 3.84914 3.51166 4.10357C3.51166 4.35801 3.66597 4.58086 3.90405 4.671L4.72188 4.98159V7.86829C4.38902 7.96903 4.14653 8.27808 4.14653 8.6429V10.641C4.14653 10.9758 4.41766 11.2481 4.75272 11.2481H5.15833C5.49339 11.2481 5.76456 10.9759 5.76456 10.641V8.6429C5.76456 8.27808 5.52208 7.96898 5.18922 7.86829V5.15948L6.35317 5.60212V9.05161C6.35317 9.38512 6.50528 9.67261 6.78086 9.86086C8.02858 10.7129 10.0214 11.1388 12.0164 11.1388C14.0114 11.1388 16.0042 10.7127 17.2519 9.86086C17.5274 9.67261 17.6796 9.38536 17.6796 9.05161V5.60212L20.1287 4.67095C20.3668 4.58081 20.5211 4.35792 20.5211 4.10353C20.5211 3.84914 20.3668 3.62629 20.1287 3.53611H20.1287ZM5.29506 8.6429V10.641C5.29506 10.7173 5.23338 10.7794 5.15838 10.7794H4.75277C4.67561 10.7794 4.61392 10.7173 4.61392 10.641V8.6429C4.61392 8.45508 4.76823 8.30212 4.95559 8.30212C5.14295 8.30212 5.29506 8.45512 5.29506 8.6429ZM19.9634 4.23295L12.3316 7.13264C12.12 7.21289 11.915 7.21289 11.7033 7.13264L5.96519 4.9529L12.0406 4.33673C12.1685 4.32375 12.2633 4.20867 12.25 4.07972C12.2368 3.951 12.1222 3.85729 11.9921 3.87028L4.98644 4.581L4.06942 4.2329C3.99006 4.20225 3.98125 4.13217 3.98125 4.10353C3.98125 4.07489 3.99006 4.00476 4.06942 3.97411L11.7033 1.07442C11.8091 1.03429 11.9128 1.01423 12.0164 1.01423C12.12 1.01423 12.2236 1.03429 12.3316 1.07442L19.9634 3.97411C20.0427 4.00476 20.0515 4.07484 20.0515 4.10353C20.0515 4.13222 20.0427 4.20234 19.9634 4.23295ZM15.0629 14.8438C15.0629 14.7142 15.1666 14.6092 15.2966 14.6092H18.6473C18.7774 14.6092 18.881 14.7141 18.881 14.8438C18.881 14.9734 18.7774 15.0781 18.6473 15.0781H15.2966C15.1666 15.0781 15.0629 14.9732 15.0629 14.8438ZM7.81253 14.2188C7.81253 14.0894 7.91833 13.9845 8.04841 13.9845H12.5322C12.6623 13.9845 12.7681 14.0894 12.7681 14.2188C12.7681 14.3482 12.6623 14.4531 12.5322 14.4531H8.04841C7.91833 14.4531 7.81253 14.3482 7.81253 14.2188ZM5.25761 14.2188C5.25761 14.0894 5.36341 13.9845 5.49348 13.9845H6.63977C6.76984 13.9845 6.87344 14.0894 6.87344 14.2188C6.87344 14.3482 6.76984 14.4531 6.63977 14.4531H5.49348C5.36345 14.4531 5.25761 14.3482 5.25761 14.2188ZM12.7681 15.4685C12.7681 15.5978 12.6623 15.7028 12.5322 15.7028H9.0272C8.89717 15.7028 8.79353 15.5978 8.79353 15.4685C8.79353 15.3391 8.89717 15.2341 9.0272 15.2341H12.5322C12.6623 15.2341 12.7681 15.3391 12.7681 15.4685ZM3.02228 20.2331H3.89083C4.0187 20.2331 4.1245 20.3381 4.1245 20.4674C4.1245 20.5968 4.0187 20.7018 3.89083 20.7018H3.02228C2.89445 20.7018 2.78861 20.5968 2.78861 20.4674C2.78861 20.3381 2.89441 20.2331 3.02228 20.2331ZM14.9284 19.8425C14.9284 19.7131 15.0342 19.6081 15.1643 19.6081H19.6481C19.7782 19.6081 19.884 19.713 19.884 19.8425C19.884 19.9719 19.7782 20.077 19.6481 20.077H15.1643C15.0342 20.077 14.9284 19.9721 14.9284 19.8425ZM5.06359 20.4674C5.06359 20.3381 5.16939 20.2331 5.29947 20.2331H10.0566C10.1845 20.2331 10.2903 20.3381 10.2903 20.4674C10.2903 20.5968 10.1845 20.7018 10.0566 20.7018H5.29947C5.16939 20.7018 5.06359 20.5968 5.06359 20.4674ZM22.7982 22.1076H22.5624V18.8274H22.7982C23.1862 18.8274 23.5015 18.5122 23.5015 18.1244C23.5015 17.7367 23.1862 17.4212 22.7982 17.4212H22.0531C22.0795 17.3478 22.095 17.2691 22.095 17.1869C22.095 16.7991 21.7798 16.4836 21.3918 16.4836H21.1581V13.2034H21.3918C21.7798 13.2034 22.095 12.888 22.095 12.5004C22.095 12.1129 21.7798 11.7972 21.3918 11.7972H4.98423C3.30442 11.7972 1.93769 13.164 1.93769 14.8435C1.93769 15.933 2.51303 16.8901 3.37497 17.4287C1.78998 17.5334 0.53125 18.856 0.53125 20.4675C0.53125 22.1473 1.89798 23.5138 3.5778 23.5138H22.7983C23.1863 23.5138 23.5015 23.1983 23.5015 22.8108C23.5015 22.4233 23.1863 22.1076 22.7983 22.1076L22.7982 22.1076ZM3.34413 14.8435C3.34413 13.9393 4.08044 13.2034 4.98423 13.2034H20.6886V14.6092H20.056C19.9259 14.6092 19.8223 14.7142 19.8223 14.8438C19.8223 14.9734 19.9259 15.0781 20.056 15.0781H20.6886V16.4836H4.98423C4.08039 16.4836 3.34413 15.7478 3.34413 14.8435ZM22.0951 19.6082H21.0568C20.9268 19.6082 20.8231 19.7131 20.8231 19.8425C20.8231 19.9719 20.9267 20.0771 21.0568 20.0771H22.0951V20.8579H18.698C18.5702 20.8579 18.4644 20.9628 18.4644 21.0922C18.4644 21.2216 18.5702 21.3268 18.698 21.3268H22.0951V22.1076H3.5778C2.67395 22.1076 1.93769 21.3717 1.93769 20.4674C1.93769 19.5632 2.67395 18.8273 3.5778 18.8273H22.0951V19.6081V19.6082Z" fill="#FF6500"/>
</svg>
