<svg width="38" height="38" viewBox="0 0 38 38" fill="none" xmlns="http://www.w3.org/2000/svg">
<path id="Union" d="M27.5207 24.4935C29.374 21.9702 30.4687 18.8551 30.4687 15.4844C30.4687 7.07066 23.6481 0.25 15.2344 0.25C6.82066 0.25 0 7.07066 0 15.4844C0 23.8981 6.82066 30.7187 15.2344 30.7187C18.6061 30.7187 21.7219 29.6234 24.2455 27.7692L24.2435 27.7707C24.3126 27.8644 24.3896 27.9542 24.4744 28.039L33.499 37.0635C34.4143 37.9788 35.8982 37.9788 36.8135 37.0635C37.7288 36.1482 37.7288 34.6643 36.8135 33.749L27.789 24.7244C27.7042 24.6396 27.6144 24.5626 27.5207 24.4935ZM28.125 15.4844C28.125 22.6037 22.3537 28.375 15.2344 28.375C8.11508 28.375 2.34375 22.6037 2.34375 15.4844C2.34375 8.36508 8.11508 2.59375 15.2344 2.59375C22.3537 2.59375 28.125 8.36508 28.125 15.4844Z" fill="#FF6500"/>
</svg>
