<svg width="24" height="24" viewBox="0 0 24 24" fill="none" xmlns="http://www.w3.org/2000/svg">
<path fill-rule="evenodd" clip-rule="evenodd" d="M19.5372 11.5847C19.7008 11.429 19.9 11.3137 20.1218 11.2523L20.0768 13.0115C19.7739 13.0739 19.4857 13.2164 19.2475 13.4315L19.0802 13.5829L19.1055 12.5559C19.1163 12.172 19.2794 11.8294 19.5372 11.5847ZM21.9452 9.41482C21.3925 9.40029 20.9299 9.83998 20.9168 10.3926L20.8502 13.0223C21.1891 13.1006 21.5064 13.2801 21.7563 13.5567C22.4125 14.2809 22.3553 15.4101 21.6316 16.0655L20.2296 17.3344C20.0913 17.459 19.8761 17.4487 19.751 17.3104L19.6872 17.2387C19.5625 17.1019 19.5728 16.8867 19.7097 16.7615L21.1127 15.4926C21.5219 15.1219 21.5538 14.4839 21.183 14.0747C21.0822 13.9631 20.9599 13.8792 20.8296 13.8234C20.4799 13.6786 20.0627 13.7344 19.765 14.0044C18.8693 14.8148 17.9725 15.6267 17.0758 16.4386C16.3582 17.0869 15.9808 17.9123 15.9555 18.8794L15.8983 21.1701L20.178 21.1744C20.2628 20.6189 20.5263 20.1379 20.9608 19.7461L21.9428 18.8559C22.4622 18.3858 22.736 17.789 22.7547 17.0887L22.9221 10.4437C22.9361 9.8906 22.4964 9.42842 21.9452 9.41482ZM20.9421 21.9487L15.0691 21.9422C14.9243 21.9422 14.8061 22.0603 14.8061 22.2037L14.8047 23.7079C14.8047 23.8514 14.9214 23.9695 15.0663 23.9695L20.9393 23.9761C21.0841 23.9761 21.2008 23.858 21.2022 23.7145L21.2036 22.2103C21.2036 22.0673 21.0855 21.9487 20.9421 21.9487ZM11.9983 17.1004C6.3391 15.1762 4.23019 9.76451 3.33488 4.3017C5.57785 4.07295 7.35582 2.27389 7.55363 0.0229492H16.4444C16.6422 2.27389 18.4202 4.07295 20.6618 4.3017C19.7674 9.76451 17.6585 15.1762 11.9983 17.1004ZM18.7535 5.51623C17.05 4.8267 15.7146 3.42232 15.1155 1.67764H8.88113C8.28207 3.42232 6.94801 4.8267 5.24457 5.51623C6.11363 9.64873 7.8766 13.664 11.9983 15.3356C16.1214 13.664 17.8844 9.64873 18.7535 5.51623ZM16.2194 5.90857C15.8449 5.69342 15.3625 5.82232 15.146 6.19686L14.0285 8.13139C13.8663 8.41311 13.5874 8.57389 13.263 8.57389H10.7346C10.4102 8.57389 10.1313 8.41311 9.9691 8.13139L8.8516 6.19686C8.63504 5.82232 8.15129 5.69342 7.77676 5.90857C7.40222 6.12514 7.27332 6.60889 7.48988 6.98342C8.37769 8.52092 8.92613 9.47201 9.81394 11.0109C9.93629 11.2209 9.99207 11.4295 9.99207 11.6728V12.5709H14.006V11.6728C14.006 11.4295 14.0618 11.2209 14.1827 11.0109C15.0714 9.47201 15.6203 8.52092 16.5082 6.98342C16.7243 6.60842 16.5944 6.12514 16.2194 5.90857ZM12.0738 7.66779C12.9307 7.66779 13.631 6.96748 13.631 6.11061C13.631 5.25373 12.9307 4.55342 12.0738 4.55342C11.2169 4.55342 10.5166 5.25373 10.5166 6.11061C10.5166 6.96748 11.2169 7.66779 12.0738 7.66779ZM4.91738 13.5829L4.89066 12.5559C4.88129 12.172 4.71676 11.8289 4.46035 11.5847C4.29676 11.429 4.09754 11.3137 3.87582 11.2523L3.91988 13.0115C4.2241 13.0739 4.51238 13.2164 4.75051 13.4315L4.91738 13.5829ZM3.81722 21.1744L8.09832 21.1701L8.04113 18.8794C8.01582 17.9119 7.63847 17.0869 6.91988 16.4386C6.0241 15.6267 5.12738 14.8148 4.23066 14.0044C3.93441 13.7348 3.51582 13.679 3.16754 13.8234C3.03582 13.8792 2.91488 13.9631 2.8141 14.0747C2.44332 14.4839 2.47519 15.1219 2.88441 15.4926L4.28644 16.7615C4.42472 16.8862 4.43504 17.1019 4.31035 17.2387L4.24519 17.3104C4.1205 17.4487 3.90629 17.459 3.76801 17.3344L2.36597 16.0655C1.64035 15.4106 1.58457 14.2809 2.23988 13.5567C2.48972 13.2801 2.80847 13.1011 3.14738 13.0223L3.08082 10.3926C3.06769 9.83998 2.60363 9.40029 2.05238 9.41482C1.50113 9.42795 1.06004 9.8906 1.07457 10.4433L1.24191 17.0883C1.25926 17.7886 1.53301 18.3853 2.05379 18.8554L3.03582 19.7456C3.47035 20.1379 3.73191 20.6189 3.81722 21.1744ZM8.92894 21.9422L3.05597 21.9487C2.91254 21.9487 2.79441 22.0669 2.79441 22.2103L2.79582 23.7145C2.79582 23.858 2.91394 23.9761 3.05879 23.9761L8.93176 23.9695C9.07519 23.9695 9.19332 23.8514 9.19332 23.7079L9.19191 22.2037C9.19051 22.0608 9.07379 21.9422 8.92894 21.9422Z" fill="#51200B"/>
</svg>
