<svg width="24" height="24" viewBox="0 0 24 24" fill="none" xmlns="http://www.w3.org/2000/svg">
<path fill-rule="evenodd" clip-rule="evenodd" d="M18.9831 15.8924V18.2463C18.9831 18.2697 18.9641 18.2888 18.9407 18.2888H15.8262C14.6314 18.2888 13.4623 18.5932 12.4252 19.1644C12.4085 19.1736 12.3885 19.1708 12.3749 19.1574C12.3613 19.1439 12.3583 19.124 12.3673 19.1072C13.6955 16.6253 15.9799 15.6892 18.943 15.85C18.9656 15.8512 18.9831 15.8698 18.9831 15.8924ZM5.17537 13.7385C4.66988 13.1097 4.41855 12.2817 4.36465 11.4852L4.36129 11.436C4.36047 11.4239 4.36431 11.4131 4.37261 11.4042C4.38092 11.3953 4.39143 11.3907 4.40362 11.3907H6.08501C6.0972 11.3907 6.10772 11.3952 6.11602 11.4042C6.12433 11.4131 6.12817 11.4239 6.12735 11.436L6.12404 11.4852C6.07009 12.2817 5.81881 13.1096 5.31332 13.7385L5.27741 13.7831C5.26906 13.7935 5.25764 13.799 5.24434 13.799C5.23105 13.799 5.21957 13.7935 5.21127 13.7831L5.17537 13.7385ZM6.05554 8.49648C7.06129 8.83507 7.75325 9.75806 7.87508 10.8065L7.88103 10.8579C7.88247 10.8704 7.87892 10.8816 7.87056 10.891C7.86221 10.9004 7.85141 10.9052 7.83889 10.9052H6.65593C6.63356 10.9052 6.61503 10.8879 6.61359 10.8656C6.56103 10.068 6.37594 9.31545 5.95196 8.62675L5.88519 8.51832C5.87564 8.50281 5.87679 8.4839 5.88812 8.46965C5.89945 8.45539 5.91764 8.45001 5.93487 8.45582L6.05554 8.49648ZM6.65588 11.3907C6.63351 11.3907 6.61498 11.4081 6.61354 11.4304C6.56098 12.2279 6.37594 12.9805 5.95196 13.6692L5.88524 13.7777C5.87569 13.7932 5.87684 13.8121 5.88816 13.8263C5.89949 13.8406 5.91769 13.846 5.93492 13.8401L6.05559 13.7995C7.06133 13.4609 7.7533 12.5379 7.87508 11.4895L7.88103 11.4381C7.88247 11.4256 7.87892 11.4143 7.87056 11.405C7.86221 11.3956 7.85141 11.3908 7.83889 11.3908H6.65588V11.3907ZM3.87759 11.4739L3.875 11.4306C3.87365 11.4082 3.85513 11.3907 3.83261 11.3907H2.64975C2.63722 11.3907 2.62642 11.3955 2.61807 11.4049C2.60972 11.4143 2.60617 11.4255 2.60761 11.438L2.61356 11.4894C2.73533 12.5378 3.4273 13.4608 4.43309 13.7994L4.55377 13.84C4.571 13.8458 4.58919 13.8405 4.60052 13.8262C4.61185 13.8119 4.613 13.793 4.60345 13.7775L4.53668 13.6691C4.13401 13.0152 3.92372 12.237 3.87759 11.4739ZM3.83271 10.9053H2.64975C2.63722 10.9053 2.62642 10.9004 2.61807 10.8911C2.60972 10.8817 2.60617 10.8704 2.60761 10.8579L2.61356 10.8066C2.73533 9.75811 3.42735 8.83507 4.43309 8.49653L4.55377 8.45592C4.571 8.45011 4.58919 8.45549 4.60052 8.46974C4.61185 8.484 4.613 8.50291 4.60345 8.51841L4.53668 8.62685C4.11269 9.31555 3.92761 10.0681 3.87505 10.8657C3.87361 10.8879 3.85513 10.9053 3.83271 10.9053ZM5.31332 8.55753L5.27741 8.51289C5.26906 8.50253 5.25764 8.49705 5.24434 8.49705C5.23105 8.49705 5.21957 8.50253 5.21127 8.51289L5.17537 8.55753C4.66988 9.18633 4.4186 10.0143 4.36465 10.8108L4.36129 10.8599C4.36047 10.8721 4.36431 10.8829 4.37261 10.8918C4.38092 10.9007 4.39143 10.9053 4.40362 10.9053H6.08501C6.0972 10.9053 6.10772 10.9007 6.11602 10.8918C6.12433 10.8828 6.12817 10.8721 6.12735 10.8599L6.12404 10.8108C6.07004 10.0143 5.81876 9.18633 5.31332 8.55753ZM18.321 9.72182H21.925C22.295 9.72182 22.5977 10.0245 22.5977 10.3945V12.1725C22.5977 12.5425 22.2949 12.8452 21.925 12.8452H20.2587C20.2456 12.8452 20.2344 12.8505 20.2261 12.8605L19.2034 14.0921C19.1918 14.1061 19.1735 14.1111 19.1563 14.1049C19.1392 14.0987 19.1283 14.0832 19.1283 14.065V12.8876C19.1283 12.8642 19.1092 12.8452 19.0859 12.8452H18.321C17.951 12.8452 17.6483 12.5424 17.6483 12.1725V10.3945C17.6483 10.0246 17.951 9.72182 18.321 9.72182ZM16.8056 8.12611C16.4356 8.12611 16.1329 8.42885 16.1329 8.79883V10.5768C16.1329 10.9468 16.4356 11.2495 16.8056 11.2495H17.054C17.0773 11.2495 17.0964 11.2305 17.0964 11.2071V10.3945C17.0964 9.71995 17.6464 9.16997 18.321 9.16997H21.0399C21.0633 9.16997 21.0823 9.15091 21.0823 9.12753V8.79883C21.0823 8.42885 20.7796 8.12611 20.4096 8.12611H16.8056ZM12.2034 2.33357L15.6887 4.03929C15.7036 4.04659 15.7125 4.0608 15.7125 4.07741C15.7125 4.09401 15.7036 4.10822 15.6887 4.11552L12.2034 5.8212C12.1913 5.82715 12.1783 5.82715 12.1661 5.8212L9.30082 4.41893C9.28729 4.4123 9.2725 4.41307 9.25969 4.42104C9.24692 4.42901 9.23972 4.44197 9.23972 4.45704V6.16315C9.23972 6.33897 9.09716 6.48153 8.92133 6.48153C8.74551 6.48153 8.60295 6.33897 8.60295 6.16315V4.10385C8.60295 4.08725 8.61183 4.07304 8.62676 4.06574L12.1661 2.33357C12.1783 2.32761 12.1913 2.32761 12.2034 2.33357ZM14.0772 5.58657C14.0772 5.5715 14.07 5.55854 14.0572 5.55057C14.0445 5.54261 14.0296 5.54184 14.0161 5.54846L12.2034 6.4356C12.1913 6.44155 12.1783 6.44155 12.1661 6.4356L10.3535 5.54846C10.3399 5.54184 10.3251 5.54261 10.3123 5.55057C10.2996 5.55854 10.2924 5.5715 10.2924 5.58657V7.01453C10.2924 7.4771 10.6708 7.85558 11.1334 7.85558H13.2361C13.6987 7.85558 14.0772 7.4771 14.0772 7.01453V5.58657ZM1.71682 20.3376H8.18669C9.37268 20.3376 10.4435 20.8466 11.192 21.6574C11.2003 21.6664 11.2109 21.671 11.2231 21.671H12.7897C12.802 21.671 12.8125 21.6664 12.8209 21.6574C13.5694 20.8466 14.6402 20.3376 15.8262 20.3376H22.2139C22.3897 20.3376 22.5323 20.195 22.5323 20.0192C22.5323 19.8434 22.3897 19.7008 22.2139 19.7008H20.6466C20.6232 19.7008 20.6041 19.6818 20.6041 19.6584V18.9679C20.6041 18.9445 20.5851 18.9255 20.5617 18.9255H15.8262C14.4484 18.9255 13.1222 19.3698 12.0315 20.1693C12.0164 20.1804 11.9965 20.1804 11.9814 20.1693C10.8907 19.3698 9.56458 18.9255 8.18669 18.9255H3.45121C3.42783 18.9255 3.40877 18.9445 3.40877 18.9679V19.6584C3.40877 19.6818 3.38972 19.7008 3.36634 19.7008H1.71682C1.541 19.7008 1.39844 19.8434 1.39844 20.0192C1.39844 20.195 1.541 20.3376 1.71682 20.3376ZM5.02978 15.8924C5.02978 15.8698 5.04735 15.8512 5.06996 15.85C8.033 15.6892 10.3175 16.6253 11.6456 19.1072C11.6546 19.124 11.6516 19.1439 11.638 19.1574C11.6245 19.1708 11.6044 19.1736 11.5877 19.1644C10.5506 18.5932 9.38156 18.2888 8.18669 18.2888H5.07221C5.04884 18.2888 5.02978 18.2697 5.02978 18.2463V15.8924Z" fill="#51200B"/>
</svg>
