<svg width="24" height="24" viewBox="0 0 24 24" fill="none" xmlns="http://www.w3.org/2000/svg">
<path fill-rule="evenodd" clip-rule="evenodd" d="M15.9661 15.9986C17.4708 16.2657 18.8817 16.6736 20.1895 17.222C20.3442 17.2876 20.4239 17.4564 20.377 17.6157L20.0583 18.6751C21.0098 18.9798 21.8348 19.2939 22.6926 19.7064C22.9833 19.8423 22.9364 20.2361 22.6598 20.3204L20.8833 20.8829L21.5161 22.9173C21.6005 23.1939 21.3145 23.4376 21.0567 23.3064C19.6926 22.6079 18.1551 22.1298 16.6926 21.9236C16.5051 21.8954 16.3786 21.722 16.4161 21.5298L16.6645 20.1751C13.6505 19.5189 10.3411 19.5189 7.32702 20.1751L7.57546 21.5298C7.61296 21.722 7.4864 21.8954 7.2989 21.9236C5.8364 22.1345 4.29421 22.6079 2.93483 23.3064C2.67702 23.4376 2.3864 23.1939 2.47546 22.9173L3.10827 20.8829L1.33171 20.3204C1.05515 20.2361 1.00827 19.8423 1.2989 19.7064C2.15671 19.2939 2.97702 18.9798 3.93327 18.6751L3.61452 17.6157C3.56765 17.4517 3.65202 17.2736 3.8114 17.2173C5.01608 16.7157 6.33327 16.322 7.73483 16.0548C7.83327 16.0361 7.93171 16.0173 8.03015 15.9986C7.45358 15.422 7.00827 14.7189 6.72702 13.9501C5.83171 11.4939 6.75983 8.74699 8.96296 7.32668C10.163 6.55324 11.6583 6.23449 13.163 6.55793C13.177 6.55793 13.1864 6.56261 13.1958 6.5673C14.7005 6.89543 15.9286 7.8048 16.702 9.0048C17.4801 10.2095 17.7942 11.7142 17.4708 13.2236C17.2458 14.2876 16.7208 15.2439 15.9661 15.9986ZM19.8755 19.3032L19.477 20.6392C19.4442 20.7423 19.3692 20.8173 19.2755 20.8548L17.8551 21.4689C18.8114 21.6798 19.763 21.9892 20.6723 22.397L20.1661 20.7657C20.1098 20.5923 20.2083 20.4095 20.3817 20.3579L21.6567 19.9548C21.0848 19.7111 20.4801 19.4954 19.8755 19.3032ZM18.2442 20.5876C17.9395 20.4939 17.6255 20.4048 17.3067 20.3251L17.1755 21.0517L18.2442 20.5876ZM6.69421 20.3251C6.37546 20.4048 6.0614 20.4939 5.75671 20.5876L6.82546 21.0517L6.69421 20.3251ZM4.72077 20.8501C4.62702 20.8173 4.55671 20.7376 4.5239 20.6392L4.12546 19.3032C3.52077 19.4954 2.91608 19.7157 2.34421 19.9548L3.61921 20.3579C3.79265 20.4142 3.8864 20.5923 3.83483 20.7657L3.32858 22.397C4.23796 21.9892 5.18952 21.6798 6.14577 21.4689L4.72077 20.8501ZM6.22077 2.75168L6.67077 3.71261L7.72546 3.84386C8.01608 3.88136 8.11452 4.22824 7.89421 4.42043L7.13483 5.13293L7.3364 6.17355C7.38796 6.44543 7.09733 6.65636 6.85827 6.52511L5.93015 6.01418L5.00202 6.52511C4.75827 6.65636 4.47233 6.44543 4.5239 6.17355L4.72546 5.13293L3.94265 4.40636C3.74108 4.21418 3.85358 3.87668 4.12546 3.84386L5.18015 3.71261L5.63015 2.75168C5.74733 2.49855 6.10827 2.50324 6.22077 2.75168ZM18.3708 2.75168L18.8208 3.71261L19.8755 3.84386C20.1614 3.88136 20.2645 4.22824 20.0442 4.42043L19.2848 5.13293L19.4864 6.17355C19.538 6.44543 19.2473 6.65636 19.0083 6.52511L18.0801 6.01418L17.152 6.52511C16.9083 6.65636 16.6223 6.44543 16.6739 6.17355L16.8755 5.13293L16.0926 4.40636C15.8911 4.21418 16.0036 3.87668 16.2755 3.84386L17.3301 3.71261L17.7801 2.75168C17.8973 2.49855 18.2536 2.50324 18.3708 2.75168ZM12.2958 0.843864L12.7458 1.80011L13.8005 1.93136C14.0864 1.96886 14.1895 2.31574 13.9692 2.50793L13.2098 3.22043L13.4114 4.26105C13.463 4.53293 13.1723 4.74386 12.9333 4.60793L12.0005 4.10636L11.0723 4.6173C10.8286 4.75324 10.5426 4.53761 10.5942 4.27043L10.7958 3.2298L10.0223 2.50324C9.82077 2.31105 9.93327 1.97355 10.2051 1.94074L11.2598 1.80949L11.7098 0.853239C11.8223 0.595426 12.1786 0.595426 12.2958 0.843864ZM7.9739 14.9157C8.58327 14.1798 9.46452 13.7111 10.4301 13.6267C8.96765 12.6376 8.75671 10.5564 10.013 9.30011C11.1145 8.19855 12.8958 8.19855 13.9973 9.30011C15.2536 10.5564 15.0426 12.6376 13.5801 13.6267C14.5458 13.7111 15.4223 14.1798 16.0364 14.9157C16.4208 14.3767 16.6973 13.7626 16.8426 13.0876C17.1333 11.7517 16.852 10.4251 16.1676 9.36105C15.4739 8.28761 14.3958 7.5048 13.0551 7.2048C11.7192 6.91418 10.3926 7.19543 9.32858 7.8798C6.94265 9.41261 6.33796 12.6189 7.9739 14.9157ZM12.0005 9.13136C10.8051 9.13136 9.83952 10.097 9.83952 11.2923C9.83952 12.4876 10.8051 13.4532 12.0005 13.4532C13.1911 13.4532 14.1614 12.4876 14.1614 11.2923C14.1614 10.097 13.1911 9.13136 12.0005 9.13136Z" fill="#51200B"/>
</svg>
