<svg width="24" height="24" viewBox="0 0 24 24" fill="none" xmlns="http://www.w3.org/2000/svg">
<g clip-path="url(#clip0_12280_105111)">
<path d="M6 21H1C0.723858 21 0.5 21.2239 0.5 21.5V23C0.5 23.2761 0.723858 23.5 1 23.5H6C6.27614 23.5 6.5 23.2761 6.5 23V21.5C6.5 21.2239 6.27614 21 6 21Z" fill="#51200B"/>
<path d="M23 21H18C17.7239 21 17.5 21.2239 17.5 21.5V23C17.5 23.2761 17.7239 23.5 18 23.5H23C23.2761 23.5 23.5 23.2761 23.5 23V21.5C23.5 21.2239 23.2761 21 23 21Z" fill="#51200B"/>
<path d="M23 17.5H18C17.7239 17.5 17.5 17.7239 17.5 18V19.5C17.5 19.7761 17.7239 20 18 20H23C23.2761 20 23.5 19.7761 23.5 19.5V18C23.5 17.7239 23.2761 17.5 23 17.5Z" fill="#51200B"/>
<path d="M23 14H18C17.7239 14 17.5 14.2239 17.5 14.5V16C17.5 16.2761 17.7239 16.5 18 16.5H23C23.2761 16.5 23.5 16.2761 23.5 16V14.5C23.5 14.2239 23.2761 14 23 14Z" fill="#51200B"/>
<path d="M23 10.5H18C17.7239 10.5 17.5 10.7239 17.5 11V12.5C17.5 12.7761 17.7239 13 18 13H23C23.2761 13 23.5 12.7761 23.5 12.5V11C23.5 10.7239 23.2761 10.5 23 10.5Z" fill="#51200B"/>
<path d="M14.5 21H9.5C9.22386 21 9 21.2239 9 21.5V23C9 23.2761 9.22386 23.5 9.5 23.5H14.5C14.7761 23.5 15 23.2761 15 23V21.5C15 21.2239 14.7761 21 14.5 21Z" fill="#51200B"/>
<path d="M14.5 17.5H9.5C9.22386 17.5 9 17.7239 9 18V19.5C9 19.7761 9.22386 20 9.5 20H14.5C14.7761 20 15 19.7761 15 19.5V18C15 17.7239 14.7761 17.5 14.5 17.5Z" fill="#51200B"/>
<path d="M14.5 14H9.5C9.22386 14 9 14.2239 9 14.5V16C9 16.2761 9.22386 16.5 9.5 16.5H14.5C14.7761 16.5 15 16.2761 15 16V14.5C15 14.2239 14.7761 14 14.5 14Z" fill="#51200B"/>
<path d="M23 7H18C17.7239 7 17.5 7.22386 17.5 7.5V9C17.5 9.27614 17.7239 9.5 18 9.5H23C23.2761 9.5 23.5 9.27614 23.5 9V7.5C23.5 7.22386 23.2761 7 23 7Z" fill="#51200B"/>
<path d="M14.5 10.5H9.5C9.22386 10.5 9 10.7239 9 11V12.5C9 12.7761 9.22386 13 9.5 13H14.5C14.7761 13 15 12.7761 15 12.5V11C15 10.7239 14.7761 10.5 14.5 10.5Z" fill="#51200B"/>
<path d="M6 17.5H5.43C4.83974 17.8284 4.17545 18.0007 3.5 18.0007C2.82455 18.0007 2.16026 17.8284 1.57 17.5H1C0.867392 17.5 0.740215 17.5527 0.646447 17.6464C0.552678 17.7402 0.5 17.8674 0.5 18V19.5C0.5 19.6326 0.552678 19.7598 0.646447 19.8536C0.740215 19.9473 0.867392 20 1 20H6C6.13261 20 6.25979 19.9473 6.35355 19.8536C6.44732 19.7598 6.5 19.6326 6.5 19.5V18C6.5 17.8674 6.44732 17.7402 6.35355 17.6464C6.25979 17.5527 6.13261 17.5 6 17.5Z" fill="#51200B"/>
<path d="M3.5 17C5.15685 17 6.5 15.6569 6.5 14C6.5 12.3431 5.15685 11 3.5 11C1.84315 11 0.5 12.3431 0.5 14C0.5 15.6569 1.84315 17 3.5 17Z" fill="#51200B"/>
<path d="M3.50052 10C3.76052 10 3.32552 10.3 9.52552 5.13002L12.7105 7.40502C12.7975 7.47112 12.9038 7.50691 13.013 7.50691C13.1223 7.50691 13.2285 7.47112 13.3155 7.40502L19.6555 2.32002L19.4055 3.32002C19.373 3.44865 19.393 3.58492 19.4609 3.69885C19.5289 3.81278 19.6394 3.89503 19.768 3.92752C19.8966 3.96001 20.0329 3.94007 20.1468 3.87209C20.2608 3.80411 20.343 3.69365 20.3755 3.56502L21.0005 1.12002C21.0144 1.04484 21.0131 0.967644 20.9968 0.892952C20.9805 0.81826 20.9495 0.747571 20.9055 0.685021C20.6805 0.425021 20.6755 0.500021 18.0005 0.595021C17.9349 0.597319 17.8703 0.612527 17.8105 0.639778C17.7507 0.667029 17.6969 0.705787 17.6521 0.753842C17.5616 0.850892 17.5134 0.979912 17.518 1.11252C17.5227 1.24513 17.5798 1.37046 17.6768 1.46095C17.7739 1.55143 17.9029 1.59966 18.0355 1.59502L19.0355 1.56002L13.0005 6.37502L9.79052 4.09502C9.70309 4.02772 9.59585 3.99122 9.48552 3.99122C9.37518 3.99122 9.26795 4.02772 9.18052 4.09502L3.18052 9.09502C3.09274 9.15822 3.02782 9.24817 2.9955 9.35138C2.96318 9.4546 2.9652 9.56551 3.00126 9.66748C3.03731 9.76945 3.10546 9.85698 3.19548 9.91694C3.2855 9.9769 3.39253 10.006 3.50052 10Z" fill="#51200B"/>
</g>
<defs>
<clipPath id="clip0_12280_105111">
<rect width="24" height="24" fill="white"/>
</clipPath>
</defs>
</svg>
