<svg width="12" height="12" viewBox="0 0 12 12" fill="none" xmlns="http://www.w3.org/2000/svg">
<path d="M6 0.5C4.91221 0.5 3.84884 0.822569 2.94437 1.42692C2.0399 2.03126 1.33495 2.89025 0.918665 3.89524C0.502383 4.90023 0.393465 6.0061 0.605683 7.073C0.817902 8.13989 1.34173 9.1199 2.11092 9.88909C2.8801 10.6583 3.86011 11.1821 4.92701 11.3943C5.9939 11.6065 7.09977 11.4976 8.10476 11.0813C9.10976 10.6651 9.96874 9.96011 10.5731 9.05564C11.1774 8.15117 11.5 7.0878 11.5 6C11.4983 4.54184 10.9183 3.14389 9.88719 2.11281C8.85611 1.08174 7.45817 0.50172 6 0.5ZM8.121 7.4145C8.16876 7.46062 8.20685 7.5158 8.23305 7.5768C8.25926 7.6378 8.27305 7.70341 8.27363 7.7698C8.2742 7.83619 8.26155 7.90203 8.23641 7.96348C8.21127 8.02493 8.17415 8.08075 8.1272 8.1277C8.08025 8.17464 8.02443 8.21177 7.96298 8.23691C7.90153 8.26205 7.83569 8.2747 7.7693 8.27413C7.70291 8.27355 7.6373 8.25976 7.5763 8.23355C7.5153 8.20735 7.46013 8.16926 7.414 8.1215L6 6.707L4.586 8.1215C4.4917 8.21258 4.3654 8.26298 4.2343 8.26184C4.1032 8.2607 3.9778 8.20811 3.88509 8.11541C3.79239 8.02271 3.7398 7.8973 3.73867 7.7662C3.73753 7.6351 3.78792 7.5088 3.879 7.4145L5.293 6L3.879 4.5855C3.83125 4.53938 3.79316 4.4842 3.76695 4.4232C3.74075 4.3622 3.72695 4.29659 3.72638 4.2302C3.7258 4.16381 3.73845 4.09797 3.76359 4.03652C3.78873 3.97507 3.82586 3.91925 3.8728 3.8723C3.91975 3.82536 3.97558 3.78823 4.03703 3.76309C4.09847 3.73795 4.16431 3.7253 4.2307 3.72587C4.29709 3.72645 4.3627 3.74024 4.4237 3.76645C4.48471 3.79265 4.53988 3.83074 4.586 3.8785L6 5.293L7.414 3.8785C7.46013 3.83074 7.5153 3.79265 7.5763 3.76645C7.6373 3.74024 7.70291 3.72645 7.7693 3.72587C7.83569 3.7253 7.90153 3.73795 7.96298 3.76309C8.02443 3.78823 8.08025 3.82536 8.1272 3.8723C8.17415 3.91925 8.21127 3.97507 8.23641 4.03652C8.26155 4.09797 8.2742 4.16381 8.27363 4.2302C8.27305 4.29659 8.25926 4.3622 8.23305 4.4232C8.20685 4.4842 8.16876 4.53938 8.121 4.5855L6.707 6L8.121 7.4145Z" fill="white"/>
</svg>
