<svg width="12" height="12" viewBox="0 0 12 12" fill="none" xmlns="http://www.w3.org/2000/svg">
<g clip-path="url(#clip0_9005_34191)">
<path d="M6 0C2.68641 0 0 2.68617 0 6C0 9.31383 2.68641 12 6 12C9.31359 12 12 9.31359 12 6C12 2.68641 9.31359 0 6 0Z" fill="#DD4247"/>
<path d="M2.82563 9.39423C6.42633 9.39423 9.34524 6.47532 9.34524 2.87485C9.34581 2.17271 9.23278 1.47511 9.01055 0.809069C8.09635 0.277628 7.05745 -0.00156968 6.00001 6.63796e-06C2.68641 6.63796e-06 6.72014e-06 2.68641 6.72014e-06 6.00001C-0.00162734 7.08944 0.294772 8.15857 0.857116 9.09165C1.49392 9.29274 2.15784 9.39479 2.82563 9.39423Z" fill="#E55353"/>
<path d="M8.47676 8.47603C8.35207 8.60064 8.183 8.67064 8.00672 8.67064C7.83043 8.67064 7.66137 8.60064 7.53668 8.47603L6.00012 6.93946L4.46356 8.47603C4.33887 8.60064 4.1698 8.67064 3.99352 8.67064C3.81723 8.67064 3.64816 8.60064 3.52348 8.47603C3.39886 8.35134 3.32886 8.18227 3.32886 8.00599C3.32886 7.8297 3.39886 7.66063 3.52348 7.53595L5.06004 5.99939L3.52348 4.46282C3.39886 4.33814 3.32886 4.16907 3.32886 3.99278C3.32886 3.8165 3.39886 3.64743 3.52348 3.52274C3.64816 3.39813 3.81723 3.32812 3.99352 3.32812C4.1698 3.32812 4.33887 3.39813 4.46356 3.52274L6.00012 5.05931L7.53668 3.52274C7.66137 3.39813 7.83043 3.32812 8.00672 3.32812C8.183 3.32812 8.35207 3.39813 8.47676 3.52274C8.60137 3.64743 8.67138 3.8165 8.67138 3.99278C8.67138 4.16907 8.60137 4.33814 8.47676 4.46282L6.9402 5.99939L8.47676 7.53595C8.60137 7.66063 8.67138 7.8297 8.67138 8.00599C8.67138 8.18227 8.60137 8.35134 8.47676 8.47603Z" fill="white"/>
</g>
<defs>
<clipPath id="clip0_9005_34191">
<rect width="12" height="12" fill="white"/>
</clipPath>
</defs>
</svg>
