<svg width="12" height="12" viewBox="0 0 12 12" fill="none" xmlns="http://www.w3.org/2000/svg">
<path d="M6 0C2.68641 0 0 2.68547 0 6C0 9.31453 2.68641 12 6 12C9.31359 12 12 9.31289 12 6C12 2.68711 9.31359 0 6 0Z" fill="#2AD352"/>
<path d="M5.57204e-06 6.00001C-0.00134886 6.99175 0.244241 7.96823 0.714615 8.84134C1.31388 9.01728 1.93529 9.10639 2.55985 9.10595C6.16688 9.10595 9.09094 6.18188 9.09094 2.57485C9.09148 1.94039 8.99958 1.30923 8.81813 0.701258C7.95075 0.23924 6.98276 -0.00162828 6.00001 8.28423e-06C2.68641 8.28423e-06 5.57204e-06 2.68548 5.57204e-06 6.00001Z" fill="#74DA7F"/>
<path d="M9.42189 5.00632L5.81556 8.79359C5.71728 8.89669 5.5992 8.97889 5.46839 9.03527C5.33759 9.09166 5.19675 9.12106 5.05431 9.12171H5.04962C4.90798 9.12175 4.76777 9.09333 4.63732 9.03813C4.50687 8.98293 4.38884 8.90208 4.29025 8.80038L2.37658 6.82929C2.2777 6.73004 2.19952 6.61214 2.14657 6.48243C2.09363 6.35272 2.06697 6.21379 2.06815 6.07369C2.06933 5.9336 2.09833 5.79514 2.15345 5.66634C2.20857 5.53754 2.28873 5.42097 2.38926 5.3234C2.4898 5.22583 2.60871 5.1492 2.7391 5.09795C2.86949 5.04671 3.00876 5.02187 3.14883 5.02488C3.28889 5.02789 3.42697 5.0587 3.55503 5.1155C3.6831 5.1723 3.79861 5.25397 3.89486 5.35577L5.04212 6.53749L7.88954 3.54734C7.98493 3.44506 8.09965 3.36271 8.22706 3.30504C8.35448 3.24738 8.49206 3.21556 8.63186 3.2114C8.77165 3.20725 8.91088 3.23086 9.04149 3.28086C9.1721 3.33086 9.29151 3.40626 9.39279 3.50269C9.49408 3.59913 9.57524 3.71469 9.63158 3.8427C9.68792 3.9707 9.71833 4.10861 9.72103 4.24844C9.72374 4.38827 9.69869 4.52724 9.64735 4.65733C9.596 4.78742 9.51937 4.90604 9.42189 5.00632Z" fill="white"/>
</svg>
