<svg width="424" height="280" viewBox="0 0 424 280" fill="none" xmlns="http://www.w3.org/2000/svg">
<g clip-path="url(#clip0_7538_82300)">
<path d="M0 16C0 7.16344 7.16344 0 16 0H408C416.837 0 424 7.16344 424 16V264C424 272.837 416.837 280 408 280H16C7.16343 280 0 272.837 0 264V16Z" fill="#402013"/>
<g opacity="0.1">
<path d="M454.583 194.455V152.649C454.583 139.665 448.69 134.417 434.049 134.417H396.847C382.206 134.417 376.312 139.665 376.312 152.649V194.363C376.312 207.439 382.206 212.596 396.847 212.596H434.049C448.69 212.688 454.583 207.439 454.583 194.455Z" stroke="#E4E7EB" stroke-width="1.5" stroke-linecap="round" stroke-linejoin="round"/>
<path d="M454.583 298.049V260.847C454.583 246.206 448.69 240.312 434.049 240.312H396.847C382.206 240.312 376.312 246.206 376.312 260.847V298.049C376.312 312.69 382.206 318.583 396.847 318.583H434.049C448.69 318.583 454.583 312.69 454.583 298.049Z" stroke="#E4E7EB" stroke-width="1.5" stroke-linecap="round" stroke-linejoin="round"/>
<path d="M348.688 194.455V152.649C348.688 139.665 342.794 134.417 328.153 134.417H290.951C276.31 134.417 270.417 139.665 270.417 152.649V194.363C270.417 207.439 276.31 212.596 290.951 212.596H328.153C342.794 212.688 348.688 207.439 348.688 194.455Z" stroke="#E4E7EB" stroke-width="1.5" stroke-linecap="round" stroke-linejoin="round"/>
<path d="M348.688 298.049V260.847C348.688 246.206 342.794 240.312 328.153 240.312H290.951C276.31 240.312 270.417 246.206 270.417 260.847V298.049C270.417 312.69 276.31 318.583 290.951 318.583H328.153C342.794 318.583 348.688 312.69 348.688 298.049Z" stroke="#E4E7EB" stroke-width="1.5" stroke-linecap="round" stroke-linejoin="round"/>
</g>
</g>
<defs>
<clipPath id="clip0_7538_82300">
<path d="M0 16C0 7.16344 7.16344 0 16 0H408C416.837 0 424 7.16344 424 16V264C424 272.837 416.837 280 408 280H16C7.16343 280 0 272.837 0 264V16Z" fill="white"/>
</clipPath>
</defs>
</svg>
