<svg width="46" height="36" viewBox="0 0 46 36" fill="none" xmlns="http://www.w3.org/2000/svg">
<g id="Group">
<g id="Group_2">
<path id="Vector" d="M35.427 28.4928C34.7201 28.6776 33.9538 28.0627 34.0081 27.5312C34.1188 25.5736 34.1563 22.764 34.1741 20.7626C34.0112 16.1332 29.1271 12.0551 23.6123 11.9527C15.6701 11.4861 6.73817 17.076 5.5709 24.6131C4.32012 30.6384 10.0583 36.7347 17.8366 35.107C21.3509 34.493 24.457 32.7599 26.5754 30.5026C13.6123 39.6037 3.038 28.1848 11.9052 18.7005C17.2352 12.6982 30.2756 12.5479 31.258 20.7511C31.3092 22.3381 31.3906 25.2426 31.519 27.5302C31.7091 29.634 34.5238 31.174 36.4188 30.3001C39.859 28.2318 42.7814 26.4036 45.6985 24.4492C42.4629 25.6206 38.8901 27.1334 35.4259 28.4918L35.427 28.4928Z" fill="#FF6600"/>
<path id="Vector_2" d="M13.059 8.44897C12.4294 8.60036 12.0013 8.92715 12.0013 9.25498V14.1903C15.5522 11.9497 19.8329 10.7908 23.6604 11.0174C26.6569 11.0675 29.4529 12.1763 31.517 13.9387V9.25498C31.517 8.92715 31.0639 8.60036 30.4092 8.44897C24.9196 7.2911 18.5988 7.2911 13.059 8.44897Z" fill="#FF6600"/>
<path id="Vector_3" d="M5.02173 14.7864V7.2326L11.0355 9.54624V9.23616C11.0355 8.48757 11.8092 7.81519 12.9932 7.5051C18.5528 6.26579 24.9331 6.26579 30.5167 7.5051C31.7007 7.81519 32.4503 8.48652 32.4503 9.23616V9.54624L39.1219 6.98933L21.7435 0.325073L4.38902 6.98933H4.39215V14.7854L2.53894 16.6386L4.70642 18.806L6.87389 16.6386L5.02173 14.7854V14.7864Z" fill="#FF6600"/>
<path id="Vector_4" d="M1.87327 14.7302L1.25323 15.3505L1.87349 15.9705L2.49352 15.3502L1.87327 14.7302Z" fill="#FF6600"/>
<path id="Vector_5" d="M1.30894 16.4761L0 17.785L1.30894 19.094L2.61789 17.785L1.30894 16.4761Z" fill="#FF6600"/>
</g>
</g>
</svg>
