<svg width="24" height="24" viewBox="0 0 24 24" fill="none" xmlns="http://www.w3.org/2000/svg">
<g id="company logo" clip-path="url(#clip0_7822_113761)">
<path id="Vector" d="M5.31891 14.5036L4.4835 17.6223L1.43011 17.6869C0.517594 15.9944 0 14.0579 0 12.0001C0 10.0102 0.483938 8.13374 1.34175 6.48145H1.34241L4.06078 6.97982L5.25159 9.68188C5.00236 10.4085 4.86652 11.1885 4.86652 12.0001C4.86661 12.881 5.02617 13.725 5.31891 14.5036Z" fill="#FBBB00"/>
<path id="Vector_2" d="M23.7921 9.75781C23.93 10.4837 24.0018 11.2334 24.0018 11.9996C24.0018 12.8587 23.9115 13.6967 23.7394 14.5051C23.1553 17.2558 21.6289 19.6578 19.5144 21.3576L19.5137 21.3569L16.0898 21.1822L15.6052 18.1572C17.0083 17.3343 18.1048 16.0466 18.6823 14.5051H12.2656V9.75781H18.776H23.7921Z" fill="#05C3FF"/>
<path id="Vector_3" d="M19.5114 21.3577L19.5121 21.3584C17.4556 23.0113 14.8433 24.0004 11.9996 24.0004C7.42969 24.0004 3.45652 21.4461 1.42969 17.6872L5.31848 14.5039C6.33187 17.2085 8.94089 19.1338 11.9996 19.1338C13.3143 19.1338 14.546 18.7784 15.6029 18.158L19.5114 21.3577Z" fill="#28B446"/>
<path id="Vector_4" d="M19.6616 2.76262L15.7741 5.94525C14.6803 5.26153 13.3872 4.86656 12.002 4.86656C8.87408 4.86656 6.21627 6.88017 5.25364 9.68175L1.34441 6.48131H1.34375C3.34091 2.63077 7.36419 0 12.002 0C14.9136 0 17.5833 1.03716 19.6616 2.76262Z" fill="#F14336"/>
</g>
<defs>
<clipPath id="clip0_7822_113761">
<rect width="24" height="24" fill="white"/>
</clipPath>
</defs>
</svg>
