<svg width="17" height="17" viewBox="0 0 17 17" fill="none" xmlns="http://www.w3.org/2000/svg">
<g id="Iconly/Curved/Bold/Call">
<path id="Fill 77" fill-rule="evenodd" clip-rule="evenodd" d="M14.6648 10.6904C12.9061 8.5571 12.0294 8.74843 11.0654 9.2171C10.3981 9.5411 9.82211 9.82243 8.32478 8.32443C6.82744 6.82643 7.10811 6.2511 7.43211 5.5851C7.90211 4.62043 8.09278 3.74177 5.95744 1.98376C5.44878 1.5671 4.89411 1.4071 4.31678 1.5191C3.09478 1.74776 2.23144 3.10776 2.23278 3.10776C1.69144 3.8651 0.95011 6.14243 5.72811 10.9211C8.87078 14.0644 10.9314 14.8184 12.1821 14.8184C12.8334 14.8184 13.2641 14.6144 13.5134 14.4351C13.5274 14.4271 14.8994 13.5771 15.1308 12.3311C15.2388 11.7518 15.0821 11.2004 14.6648 10.6904Z" fill="#FF6500"/>
</g>
</svg>
