<svg width="12" height="13" viewBox="0 0 12 13" fill="none" xmlns="http://www.w3.org/2000/svg">
<g id="Social icons/001-facebook" clip-path="url(#clip0_9256_139697)">
<path id="Vector" d="M10.9962 0.523438H0.98764C0.644936 0.523644 0.367119 0.801598 0.367188 1.14444V11.153C0.367394 11.4957 0.645348 11.7735 0.98819 11.7734H6.37671V7.42285H4.91553V5.71997H6.37671V4.46677C6.37671 3.01349 7.26392 2.22247 8.56031 2.22247C9.18124 2.22247 9.71484 2.26875 9.87036 2.28942V3.80835H8.97642C8.2711 3.80835 8.13452 4.1435 8.13452 4.63541V5.71997H9.82092L9.6012 7.42285H8.13452V11.7734H10.9962C11.3391 11.7735 11.6171 11.4956 11.6172 11.1527C11.6172 11.1526 11.6172 11.1526 11.6172 11.1524V1.14389C11.6171 0.801186 11.339 0.523369 10.9962 0.523438Z" fill="white"/>
</g>
<defs>
<clipPath id="clip0_9256_139697">
<rect width="12" height="12" fill="white" transform="translate(0 0.15625)"/>
</clipPath>
</defs>
</svg>
