<svg width="12" height="13" viewBox="0 0 12 13" fill="none" xmlns="http://www.w3.org/2000/svg">
<g id="insta_fill">
<path id="Subtract" fill-rule="evenodd" clip-rule="evenodd" d="M1.5 4.85625C1.5 3.34776 1.5 2.59351 1.96863 2.12488C2.43726 1.65625 3.19151 1.65625 4.7 1.65625H7.3C8.80849 1.65625 9.56274 1.65625 10.0314 2.12488C10.5 2.59351 10.5 3.34776 10.5 4.85625V7.45625C10.5 8.96474 10.5 9.71899 10.0314 10.1876C9.56274 10.6562 8.80849 10.6562 7.3 10.6562H4.7C3.19151 10.6562 2.43726 10.6562 1.96863 10.1876C1.5 9.71899 1.5 8.96474 1.5 7.45625V4.85625ZM9 3.90625C9 4.32046 8.66421 4.65625 8.25 4.65625C7.83579 4.65625 7.5 4.32046 7.5 3.90625C7.5 3.49204 7.83579 3.15625 8.25 3.15625C8.66421 3.15625 9 3.49204 9 3.90625ZM7.2 6.65625C7.2 7.31899 6.66274 7.85625 6 7.85625C5.33726 7.85625 4.8 7.31899 4.8 6.65625C4.8 5.99351 5.33726 5.45625 6 5.45625C6.66274 5.45625 7.2 5.99351 7.2 6.65625ZM8 6.65625C8 7.76082 7.10457 8.65625 6 8.65625C4.89543 8.65625 4 7.76082 4 6.65625C4 5.55168 4.89543 4.65625 6 4.65625C7.10457 4.65625 8 5.55168 8 6.65625Z" fill="white"/>
</g>
</svg>
