<svg width="13" height="12" viewBox="0 0 13 12" fill="none" xmlns="http://www.w3.org/2000/svg">
<g id="Rounded - Bold/fi-br-caret-left">
<path id="Vector" d="M7.10908 8.59601L4.52601 6.01294C4.43932 5.92623 4.39062 5.80863 4.39062 5.68601C4.39062 5.5634 4.43932 5.4458 4.52601 5.35908L7.10908 2.77602C7.17375 2.71136 7.25614 2.66734 7.34583 2.64951C7.43551 2.63167 7.52848 2.64083 7.61296 2.67582C7.69744 2.71081 7.76966 2.77006 7.82047 2.84609C7.87128 2.92212 7.89841 3.0115 7.89843 3.10294V8.26908C7.89841 8.36053 7.87128 8.44991 7.82047 8.52594C7.76966 8.60196 7.69744 8.66122 7.61296 8.69621C7.52848 8.7312 7.43551 8.74036 7.34583 8.72252C7.25614 8.70469 7.17375 8.66066 7.10908 8.59601Z" fill="#808080"/>
</g>
</svg>
