<svg width="17" height="17" viewBox="0 0 17 17" fill="none" xmlns="http://www.w3.org/2000/svg">
<g id="Message_alt_fill">
<path id="Subtract" fill-rule="evenodd" clip-rule="evenodd" d="M1.83595 5.68917C1.83594 5.73471 1.83594 5.78103 1.83594 5.82813V10.4948C1.83594 11.909 1.83594 12.6161 2.27528 13.0555C2.71462 13.4948 3.42172 13.4948 4.83594 13.4948H12.1693C13.5835 13.4948 14.2906 13.4948 14.7299 13.0555C15.1693 12.6161 15.1693 11.909 15.1693 10.4948V5.82813C15.1693 5.78103 15.1693 5.73471 15.1693 5.68917L8.99874 9.21517C8.69131 9.39085 8.3139 9.39085 8.00647 9.21517L1.83595 5.68917ZM1.85321 4.61348C1.93182 4.61613 2.01096 4.63742 2.08401 4.67916L8.5026 8.34693L14.9212 4.67916C14.9942 4.63742 15.0734 4.61613 15.152 4.61348C15.1185 3.96399 15.0199 3.55741 14.7299 3.26746C14.2906 2.82812 13.5835 2.82812 12.1693 2.82812H4.83594C3.42172 2.82812 2.71462 2.82812 2.27528 3.26746C1.98533 3.55741 1.88674 3.96399 1.85321 4.61348Z" fill="#FF6500"/>
</g>
</svg>
