<svg width="13" height="12" viewBox="0 0 13 12" fill="none" xmlns="http://www.w3.org/2000/svg">
<g id="Rounded - Bold/fi-br-caret-left">
<path id="Vector" d="M5.88701 8.59601L8.47008 6.01294C8.55677 5.92623 8.60547 5.80863 8.60547 5.68601C8.60547 5.5634 8.55677 5.4458 8.47008 5.35908L5.88701 2.77602C5.82234 2.71136 5.73995 2.66734 5.65027 2.64951C5.56058 2.63167 5.46762 2.64083 5.38313 2.67582C5.29865 2.71081 5.22644 2.77006 5.17563 2.84609C5.12481 2.92212 5.09768 3.0115 5.09766 3.10294V8.26908C5.09768 8.36053 5.12481 8.44991 5.17563 8.52594C5.22644 8.60196 5.29865 8.66122 5.38313 8.69621C5.46762 8.7312 5.56058 8.74036 5.65027 8.72252C5.73995 8.70469 5.82234 8.66066 5.88701 8.59601Z" fill="#808080"/>
</g>
</svg>
