<svg width="12" height="13" viewBox="0 0 12 13" fill="none" xmlns="http://www.w3.org/2000/svg">
<g id="Social icons/013-twitter">
<path id="Vector" d="M3.90914 10.6586C8.15464 10.6586 10.4763 7.1413 10.4763 4.09138C10.4763 3.99149 10.4743 3.892 10.4698 3.79307C10.9204 3.46724 11.3121 3.06064 11.6211 2.59783C11.2076 2.78173 10.7625 2.90536 10.2957 2.96129C10.7722 2.67544 11.138 2.22343 11.3106 1.68459C10.8646 1.94899 10.3707 2.14107 9.84496 2.24482C9.42378 1.79619 8.82406 1.51562 8.16008 1.51562C6.88551 1.51562 5.85181 2.54926 5.85181 3.82341C5.85181 4.00463 5.87211 4.18075 5.91167 4.34972C3.99335 4.2532 2.29223 3.3348 1.15396 1.93819C0.955815 2.27922 0.841471 2.6755 0.841471 3.09834C0.841471 3.89902 1.24897 4.60607 1.86857 5.01955C1.4899 5.00792 1.13421 4.90397 0.823239 4.73094C0.822895 4.74064 0.822895 4.75006 0.822895 4.76038C0.822895 5.87823 1.61848 6.81155 2.67475 7.02304C2.48074 7.07581 2.27661 7.10422 2.06609 7.10422C1.91762 7.10422 1.77287 7.08963 1.63224 7.0626C1.92608 7.97968 2.77823 8.64703 3.78847 8.66575C2.99845 9.28493 2.00328 9.65377 0.92169 9.65377C0.735659 9.65377 0.551759 9.6431 0.371094 9.62177C1.39262 10.2765 2.60561 10.6586 3.90921 10.6586" fill="white"/>
</g>
</svg>
