<svg width="64" height="64" viewBox="0 0 64 64" fill="none" xmlns="http://www.w3.org/2000/svg">
<path d="M38.3992 0H25.5992C13.1931 0 3.19922 9.99385 3.19922 22.4V32C3.19922 40.6646 8.17153 48.5415 15.9992 52.2338V62.9662C15.9992 63.5077 16.4915 64 17.1315 64C17.3777 64 17.6731 63.9015 17.87 63.7046L27.1254 54.4H38.3992C50.8054 54.4 60.7992 44.4062 60.7992 32V22.4C60.7992 9.99385 50.8054 0 38.3992 0ZM46.8177 41.9938L43.6177 45.1938C40.1715 48.5415 31.31 44.7015 23.4823 36.7262C15.6546 28.7508 12.1592 19.7415 15.4577 16.3938L18.6577 13.1938C19.9377 12.0123 21.9561 12.0615 23.2361 13.2923L27.8638 18.1169C29.0454 19.3969 29.0454 21.3169 27.7654 22.5969C27.4208 22.9415 27.0269 23.1385 26.5838 23.3354C24.9592 23.8277 24.1223 25.4031 24.5161 27.0277C25.3038 30.5723 29.7838 35.0031 33.1808 35.8892C34.7561 36.2831 36.3808 35.3969 36.9223 33.8708C37.4638 32.2954 39.2361 31.4092 40.91 31.9508C41.4023 32.0985 41.7961 32.4431 42.19 32.7385L46.8177 37.5631C47.9992 38.7446 47.9992 40.7138 46.8177 41.9938ZM34.8546 15.2123C34.51 15.2123 34.2146 15.2123 33.9192 15.3108C33.3777 15.4092 32.7869 14.9662 32.7377 14.3262C32.6885 13.6862 33.0823 13.1938 33.6731 13.1446C34.0669 13.0462 34.4608 13.0462 34.8546 13.0462C40.7623 13.0462 45.4885 17.8708 45.5869 23.68C45.5869 24.0738 45.5869 24.4677 45.4885 24.8615C45.39 25.4031 44.9469 25.8954 44.3069 25.7969C43.6669 25.6985 43.2731 25.2554 43.3715 24.6154C43.3715 24.2708 43.47 23.9754 43.47 23.68C43.4208 19.0523 39.5808 15.2123 34.8546 15.2123ZM41.2546 23.7785C41.1561 24.32 40.7131 24.8123 40.0731 24.7138C39.5808 24.6154 39.1377 24.2215 39.1377 23.7785C39.1377 21.4646 37.2177 19.5446 34.9038 19.5446C34.3623 19.6431 33.7715 19.1508 33.7223 18.56C33.6238 18.0185 34.1161 17.4277 34.6577 17.3785H34.8054C38.4977 17.3785 41.2546 20.2338 41.2546 23.7785ZM49.4269 27.1754C49.3285 27.7169 48.7869 28.1108 48.2454 28.0615C47.7038 28.0123 47.31 27.4215 47.3592 26.88C47.3592 26.7815 47.3592 26.7815 47.3592 26.7323C47.6054 25.7969 47.7038 24.8123 47.7038 23.7785C47.7038 16.7385 41.9438 10.9785 34.9038 10.9785C34.5592 10.9785 34.2638 10.9785 33.9685 10.9785C33.4269 11.0769 32.8361 10.5846 32.8361 9.99385C32.7377 9.45231 33.23 8.86154 33.7715 8.86154C34.1654 8.86154 34.5592 8.76308 34.9038 8.76308C43.1254 8.76308 49.87 15.4585 49.87 23.7292C49.8208 24.8615 49.6731 26.0923 49.4269 27.1754Z" fill="url(#paint0_linear_13797_120623)"/>
<defs>
<linearGradient id="paint0_linear_13797_120623" x1="8.23159" y1="8.06745" x2="51.1318" y2="50.9676" gradientUnits="userSpaceOnUse">
<stop stop-color="#7E57C2"/>
<stop offset="1" stop-color="#4527A0"/>
</linearGradient>
</defs>
</svg>
