<svg width="20" height="20" viewBox="0 0 20 20" fill="none" xmlns="http://www.w3.org/2000/svg">
<path d="M12 0H8C4.12308 0 1 3.12308 1 7V10C1 12.7077 2.55385 15.1692 5 16.3231V19.6769C5 19.8462 5.15385 20 5.35385 20C5.43077 20 5.52308 19.9692 5.58462 19.9077L8.47692 17H12C15.8769 17 19 13.8769 19 10V7C19 3.12308 15.8769 0 12 0ZM14.6308 13.1231L13.6308 14.1231C12.5538 15.1692 9.78462 13.9692 7.33846 11.4769C4.89231 8.98462 3.8 6.16923 4.83077 5.12308L5.83077 4.12308C6.23077 3.75385 6.86154 3.76923 7.26154 4.15385L8.70769 5.66154C9.07692 6.06154 9.07692 6.66154 8.67692 7.06154C8.56923 7.16923 8.44615 7.23077 8.30769 7.29231C7.8 7.44615 7.53846 7.93846 7.66154 8.44615C7.90769 9.55385 9.30769 10.9385 10.3692 11.2154C10.8615 11.3385 11.3692 11.0615 11.5385 10.5846C11.7077 10.0923 12.2615 9.81538 12.7846 9.98462C12.9385 10.0308 13.0615 10.1385 13.1846 10.2308L14.6308 11.7385C15 12.1077 15 12.7231 14.6308 13.1231ZM10.8923 4.75385C10.7846 4.75385 10.6923 4.75385 10.6 4.78462C10.4308 4.81538 10.2462 4.67692 10.2308 4.47692C10.2154 4.27692 10.3385 4.12308 10.5231 4.10769C10.6462 4.07692 10.7692 4.07692 10.8923 4.07692C12.7385 4.07692 14.2154 5.58462 14.2462 7.4C14.2462 7.52308 14.2462 7.64615 14.2154 7.76923C14.1846 7.93846 14.0462 8.09231 13.8462 8.06154C13.6462 8.03077 13.5231 7.89231 13.5538 7.69231C13.5538 7.58462 13.5846 7.49231 13.5846 7.4C13.5692 5.95385 12.3692 4.75385 10.8923 4.75385ZM12.8923 7.43077C12.8615 7.6 12.7231 7.75385 12.5231 7.72308C12.3692 7.69231 12.2308 7.56923 12.2308 7.43077C12.2308 6.70769 11.6308 6.10769 10.9077 6.10769C10.7385 6.13846 10.5538 5.98462 10.5385 5.8C10.5077 5.63077 10.6615 5.44615 10.8308 5.43077H10.8769C12.0308 5.43077 12.8923 6.32308 12.8923 7.43077ZM15.4462 8.49231C15.4154 8.66154 15.2462 8.78462 15.0769 8.76923C14.9077 8.75385 14.7846 8.56923 14.8 8.4C14.8 8.36923 14.8 8.36923 14.8 8.35385C14.8769 8.06154 14.9077 7.75385 14.9077 7.43077C14.9077 5.23077 13.1077 3.43077 10.9077 3.43077C10.8 3.43077 10.7077 3.43077 10.6154 3.43077C10.4462 3.46154 10.2615 3.30769 10.2615 3.12308C10.2308 2.95385 10.3846 2.76923 10.5538 2.76923C10.6769 2.76923 10.8 2.73846 10.9077 2.73846C13.4769 2.73846 15.5846 4.83077 15.5846 7.41539C15.5692 7.76923 15.5231 8.15385 15.4462 8.49231Z" fill="white"/>
</svg>
