<svg width="64" height="64" viewBox="0 0 64 64" fill="none" xmlns="http://www.w3.org/2000/svg">
<g clip-path="url(#clip0_13797_120549)">
<path d="M32.008 0H31.992C14.348 0 0 14.352 0 32C0 39 2.256 45.488 6.092 50.756L2.104 62.644L14.404 58.712C19.464 62.064 25.5 64 32.008 64C49.652 64 64 49.644 64 32C64 14.356 49.652 0 32.008 0Z" fill="#4CAF50"/>
<path d="M50.6282 45.1887C49.8562 47.3687 46.7922 49.1767 44.3482 49.7047C42.6762 50.0607 40.4922 50.3447 33.1402 47.2967C23.7362 43.4007 17.6802 33.8447 17.2082 33.2247C16.7562 32.6047 13.4082 28.1647 13.4082 23.5727C13.4082 18.9807 15.7402 16.7447 16.6802 15.7847C17.4522 14.9967 18.7282 14.6367 19.9522 14.6367C20.3482 14.6367 20.7042 14.6567 21.0242 14.6727C21.9642 14.7127 22.4362 14.7687 23.0562 16.2527C23.8282 18.1127 25.7082 22.7047 25.9322 23.1767C26.1602 23.6487 26.3882 24.2887 26.0682 24.9087C25.7682 25.5487 25.5042 25.8327 25.0322 26.3767C24.5602 26.9207 24.1122 27.3367 23.6402 27.9207C23.2082 28.4287 22.7202 28.9727 23.2642 29.9127C23.8082 30.8327 25.6882 33.9007 28.4562 36.3647C32.0282 39.5447 34.9242 40.5607 35.9602 40.9927C36.7322 41.3127 37.6522 41.2367 38.2162 40.6367C38.9322 39.8647 39.8162 38.5847 40.7162 37.3247C41.3562 36.4207 42.1642 36.3087 43.0122 36.6287C43.8762 36.9287 48.4482 39.1887 49.3882 39.6567C50.3282 40.1287 50.9482 40.3527 51.1762 40.7487C51.4002 41.1447 51.4002 43.0047 50.6282 45.1887Z" fill="#FAFAFA"/>
</g>
<defs>
<clipPath id="clip0_13797_120549">
<rect width="64" height="64" fill="white"/>
</clipPath>
</defs>
</svg>
