<svg width="20" height="20" viewBox="0 0 20 20" fill="none" xmlns="http://www.w3.org/2000/svg">
<g clip-path="url(#clip0_13799_35850)">
<path d="M10.0025 0H9.9975C4.48375 0 0 4.485 0 10C0 12.1875 0.705 14.215 1.90375 15.8612L0.6575 19.5763L4.50125 18.3475C6.0825 19.395 7.96875 20 10.0025 20C15.5162 20 20 15.5138 20 10C20 4.48625 15.5162 0 10.0025 0Z" fill="white"/>
<path d="M15.8207 14.1217C15.5795 14.803 14.622 15.368 13.8582 15.533C13.3357 15.6442 12.6532 15.733 10.3557 14.7805C7.41695 13.563 5.52445 10.5767 5.37695 10.383C5.2357 10.1892 4.18945 8.80172 4.18945 7.36672C4.18945 5.93172 4.9182 5.23297 5.21195 4.93297C5.4532 4.68672 5.85195 4.57422 6.23445 4.57422C6.3582 4.57422 6.46945 4.58047 6.56945 4.58547C6.8632 4.59797 7.0107 4.61547 7.20445 5.07922C7.4457 5.66047 8.0332 7.09547 8.1032 7.24297C8.17445 7.39047 8.2457 7.59047 8.1457 7.78422C8.05195 7.98422 7.96945 8.07297 7.82195 8.24297C7.67445 8.41297 7.53445 8.54297 7.38695 8.72547C7.25195 8.88422 7.09945 9.05422 7.26945 9.34797C7.43945 9.63547 8.02695 10.5942 8.89195 11.3642C10.0082 12.358 10.9132 12.6755 11.237 12.8105C11.4782 12.9105 11.7657 12.8867 11.942 12.6992C12.1657 12.458 12.442 12.058 12.7232 11.6642C12.9232 11.3817 13.1757 11.3467 13.4407 11.4467C13.7107 11.5405 15.1395 12.2467 15.4332 12.393C15.727 12.5405 15.9207 12.6105 15.992 12.7342C16.062 12.858 16.062 13.4392 15.8207 14.1217Z" fill="#FF6500"/>
</g>
<defs>
<clipPath id="clip0_13799_35850">
<rect width="20" height="20" fill="white"/>
</clipPath>
</defs>
</svg>
