<svg width="12" height="13" viewBox="0 0 12 13" fill="none" xmlns="http://www.w3.org/2000/svg">
<g id="Social icons/008-youtube">
<path id="Vector" d="M11.3854 3.3419C11.2557 2.85995 10.8757 2.48003 10.3939 2.35025C9.51351 2.10938 5.99205 2.10938 5.99205 2.10938C5.99205 2.10938 2.47073 2.10938 1.59038 2.34112C1.11776 2.47076 0.7285 2.86002 0.598862 3.3419C0.367188 4.22218 0.367188 6.04777 0.367188 6.04777C0.367188 6.04777 0.367188 7.88255 0.598862 8.75363C0.728638 9.23552 1.10849 9.61544 1.59045 9.74522C2.48 9.98616 5.99219 9.98616 5.99219 9.98616C5.99219 9.98616 9.51351 9.98616 10.3939 9.75442C10.8758 9.62471 11.2557 9.24479 11.3855 8.7629C11.6171 7.88255 11.6171 6.05704 11.6171 6.05704C11.6171 6.05704 11.6264 4.22218 11.3854 3.3419ZM4.8709 7.73431V4.36123L7.79916 6.04777L4.8709 7.73431Z" fill="white"/>
</g>
</svg>
