<svg width="31" height="32" viewBox="0 0 31 32" fill="none" xmlns="http://www.w3.org/2000/svg">
<path d="M12.8555 21.4141V25.0609L15.668 26.1734L18.4805 25.0609V21.4141H12.8555Z" fill="#51200B"/>
<path d="M21.6055 25.0625V27.5625L15.768 28.7L9.73047 27.5625V25.0625H21.6055Z" fill="white"/>
<path d="M24.7305 30.1875V31.3125H6.60547V30.1875C6.60547 28.7375 7.78047 27.5625 9.23047 27.5625H22.1055C23.5555 27.5625 24.7305 28.7375 24.7305 30.1875Z" fill="#51200B"/>
<path d="M19.5369 10.9987L17.6019 12.885L18.0587 15.5481L15.6669 14.2906L13.275 15.5481L13.7319 12.885L11.7969 10.9987L14.4712 10.6106L15.6669 8.1875L16.8625 10.6106L19.5369 10.9987Z" fill="#51200B"/>
<path d="M26.5742 3.8125H25.6441C26.6018 2.16119 25.4094 0.0625 23.4805 0.0625H7.85547C5.93034 0.0625 4.73159 2.15694 5.69184 3.8125H5.13672C2.84497 3.8125 0.980469 5.677 0.980469 7.96875V8.485C0.980469 12.2153 4.54097 15.833 7.93866 17.5068C8.78159 19.4259 10.3186 20.9736 12.2305 21.8299V24.4375H9.73047C9.38534 24.4375 9.10547 24.7174 9.10547 25.0625V26.9407C7.37122 27.0067 5.98047 28.4374 5.98047 30.1875V31.3125C5.98047 31.6576 6.26034 31.9375 6.60547 31.9375H24.7305C25.0756 31.9375 25.3555 31.6576 25.3555 31.3125V30.1875C25.3555 28.4374 23.9647 27.0067 22.2305 26.9407V25.0625C22.2305 24.7174 21.9506 24.4375 21.6055 24.4375H19.1055V21.8299C21.0173 20.9736 22.5543 19.4259 23.3973 17.5068C26.7937 15.8336 30.3555 12.2162 30.3555 8.485V7.59375C30.3555 5.50881 28.6592 3.8125 26.5742 3.8125ZM6.60547 2.5625C6.60547 1.87325 7.16622 1.3125 7.85547 1.3125H23.4805C24.1697 1.3125 24.7305 1.87325 24.7305 2.5625C24.7305 3.25175 24.1697 3.8125 23.4805 3.8125H7.85547C7.16622 3.8125 6.60547 3.25175 6.60547 2.5625ZM2.23047 8.485V7.96875C2.23047 6.36619 3.53416 5.0625 5.13672 5.0625H7.23047V14.125C7.23047 14.6881 7.28641 15.2383 7.39209 15.7708C4.77722 14.1361 2.23047 11.3062 2.23047 8.485ZM24.1055 30.1875V30.6875H7.23047V30.1875C7.23047 29.0847 8.12766 28.1875 9.23047 28.1875H22.1055C23.2083 28.1875 24.1055 29.0847 24.1055 30.1875ZM20.9805 26.9375H10.3555V25.6875H20.9805V26.9375ZM17.8555 24.4375H13.4805V22.2744C14.885 22.6518 16.3998 22.6655 17.8555 22.2744V24.4375ZM15.668 21.3125C11.7048 21.3125 8.48047 18.0882 8.48047 14.125V5.0625H22.8555V14.125C22.8555 18.0882 19.6312 21.3125 15.668 21.3125ZM29.1055 8.485C29.1055 11.3095 26.555 14.1381 23.9438 15.7708C24.0495 15.2382 24.1055 14.6881 24.1055 14.125V5.0625H26.5742C27.97 5.0625 29.1055 6.198 29.1055 7.59375V8.485Z" fill="#51200B"/>
<path d="M19.6265 10.3799L17.2777 10.0387L16.2274 7.91031C15.9984 7.4465 15.3352 7.44662 15.1064 7.91031L14.056 10.0387L11.7072 10.3799C11.1952 10.4544 10.9906 11.0851 11.3608 11.4461L13.0604 13.1028L12.6592 15.442C12.5719 15.9517 13.108 16.3415 13.566 16.1009L15.6669 14.9964L17.7676 16.1008C18.2259 16.3416 18.7617 15.9511 18.6745 15.4419L18.2733 13.1027L19.9729 11.446C20.3434 11.0849 20.138 10.4543 19.6265 10.3799ZM17.1655 12.4369C17.0182 12.5806 16.951 12.7874 16.9857 12.9902L17.2284 14.4051L15.9577 13.7371C15.7756 13.6414 15.5582 13.6414 15.376 13.7371L14.1054 14.4051L14.348 12.9902C14.3828 12.7874 14.3155 12.5806 14.1683 12.4369L13.1402 11.4349L14.5609 11.2284C14.7645 11.1988 14.9405 11.0709 15.0315 10.8865L15.6669 9.59919L16.3022 10.8866C16.3932 11.071 16.5692 11.1989 16.7728 11.2285L18.1935 11.4349L17.1655 12.4369Z" fill="#51200B"/>
</svg>
