<svg width="48" height="48" viewBox="0 0 48 48" fill="none" xmlns="http://www.w3.org/2000/svg">
<g clip-path="url(#clip0_13799_75148)">
<path d="M3.60938 47.2031H0.796875C0.408469 47.2031 0.09375 46.8884 0.09375 46.5V2.90625C0.09375 1.74319 1.04006 0.796875 2.20312 0.796875C3.36619 0.796875 4.3125 1.74319 4.3125 2.90625V46.5C4.3125 46.8884 3.99778 47.2031 3.60938 47.2031ZM1.5 45.7969H2.90625V2.90625C2.90625 2.5185 2.59087 2.20312 2.20312 2.20312C1.81537 2.20312 1.5 2.5185 1.5 2.90625V45.7969Z" fill="#FF6500"/>
<path d="M47.2031 47.2031H44.3906C44.0022 47.2031 43.6875 46.8884 43.6875 46.5V2.90625C43.6875 1.74319 44.6338 0.796875 45.7969 0.796875C46.9599 0.796875 47.9062 1.74319 47.9062 2.90625V46.5C47.9062 46.8884 47.5915 47.2031 47.2031 47.2031ZM45.0938 45.7969H46.5V2.90625C46.5 2.5185 46.1846 2.20312 45.7969 2.20312C45.4091 2.20312 45.0938 2.5185 45.0938 2.90625V45.7969Z" fill="#FF6500"/>
<path d="M44.3906 38.7656H3.60938C3.22097 38.7656 2.90625 38.4509 2.90625 38.0625V33.8438C2.90625 33.4553 3.22097 33.1406 3.60938 33.1406H44.3906C44.779 33.1406 45.0938 33.4553 45.0938 33.8438V38.0625C45.0938 38.4509 44.779 38.7656 44.3906 38.7656ZM4.3125 37.3594H43.6875V34.5469H4.3125V37.3594Z" fill="#FF6500"/>
<path d="M44.3906 19.7812H3.60938C3.22097 19.7812 2.90625 19.4665 2.90625 19.0781V14.8594C2.90625 14.471 3.22097 14.1562 3.60938 14.1562H44.3906C44.779 14.1562 45.0938 14.471 45.0938 14.8594V19.0781C45.0938 19.4665 44.779 19.7812 44.3906 19.7812ZM4.3125 18.375H43.6875V15.5625H4.3125V18.375Z" fill="#FF6500"/>
<path d="M10.6406 15.5625C10.2522 15.5625 9.9375 15.2478 9.9375 14.8594V13.2656C9.9375 11.8182 8.75991 10.6406 7.3125 10.6406H3.5625C3.17409 10.6406 2.85938 10.3259 2.85938 9.9375C2.85938 9.54909 3.17409 9.23438 3.5625 9.23438H7.3125C9.53531 9.23438 11.3438 11.0428 11.3438 13.2656V14.8594C11.3438 15.2478 11.029 15.5625 10.6406 15.5625Z" fill="#FF6500"/>
<path d="M10.6406 34.5469C10.2522 34.5469 9.9375 34.2322 9.9375 33.8438V32.25C9.9375 30.8025 8.75991 29.625 7.3125 29.625H3.5625C3.17409 29.625 2.85938 29.3103 2.85938 28.9219C2.85938 28.5335 3.17409 28.2188 3.5625 28.2188H7.3125C9.53531 28.2188 11.3438 30.0272 11.3438 32.25V33.8438C11.3438 34.2322 11.029 34.5469 10.6406 34.5469Z" fill="#FF6500"/>
<path d="M34.5469 47.2031H25.4062C25.0178 47.2031 24.7031 46.8884 24.7031 46.5V19.0781C24.7031 18.6897 25.0178 18.375 25.4062 18.375H34.5469C34.9353 18.375 35.25 18.6897 35.25 19.0781V46.5C35.25 46.8884 34.9353 47.2031 34.5469 47.2031ZM26.1094 45.7969H33.8438V19.7812H26.1094V45.7969Z" fill="#FF6500"/>
<path d="M34.5332 25.5938H25.4395C25.051 25.5938 24.7363 25.279 24.7363 24.8906C24.7363 24.5022 25.051 24.1875 25.4395 24.1875H34.5332C34.9216 24.1875 35.2363 24.5022 35.2363 24.8906C35.2363 25.279 34.9216 25.5938 34.5332 25.5938Z" fill="#FF6500"/>
<path d="M34.5332 30.4688H25.4395C25.051 30.4688 24.7363 30.154 24.7363 29.7656C24.7363 29.3772 25.051 29.0625 25.4395 29.0625H34.5332C34.9216 29.0625 35.2363 29.3772 35.2363 29.7656C35.2363 30.154 34.9216 30.4688 34.5332 30.4688Z" fill="#FF6500"/>
<path d="M34.5332 43.125H25.4395C25.051 43.125 24.7363 42.8103 24.7363 42.4219C24.7363 42.0335 25.051 41.7188 25.4395 41.7188H34.5332C34.9216 41.7188 35.2363 42.0335 35.2363 42.4219C35.2363 42.8103 34.9216 43.125 34.5332 43.125Z" fill="#FF6500"/>
</g>
<defs>
<clipPath id="clip0_13799_75148">
<rect width="48" height="48" fill="white"/>
</clipPath>
</defs>
</svg>
