<svg width="48" height="48" viewBox="0 0 48 48" fill="none" xmlns="http://www.w3.org/2000/svg">
<g clip-path="url(#clip0_13799_75171)">
<path d="M9 28.5C8.40666 28.5 7.82664 28.6759 7.33329 29.0056C6.83994 29.3352 6.45543 29.8038 6.22836 30.3519C6.0013 30.9001 5.94189 31.5033 6.05765 32.0853C6.1734 32.6672 6.45912 33.2018 6.87868 33.6213C7.29824 34.0409 7.83279 34.3266 8.41473 34.4424C8.99667 34.5581 9.59987 34.4987 10.1481 34.2716C10.6962 34.0446 11.1648 33.6601 11.4944 33.1667C11.8241 32.6734 12 32.0933 12 31.5C12 30.7044 11.6839 29.9413 11.1213 29.3787C10.5587 28.8161 9.79565 28.5 9 28.5ZM9 33C8.70333 33 8.41332 32.912 8.16665 32.7472C7.91997 32.5824 7.72771 32.3481 7.61418 32.074C7.50065 31.7999 7.47095 31.4983 7.52882 31.2074C7.5867 30.9164 7.72956 30.6491 7.93934 30.4393C8.14912 30.2296 8.41639 30.0867 8.70737 30.0288C8.99834 29.9709 9.29994 30.0006 9.57403 30.1142C9.84812 30.2277 10.0824 30.42 10.2472 30.6666C10.412 30.9133 10.5 31.2033 10.5 31.5C10.5 31.8978 10.342 32.2794 10.0607 32.5607C9.77936 32.842 9.39783 33 9 33Z" fill="#FF6500"/>
<path d="M36 31.5C36 32.0933 36.1759 32.6734 36.5056 33.1667C36.8352 33.6601 37.3038 34.0446 37.8519 34.2716C38.4001 34.4987 39.0033 34.5581 39.5853 34.4424C40.1672 34.3266 40.7018 34.0409 41.1213 33.6213C41.5409 33.2018 41.8266 32.6672 41.9424 32.0853C42.0581 31.5033 41.9987 30.9001 41.7716 30.3519C41.5446 29.8038 41.1601 29.3352 40.6667 29.0056C40.1734 28.6759 39.5933 28.5 39 28.5C38.2044 28.5 37.4413 28.8161 36.8787 29.3787C36.3161 29.9413 36 30.7044 36 31.5ZM40.5 31.5C40.5 31.7967 40.412 32.0867 40.2472 32.3334C40.0824 32.58 39.8481 32.7723 39.574 32.8858C39.2999 32.9994 38.9983 33.0291 38.7074 32.9712C38.4164 32.9133 38.1491 32.7704 37.9393 32.5607C37.7296 32.3509 37.5867 32.0836 37.5288 31.7926C37.4709 31.5017 37.5006 31.2001 37.6142 30.926C37.7277 30.6519 37.92 30.4176 38.1666 30.2528C38.4133 30.088 38.7033 30 39 30C39.3978 30 39.7794 30.158 40.0607 30.4393C40.342 30.7206 40.5 31.1022 40.5 31.5Z" fill="#FF6500"/>
<path d="M27.75 3H20.25C20.0511 3 19.8603 3.07902 19.7197 3.21967C19.579 3.36032 19.5 3.55109 19.5 3.75V6.75C19.5 6.94891 19.579 7.13968 19.7197 7.28033C19.8603 7.42098 20.0511 7.5 20.25 7.5H27.75C27.9489 7.5 28.1397 7.42098 28.2803 7.28033C28.421 7.13968 28.5 6.94891 28.5 6.75V3.75C28.5 3.55109 28.421 3.36032 28.2803 3.21967C28.1397 3.07902 27.9489 3 27.75 3ZM27 6H21V4.5H27V6Z" fill="#FF6500"/>
<path d="M46.5 12.135V11.25C46.5 10.6533 46.2629 10.081 45.841 9.65901C45.419 9.23705 44.8467 9 44.25 9H41.9475C41.4075 3.3525 34.8 0 24 0C13.2 0 6.5925 3.3525 6.0525 9H3.75C3.15326 9 2.58097 9.23705 2.15901 9.65901C1.73705 10.081 1.5 10.6533 1.5 11.25V12.135C1.06234 12.2897 0.683249 12.5761 0.414704 12.9547C0.146159 13.3334 0.00130463 13.7858 0 14.25L0 17.25C0 17.8467 0.237053 18.419 0.65901 18.841C1.08097 19.2629 1.65326 19.5 2.25 19.5C2.84674 19.5 3.41903 19.2629 3.84099 18.841C4.26295 18.419 4.5 17.8467 4.5 17.25V14.25C4.4987 13.7858 4.35384 13.3334 4.0853 12.9547C3.81675 12.5761 3.43766 12.2897 3 12.135V11.25C3 11.0511 3.07902 10.8603 3.21967 10.7197C3.36032 10.579 3.55109 10.5 3.75 10.5H6V23.73C2.4 27.195 3 30.8025 3 36C2.80109 36 2.61032 36.079 2.46967 36.2197C2.32902 36.3603 2.25 36.5511 2.25 36.75V41.25C2.25 41.4489 2.32902 41.6397 2.46967 41.7803C2.61032 41.921 2.80109 42 3 42H3.75V45.75C3.75 46.3467 3.98705 46.919 4.40901 47.341C4.83097 47.7629 5.40326 48 6 48H9C9.59674 48 10.169 47.7629 10.591 47.341C11.0129 46.919 11.25 46.3467 11.25 45.75V42H36.75V45.75C36.75 46.3467 36.9871 46.919 37.409 47.341C37.831 47.7629 38.4033 48 39 48H42C42.5967 48 43.169 47.7629 43.591 47.341C44.0129 46.919 44.25 46.3467 44.25 45.75V42H45C45.1989 42 45.3897 41.921 45.5303 41.7803C45.671 41.6397 45.75 41.4489 45.75 41.25V36.75C45.75 36.5511 45.671 36.3603 45.5303 36.2197C45.3897 36.079 45.1989 36 45 36C45 30.81 45.6 27.195 42 23.73V10.5H44.25C44.4489 10.5 44.6397 10.579 44.7803 10.7197C44.921 10.8603 45 11.0511 45 11.25V12.135C44.5623 12.2897 44.1832 12.5761 43.9147 12.9547C43.6462 13.3334 43.5013 13.7858 43.5 14.25V17.25C43.5 17.8467 43.7371 18.419 44.159 18.841C44.581 19.2629 45.1533 19.5 45.75 19.5C46.3467 19.5 46.919 19.2629 47.341 18.841C47.7629 18.419 48 17.8467 48 17.25V14.25C47.9987 13.7858 47.8538 13.3334 47.5853 12.9547C47.3168 12.5761 46.9377 12.2897 46.5 12.135ZM3 17.25C3 17.4489 2.92098 17.6397 2.78033 17.7803C2.63968 17.921 2.44891 18 2.25 18C2.05109 18 1.86032 17.921 1.71967 17.7803C1.57902 17.6397 1.5 17.4489 1.5 17.25V14.25C1.5 14.0511 1.57902 13.8603 1.71967 13.7197C1.86032 13.579 2.05109 13.5 2.25 13.5C2.44891 13.5 2.63968 13.579 2.78033 13.7197C2.92098 13.8603 3 14.0511 3 14.25V17.25ZM9.75 45.75C9.75 45.9489 9.67098 46.1397 9.53033 46.2803C9.38968 46.421 9.19891 46.5 9 46.5H6C5.80109 46.5 5.61032 46.421 5.46967 46.2803C5.32902 46.1397 5.25 45.9489 5.25 45.75V42H9.75V45.75ZM42.75 45.75C42.75 45.9489 42.671 46.1397 42.5303 46.2803C42.3897 46.421 42.1989 46.5 42 46.5H39C38.8011 46.5 38.6103 46.421 38.4697 46.2803C38.329 46.1397 38.25 45.9489 38.25 45.75V42H42.75V45.75ZM44.25 40.5H3.75V37.5H44.25V40.5ZM27.75 28.5V30H20.25V28.5H27.75ZM33 28.5V30H29.25V28.5H33ZM20.25 36V34.5H27.75V36H20.25ZM15 31.5H18.75V33H15V31.5ZM20.25 31.5H27.75V33H20.25V31.5ZM33 33H29.25V31.5H33V33ZM29.25 34.5H33V36H29.25V34.5ZM18.75 30H15V28.5H18.75V30ZM15 34.5H18.75V36H15V34.5ZM43.5 30.75V36H34.5V27.75C34.5 27.5511 34.421 27.3603 34.2803 27.2197C34.1397 27.079 33.9489 27 33.75 27H14.25C14.0511 27 13.8603 27.079 13.7197 27.2197C13.579 27.3603 13.5 27.5511 13.5 27.75V36H4.5V30.75C4.5 28.562 5.36919 26.4635 6.91637 24.9164C8.46354 23.3692 10.562 22.5 12.75 22.5H35.25C37.438 22.5 39.5365 23.3692 41.0836 24.9164C42.6308 26.4635 43.5 28.562 43.5 30.75ZM10.5 21V10.5H23.25V21H10.5ZM37.5 10.5V21H24.75V10.5H37.5ZM39 21.75V9.75C39 9.55109 38.921 9.36032 38.7803 9.21967C38.6397 9.07902 38.4489 9 38.25 9H9.75C9.55109 9 9.36032 9.07902 9.21967 9.21967C9.07902 9.36032 9 9.55109 9 9.75V21.75C8.48274 21.9811 7.9816 22.2467 7.5 22.545V9.75C7.5 3.6675 16.02 1.5 24 1.5C31.98 1.5 40.5 3.6675 40.5 9.75V22.545C40.0221 22.2403 39.5205 21.9744 39 21.75ZM46.5 17.25C46.5 17.4489 46.421 17.6397 46.2803 17.7803C46.1397 17.921 45.9489 18 45.75 18C45.5511 18 45.3603 17.921 45.2197 17.7803C45.079 17.6397 45 17.4489 45 17.25V14.25C45 14.0511 45.079 13.8603 45.2197 13.7197C45.3603 13.579 45.5511 13.5 45.75 13.5C45.9489 13.5 46.1397 13.579 46.2803 13.7197C46.421 13.8603 46.5 14.0511 46.5 14.25V17.25Z" fill="#FF6500"/>
<path d="M32.25 6.75C33.0784 6.75 33.75 6.07843 33.75 5.25C33.75 4.42157 33.0784 3.75 32.25 3.75C31.4216 3.75 30.75 4.42157 30.75 5.25C30.75 6.07843 31.4216 6.75 32.25 6.75Z" fill="#FF6500"/>
<path d="M15.75 6.75C16.5784 6.75 17.25 6.07843 17.25 5.25C17.25 4.42157 16.5784 3.75 15.75 3.75C14.9216 3.75 14.25 4.42157 14.25 5.25C14.25 6.07843 14.9216 6.75 15.75 6.75Z" fill="#FF6500"/>
</g>
<defs>
<clipPath id="clip0_13799_75171">
<rect width="48" height="48" fill="white"/>
</clipPath>
</defs>
</svg>
