<svg width="32" height="32" viewBox="0 0 32 32" fill="none" xmlns="http://www.w3.org/2000/svg">
<path d="M20 31H5C3.34571 31 2 29.6543 2 28V4C2 2.34571 3.34571 1 5 1H20C21.6543 1 23 2.34571 23 4V28C23 29.6543 21.6543 31 20 31ZM5 2C3.89722 2 3 2.89698 3 4V28C3 29.103 3.89722 30 5 30H20C21.1028 30 22 29.103 22 28V4C22 2.89698 21.1028 2 20 2H5Z" fill="#51200B"/>
<path d="M4.5 1.55038C4.66159 1.51758 4.82873 1.5 5 1.5H4.5V1.55038Z" fill="#51200B"/>
<path d="M4.50027 2.05029C3.83963 2.05074 3.83727 0.99995 4.5003 1H5.00027C5.2764 1 5.50027 1.22363 5.50027 1.5C5.48151 2.06999 4.9079 1.98655 4.50027 2.05029Z" fill="#51200B"/>
<path d="M26 4.00057C26 4.56557 25.815 5.08556 25.5 5.50057H6.98999C8.24533 3.92998 7.02493 1.45674 5 1.50057H23.5C24.8866 1.50327 26.0037 2.62812 26 4.00057Z" fill="#51200B"/>
<path d="M25.5001 6.00031H6.99012C6.59238 6.01297 6.33874 5.51229 6.59024 5.2005C6.85828 4.8426 7.00013 4.42756 7.00013 4.00031C7.00013 2.89729 6.10291 2.00031 5.00013 2.00031C4.34973 1.99238 4.3377 1.01112 5.00015 1.00032H23.5001C25.1076 0.97568 26.5353 2.37952 26.5001 4.00034C26.5001 4.66047 26.2921 5.28401 25.8983 5.80256C25.8038 5.92707 25.6566 6.00031 25.5001 6.00031ZM7.82459 5.00031H25.2338C26.0212 3.73449 24.9869 1.95251 23.5001 2.00035L7.23426 2.00031C7.94059 2.75931 8.20743 3.99398 7.82459 5.00031Z" fill="#51200B"/>
<path d="M4.5 30.4492C4.66159 30.482 4.82873 30.4996 5 30.4996H4.5V30.4492Z" fill="#51200B"/>
<path d="M5.00123 30.9996H4.50123C3.77296 30.9816 3.87737 29.8318 4.60038 29.959C4.73268 29.9859 4.86768 29.9996 5.00123 29.9996C5.65822 30.0105 5.65856 30.9886 5.00123 30.9996Z" fill="#51200B"/>
<path d="M26 28C26 27.435 25.815 26.915 25.5 26.5H6.98999C8.24533 28.0706 7.02493 30.5438 5 30.5H23.5C24.8866 30.4973 26.0037 29.3725 26 28Z" fill="#51200B"/>
<path d="M23.5007 31.0003C23.0506 30.993 4.721 31.0055 5.00048 31.0002C4.34527 30.9894 4.34184 30.0117 5.00068 30.0003C6.60709 30.041 7.60263 28.061 6.59069 26.8C6.34159 26.489 6.59049 25.9868 6.99066 26.0003L25.5007 26.0003C25.6571 26.0003 25.8044 26.0735 25.8988 26.198C27.3995 28.09 25.9139 31.0567 23.5007 31.0003ZM7.23478 30.0003H23.5007C24.988 30.0478 26.0219 28.2651 25.2343 27.0003H7.82512C8.20795 28.0067 7.94112 29.2412 7.23478 30.0003Z" fill="#51200B"/>
<path d="M13.5 17.5H25.5V22C25.5 22.8279 24.8279 23.5 24 23.5H15C14.1721 23.5 13.5 22.8279 13.5 22V17.5Z" fill="#51200B"/>
<path d="M28.5 21C28.2239 21 28 20.7764 28 20.5V16C28 15.7236 28.2239 15.5 28.5 15.5C28.7761 15.5 29 15.7236 29 16V20.5C29 20.7764 28.7761 21 28.5 21Z" fill="#51200B"/>
<path d="M11.5006 11H5.50058C4.84519 10.9896 4.84191 10.0111 5.5006 10H11.5006C12.156 10.0104 12.1592 10.9889 11.5006 11Z" fill="#51200B"/>
<path d="M8.00065 14H5.50065C4.84416 13.9892 4.8429 13.011 5.50067 13H8.00065C8.65714 13.0108 8.65841 13.989 8.00065 14Z" fill="#51200B"/>
<path d="M11.5006 20H5.50058C4.84519 19.9896 4.84191 19.0111 5.5006 19H11.5006C12.156 19.0104 12.1592 19.9889 11.5006 20Z" fill="#51200B"/>
<path d="M8.00065 17H5.50065C4.84416 16.9892 4.8429 16.011 5.50067 16H8.00065C8.65714 16.0108 8.65841 16.989 8.00065 17Z" fill="#51200B"/>
<path d="M29.5 15L19.5 21.5L9.5 15L19.5 8.5L29.5 15Z" fill="#51200B"/>
<path d="M19.5009 22C19.4062 22 19.3112 21.9731 19.2284 21.9194L9.22843 15.4194C8.93042 15.237 8.92771 14.763 9.22845 14.5806L19.2284 8.08056C19.394 7.97315 19.6078 7.97315 19.7734 8.08056L29.7734 14.5806C30.0714 14.7632 30.0741 15.2369 29.7733 15.4194L19.7734 21.9194C19.6906 21.9731 19.5956 22 19.5009 22ZM10.4184 15L19.5009 20.9038L28.5834 15L19.5009 9.09618L10.4184 15Z" fill="#51200B"/>
</svg>
