<svg width="18" height="18" viewBox="0 0 18 18" fill="none" xmlns="http://www.w3.org/2000/svg">
<g id="ESSENTIAL UI">
<path id="Vector" d="M9 0C4.02961 0 0 4.02926 0 9C0 13.9707 4.02961 18 9 18C13.9704 18 18 13.9704 18 9C18 4.02961 13.9704 0 9 0Z" fill="#DD4247"/>
<path id="Vector_2" d="M4.23845 14.0913C9.6395 14.0913 14.0179 9.71298 14.0179 4.31228C14.0187 3.25907 13.8492 2.21266 13.5158 1.2136C12.1445 0.416443 10.5862 -0.00235453 9.00001 9.95695e-06C4.02962 9.95695e-06 1.00802e-05 4.02962 1.00802e-05 9.00001C-0.00244102 10.6342 0.442157 12.2379 1.28567 13.6375C2.24088 13.9391 3.23675 14.0922 4.23845 14.0913Z" fill="#E55353"/>
<path id="Vector_3" d="M12.714 12.714C12.527 12.901 12.2734 13.006 12.009 13.006C11.7446 13.006 11.491 12.901 11.3039 12.714L8.99908 10.4092L6.69423 12.714C6.5072 12.901 6.2536 13.006 5.98918 13.006C5.72475 13.006 5.47115 12.901 5.28412 12.714C5.09719 12.527 4.99219 12.2734 4.99219 12.009C4.99219 11.7446 5.09719 11.491 5.28412 11.3039L7.58896 8.99908L5.28412 6.69423C5.09719 6.5072 4.99219 6.2536 4.99219 5.98918C4.99219 5.72475 5.09719 5.47115 5.28412 5.28412C5.47115 5.09719 5.72475 4.99219 5.98918 4.99219C6.2536 4.99219 6.5072 5.09719 6.69423 5.28412L8.99908 7.58896L11.3039 5.28412C11.491 5.09719 11.7446 4.99219 12.009 4.99219C12.2734 4.99219 12.527 5.09719 12.714 5.28412C12.901 5.47115 13.006 5.72475 13.006 5.98918C13.006 6.2536 12.901 6.5072 12.714 6.69423L10.4092 8.99908L12.714 11.3039C12.901 11.491 13.006 11.7446 13.006 12.009C13.006 12.2734 12.901 12.527 12.714 12.714Z" fill="white"/>
</g>
</svg>
