<svg width="12" height="12" viewBox="0 0 12 12" fill="none" xmlns="http://www.w3.org/2000/svg">
<path d="M6 12C9.31371 12 12 9.31371 12 6C12 2.68629 9.31371 0 6 0C2.68629 0 0 2.68629 0 6C0 9.31371 2.68629 12 6 12ZM2.625 3.75H9.375C9.58211 3.75 9.75 3.91789 9.75 4.125C9.75 4.33211 9.58211 4.5 9.375 4.5H2.625C2.41789 4.5 2.25 4.33211 2.25 4.125C2.25 3.91789 2.41789 3.75 2.625 3.75ZM3.75 6.375C3.75 6.16789 3.91789 6 4.125 6H7.875C8.08211 6 8.25 6.16789 8.25 6.375C8.25 6.58211 8.08211 6.75 7.875 6.75H4.125C3.91789 6.75 3.75 6.58211 3.75 6.375ZM5.25 8.625C5.25 8.41789 5.41789 8.25 5.625 8.25H6.375C6.58211 8.25 6.75 8.41789 6.75 8.625C6.75 8.83211 6.58211 9 6.375 9H5.625C5.41789 9 5.25 8.83211 5.25 8.625Z" fill="#FF6500"/>
</svg>
