<svg width="16" height="16" viewBox="0 0 16 16" fill="none" xmlns="http://www.w3.org/2000/svg">
<path d="M2.66797 6C2.66797 4.11438 2.66797 3.17157 3.25376 2.58579C3.83954 2 4.78235 2 6.66797 2H9.33463C11.2203 2 12.1631 2 12.7488 2.58579C13.3346 3.17157 13.3346 4.11438 13.3346 6V8.66667C13.3346 10.8528 13.3346 11.9459 12.7921 12.7207C12.5914 13.0074 12.342 13.2567 12.0554 13.4575C11.2805 14 10.1875 14 8.0013 14V14C5.81515 14 4.72207 14 3.94724 13.4575C3.66057 13.2567 3.41124 13.0074 3.21051 12.7207C2.66797 11.9459 2.66797 10.8528 2.66797 8.66667V6Z" stroke="white" stroke-width="1.25"/>
<path d="M10 12L10 14M6 12L6 14" stroke="white" stroke-width="1.25" stroke-linecap="round"/>
<path d="M6 5.33203L10 5.33203" stroke="white" stroke-width="1.25" stroke-linecap="round"/>
<path d="M6 8L10 8" stroke="white" stroke-width="1.25" stroke-linecap="round"/>
</svg>
