<svg width="16" height="16" viewBox="0 0 16 16" fill="none" xmlns="http://www.w3.org/2000/svg">
<path d="M7.33203 7.0013H7.4987C7.77484 7.0013 7.9987 7.22516 7.9987 7.5013V9.83464C7.9987 10.1108 8.22256 10.3346 8.4987 10.3346H8.66536M7.9987 5.66797H8.00537" stroke="#FF6500" stroke-linecap="round" stroke-linejoin="round"/>
<path d="M8.92482 13.2536C9.61456 13.132 10.2736 12.8757 10.8643 12.4994C11.455 12.1231 11.9658 11.6341 12.3675 11.0604C12.7692 10.4867 13.054 9.83943 13.2056 9.15565C13.3572 8.47186 13.3726 7.76492 13.251 7.07518C13.1294 6.38543 12.8731 5.7264 12.4968 5.1357C12.1205 4.54501 11.6315 4.03421 11.0578 3.63249C10.4841 3.23077 9.83682 2.94598 9.15304 2.79439C8.46926 2.6428 7.76232 2.62737 7.07257 2.74899C6.38283 2.87061 5.7238 3.1269 5.1331 3.50321C4.5424 3.87953 4.03161 4.36851 3.62989 4.94223C3.22816 5.51595 2.94338 6.16318 2.79179 6.84696C2.6402 7.53074 2.62477 8.23768 2.74639 8.92743C2.86801 9.61717 3.1243 10.2762 3.50061 10.8669C3.87693 11.4576 4.3659 11.9684 4.93963 12.3701C5.51335 12.7718 6.16057 13.0566 6.84436 13.2082C7.52814 13.3598 8.23508 13.3752 8.92482 13.2536L8.92482 13.2536Z" stroke="#FF6500"/>
</svg>
