<svg width="200" height="40" viewBox="0 0 200 40" fill="none" xmlns="http://www.w3.org/2000/svg">
<g id="Page-1">
<g id="Primary---Marigold">
<path id="Combined-Shape" d="M45.2724 4.30078C49.2146 4.30078 51.1857 6.31563 51.1857 10.3453V14.2185H47.074V10.3453L47.0723 10.2297C47.0373 9.01542 46.4422 8.40353 45.2869 8.39405H45.2579L45.1521 8.39584C44.0409 8.43406 43.4853 9.08389 43.4853 10.3453V12.9568L43.4872 13.0426C43.543 14.308 44.8257 15.8492 47.3355 17.6662C49.9023 19.5148 51.1857 21.7302 51.1857 24.3123V27.9508L51.1845 28.1202C51.1299 32.0467 49.164 34.01 45.2869 34.01C41.3447 34.0002 39.3736 31.9804 39.3736 27.9508V24.0776H43.4853V27.9508L43.487 28.0672C43.5223 29.2904 44.1222 29.902 45.2869 29.902C46.4783 29.902 47.074 29.2516 47.074 27.9508V24.6644L47.0721 24.5715C47.0163 23.2033 45.7335 21.6106 43.2238 19.7936C40.657 17.945 39.3736 15.6954 39.3736 13.0448V10.3453L39.3748 10.1762C39.4294 6.25927 41.3952 4.30078 45.2724 4.30078ZM59.2321 4.30078C63.1743 4.30078 65.1454 6.31563 65.1454 10.3453V14.2185H61.0337V10.3453L61.0321 10.2297C60.9971 9.01542 60.4019 8.40353 59.2466 8.39405H59.2176L59.1118 8.39584C58.0006 8.43406 57.445 9.08389 57.445 10.3453V27.9508L57.4467 28.0672C57.4817 29.2904 58.0768 29.902 59.2321 29.902C60.4332 29.902 61.0337 29.2516 61.0337 27.9508V24.0776H65.1454V27.9508L65.1442 28.1198C65.0895 32.0369 63.1188 34.0003 59.2321 34.01C55.2996 34.01 53.3333 31.9902 53.3333 27.9508V10.3453L53.3345 10.1762C53.3891 6.25927 55.355 4.30078 59.2321 4.30078ZM4.1991 4.65872L7.14584 27.0022L10.0926 4.65872H14.2327L17.1795 27.0022L20.1262 4.65872H24.34L22.9845 14.9438L20.0525 33.652H14.3359L12.17 18.6825L10.0189 33.652H4.30224L1.3555 14.9142L0 4.65872H4.1991ZM33.293 4.65872L36.2273 23.3669L37.5839 33.652H33.3667L32.5558 27.5046H28.2944L27.4686 33.652H23.2662L24.6228 23.4113L27.5718 4.65872H33.293ZM30.4177 11.3086L28.8252 23.3669H32.0102L30.4177 11.3086Z" fill="black"/>
<path id="SeniorCollegeandUniversityCommission" d="M88.3067 16.6038C88.871 16.6038 89.3738 16.4935 89.815 16.2729C90.2563 16.0522 90.6026 15.7239 90.854 15.2878C91.1054 14.8517 91.2311 14.3258 91.2311 13.7102C91.2311 12.9611 91.0489 12.3044 90.6847 11.7401C90.3204 11.1757 89.8971 10.678 89.4149 10.2471L87.2754 8.27697C86.9676 7.98966 86.7496 7.71518 86.6213 7.45352C86.493 7.19187 86.4289 6.88147 86.4289 6.52234C86.4289 6.00929 86.57 5.62963 86.8522 5.38337C87.1344 5.1371 87.5114 5.01397 87.9834 5.01397C88.4349 5.01397 88.7864 5.11658 89.0378 5.3218C89.2892 5.52702 89.4713 5.80663 89.5842 6.16064C89.697 6.51464 89.774 6.92765 89.815 7.39965L91.0464 7.06104C90.9951 6.50695 90.8976 6.02981 90.7539 5.62963C90.6103 5.22945 90.4127 4.89853 90.1613 4.63688C89.91 4.37522 89.6021 4.18283 89.2379 4.0597C88.8736 3.93657 88.4555 3.875 87.9834 3.875C87.1113 3.875 86.4161 4.1187 85.8979 4.6061C85.3797 5.09349 85.1206 5.77842 85.1206 6.66086C85.1206 7.21496 85.213 7.69979 85.3977 8.11536C85.5824 8.53093 85.8748 8.92341 86.275 9.29281L88.4298 11.2629C88.8608 11.6631 89.2096 12.0505 89.4764 12.425C89.7432 12.7995 89.8766 13.2638 89.8766 13.8179C89.8766 14.372 89.7406 14.7824 89.4687 15.0492C89.1968 15.316 88.8095 15.4494 88.3067 15.4494C87.8347 15.4494 87.4653 15.3237 87.1985 15.0723C86.9317 14.8209 86.7393 14.4874 86.6213 14.0719C86.5033 13.6563 86.4186 13.2125 86.3673 12.7405L85.0898 13.0945C85.1309 13.8025 85.272 14.4182 85.5131 14.9415C85.7542 15.4648 86.1057 15.8727 86.5674 16.1651C87.0292 16.4575 87.6089 16.6038 88.3067 16.6038ZM94.4815 16.5884C95.3742 16.5884 96.0001 16.3395 96.3592 15.8419C96.7184 15.3442 96.8979 14.6696 96.8979 13.8179V13.4023H95.5435V13.9718C95.5435 14.3515 95.5076 14.6593 95.4357 14.8953C95.3639 15.1313 95.2485 15.3006 95.0894 15.4032C94.9304 15.5058 94.7329 15.5571 94.4969 15.5571C94.2301 15.5571 94.012 15.4956 93.8427 15.3724C93.6734 15.2493 93.5503 15.0467 93.4733 14.7645C93.3964 14.4823 93.3579 14.1103 93.3579 13.6486V11.9709H96.9133V11.2167C96.9133 10.3959 96.8543 9.70325 96.7363 9.13889C96.6183 8.57454 96.3874 8.15127 96.0437 7.86909C95.7 7.58692 95.1843 7.44583 94.4969 7.44583C93.8812 7.44583 93.3887 7.56383 93.0193 7.79983C92.6499 8.03584 92.3831 8.41036 92.2189 8.92341C92.0547 9.43646 91.9726 10.1086 91.9726 10.9397V13.0791C91.9726 13.8897 92.0522 14.5541 92.2112 15.0723C92.3703 15.5905 92.6319 15.9727 92.9962 16.219C93.3604 16.4652 93.8555 16.5884 94.4815 16.5884ZM95.5435 11.2014H93.3579V10.6627C93.3579 10.088 93.3912 9.64168 93.4579 9.32359C93.5246 9.0055 93.6401 8.78232 93.8042 8.65406C93.9684 8.5258 94.1941 8.46167 94.4815 8.46167C94.7995 8.46167 95.0356 8.53862 95.1895 8.69254C95.3434 8.84645 95.4409 9.0722 95.4819 9.36977C95.5229 9.66733 95.5435 10.0265 95.5435 10.4472V11.2014ZM99.447 16.4652V9.21585C99.6625 9.02089 99.8857 8.85671 100.117 8.72332C100.347 8.58993 100.571 8.52323 100.786 8.52323C101.073 8.52323 101.276 8.61302 101.394 8.79258C101.512 8.97215 101.571 9.25689 101.571 9.64681V16.4652H102.956V9.29281C102.956 8.95419 102.91 8.6438 102.818 8.36162C102.725 8.07944 102.582 7.85627 102.387 7.69209C102.192 7.52792 101.93 7.44583 101.602 7.44583C101.171 7.44583 100.776 7.54331 100.417 7.73827C100.058 7.93323 99.7344 8.17949 99.447 8.47706V7.56896H98.0618V16.4652H99.447ZM105.738 6.29147V4.65997H104.338V6.29147H105.738ZM105.738 16.4652V7.56896H104.338V16.4652H105.738ZM109.528 16.5884C110.164 16.5884 110.662 16.4576 111.021 16.1959C111.38 15.9342 111.634 15.5546 111.783 15.0569C111.932 14.5593 112.006 13.9667 112.006 13.2792V10.755C112.006 10.0573 111.932 9.46211 111.783 8.96959C111.634 8.47706 111.38 8.09997 111.021 7.83831C110.662 7.57666 110.164 7.44583 109.528 7.44583C108.892 7.44583 108.394 7.57666 108.035 7.83831C107.676 8.09997 107.422 8.47962 107.273 8.97728C107.125 9.47494 107.05 10.0675 107.05 10.755V13.2792C107.05 13.9667 107.125 14.5593 107.273 15.0569C107.422 15.5546 107.676 15.9342 108.035 16.1959C108.394 16.4576 108.892 16.5884 109.528 16.5884ZM109.528 15.5571C109.179 15.5571 108.928 15.4597 108.774 15.2647C108.62 15.0697 108.525 14.8055 108.489 14.472C108.453 14.1386 108.436 13.7717 108.436 13.3716V10.678C108.436 10.2676 108.453 9.89564 108.489 9.56216C108.525 9.22868 108.62 8.96189 108.774 8.7618C108.928 8.56171 109.179 8.46167 109.528 8.46167C109.887 8.46167 110.141 8.56171 110.29 8.7618C110.439 8.96189 110.531 9.22868 110.567 9.56216C110.603 9.89564 110.621 10.2676 110.621 10.678V13.3716C110.621 13.7717 110.603 14.1386 110.567 14.472C110.531 14.8055 110.439 15.0697 110.29 15.2647C110.141 15.4597 109.887 15.5571 109.528 15.5571ZM114.632 16.4652V9.80073C114.848 9.45185 115.079 9.20559 115.325 9.06193C115.571 8.91828 115.848 8.84645 116.156 8.84645C116.279 8.84645 116.405 8.86185 116.533 8.89263C116.662 8.92341 116.777 8.95932 116.88 9.00037V7.47661C116.828 7.46635 116.787 7.46122 116.756 7.46122H116.649C116.32 7.46122 115.979 7.5587 115.625 7.75366C115.271 7.94862 114.94 8.30262 114.632 8.81567V7.56896H113.247V16.4652H114.632ZM123.761 16.6192C124.551 16.6192 125.167 16.4575 125.608 16.1343C126.05 15.8111 126.36 15.3648 126.539 14.7953C126.719 14.2258 126.809 13.5665 126.809 12.8175V12.0017H125.424V12.8636C125.424 13.3767 125.388 13.8282 125.316 14.2181C125.244 14.608 125.093 14.9107 124.862 15.1262C124.631 15.3417 124.264 15.4494 123.761 15.4494C123.31 15.4494 122.953 15.3596 122.692 15.1801C122.43 15.0005 122.245 14.7183 122.138 14.3335C122.03 13.9487 121.976 13.4434 121.976 12.8175V7.70748C121.976 7.17391 122.017 6.70447 122.099 6.29916C122.181 5.89385 122.348 5.58089 122.599 5.36028C122.851 5.13967 123.238 5.02936 123.761 5.02936C124.264 5.02936 124.634 5.13197 124.87 5.33719C125.106 5.54241 125.257 5.83229 125.324 6.20681C125.39 6.58134 125.424 7.02 125.424 7.52279V8.32314H126.809V7.44583C126.809 6.70704 126.711 6.07085 126.516 5.53728C126.321 5.00371 126.003 4.59327 125.562 4.30596C125.121 4.01865 124.521 3.875 123.761 3.875C122.899 3.875 122.232 4.04431 121.76 4.38292C121.288 4.72153 120.96 5.19354 120.775 5.79894C120.591 6.40434 120.498 7.10721 120.498 7.90757V12.5866C120.498 13.3356 120.591 14.0129 120.775 14.6183C120.96 15.2237 121.286 15.7085 121.753 16.0728C122.22 16.437 122.889 16.6192 123.761 16.6192ZM130.328 16.5884C130.964 16.5884 131.461 16.4576 131.821 16.1959C132.18 15.9342 132.434 15.5546 132.582 15.0569C132.731 14.5593 132.806 13.9667 132.806 13.2792V10.755C132.806 10.0573 132.731 9.46211 132.582 8.96959C132.434 8.47706 132.18 8.09997 131.821 7.83831C131.461 7.57666 130.964 7.44583 130.328 7.44583C129.691 7.44583 129.194 7.57666 128.835 7.83831C128.476 8.09997 128.222 8.47962 128.073 8.97728C127.924 9.47494 127.85 10.0675 127.85 10.755V13.2792C127.85 13.9667 127.924 14.5593 128.073 15.0569C128.222 15.5546 128.476 15.9342 128.835 16.1959C129.194 16.4576 129.691 16.5884 130.328 16.5884ZM130.328 15.5571C129.979 15.5571 129.727 15.4597 129.573 15.2647C129.42 15.0697 129.325 14.8055 129.289 14.472C129.253 14.1386 129.235 13.7717 129.235 13.3716V10.678C129.235 10.2676 129.253 9.89564 129.289 9.56216C129.325 9.22868 129.42 8.96189 129.573 8.7618C129.727 8.56171 129.979 8.46167 130.328 8.46167C130.687 8.46167 130.941 8.56171 131.09 8.7618C131.238 8.96189 131.331 9.22868 131.367 9.56216C131.402 9.89564 131.42 10.2676 131.42 10.678V13.3716C131.42 13.7717 131.402 14.1386 131.367 14.472C131.331 14.8055 131.238 15.0697 131.09 15.2647C130.941 15.4597 130.687 15.5571 130.328 15.5571ZM135.524 16.4652V3.99813H134.139V16.4652H135.524ZM138.484 16.4652V3.99813H137.099V16.4652H138.484ZM142.244 16.5884C143.137 16.5884 143.763 16.3395 144.122 15.8419C144.481 15.3442 144.661 14.6696 144.661 13.8179V13.4023H143.306V13.9718C143.306 14.3515 143.27 14.6593 143.199 14.8953C143.127 15.1313 143.011 15.3006 142.852 15.4032C142.693 15.5058 142.496 15.5571 142.26 15.5571C141.993 15.5571 141.775 15.4956 141.605 15.3724C141.436 15.2493 141.313 15.0467 141.236 14.7645C141.159 14.4823 141.121 14.1103 141.121 13.6486V11.9709H144.676V11.2167C144.676 10.3959 144.617 9.70325 144.499 9.13889C144.381 8.57454 144.15 8.15127 143.806 7.86909C143.463 7.58692 142.947 7.44583 142.26 7.44583C141.644 7.44583 141.151 7.56383 140.782 7.79983C140.413 8.03584 140.146 8.41036 139.982 8.92341C139.818 9.43646 139.735 10.1086 139.735 10.9397V13.0791C139.735 13.8897 139.815 14.5541 139.974 15.0723C140.133 15.5905 140.395 15.9727 140.759 16.219C141.123 16.4652 141.618 16.5884 142.244 16.5884ZM143.306 11.2014H141.121V10.6627C141.121 10.088 141.154 9.64168 141.221 9.32359C141.287 9.0055 141.403 8.78232 141.567 8.65406C141.731 8.5258 141.957 8.46167 142.244 8.46167C142.562 8.46167 142.798 8.53862 142.952 8.69254C143.106 8.84645 143.204 9.0722 143.245 9.36977C143.286 9.66733 143.306 10.0265 143.306 10.4472V11.2014ZM148.103 19.2973C148.749 19.2973 149.295 19.2203 149.742 19.0664C150.188 18.9125 150.532 18.6765 150.773 18.3584C151.014 18.0403 151.135 17.6401 151.135 17.1579C151.135 16.5217 150.953 16.0317 150.588 15.688C150.224 15.3442 149.688 15.1313 148.98 15.0492L147.579 14.8799C147.323 14.8491 147.135 14.7978 147.017 14.726C146.899 14.6542 146.84 14.5567 146.84 14.4336C146.84 14.2899 146.889 14.1437 146.987 13.9949C147.084 13.8461 147.184 13.7102 147.287 13.587C147.41 13.6178 147.551 13.646 147.71 13.6717C147.869 13.6973 148.02 13.7102 148.164 13.7102C148.78 13.7102 149.265 13.5768 149.619 13.31C149.973 13.0432 150.229 12.6764 150.388 12.2095C150.547 11.7426 150.627 11.2116 150.627 10.6165C150.627 10.3805 150.599 10.1009 150.542 9.77764C150.486 9.45442 150.416 9.20046 150.334 9.01576C150.406 8.94393 150.532 8.86185 150.711 8.7695C150.891 8.67715 151.086 8.58993 151.296 8.50784C151.507 8.42575 151.684 8.37445 151.827 8.35393L151.473 7.43044L151.227 7.52279C150.95 7.64592 150.699 7.80753 150.473 8.00762C150.247 8.20771 150.098 8.36932 150.026 8.49245C149.873 8.17436 149.647 7.9204 149.349 7.73057C149.052 7.54074 148.651 7.44583 148.149 7.44583C147.595 7.44583 147.133 7.57666 146.763 7.83831C146.394 8.09997 146.117 8.46423 145.932 8.93111C145.748 9.39798 145.655 9.94438 145.655 10.5703C145.655 11.2373 145.743 11.7837 145.917 12.2095C146.091 12.6353 146.363 12.9868 146.733 13.2638C146.415 13.5409 146.163 13.8 145.979 14.0411C145.794 14.2822 145.701 14.5567 145.701 14.8645C145.701 15.08 145.778 15.2724 145.932 15.4417C146.086 15.611 146.322 15.7418 146.64 15.8342C146.404 15.9471 146.184 16.0907 145.979 16.2652C145.773 16.4396 145.601 16.6422 145.463 16.8731C145.324 17.104 145.255 17.3682 145.255 17.6658C145.255 18.0454 145.376 18.3558 145.617 18.597C145.858 18.8381 146.194 19.0151 146.625 19.128C147.056 19.2408 147.548 19.2973 148.103 19.2973ZM148.164 12.7251C147.887 12.7251 147.664 12.6635 147.495 12.5404C147.325 12.4173 147.194 12.2531 147.102 12.0479C147.01 11.8427 146.948 11.6118 146.917 11.3553C146.887 11.0987 146.871 10.8371 146.871 10.5703C146.871 10.283 146.889 10.0111 146.925 9.75455C146.961 9.49803 147.025 9.26972 147.117 9.06963C147.21 8.86954 147.341 8.7105 147.51 8.59249C147.679 8.47449 147.897 8.41549 148.164 8.41549C148.441 8.41549 148.662 8.47193 148.826 8.5848C148.99 8.69767 149.116 8.85671 149.203 9.06193C149.29 9.26715 149.349 9.50059 149.38 9.76225C149.411 10.0239 149.426 10.2933 149.426 10.5703C149.426 10.8679 149.411 11.1449 149.38 11.4014C149.349 11.658 149.293 11.8863 149.211 12.0864C149.129 12.2865 149.003 12.4429 148.834 12.5558C148.664 12.6687 148.441 12.7251 148.164 12.7251ZM148.195 18.2045C147.569 18.2045 147.12 18.1327 146.848 17.989C146.576 17.8453 146.44 17.6196 146.44 17.3118C146.44 17.1271 146.486 16.9552 146.579 16.7962C146.671 16.6371 146.787 16.4935 146.925 16.3652C147.064 16.2369 147.2 16.1164 147.333 16.0035L148.595 16.142C148.995 16.1933 149.298 16.2652 149.503 16.3575C149.708 16.4499 149.849 16.5653 149.926 16.7038C150.003 16.8423 150.042 17.0091 150.042 17.204C150.042 17.5529 149.883 17.8069 149.565 17.9659C149.247 18.125 148.79 18.2045 148.195 18.2045ZM154.396 16.5884C155.288 16.5884 155.914 16.3395 156.273 15.8419C156.633 15.3442 156.812 14.6696 156.812 13.8179V13.4023H155.458V13.9718C155.458 14.3515 155.422 14.6593 155.35 14.8953C155.278 15.1313 155.163 15.3006 155.004 15.4032C154.845 15.5058 154.647 15.5571 154.411 15.5571C154.144 15.5571 153.926 15.4956 153.757 15.3724C153.588 15.2493 153.464 15.0467 153.388 14.7645C153.311 14.4823 153.272 14.1103 153.272 13.6486V11.9709H156.827V11.2167C156.827 10.3959 156.768 9.70325 156.65 9.13889C156.532 8.57454 156.302 8.15127 155.958 7.86909C155.614 7.58692 155.099 7.44583 154.411 7.44583C153.795 7.44583 153.303 7.56383 152.933 7.79983C152.564 8.03584 152.297 8.41036 152.133 8.92341C151.969 9.43646 151.887 10.1086 151.887 10.9397V13.0791C151.887 13.8897 151.966 14.5541 152.125 15.0723C152.284 15.5905 152.546 15.9727 152.91 16.219C153.275 16.4652 153.77 16.5884 154.396 16.5884ZM155.458 11.2014H153.272V10.6627C153.272 10.088 153.305 9.64168 153.372 9.32359C153.439 9.0055 153.554 8.78232 153.718 8.65406C153.883 8.5258 154.108 8.46167 154.396 8.46167C154.714 8.46167 154.95 8.53862 155.104 8.69254C155.258 8.84645 155.355 9.0722 155.396 9.36977C155.437 9.66733 155.458 10.0265 155.458 10.4472V11.2014ZM162.52 16.5884C163.013 16.5884 163.41 16.4447 163.713 16.1574C164.016 15.8701 164.224 15.5469 164.336 15.1878C164.357 15.3622 164.388 15.5725 164.429 15.8188C164.47 16.0651 164.501 16.2805 164.521 16.4652H165.783C165.773 16.3113 165.758 16.1241 165.737 15.9035C165.717 15.6828 165.699 15.4494 165.683 15.2031C165.668 14.9569 165.66 14.726 165.66 14.5105V10.3086C165.66 9.35437 165.488 8.63867 165.145 8.16153C164.801 7.6844 164.208 7.44583 163.367 7.44583C162.495 7.44583 161.856 7.67157 161.451 8.12305C161.045 8.57454 160.837 9.26715 160.827 10.2009L162.197 10.2471V9.87768C162.197 9.54933 162.238 9.28255 162.32 9.07733C162.402 8.87211 162.525 8.72076 162.69 8.62328C162.854 8.5258 163.049 8.47706 163.274 8.47706C163.551 8.47706 163.762 8.54119 163.905 8.66945C164.049 8.79771 164.147 8.9978 164.198 9.26972C164.249 9.54164 164.275 9.90334 164.275 10.3548V10.9859C163.721 11.2219 163.221 11.4502 162.774 11.6708C162.328 11.8914 161.953 12.13 161.651 12.3865C161.348 12.643 161.12 12.9457 160.966 13.2946C160.812 13.6435 160.735 14.0693 160.735 14.5721C160.735 14.9312 160.809 15.2621 160.958 15.5648C161.107 15.8675 161.315 16.1138 161.581 16.3036C161.848 16.4935 162.161 16.5884 162.52 16.5884ZM163.028 15.4032C162.761 15.4032 162.543 15.3032 162.374 15.1031C162.205 14.903 162.12 14.5977 162.12 14.1873C162.12 13.9 162.169 13.6537 162.266 13.4485C162.364 13.2433 162.502 13.056 162.682 12.8867C162.861 12.7174 163.087 12.5507 163.359 12.3865C163.631 12.2223 163.936 12.0479 164.275 11.8632V14.5105C164.213 14.6234 164.118 14.7517 163.99 14.8953C163.862 15.039 163.718 15.1595 163.559 15.257C163.4 15.3545 163.223 15.4032 163.028 15.4032ZM168.308 16.4652V9.21585C168.524 9.02089 168.747 8.85671 168.978 8.72332C169.209 8.58993 169.432 8.52323 169.647 8.52323C169.935 8.52323 170.137 8.61302 170.255 8.79258C170.373 8.97215 170.432 9.25689 170.432 9.64681V16.4652H171.818V9.29281C171.818 8.95419 171.771 8.6438 171.679 8.36162C171.587 8.07944 171.443 7.85627 171.248 7.69209C171.053 7.52792 170.791 7.44583 170.463 7.44583C170.032 7.44583 169.637 7.54331 169.278 7.73827C168.919 7.93323 168.596 8.17949 168.308 8.47706V7.56896H166.923V16.4652H168.308ZM175.107 16.5884C175.426 16.5884 175.705 16.5166 175.946 16.3729C176.187 16.2292 176.4 16.0599 176.585 15.865V16.4652H177.97V3.99813H176.585V8.16923C176.4 7.97427 176.182 7.80496 175.931 7.66131C175.679 7.51765 175.39 7.44583 175.061 7.44583C174.476 7.44583 174.03 7.61 173.722 7.93835C173.414 8.26671 173.204 8.71819 173.091 9.29281C172.978 9.86742 172.922 10.519 172.922 11.2475V12.9252C172.922 14.2489 173.099 15.1903 173.453 15.7495C173.807 16.3088 174.358 16.5884 175.107 16.5884ZM175.431 15.511C175.113 15.511 174.874 15.4109 174.715 15.2108C174.556 15.0107 174.448 14.726 174.392 14.3566C174.335 13.9872 174.307 13.546 174.307 13.0329V10.7396C174.307 10.0624 174.381 9.52368 174.53 9.1235C174.679 8.72332 174.969 8.52323 175.4 8.52323C175.646 8.52323 175.867 8.5771 176.062 8.68484C176.257 8.79258 176.431 8.90802 176.585 9.03115V15.0338C176.411 15.1775 176.223 15.2929 176.023 15.3801C175.823 15.4674 175.626 15.511 175.431 15.511ZM88.6299 33.8004C89.5021 33.8004 90.1716 33.6336 90.6385 33.3001C91.1054 32.9667 91.4286 32.5023 91.6081 31.9072C91.7877 31.3121 91.8775 30.6246 91.8775 29.8448V21.1793H90.4923V29.9063C90.4923 30.4091 90.4461 30.8683 90.3537 31.2839C90.2614 31.6994 90.0818 32.0278 89.815 32.2689C89.5483 32.51 89.1532 32.6306 88.6299 32.6306C88.1168 32.6306 87.7244 32.51 87.4524 32.2689C87.1805 32.0278 87.001 31.6994 86.9137 31.2839C86.8265 30.8683 86.7829 30.4091 86.7829 29.9063V21.1793H85.3823V29.8448C85.3823 30.6246 85.4695 31.3121 85.6439 31.9072C85.8184 32.5023 86.1416 32.9667 86.6136 33.3001C87.0856 33.6336 87.7577 33.8004 88.6299 33.8004ZM94.6575 33.6465V26.3971C94.873 26.2021 95.0962 26.0379 95.327 25.9045C95.5579 25.7711 95.7811 25.7044 95.9966 25.7044C96.2839 25.7044 96.4865 25.7942 96.6045 25.9738C96.7225 26.1534 96.7815 26.4381 96.7815 26.828V33.6465H98.1668V26.474C98.1668 26.1354 98.1206 25.825 98.0282 25.5428C97.9359 25.2607 97.7922 25.0375 97.5973 24.8733C97.4023 24.7091 97.1407 24.627 96.8123 24.627C96.3813 24.627 95.9863 24.7245 95.6272 24.9195C95.268 25.1144 94.9448 25.3607 94.6575 25.6583V24.7502H93.2723V33.6465H94.6575ZM100.949 23.4727V21.8412H99.5481V23.4727H100.949ZM100.949 33.6465V24.7502H99.5481V33.6465H100.949ZM105.339 33.6465L107.109 24.7502H105.77L104.492 32.1227L103.215 24.7502H101.814L103.661 33.6465H105.339ZM110.187 33.7696C111.08 33.7696 111.706 33.5208 112.065 33.0231C112.424 32.5254 112.604 31.8508 112.604 30.9991V30.5835H111.249V31.153C111.249 31.5327 111.213 31.8405 111.142 32.0765C111.07 32.3125 110.954 32.4818 110.795 32.5844C110.636 32.6871 110.439 32.7384 110.203 32.7384C109.936 32.7384 109.718 32.6768 109.549 32.5537C109.379 32.4305 109.256 32.2279 109.179 31.9457C109.102 31.6635 109.064 31.2916 109.064 30.8298V29.1521H112.619V28.398C112.619 27.5771 112.56 26.8845 112.442 26.3201C112.324 25.7557 112.093 25.3325 111.749 25.0503C111.406 24.7681 110.89 24.627 110.203 24.627C109.587 24.627 109.094 24.745 108.725 24.981C108.356 25.217 108.089 25.5916 107.925 26.1046C107.761 26.6177 107.678 27.2898 107.678 28.1209V30.2603C107.678 31.0709 107.758 31.7353 107.917 32.2535C108.076 32.7717 108.338 33.1539 108.702 33.4002C109.066 33.6465 109.561 33.7696 110.187 33.7696ZM111.249 28.3826H109.064V27.8439C109.064 27.2692 109.097 26.8229 109.164 26.5048C109.23 26.1867 109.346 25.9635 109.51 25.8353C109.674 25.707 109.9 25.6429 110.187 25.6429C110.505 25.6429 110.741 25.7198 110.895 25.8737C111.049 26.0277 111.147 26.2534 111.188 26.551C111.229 26.8485 111.249 27.2077 111.249 27.6284V28.3826ZM115.214 33.6465V26.9819C115.43 26.6331 115.661 26.3868 115.907 26.2431C116.153 26.0995 116.43 26.0277 116.738 26.0277C116.861 26.0277 116.987 26.0431 117.115 26.0738C117.244 26.1046 117.359 26.1405 117.462 26.1816V24.6578C117.41 24.6476 117.369 24.6424 117.338 24.6424H117.231C116.902 24.6424 116.561 24.7399 116.207 24.9349C115.853 25.1298 115.522 25.4838 115.214 25.9969V24.7502H113.829V33.6465H115.214ZM120.215 33.7696C120.687 33.7696 121.102 33.6875 121.461 33.5233C121.82 33.3591 122.098 33.1129 122.292 32.7845C122.487 32.4562 122.585 32.0509 122.585 31.5686C122.585 31.1684 122.518 30.8221 122.385 30.5297C122.251 30.2372 122.08 29.973 121.869 29.737C121.659 29.501 121.441 29.2804 121.215 29.0752L119.799 27.7823C119.584 27.5873 119.432 27.4001 119.345 27.2205C119.258 27.0409 119.214 26.8485 119.214 26.6433C119.214 26.356 119.307 26.1174 119.491 25.9276C119.676 25.7378 119.922 25.6429 120.23 25.6429C120.476 25.6429 120.679 25.707 120.838 25.8353C120.997 25.9635 121.123 26.1508 121.215 26.3971C121.307 26.6433 121.369 26.946 121.4 27.3052L122.354 26.9512C122.313 26.2842 122.113 25.7301 121.754 25.2889C121.395 24.8476 120.866 24.627 120.168 24.627C119.727 24.627 119.34 24.7066 119.006 24.8656C118.673 25.0246 118.416 25.2607 118.237 25.5736C118.057 25.8866 117.967 26.2688 117.967 26.7203C117.967 27.2128 118.07 27.6258 118.275 27.9593C118.481 28.2928 118.758 28.6134 119.106 28.9213L120.476 30.091C120.794 30.3578 121.025 30.6143 121.169 30.8606C121.313 31.1069 121.384 31.3685 121.384 31.6456C121.384 31.9842 121.295 32.251 121.115 32.4459C120.935 32.6409 120.671 32.7384 120.322 32.7384C119.902 32.7384 119.578 32.5896 119.353 32.292C119.127 31.9944 118.978 31.5378 118.906 30.9222L117.752 31.2608C117.814 32.0201 118.06 32.628 118.491 33.0847C118.922 33.5413 119.496 33.7696 120.215 33.7696ZM124.988 23.4727V21.8412H123.587V23.4727H124.988ZM124.988 33.6465V24.7502H123.587V33.6465H124.988ZM128.701 33.7542C128.875 33.7542 129.047 33.7465 129.217 33.7311C129.386 33.7157 129.558 33.6926 129.732 33.6618V32.6306C129.63 32.6511 129.524 32.6665 129.417 32.6768C129.309 32.687 129.209 32.6922 129.117 32.6922C128.798 32.6922 128.586 32.6101 128.478 32.4459C128.37 32.2817 128.316 32.0047 128.316 31.6148V25.6737H129.778V24.7502H128.316V22.072H126.931V24.7502H125.915V25.6737H126.931V31.7225C126.931 32.1227 126.985 32.4767 127.093 32.7845C127.2 33.0924 127.382 33.3309 127.639 33.5002C127.895 33.6695 128.249 33.7542 128.701 33.7542ZM130.666 35.8782C131.189 35.8782 131.633 35.8218 131.998 35.7089C132.362 35.596 132.659 35.419 132.89 35.1779C133.121 34.9368 133.278 34.6161 133.36 34.2159L135.499 24.7502H134.098L132.79 31.861L131.405 24.7502H130.02L131.836 32.4459C131.908 32.7743 131.977 33.0847 132.044 33.3771C132.11 33.6695 132.144 33.8773 132.144 34.0005C132.144 34.1852 132.095 34.3365 131.998 34.4545C131.9 34.5725 131.728 34.6597 131.482 34.7162C131.236 34.7726 130.887 34.8008 130.435 34.8008V35.8782H130.666ZM142.389 33.8004C143.18 33.8004 143.795 33.6388 144.236 33.3155C144.678 32.9923 144.988 32.546 145.168 31.9765C145.347 31.407 145.437 30.7477 145.437 29.9987V29.1829H144.052V30.0448C144.052 30.5579 144.016 31.0094 143.944 31.3993C143.872 31.7892 143.721 32.0919 143.49 32.3074C143.259 32.5229 142.892 32.6306 142.389 32.6306C141.938 32.6306 141.581 32.5408 141.32 32.3613C141.058 32.1817 140.873 31.8995 140.766 31.5147C140.658 31.1299 140.604 30.6246 140.604 29.9987V24.8887C140.604 24.3551 140.645 23.8857 140.727 23.4804C140.809 23.0751 140.976 22.7621 141.227 22.5415C141.479 22.3209 141.866 22.2106 142.389 22.2106C142.892 22.2106 143.262 22.3132 143.498 22.5184C143.734 22.7236 143.885 23.0135 143.952 23.388C144.018 23.7625 144.052 24.2012 144.052 24.704V25.5043H145.437V24.627C145.437 23.8882 145.34 23.2521 145.145 22.7185C144.95 22.1849 144.632 21.7745 144.19 21.4872C143.749 21.1999 143.149 21.0562 142.389 21.0562C141.528 21.0562 140.861 21.2255 140.389 21.5641C139.917 21.9027 139.588 22.3747 139.404 22.9801C139.219 23.5855 139.126 24.2884 139.126 25.0888V29.7678C139.126 30.5168 139.219 31.1941 139.404 31.7995C139.588 32.4049 139.914 32.8897 140.381 33.254C140.848 33.6182 141.517 33.8004 142.389 33.8004ZM148.956 33.7696C149.592 33.7696 150.09 33.6388 150.449 33.3771C150.808 33.1154 151.062 32.7358 151.211 32.2381C151.359 31.7405 151.434 31.1479 151.434 30.4604V27.9362C151.434 27.2385 151.359 26.6433 151.211 26.1508C151.062 25.6583 150.808 25.2812 150.449 25.0195C150.09 24.7579 149.592 24.627 148.956 24.627C148.32 24.627 147.822 24.7579 147.463 25.0195C147.104 25.2812 146.85 25.6608 146.701 26.1585C146.552 26.6561 146.478 27.2487 146.478 27.9362V30.4604C146.478 31.1479 146.552 31.7405 146.701 32.2381C146.85 32.7358 147.104 33.1154 147.463 33.3771C147.822 33.6388 148.32 33.7696 148.956 33.7696ZM148.956 32.7384C148.607 32.7384 148.356 32.6409 148.202 32.4459C148.048 32.251 147.953 31.9867 147.917 31.6533C147.881 31.3198 147.863 30.9529 147.863 30.5528V27.8592C147.863 27.4488 147.881 27.0768 147.917 26.7434C147.953 26.4099 148.048 26.1431 148.202 25.943C148.356 25.7429 148.607 25.6429 148.956 25.6429C149.315 25.6429 149.569 25.7429 149.718 25.943C149.866 26.1431 149.959 26.4099 149.995 26.7434C150.031 27.0768 150.049 27.4488 150.049 27.8592V30.5528C150.049 30.9529 150.031 31.3198 149.995 31.6533C149.959 31.9867 149.866 32.251 149.718 32.4459C149.569 32.6409 149.315 32.7384 148.956 32.7384ZM153.906 33.6465V26.3355C154.142 26.0892 154.391 25.8917 154.652 25.7429C154.914 25.5941 155.173 25.5197 155.43 25.5197C155.676 25.5197 155.874 25.5993 156.022 25.7583C156.171 25.9174 156.246 26.238 156.246 26.7203V33.6465H157.538V26.6433C157.538 26.5818 157.536 26.5279 157.531 26.4817C157.526 26.4355 157.523 26.3919 157.523 26.3509C157.749 26.0944 157.998 25.8917 158.269 25.7429C158.541 25.5941 158.806 25.5197 159.062 25.5197C159.298 25.5197 159.493 25.5993 159.647 25.7583C159.801 25.9174 159.878 26.238 159.878 26.7203V33.6465H161.171V26.6433C161.171 26.1405 161.099 25.7378 160.955 25.4351C160.812 25.1324 160.622 24.9169 160.386 24.7886C160.15 24.6604 159.893 24.5963 159.616 24.5963C159.206 24.5963 158.816 24.6912 158.446 24.881C158.077 25.0708 157.733 25.3556 157.415 25.7352C157.313 25.3043 157.131 25.0067 156.869 24.8425C156.607 24.6783 156.317 24.5963 155.999 24.5963C155.609 24.5963 155.235 24.6835 154.876 24.8579C154.517 25.0323 154.193 25.2889 153.906 25.6275V24.7502H152.613V33.6465H153.906ZM163.74 33.6465V26.3355C163.976 26.0892 164.225 25.8917 164.487 25.7429C164.748 25.5941 165.007 25.5197 165.264 25.5197C165.51 25.5197 165.708 25.5993 165.856 25.7583C166.005 25.9174 166.08 26.238 166.08 26.7203V33.6465H167.373V26.6433C167.373 26.5818 167.37 26.5279 167.365 26.4817C167.36 26.4355 167.357 26.3919 167.357 26.3509C167.583 26.0944 167.832 25.8917 168.104 25.7429C168.376 25.5941 168.64 25.5197 168.896 25.5197C169.132 25.5197 169.327 25.5993 169.481 25.7583C169.635 25.9174 169.712 26.238 169.712 26.7203V33.6465H171.005V26.6433C171.005 26.1405 170.933 25.7378 170.789 25.4351C170.646 25.1324 170.456 24.9169 170.22 24.7886C169.984 24.6604 169.727 24.5963 169.45 24.5963C169.04 24.5963 168.65 24.6912 168.281 24.881C167.911 25.0708 167.567 25.3556 167.249 25.7352C167.147 25.3043 166.965 25.0067 166.703 24.8425C166.441 24.6783 166.151 24.5963 165.833 24.5963C165.443 24.5963 165.069 24.6835 164.71 24.8579C164.351 25.0323 164.027 25.2889 163.74 25.6275V24.7502H162.447V33.6465H163.74ZM173.79 23.4727V21.8412H172.389V23.4727H173.79ZM173.79 33.6465V24.7502H172.389V33.6465H173.79ZM177.303 33.7696C177.775 33.7696 178.19 33.6875 178.549 33.5233C178.909 33.3591 179.186 33.1129 179.381 32.7845C179.576 32.4562 179.673 32.0509 179.673 31.5686C179.673 31.1684 179.606 30.8221 179.473 30.5297C179.34 30.2372 179.168 29.973 178.957 29.737C178.747 29.501 178.529 29.2804 178.303 29.0752L176.887 27.7823C176.672 27.5873 176.52 27.4001 176.433 27.2205C176.346 27.0409 176.302 26.8485 176.302 26.6433C176.302 26.356 176.395 26.1174 176.579 25.9276C176.764 25.7378 177.01 25.6429 177.318 25.6429C177.564 25.6429 177.767 25.707 177.926 25.8353C178.085 25.9635 178.211 26.1508 178.303 26.3971C178.396 26.6433 178.457 26.946 178.488 27.3052L179.442 26.9512C179.401 26.2842 179.201 25.7301 178.842 25.2889C178.483 24.8476 177.954 24.627 177.257 24.627C176.815 24.627 176.428 24.7066 176.095 24.8656C175.761 25.0246 175.505 25.2607 175.325 25.5736C175.145 25.8866 175.056 26.2688 175.056 26.7203C175.056 27.2128 175.158 27.6258 175.363 27.9593C175.569 28.2928 175.846 28.6134 176.195 28.9213L177.564 30.091C177.882 30.3578 178.113 30.6143 178.257 30.8606C178.401 31.1069 178.472 31.3685 178.472 31.6456C178.472 31.9842 178.383 32.251 178.203 32.4459C178.024 32.6409 177.759 32.7384 177.41 32.7384C176.99 32.7384 176.667 32.5896 176.441 32.292C176.215 31.9944 176.066 31.5378 175.994 30.9222L174.84 31.2608C174.902 32.0201 175.148 32.628 175.579 33.0847C176.01 33.5413 176.584 33.7696 177.303 33.7696ZM182.615 33.7696C183.087 33.7696 183.502 33.6875 183.861 33.5233C184.22 33.3591 184.498 33.1129 184.692 32.7845C184.887 32.4562 184.985 32.0509 184.985 31.5686C184.985 31.1684 184.918 30.8221 184.785 30.5297C184.651 30.2372 184.48 29.973 184.269 29.737C184.059 29.501 183.841 29.2804 183.615 29.0752L182.199 27.7823C181.984 27.5873 181.832 27.4001 181.745 27.2205C181.658 27.0409 181.614 26.8485 181.614 26.6433C181.614 26.356 181.707 26.1174 181.891 25.9276C182.076 25.7378 182.322 25.6429 182.63 25.6429C182.876 25.6429 183.079 25.707 183.238 25.8353C183.397 25.9635 183.523 26.1508 183.615 26.3971C183.707 26.6433 183.769 26.946 183.8 27.3052L184.754 26.9512C184.713 26.2842 184.513 25.7301 184.154 25.2889C183.795 24.8476 183.266 24.627 182.568 24.627C182.127 24.627 181.74 24.7066 181.406 24.8656C181.073 25.0246 180.816 25.2607 180.637 25.5736C180.457 25.8866 180.367 26.2688 180.367 26.7203C180.367 27.2128 180.47 27.6258 180.675 27.9593C180.881 28.2928 181.158 28.6134 181.506 28.9213L182.876 30.091C183.194 30.3578 183.425 30.6143 183.569 30.8606C183.713 31.1069 183.784 31.3685 183.784 31.6456C183.784 31.9842 183.695 32.251 183.515 32.4459C183.335 32.6409 183.071 32.7384 182.722 32.7384C182.302 32.7384 181.978 32.5896 181.753 32.292C181.527 31.9944 181.378 31.5378 181.306 30.9222L180.152 31.2608C180.214 32.0201 180.46 32.628 180.891 33.0847C181.322 33.5413 181.896 33.7696 182.615 33.7696ZM187.388 23.4727V21.8412H185.987V23.4727H187.388ZM187.388 33.6465V24.7502H185.987V33.6465H187.388ZM191.178 33.7696C191.814 33.7696 192.312 33.6388 192.671 33.3771C193.03 33.1154 193.284 32.7358 193.433 32.2381C193.582 31.7405 193.656 31.1479 193.656 30.4604V27.9362C193.656 27.2385 193.582 26.6433 193.433 26.1508C193.284 25.6583 193.03 25.2812 192.671 25.0195C192.312 24.7579 191.814 24.627 191.178 24.627C190.542 24.627 190.044 24.7579 189.685 25.0195C189.326 25.2812 189.072 25.6608 188.923 26.1585C188.774 26.6561 188.7 27.2487 188.7 27.9362V30.4604C188.7 31.1479 188.774 31.7405 188.923 32.2381C189.072 32.7358 189.326 33.1154 189.685 33.3771C190.044 33.6388 190.542 33.7696 191.178 33.7696ZM191.178 32.7384C190.829 32.7384 190.578 32.6409 190.424 32.4459C190.27 32.251 190.175 31.9867 190.139 31.6533C190.103 31.3198 190.085 30.9529 190.085 30.5528V27.8592C190.085 27.4488 190.103 27.0768 190.139 26.7434C190.175 26.4099 190.27 26.1431 190.424 25.943C190.578 25.7429 190.829 25.6429 191.178 25.6429C191.537 25.6429 191.791 25.7429 191.94 25.943C192.089 26.1431 192.181 26.4099 192.217 26.7434C192.253 27.0768 192.271 27.4488 192.271 27.8592V30.5528C192.271 30.9529 192.253 31.3198 192.217 31.6533C192.181 31.9867 192.089 32.251 191.94 32.4459C191.791 32.6409 191.537 32.7384 191.178 32.7384ZM196.22 33.6465V26.3971C196.436 26.2021 196.659 26.0379 196.89 25.9045C197.121 25.7711 197.344 25.7044 197.56 25.7044C197.847 25.7044 198.049 25.7942 198.167 25.9738C198.285 26.1534 198.344 26.4381 198.344 26.828V33.6465H199.73V26.474C199.73 26.1354 199.684 25.825 199.591 25.5428C199.499 25.2607 199.355 25.0375 199.16 24.8733C198.965 24.7091 198.704 24.627 198.375 24.627C197.944 24.627 197.549 24.7245 197.19 24.9195C196.831 25.1144 196.508 25.3607 196.22 25.6583V24.7502H194.835V33.6465H196.22Z" fill="black"/>
<path id="Line-Copy" d="M73.8274 0L75.975 0.00976195L75.7961 39.3834L73.6484 39.3736L73.8274 0Z" fill="#FFB15C"/>
</g>
</g>
</svg>
