<svg width="20" height="20" viewBox="0 0 20 20" fill="none" xmlns="http://www.w3.org/2000/svg">
<path d="M17.1834 7.04232C16.3084 3.19232 12.95 1.45898 10 1.45898C10 1.45898 10 1.45898 9.99168 1.45898C7.05002 1.45898 3.68335 3.18398 2.80835 7.03398C1.83335 11.334 4.46669 14.9756 6.85002 17.2673C7.73335 18.1173 8.86668 18.5423 10 18.5423C11.1334 18.5423 12.2667 18.1173 13.1417 17.2673C15.525 14.9756 18.1584 11.3423 17.1834 7.04232ZM10 11.2173C8.55002 11.2173 7.37502 10.0423 7.37502 8.59232C7.37502 7.14232 8.55002 5.96732 10 5.96732C11.45 5.96732 12.625 7.14232 12.625 8.59232C12.625 10.0423 11.45 11.2173 10 11.2173Z" fill="#FF6500"/>
</svg>
