<svg width="36" height="14" viewBox="0 0 36 14" fill="none" xmlns="http://www.w3.org/2000/svg">
<rect y="0.417969" width="36.0004" height="13.1633" rx="1.89418" fill="#FF6500"/>
<path fill-rule="evenodd" clip-rule="evenodd" d="M4.56931 5.29153V6.50723L4.86744 6.80552L4.51856 7.1544L4.16968 6.80552L4.46797 6.50723V5.25237H4.46747L7.26086 4.17969L10.0581 5.25237L8.98425 5.66394V5.61402C8.98425 5.49336 8.86358 5.3853 8.67301 5.33539C7.77426 5.13591 6.74728 5.13591 5.8524 5.33539C5.66183 5.3853 5.5373 5.49353 5.5373 5.61402V5.66394L4.56931 5.29153ZM5.86262 5.48738C5.76128 5.51175 5.69238 5.56435 5.69238 5.61712V6.41151C6.26393 6.05086 6.95295 5.86433 7.56904 5.90079C8.05135 5.90886 8.5014 6.08733 8.83364 6.37101V5.61712C8.83364 5.56435 8.76071 5.51175 8.65534 5.48738C7.77171 5.30101 6.75431 5.30101 5.86262 5.48738ZM9.46329 8.71346C9.34952 8.74321 9.22616 8.64423 9.2349 8.55869C9.25272 8.24359 9.25877 7.79135 9.26162 7.4692C9.23541 6.72405 8.44925 6.06763 7.56159 6.05116C6.28321 5.97604 4.84551 6.8758 4.65763 8.08898C4.4563 9.05882 5.37992 10.0401 6.63192 9.77808C7.19759 9.67927 7.69755 9.4003 8.03853 9.03697C5.95198 10.5019 4.24993 8.66389 5.67721 7.13729C6.53512 6.17115 8.63411 6.14695 8.79225 7.46735L8.79604 7.58754C8.80434 7.85302 8.81652 8.24238 8.83426 8.55852C8.86485 8.89715 9.31792 9.14503 9.62294 9.00436C10.1767 8.67145 10.6471 8.37719 11.1166 8.06259C10.7782 8.18511 10.4169 8.33082 10.0524 8.47783L10.0523 8.47788L10.0522 8.47792L10.052 8.47798C9.85562 8.55719 9.6583 8.63677 9.46312 8.7133L9.46329 8.71346ZM4.06294 6.49835L3.96313 6.59819L4.06297 6.69799L4.16277 6.59816L4.06294 6.49835ZM3.76099 6.98989L3.97168 6.7792L4.18236 6.98989L3.97167 7.20058L3.76099 6.98989Z" fill="white"/>
<path fill-rule="evenodd" clip-rule="evenodd" d="M13.9488 8.621H15.8203L16.1203 9.50676H17.4133L15.5989 4.49219H14.1845L12.3701 9.50676H13.6488L13.9488 8.621ZM14.8845 5.84227L15.506 7.67808H14.2702L14.8845 5.84227ZM19.2232 8.56385H20.8233V9.50676H18.0017V4.49219H19.2232V8.56385ZM22.663 9.50676V4.49219H21.4415V9.50676H22.663ZM26.8461 4.49219V5.47082H24.8032V6.52802H26.3318V7.47807H24.8032V9.50676H23.5817V4.49219H26.8461ZM28.7748 8.621L28.4748 9.50676H27.1962L29.0106 4.49219H30.4249L32.2393 9.50676H30.9464L30.6464 8.621H28.7748ZM30.3321 7.67808L29.7106 5.84227L29.0963 7.67808H30.3321Z" fill="white"/>
</svg>
