<svg width="48" height="48" viewBox="0 0 48 48" fill="none" xmlns="http://www.w3.org/2000/svg">
<path d="M44.8487 30.4135C44.5964 29.5484 44.2462 28.7142 43.8034 27.9315L45.0649 26.3404C45.4769 25.8204 45.4305 25.0789 44.9671 24.6103L42.7941 22.4373C42.3255 21.9687 41.5841 21.9276 41.064 22.3395L39.4832 23.5908C38.6696 23.1222 37.8045 22.7566 36.9034 22.4992L36.6665 20.4652C36.5893 19.8061 36.0332 19.3118 35.3741 19.3118H32.3C31.6409 19.3118 31.0848 19.8062 31.0075 20.4652L30.781 22.4271C29.8129 22.6794 28.8861 23.0553 28.0158 23.5444L26.4865 22.3344C25.9665 21.9224 25.225 21.9688 24.7564 22.4322L22.5834 24.6052C22.1148 25.0738 22.0736 25.8153 22.4856 26.3353L23.6751 27.844C23.1807 28.6989 22.7945 29.6102 22.5371 30.5628L20.7039 30.774C20.0448 30.8512 19.5505 31.4073 19.5505 32.0664V35.1405C19.5505 35.7996 20.0448 36.3557 20.7039 36.433L22.5113 36.6441C22.7585 37.5864 23.1292 38.4875 23.6029 39.332L22.4907 40.7377C22.0787 41.2578 22.1251 41.9993 22.5885 42.4678L24.7563 44.6357C25.2249 45.1043 25.9664 45.1454 26.4865 44.7335L27.851 43.6522C28.7367 44.1722 29.6842 44.5687 30.6779 44.8365L30.8839 46.6027C30.9612 47.2618 31.5173 47.7561 32.1764 47.7561H35.2505C35.9096 47.7561 36.4657 47.2618 36.5429 46.6027L36.7489 44.8365C37.7684 44.5636 38.7416 44.1516 39.6479 43.611L41.0639 44.7335C41.584 45.1454 42.3255 45.0991 42.7941 44.6357L44.967 42.4627C45.4356 41.9941 45.4768 41.2526 45.0649 40.7326L43.8806 39.2341C44.3543 38.3794 44.7147 37.468 44.9516 36.5205L46.8465 36.3042C47.5056 36.227 47.9999 35.6709 47.9999 35.0118V31.9377C47.9999 31.2786 47.5056 30.7225 46.8465 30.6452L44.8487 30.4135ZM33.7109 38.7295C30.9097 38.7295 28.6286 36.4484 28.6286 33.6472C28.6286 30.846 30.9097 28.5649 33.7109 28.5649C36.512 28.5649 38.7932 30.846 38.7932 33.6472C38.7932 36.4484 36.5121 38.7295 33.7109 38.7295Z" fill="#FF6500"/>
<path d="M3.3202 29.6565L4.94221 31.0262C5.44163 31.4485 6.17802 31.4279 6.6517 30.9799L7.54766 30.1406C8.30455 30.5062 9.10783 30.7636 9.9369 30.913L10.1891 32.1488C10.3178 32.7873 10.91 33.2301 11.5589 33.1786L13.6752 32.9984C14.324 32.9417 14.8338 32.4114 14.8544 31.7574L14.8956 30.501C15.7092 30.2075 16.4764 29.8059 17.1767 29.3012L18.2477 30.0118C18.7936 30.3723 19.5196 30.2693 19.9418 29.7698L21.3115 28.1375C21.7338 27.638 21.7132 26.9017 21.2653 26.428L20.328 25.4291C20.6525 24.6979 20.8842 23.9306 21.018 23.1428L22.3568 22.8699C22.9953 22.7412 23.4382 22.149 23.3867 21.5002L23.2065 19.3838C23.1498 18.735 22.6194 18.2253 21.9655 18.2047L20.5186 18.1584C20.2558 17.4684 19.9109 16.8144 19.4939 16.2017L20.3022 14.9813C20.6627 14.4355 20.5597 13.7094 20.0603 13.2872L18.4383 11.9175C17.9388 11.4953 17.2025 11.5159 16.7287 11.9639L15.6679 12.9577C14.9728 12.6333 14.2417 12.3912 13.4899 12.2471L13.1963 10.795C13.0676 10.1565 12.4754 9.71364 11.8266 9.76513L9.71029 9.94536C9.06148 10.002 8.55171 10.5323 8.53111 11.1863L8.48477 12.6076C7.71239 12.8805 6.98125 13.2512 6.3067 13.7094L5.13777 12.9371C4.59196 12.5766 3.86596 12.6796 3.44368 13.1791L2.07398 14.8011C1.6518 15.3006 1.6724 16.0369 2.12033 16.5106L3.06269 17.5095C2.71764 18.2407 2.46527 19.0131 2.3212 19.8061L1.03389 20.0687C0.39539 20.1975 -0.0474434 20.7896 0.0040493 21.4385L0.184271 23.5548C0.240913 24.2036 0.771282 24.7134 1.42523 24.734L2.71769 24.7752C2.9855 25.527 3.34595 26.2375 3.79388 26.8967L3.08849 27.9574C2.71769 28.5031 2.82067 29.2343 3.3202 29.6565ZM11.2962 17.422C13.5825 17.2263 15.6011 18.9308 15.7916 21.217C15.9873 23.5032 14.2828 25.5218 11.9966 25.7123C9.71039 25.908 7.69179 24.2035 7.50132 21.9173C7.3056 19.631 9.01009 17.6125 11.2962 17.422Z" fill="#FF6500"/>
<path d="M37.4441 11.7269C38.0929 11.66 38.5923 11.1142 38.5975 10.4602L38.6129 9.15745C38.6232 8.5035 38.1392 7.94739 37.4904 7.86495L36.5326 7.74142C36.373 7.1595 36.1465 6.60339 35.853 6.07817L36.4709 5.31608C36.8828 4.80636 36.8519 4.07512 36.3936 3.60654L35.4822 2.67453C35.0239 2.20595 34.2927 2.15446 33.7727 2.5561L33.0055 3.14826C32.4648 2.829 31.8932 2.57664 31.2959 2.40162L31.193 1.41297C31.126 0.764166 30.5802 0.264692 29.9262 0.259542L28.6234 0.244093C27.9695 0.233793 27.4134 0.717823 27.331 1.36663L27.2126 2.30378C26.5637 2.46346 25.9458 2.70542 25.3588 3.02467L24.6379 2.44281C24.1282 2.03087 23.3969 2.06177 22.9283 2.52005L21.9963 3.43146C21.5278 3.88969 21.4763 4.62094 21.8779 5.14101L22.4289 5.8568C22.0891 6.42322 21.8264 7.02568 21.6462 7.65903L20.7914 7.74657C20.1426 7.81351 19.6432 8.35933 19.638 9.01328L19.6226 10.3161C19.6122 10.97 20.0963 11.5262 20.7451 11.6085L21.5793 11.7167C21.7389 12.3449 21.9757 12.9525 22.2847 13.5189L21.7646 14.1574C21.3527 14.6672 21.3836 15.3984 21.8419 15.8669L22.7532 16.799C23.2115 17.2676 23.9428 17.3191 24.4628 16.9174L25.0859 16.4385C25.6729 16.7938 26.3011 17.0667 26.9602 17.2521L27.0426 18.0605C27.1096 18.7094 27.6553 19.2088 28.3093 19.2139L29.6121 19.2294C30.266 19.2397 30.8222 18.7557 30.9046 18.1069L31.0076 17.3035C31.6872 17.1285 32.3412 16.8607 32.9488 16.5106L33.5924 17.0358C34.1022 17.4478 34.8335 17.4168 35.302 16.9586L36.2392 16.042C36.7078 15.5837 36.7593 14.8525 36.3576 14.3325L35.8067 13.6218C36.1259 13.0554 36.3782 12.453 36.543 11.8196L37.4441 11.7269ZM29.0354 13.1996C27.1662 13.1791 25.6678 11.6394 25.6884 9.77021C25.709 7.90104 27.2486 6.40267 29.1178 6.42322C30.987 6.44381 32.4854 7.98343 32.4648 9.85265C32.4442 11.7218 30.9045 13.2202 29.0354 13.1996Z" fill="#FF6500"/>
</svg>
