<svg width="20" height="20" viewBox="0 0 20 20" fill="none" xmlns="http://www.w3.org/2000/svg">
<path d="M1.31303 7.32772C1.41816 7.68817 1.56406 8.03574 1.74857 8.36186L1.22292 9.02482C1.05128 9.24152 1.07059 9.55047 1.26368 9.74571L2.16909 10.6511C2.36433 10.8464 2.67328 10.8635 2.88998 10.6919L3.54865 10.1705C3.88764 10.3658 4.24809 10.5181 4.62355 10.6254L4.72225 11.4728C4.75443 11.7475 4.98615 11.9534 5.26077 11.9534H6.54164C6.81627 11.9534 7.04798 11.7474 7.08016 11.4728L7.17457 10.6554C7.57792 10.5503 7.96411 10.3936 8.32671 10.1898L8.96392 10.694C9.18062 10.8656 9.48957 10.8463 9.68481 10.6532L10.5902 9.74784C10.7855 9.5526 10.8026 9.24364 10.631 9.02695L10.1354 8.39831C10.3413 8.04214 10.5023 7.6624 10.6095 7.26548L11.3733 7.17752C11.648 7.14533 11.8539 6.91362 11.8539 6.63899V5.35812C11.8539 5.0835 11.648 4.85178 11.3733 4.8196L10.6203 4.73164C10.5173 4.33901 10.3628 3.96354 10.1654 3.61168L10.6289 3.02595C10.8005 2.80926 10.7812 2.5003 10.5881 2.30506L9.68484 1.4018C9.48959 1.20656 9.18064 1.1894 8.96394 1.36104L8.39538 1.8116C8.02636 1.5949 7.63156 1.42969 7.2175 1.31813L7.13168 0.582218C7.09949 0.307593 6.86778 0.101624 6.59315 0.101624H5.31228C5.03766 0.101624 4.80594 0.307593 4.77376 0.582218L4.68794 1.31813C4.26313 1.43184 3.85763 1.60348 3.48002 1.82876L2.89 1.36104C2.67331 1.1894 2.36435 1.20871 2.16911 1.4018L1.26371 2.30721C1.06846 2.50245 1.0513 2.8114 1.22294 3.0281L1.71641 3.65244C1.51902 4.0086 1.36884 4.38835 1.27014 4.78313L0.480594 4.87324C0.205969 4.90542 0 5.13714 0 5.41176V6.69263C0 6.96726 0.205969 7.19897 0.480594 7.23115L1.31303 7.32772ZM5.95377 3.86272C7.12093 3.86272 8.07139 4.81319 8.07139 5.98034C8.07139 7.1475 7.12093 8.09796 5.95377 8.09796C4.78663 8.09796 3.83615 7.1475 3.83615 5.98034C3.83615 4.81319 4.78661 3.86272 5.95377 3.86272Z" fill="white"/>
<path d="M18.6166 7.64311L17.9407 7.07241C17.7326 6.89647 17.4258 6.90506 17.2284 7.09172L16.8551 7.44143C16.5398 7.2891 16.2051 7.18183 15.8596 7.11961L15.7545 6.60469C15.7009 6.33864 15.4542 6.15413 15.1838 6.17558L14.302 6.25068C14.0316 6.27428 13.8192 6.49526 13.8107 6.76774L13.7935 7.29125C13.4545 7.41354 13.1348 7.58089 12.843 7.79115L12.3968 7.49507C12.1693 7.34489 11.8668 7.3878 11.6909 7.59591L11.1202 8.27604C10.9442 8.48415 10.9528 8.79096 11.1395 8.98835L11.53 9.40456C11.3948 9.70922 11.2982 10.0289 11.2425 10.3572L10.6846 10.4709C10.4186 10.5245 10.2341 10.7712 10.2555 11.0416L10.3306 11.9234C10.3542 12.1937 10.5752 12.4061 10.8477 12.4147L11.4506 12.434C11.5601 12.7215 11.7038 12.994 11.8775 13.2493L11.5407 13.7578C11.3905 13.9852 11.4334 14.2877 11.6415 14.4637L12.3174 15.0344C12.5255 15.2103 12.8323 15.2017 13.0297 15.0151L13.4717 14.601C13.7613 14.7361 14.066 14.837 14.3792 14.8971L14.5015 15.5021C14.5552 15.7681 14.8019 15.9527 15.0722 15.9312L15.954 15.8561C16.2244 15.8325 16.4368 15.6115 16.4454 15.339L16.4647 14.7469C16.7865 14.6331 17.0911 14.4787 17.3722 14.2877L17.8593 14.6096C18.0867 14.7597 18.3892 14.7168 18.5651 14.5087L19.1358 13.8329C19.3117 13.6248 19.3032 13.318 19.1165 13.1206L18.7239 12.7044C18.8676 12.3997 18.9728 12.0779 19.0328 11.7475L19.5692 11.638C19.8352 11.5844 20.0198 11.3377 19.9983 11.0673L19.9232 10.1855C19.8996 9.91516 19.6786 9.70276 19.4061 9.69418L18.8676 9.67701C18.756 9.36377 18.6058 9.06771 18.4192 8.79306L18.7131 8.35109C18.8676 8.12371 18.8247 7.81904 18.6166 7.64311ZM15.2932 12.7408C14.3406 12.8224 13.4995 12.1122 13.4202 11.1596C13.3386 10.207 14.0488 9.36594 15.0014 9.28655C15.954 9.20502 16.7951 9.91521 16.8744 10.8678C16.956 11.8204 16.2458 12.6615 15.2932 12.7408Z" fill="white"/>
<path d="M4.39829 15.1138C4.12796 15.1417 3.91984 15.3691 3.9177 15.6416L3.91126 16.1844C3.90697 16.4569 4.10865 16.6886 4.37898 16.7229L4.77805 16.7744C4.84456 17.0169 4.93896 17.2486 5.06125 17.4674L4.80379 17.785C4.63215 17.9973 4.64503 18.302 4.83598 18.4973L5.21573 18.8856C5.40668 19.0808 5.71134 19.1023 5.92804 18.9349L6.2477 18.6882C6.47298 18.8212 6.71115 18.9264 6.96001 18.9993L7.00292 19.4112C7.03081 19.6816 7.25824 19.8897 7.53072 19.8918L8.07355 19.8983C8.34601 19.9026 8.57775 19.7009 8.61207 19.4306L8.66142 19.0401C8.93178 18.9735 9.18924 18.8727 9.43381 18.7397L9.73418 18.9821C9.94658 19.1538 10.2513 19.1409 10.4465 18.95L10.8348 18.5702C11.0301 18.3793 11.0515 18.0746 10.8842 17.8579L10.6546 17.5597C10.7962 17.3236 10.9056 17.0726 10.9807 16.8087L11.3369 16.7722C11.6072 16.7444 11.8153 16.5169 11.8175 16.2445L11.8239 15.7016C11.8282 15.4292 11.6265 15.1974 11.3562 15.1631L11.0086 15.118C10.9421 14.8563 10.8434 14.6031 10.7147 14.3671L10.9314 14.1011C11.103 13.8887 11.0902 13.584 10.8992 13.3888L10.5195 13.0004C10.3285 12.8052 10.0238 12.7837 9.80715 12.9511L9.54752 13.1506C9.30295 13.0026 9.04118 12.8889 8.76657 12.8116L8.73222 12.4748C8.70433 12.2044 8.47693 11.9963 8.20443 11.9942L7.66161 11.9877C7.38913 11.9834 7.15742 12.1851 7.12307 12.4555L7.08016 12.7902C6.79697 12.8631 6.52449 12.9747 6.27132 13.1206L6.00313 12.9017C5.79073 12.7301 5.48604 12.743 5.2908 12.9339L4.90032 13.3158C4.70508 13.5068 4.68362 13.8114 4.85097 14.0281L5.08054 14.3242C4.94752 14.5602 4.84239 14.8112 4.77373 15.0751L4.39829 15.1138ZM7.90191 14.5001C8.68073 14.5087 9.30505 15.1502 9.29649 15.9291C9.28791 16.7079 8.64638 17.3322 7.86756 17.3236C7.08874 17.3151 6.46442 16.6736 6.47298 15.8947C6.48158 15.1159 7.12309 14.4916 7.90191 14.5001Z" fill="white"/>
</svg>
