<svg width="28" height="28" viewBox="0 0 28 28" fill="none" xmlns="http://www.w3.org/2000/svg">
<g id="user (2) 1" clip-path="url(#clip0_10218_138354)">
<g id="Layer 4">
<path id="Vector" d="M17.5 14.582C16.8078 14.582 16.1311 14.7873 15.5555 15.1719C14.9799 15.5565 14.5313 16.1031 14.2664 16.7426C14.0015 17.3822 13.9322 18.0859 14.0673 18.7648C14.2023 19.4438 14.5356 20.0674 15.0251 20.5569C15.5146 21.0464 16.1383 21.3797 16.8172 21.5148C17.4961 21.6498 18.1999 21.5805 18.8394 21.3156C19.4789 21.0507 20.0256 20.6021 20.4101 20.0265C20.7947 19.451 21 18.7743 21 18.082C20.999 17.1541 20.6299 16.2644 19.9738 15.6083C19.3176 14.9521 18.4279 14.5831 17.5 14.582ZM19.0791 18.8363C19.1348 18.8901 19.1792 18.9545 19.2098 19.0256C19.2404 19.0968 19.2565 19.1733 19.2571 19.2508C19.2578 19.3283 19.2431 19.4051 19.2137 19.4768C19.1844 19.5484 19.1411 19.6136 19.0863 19.6683C19.0315 19.7231 18.9664 19.7664 18.8947 19.7958C18.823 19.8251 18.7462 19.8398 18.6688 19.8392C18.5913 19.8385 18.5148 19.8224 18.4436 19.7918C18.3724 19.7613 18.3081 19.7168 18.2543 19.6611L17.5 18.9069L16.7458 19.6611C16.6357 19.7674 16.4884 19.8262 16.3354 19.8248C16.1825 19.8235 16.0362 19.7622 15.928 19.654C15.8199 19.5459 15.7585 19.3995 15.7572 19.2466C15.7559 19.0937 15.8147 18.9463 15.9209 18.8363L16.6752 18.082L15.9209 17.3278C15.8147 17.2178 15.7559 17.0704 15.7572 16.9175C15.7585 16.7645 15.8199 16.6182 15.928 16.5101C16.0362 16.4019 16.1825 16.3406 16.3354 16.3392C16.4884 16.3379 16.6357 16.3967 16.7458 16.5029L17.5 17.2572L18.2543 16.5029C18.3643 16.3967 18.5116 16.3379 18.6646 16.3392C18.8175 16.3406 18.9638 16.4019 19.072 16.5101C19.1801 16.6182 19.2415 16.7645 19.2428 16.9175C19.2441 17.0704 19.1853 17.2178 19.0791 17.3278L18.3248 18.082L19.0791 18.8363Z" fill="white"/>
<path id="Vector_2" d="M14.9625 14.178C14.1668 13.6954 13.2571 13.4334 12.3266 13.4186C11.3962 13.4039 10.4786 13.637 9.66801 14.0941C8.85744 14.5512 8.18312 15.2157 7.71425 16.0195C7.24538 16.8233 6.99886 17.7374 7 18.668V20.6065C9.3129 21.4894 11.8112 21.774 14.2634 21.4339C13.757 20.9485 13.3672 20.3546 13.1231 19.6969C12.8791 19.0392 12.7873 18.3348 12.8546 17.6365C12.9219 16.9383 13.1465 16.2643 13.5116 15.6653C13.8767 15.0663 14.3727 14.5578 14.9625 14.178Z" fill="white"/>
<path id="Vector_3" d="M12.2487 12.2513C13.8595 12.2513 15.1654 10.9455 15.1654 9.33464C15.1654 7.7238 13.8595 6.41797 12.2487 6.41797C10.6379 6.41797 9.33203 7.7238 9.33203 9.33464C9.33203 10.9455 10.6379 12.2513 12.2487 12.2513Z" fill="white"/>
<path id="Vector_4" d="M14 0C11.2311 0 8.52431 0.821086 6.22202 2.35943C3.91973 3.89777 2.12532 6.08427 1.06569 8.64243C0.006066 11.2006 -0.271181 14.0155 0.269012 16.7313C0.809206 19.447 2.14258 21.9416 4.10051 23.8995C6.05845 25.8574 8.55301 27.1908 11.2687 27.731C13.9845 28.2712 16.7994 27.9939 19.3576 26.9343C21.9157 25.8747 24.1022 24.0803 25.6406 21.778C27.1789 19.4757 28 16.7689 28 14C28 10.287 26.525 6.72601 23.8995 4.10051C21.274 1.475 17.713 0 14 0ZM17.5 22.75C16.8642 22.7498 16.2352 22.6187 15.6521 22.365C14.5354 22.6162 13.3946 22.7452 12.25 22.75C10.1715 22.7452 8.11392 22.3338 6.19337 21.5389C6.08688 21.4946 5.99586 21.4198 5.93179 21.3239C5.86772 21.228 5.83347 21.1153 5.83334 21V18.6667C5.83537 17.3733 6.2279 16.1107 6.95953 15.0442C7.69116 13.9776 8.7278 13.1569 9.93371 12.6894C9.21636 12.1952 8.67583 11.4846 8.3911 10.6614C8.10636 9.83816 8.09235 8.94545 8.35111 8.1137C8.60986 7.28194 9.12782 6.55472 9.82931 6.0383C10.5308 5.52188 11.379 5.24332 12.2501 5.24332C13.1212 5.24332 13.9695 5.52188 14.6709 6.0383C15.3724 6.55472 15.8904 7.28194 16.1491 8.1137C16.4079 8.94545 16.3939 9.83816 16.1092 10.6614C15.8244 11.4846 15.2839 12.1952 14.5665 12.6894C15.1493 12.9211 15.6946 13.2376 16.1848 13.6287C16.6106 13.4946 17.0537 13.4232 17.5 13.4167C18.7377 13.4167 19.9247 13.9083 20.7998 14.7835C21.675 15.6587 22.1667 16.8457 22.1667 18.0833C22.1667 19.321 21.675 20.508 20.7998 21.3832C19.9247 22.2583 18.7377 22.75 17.5 22.75Z" fill="white"/>
</g>
</g>
<defs>
<clipPath id="clip0_10218_138354">
<rect width="28" height="28" fill="white"/>
</clipPath>
</defs>
</svg>
