<svg width="40" height="40" viewBox="0 0 40 40" fill="none" xmlns="http://www.w3.org/2000/svg">
<rect width="40" height="40" rx="6" fill="#2AAD67"/>
<path d="M27.1603 14.8526C23.9337 15.0259 21.1203 15.9992 18.8403 18.2126C16.5337 20.4526 15.4803 23.1859 15.7737 26.5726C14.507 26.4126 13.3603 26.2392 12.2003 26.1459C11.8003 26.1059 11.3337 26.1592 10.987 26.3459C9.86699 26.9859 8.78699 27.6926 7.50699 28.4926C7.74699 27.4392 7.89365 26.5059 8.16032 25.6126C8.36032 24.9592 8.26699 24.5992 7.66699 24.1726C3.81365 21.4392 2.17365 17.3459 3.40032 13.1326C4.53365 9.23923 7.30699 6.8659 11.0803 5.63923C16.227 3.95923 22.027 5.67923 25.147 9.75923C26.2803 11.2259 26.9736 12.8926 27.1603 14.8526ZM12.307 13.5326C12.3337 12.7592 11.667 12.0659 10.8803 12.0392C10.067 12.0126 9.40032 12.6392 9.37365 13.4392C9.34699 14.2526 9.97365 14.9059 10.787 14.9192C11.587 14.9459 12.267 14.3326 12.307 13.5326ZM20.0537 12.0526C19.2537 12.0659 18.587 12.7459 18.6003 13.5192C18.6137 14.3192 19.2803 14.9459 20.0937 14.9459C20.9203 14.9326 21.5337 14.3059 21.5337 13.4792C21.5203 12.6659 20.867 12.0259 20.0537 12.0526Z" fill="white"/>
<path d="M34.4136 34.9726C33.3869 34.5193 32.4536 33.8393 31.4536 33.7326C30.4536 33.6259 29.4136 34.1993 28.3736 34.3059C25.2003 34.6259 22.3603 33.7459 20.0269 31.5859C15.5736 27.4659 16.2136 21.1459 21.3603 17.7726C25.9336 14.7726 32.6536 15.7726 35.8803 19.9326C38.6936 23.5593 38.3603 28.3859 34.9336 31.4393C33.9336 32.3193 33.5736 33.0526 34.2136 34.2126C34.3336 34.4393 34.3469 34.7059 34.4136 34.9726ZM22.7736 23.7059C23.4269 23.7059 23.9603 23.1993 23.9869 22.5593C24.0136 21.8793 23.4669 21.3059 22.7869 21.3059C22.1069 21.3059 21.5469 21.8793 21.5736 22.5459C21.5869 23.1859 22.1336 23.7059 22.7736 23.7059ZM30.2803 21.3059C29.6536 21.3059 29.1069 21.8126 29.0803 22.4526C29.0536 23.1326 29.5869 23.6926 30.2536 23.6926C30.9069 23.6926 31.4269 23.1993 31.4403 22.5459C31.4803 21.8793 30.9469 21.3059 30.2803 21.3059Z" fill="white"/>
</svg>
