<svg width="40" height="40" viewBox="0 0 40 40" fill="none" xmlns="http://www.w3.org/2000/svg">
<rect width="40" height="40" rx="6" fill="white"/>
<path d="M8.5937 8.47163C10.9669 9.66727 16.2761 18.1787 18.8322 22.6278C18.9362 22.8088 18.9942 23.0124 18.948 23.2159C18.5413 25.0094 15.181 29.6267 13.3907 31.9134C13.3471 31.9692 13.2961 32.0158 13.2372 32.055L13.1531 32.1111C13.0981 32.1478 13.0334 32.1674 12.9673 32.1674C12.8683 32.1674 12.7741 32.1234 12.7109 32.0471C6.69252 24.7769 5.80607 14.412 6.11893 10.1171C6.4376 7.75895 7.61935 7.88146 8.29031 8.30026C8.3899 8.36242 8.48886 8.41881 8.5937 8.47163Z" stroke="#F78F0D" stroke-width="2.06452"/>
<path d="M31.2979 8.47163C28.9247 9.66727 23.6155 18.1787 21.0594 22.6278C20.9554 22.8088 20.8974 23.0124 20.9435 23.2159C21.3503 25.0095 24.7106 29.6268 26.5009 31.9133C26.5445 31.9691 26.5955 32.0158 26.6543 32.0551L26.7384 32.1112C26.7935 32.1477 26.8582 32.1673 26.9242 32.1673C27.0232 32.1673 27.1174 32.1234 27.1806 32.0472C33.199 24.777 34.0855 14.412 33.7726 10.1171C33.454 7.75895 32.2722 7.88146 31.6013 8.30026C31.5016 8.36242 31.4027 8.41881 31.2979 8.47163Z" stroke="#F78F0D" stroke-width="2.06452"/>
</svg>
