<svg width="20" height="20" viewBox="0 0 20 20" fill="none" xmlns="http://www.w3.org/2000/svg">
<g id="calendar-fill-frame">
<path id="calendar-fill" d="M4.375 0C4.72018 0 5 0.279822 5 0.625V1.25H15V0.625C15 0.279822 15.2798 0 15.625 0C15.9702 0 16.25 0.279822 16.25 0.625V1.25H17.5C18.8807 1.25 20 2.36929 20 3.75V5V6.25V17.5C20 18.8807 18.8807 20 17.5 20H2.5C1.11929 20 0 18.8807 0 17.5V6.25H20V5H0V3.75C0 2.36929 1.11929 1.25 2.5 1.25H3.75V0.625C3.75 0.279822 4.02982 0 4.375 0Z" fill="#FF6500"/>
</g>
</svg>
