<svg width="20" height="15" viewBox="0 0 20 15" fill="none" xmlns="http://www.w3.org/2000/svg">
<g id="Group 26960">
<path id="Vector" d="M18.1818 0H1.81818C0.818182 0 0 0.818182 0 1.81818V12.7273C0 13.7273 0.818182 14.5455 1.81818 14.5455H18.1818C19.1818 14.5455 20 13.7273 20 12.7273V1.81818C20 0.818182 19.1818 0 18.1818 0Z" fill="#ED1C24"/>
<path id="Vector_2" opacity="0.3" d="M18.182 14.5455C19.182 14.5455 20.0001 13.7273 20.0001 12.7273V1.81818C20.0001 0.818182 19.182 0 18.182 0H16.3638C16.4547 0.181818 20.5456 7 16.3638 14.5455" fill="black"/>
<g id="Group">
<path id="Vector_3" d="M4.64512 3.93945L5.67967 6.03491L7.9924 6.37127L6.31876 8.00309L6.71422 10.3067L4.64512 9.21854L2.57603 10.3067L2.97149 8.00309L1.29785 6.37127L3.61058 6.03491L4.64512 3.93945Z" fill="#FFF200"/>
<path id="Vector_4" d="M8.57598 3.24414L8.79234 3.68232L9.27507 3.75323L8.92598 4.09414L9.0078 4.57505L8.57598 4.34778L8.14325 4.57505L8.22598 4.09414L7.87598 3.75323L8.35961 3.68232L8.57598 3.24414Z" fill="#FFF200"/>
<path id="Vector_5" d="M8.57598 10.0469L8.79234 10.4851L9.27507 10.556L8.92598 10.8969L9.0078 11.3778L8.57598 11.1505L8.14325 11.3778L8.22598 10.8969L7.87598 10.556L8.35961 10.4851L8.57598 10.0469Z" fill="#FFF200"/>
<path id="Vector_6" d="M10.6619 5.06738L10.8783 5.50556L11.361 5.57556L11.0119 5.91647L11.0937 6.39829L10.6619 6.17102L10.2292 6.39829L10.3119 5.91647L9.96191 5.57556L10.4456 5.50556L10.6619 5.06738Z" fill="#FFF200"/>
<path id="Vector_7" d="M10.6619 7.7793L10.8783 8.21748L11.361 8.28748L11.0119 8.62839L11.0937 9.1102L10.6619 8.88293L10.2292 9.1102L10.3119 8.62839L9.96191 8.28748L10.4456 8.21748L10.6619 7.7793Z" fill="#FFF200"/>
</g>
</g>
</svg>
