<svg width="18" height="17" viewBox="0 0 18 17" fill="none" xmlns="http://www.w3.org/2000/svg">
<g id="Icon">
<g id="Vector">
<path fill-rule="evenodd" clip-rule="evenodd" d="M13.3155 8.70455C12.5555 8.70455 11.8421 8.85788 11.2421 9.11788C13.3421 9.72455 14.8288 11.1779 14.8688 12.8779C15.9621 12.7379 17.1421 12.3245 17.1421 11.1979C17.1421 9.84455 15.3888 8.70455 13.3155 8.70455Z" fill="black"/>
<path fill-rule="evenodd" clip-rule="evenodd" d="M13.2955 7.74456H13.3088C14.7288 7.74456 15.8888 6.58456 15.8888 5.17123C15.8888 3.75123 14.7288 2.59123 13.3088 2.59123C13.0288 2.59123 12.7621 2.63789 12.5088 2.71789C12.9688 3.39789 13.2355 4.21789 13.2355 5.10456C13.2421 6.00456 12.9621 6.87123 12.4355 7.59123C12.7088 7.69123 12.9955 7.74456 13.2955 7.74456Z" fill="black"/>
<path fill-rule="evenodd" clip-rule="evenodd" d="M6.7488 9.11122C6.1488 8.85788 5.43547 8.70455 4.68214 8.70455C2.6088 8.70455 0.855469 9.84455 0.855469 11.1979C0.855469 12.3245 2.0288 12.7312 3.12214 12.8779C3.15547 11.1779 4.64214 9.72455 6.7488 9.11122Z" fill="black"/>
<path fill-rule="evenodd" clip-rule="evenodd" d="M4.68214 7.74456H4.70214C5.00214 7.74456 5.28881 7.69123 5.56214 7.59123C5.05547 6.89789 4.75547 6.03789 4.75547 5.10456C4.75547 4.21789 5.02214 3.39789 5.48214 2.71789C5.22881 2.63789 4.96214 2.59123 4.68214 2.59123C3.26214 2.59123 2.10881 3.75123 2.10881 5.17123C2.10881 6.58456 3.26214 7.74456 4.68214 7.74456Z" fill="black"/>
<path fill-rule="evenodd" clip-rule="evenodd" d="M8.99521 9.7959C6.35454 9.7959 4.12321 11.2332 4.12321 12.9346C4.12321 15.1346 7.78988 15.1346 8.99521 15.1346C11.0872 15.1346 13.8685 14.9079 13.8685 12.9486C13.8685 11.2392 11.6365 9.7959 8.99521 9.7959Z" fill="black"/>
<path fill-rule="evenodd" clip-rule="evenodd" d="M8.99587 8.34861H9.01787C9.8812 8.34595 10.6919 8.00661 11.2999 7.39395C11.9085 6.78128 12.2419 5.96861 12.2385 5.10661C12.2385 3.31795 10.7845 1.86328 8.99587 1.86328C7.20787 1.86328 5.75387 3.31795 5.75387 5.10661C5.75387 6.89395 7.20787 8.34861 8.99587 8.34861Z" fill="black"/>
</g>
</g>
</svg>
