<svg width="40" height="40" viewBox="0 0 40 40" fill="none" xmlns="http://www.w3.org/2000/svg">
<g id="user 1" clip-path="url(#clip0_8881_261972)">
<g id="User">
<path id="Vector" d="M20 39.375C30.7005 39.375 39.375 30.7005 39.375 20C39.375 9.29948 30.7005 0.625 20 0.625C9.29948 0.625 0.625 9.29948 0.625 20C0.625 30.7005 9.29948 39.375 20 39.375Z" fill="#F2F2F2"/>
<g id="Group">
<path id="Vector_2" d="M34 31.7728C32.3733 29.5949 30.261 27.8265 27.8311 26.6081C25.4012 25.3896 22.7205 24.7548 20.0022 24.7539C17.2839 24.7531 14.6028 25.3862 12.1721 26.6032C9.74143 27.8201 7.62807 29.5872 6 31.764C7.61979 33.9519 9.7297 35.7298 12.1606 36.9551C14.5914 38.1804 17.2756 38.8192 19.9978 38.82C22.72 38.8209 25.4046 38.1838 27.8362 36.96C30.2678 35.7362 32.3788 33.9596 34 31.7728Z" fill="#752300"/>
<path id="Vector_3" d="M20.0017 22.5034C23.7306 22.5034 26.7534 19.4806 26.7534 15.7517C26.7534 12.0228 23.7306 9 20.0017 9C16.2728 9 13.25 12.0228 13.25 15.7517C13.25 19.4806 16.2728 22.5034 20.0017 22.5034Z" fill="#752300"/>
</g>
</g>
</g>
<defs>
<clipPath id="clip0_8881_261972">
<rect width="40" height="40" fill="white"/>
</clipPath>
</defs>
</svg>
