<svg width="120" height="120" viewBox="0 0 120 120" fill="none" xmlns="http://www.w3.org/2000/svg">
<g id="Frame" clip-path="url(#clip0_8746_250673)">
<g id="Layer 2">
<g id="Layer 1 copy 8">
<g id="132">
<path id="background" d="M60 120C93.1371 120 120 93.1371 120 60C120 26.8629 93.1371 0 60 0C26.8629 0 0 26.8629 0 60C0 93.1371 26.8629 120 60 120Z" fill="#FF6500" fill-opacity="0.2"/>
<g id="user">
<path id="Vector" d="M28.6801 95.8657C28.0561 95.8663 27.4404 95.7236 26.8803 95.4487C26.3203 95.1737 25.8308 94.7738 25.4498 94.2798C25.0687 93.7857 24.8062 93.2108 24.6825 92.5992C24.5587 91.9877 24.5771 91.3559 24.7362 90.7526L25.635 87.3305C26.5586 83.8162 28.6198 80.7067 31.4969 78.4873C34.374 76.2679 37.905 75.0637 41.5386 75.0625H68.5362C72.1672 75.0676 75.6945 76.2736 78.5685 78.4926C81.4425 80.7116 83.5018 83.819 84.4255 87.3305L85.3243 90.7526C85.4824 91.3559 85.5001 91.9873 85.376 92.5985C85.2518 93.2096 84.9893 93.7841 84.6084 94.2779C84.2275 94.7717 83.7385 95.1716 83.1789 95.4468C82.6193 95.7221 82.0041 95.8654 81.3805 95.8657H28.6801Z" fill="black"/>
<path id="Vector_2" d="M81.3845 95.156H28.6794C28.1643 95.1563 27.6561 95.0383 27.1939 94.8112C26.7316 94.5841 26.3277 94.254 26.0131 93.8462C25.6985 93.4384 25.4818 92.9638 25.3795 92.4591C25.2772 91.9543 25.2922 91.4328 25.4232 90.9347L26.322 87.5102C27.2051 84.1476 29.177 81.1722 31.9298 79.0488C34.6826 76.9254 38.0613 75.7737 41.5378 75.7734H68.5355C72.0103 75.7762 75.3866 76.9291 78.1374 79.0522C80.8882 81.1754 82.8588 84.1494 83.7418 87.5102L84.6406 90.9323C84.7716 91.4305 84.7865 91.9521 84.6842 92.457C84.582 92.9619 84.3652 93.4366 84.0507 93.8445C83.7362 94.2525 83.3323 94.5829 82.8701 94.8102C82.4078 95.0376 81.8996 95.1559 81.3845 95.156Z" fill="#0593FC"/>
<path id="Vector_3" d="M34.4621 95.864V88.1589C34.4515 87.8038 34.5123 87.4503 34.6408 87.1192C34.7693 86.7881 34.963 86.4862 35.2104 86.2313C35.4577 85.9764 35.7537 85.7738 36.0808 85.6354C36.408 85.4971 36.7595 85.4258 37.1147 85.4258C37.4699 85.4258 37.8214 85.4971 38.1485 85.6354C38.4756 85.7738 38.7717 85.9764 39.019 86.2313C39.2664 86.4862 39.4601 86.7881 39.5886 87.1192C39.7171 87.4503 39.7779 87.8038 39.7673 88.1589V95.864H34.4621Z" fill="black"/>
<path id="Vector_4" d="M39.0553 88.1625V95.1562H35.1731V88.1625C35.1639 87.9019 35.2074 87.6421 35.3009 87.3986C35.3943 87.1552 35.5358 86.933 35.717 86.7454C35.8981 86.5578 36.1152 86.4086 36.3552 86.3068C36.5953 86.2049 36.8534 86.1523 37.1142 86.1523C37.3749 86.1523 37.633 86.2049 37.8731 86.3068C38.1131 86.4086 38.3302 86.5578 38.5114 86.7454C38.6925 86.933 38.834 87.1552 38.9275 87.3986C39.0209 87.6421 39.0644 87.9019 39.0553 88.1625Z" fill="#056BB8"/>
<path id="Vector_5" d="M70.2969 95.8667V88.1616C70.2969 87.4577 70.5765 86.7828 71.0741 86.2851C71.5718 85.7874 72.2468 85.5078 72.9506 85.5078C73.6544 85.5078 74.3294 85.7874 74.8271 86.2851C75.3248 86.7828 75.6044 87.4577 75.6044 88.1616V95.8667H70.2969Z" fill="black"/>
<path id="Vector_6" d="M74.8924 88.161V95.1547H71.0078V88.161C71.0078 87.6459 71.2124 87.1519 71.5767 86.7876C71.9409 86.4234 72.435 86.2188 72.9501 86.2188C73.4652 86.2188 73.9593 86.4234 74.3235 86.7876C74.6878 87.1519 74.8924 87.6459 74.8924 88.161Z" fill="#056BB8"/>
<path id="Vector_7" d="M54.9395 80.1562C52.1648 80.1562 49.409 78.8542 46.7505 76.2858L46.0391 75.6004L46.9165 75.1427C46.9355 75.1427 49.0225 74.0067 49.0225 72.0028V66.1641H61.0462V72.0028C61.0462 74.0067 63.1308 75.1332 63.1521 75.1451L64.0414 75.6194L63.3039 76.3024C60.5221 78.8589 57.707 80.1562 54.9395 80.1562Z" fill="black"/>
<path id="Vector_8" d="M60.3346 66.875V72.0023C60.3346 74.4782 62.8224 75.773 62.8224 75.773C57.567 80.6062 52.3734 80.7272 47.2461 75.773C47.2461 75.773 49.7338 74.4782 49.7338 72.0023V66.875H60.3346Z" fill="#F6A76E"/>
<path id="Vector_9" d="M53.2711 58.5354C39.5755 58.5354 32.2403 48.9449 31.2158 40.0374C30.5873 34.5354 32.1929 29.1781 35.6221 25.3339C39.0514 21.4896 43.9462 19.4453 49.7375 19.4453C50.0292 19.4453 50.3233 19.4453 50.6197 19.4619C67.1304 20.0477 77.3873 27.5252 77.3873 38.9987C77.3873 49.7702 66.5684 58.5354 53.2711 58.5354Z" fill="black"/>
<path id="Vector_10" d="M76.6762 38.997C76.6762 49.3938 66.1987 57.8246 53.2715 57.8246C40.3442 57.8246 32.9663 49.0238 31.9276 39.9574C30.7418 29.627 37.6762 19.7116 50.594 20.1717C67.6074 20.7764 76.6762 28.6001 76.6762 38.997Z" fill="#883F2E"/>
<path id="Vector_11" d="M38.148 57.8625C36.6895 57.8625 35.2906 57.2831 34.2592 56.2517C33.2279 55.2203 32.6484 53.8215 32.6484 52.3629C32.6484 50.9043 33.2279 49.5055 34.2592 48.4741C35.2906 47.4427 36.6895 46.8633 38.148 46.8633H70.8753C72.3339 46.8633 73.7327 47.4427 74.7641 48.4741C75.7955 49.5055 76.3749 50.9043 76.3749 52.3629C76.3749 53.8215 75.7955 55.2203 74.7641 56.2517C73.7327 57.2831 72.3339 57.8625 70.8753 57.8625H38.148Z" fill="black"/>
<path id="Vector_12" d="M75.6668 52.3615C75.6678 52.9908 75.5446 53.6141 75.3044 54.1957C75.0641 54.7773 74.7115 55.3058 74.2668 55.751C73.8221 56.1962 73.2939 56.5493 72.7125 56.7901C72.1311 57.0309 71.508 57.1547 70.8787 57.1544H38.1514C36.8815 57.1544 35.6637 56.6499 34.7657 55.752C33.8677 54.854 33.3633 53.6362 33.3633 52.3663C33.3633 51.0964 33.8677 49.8785 34.7657 48.9805C35.6637 48.0826 36.8815 47.5781 38.1514 47.5781H70.8787C72.1478 47.5781 73.3649 48.0819 74.2627 48.9789C75.1606 49.8758 75.6656 51.0925 75.6668 52.3615Z" fill="#FFBC85"/>
<path id="Vector_13" d="M54.5147 70.078C49.9568 70.0729 45.5872 68.2596 42.365 65.0361C39.1428 61.8125 37.3313 57.4421 37.3281 52.8843V43.4313C37.327 42.5268 37.6813 41.6581 38.3147 41.0124C39.2823 40.0234 40.6151 39.2859 42.2728 38.8234C42.472 38.7523 44.6847 37.8748 46.1716 34.3815C46.266 34.157 46.4247 33.9655 46.6276 33.8309C46.8306 33.6963 47.0688 33.6247 47.3123 33.625C47.5889 33.6242 47.8575 33.718 48.0736 33.8906C50.0704 35.4558 57.4032 40.5902 67.959 40.889C68.9611 40.9102 69.9149 41.3238 70.6152 42.0409C71.3155 42.7581 71.7063 43.7215 71.7036 44.7238V52.8843C71.6999 57.4424 69.8878 61.8127 66.6652 65.0362C63.4426 68.2597 59.0728 70.0729 54.5147 70.078Z" fill="black"/>
<path id="Vector_14" d="M70.9916 44.7226V52.883C70.9916 55.0469 70.5654 57.1895 69.7374 59.1887C68.9093 61.1878 67.6956 63.0043 66.1655 64.5344C64.6354 66.0644 62.819 67.2782 60.8198 68.1062C58.8207 68.9343 56.678 69.3605 54.5142 69.3605C52.3504 69.3605 50.2079 68.9343 48.2089 68.1062C46.2099 67.2781 44.3936 66.0643 42.8637 64.5342C41.3338 63.0041 40.1203 61.1876 39.2925 59.1885C38.4647 57.1894 38.0388 55.0468 38.0391 52.883V43.4301C38.0398 42.7123 38.3206 42.0231 38.8217 41.5091C39.5711 40.7455 40.7189 39.9913 42.4857 39.5028C42.4857 39.5028 45.1371 38.6182 46.8256 34.6577C46.8568 34.5831 46.9049 34.5167 46.9661 34.4638C47.0272 34.4108 47.0998 34.3728 47.1782 34.3526C47.2565 34.3323 47.3384 34.3305 47.4176 34.3473C47.4967 34.364 47.5709 34.3988 47.6343 34.449C49.6572 36.0356 57.1466 41.2933 67.9371 41.5969C68.7529 41.6178 69.5284 41.9561 70.0987 42.5398C70.6691 43.1234 70.9894 43.9065 70.9916 44.7226Z" fill="#FED2A5"/>
</g>
<path id="Vector_15" d="M83.0289 95.8703C92.9687 95.8703 101.027 87.8124 101.027 77.8726C101.027 67.9328 92.9687 59.875 83.0289 59.875C73.0891 59.875 65.0312 67.9328 65.0312 77.8726C65.0312 87.8124 73.0891 95.8703 83.0289 95.8703Z" fill="black"/>
<path id="Vector_16" d="M83.0284 95.1583C92.5752 95.1583 100.315 87.419 100.315 77.8721C100.315 68.3252 92.5752 60.5859 83.0284 60.5859C73.4815 60.5859 65.7422 68.3252 65.7422 77.8721C65.7422 87.419 73.4815 95.1583 83.0284 95.1583Z" fill="#FF4C4C"/>
<path id="Vector_17" d="M88.4153 86.6077C87.9746 86.6096 87.538 86.5238 87.1308 86.3552C86.7237 86.1866 86.3541 85.9387 86.0438 85.6259L83.0295 82.6093L80.0106 85.6259C79.3816 86.2548 78.5285 86.6082 77.639 86.6082C76.7495 86.6082 75.8964 86.2548 75.2675 85.6259C74.6385 84.9969 74.2852 84.1438 74.2852 83.2543C74.2852 82.3648 74.6385 81.5117 75.2675 80.8828L78.2865 77.8662L75.2746 74.8543C74.6456 74.2253 74.2923 73.3723 74.2923 72.4828C74.2923 71.5933 74.6456 70.7402 75.2746 70.1112C75.9036 69.4823 76.7566 69.1289 77.6461 69.1289C78.5356 69.1289 79.3887 69.4823 80.0177 70.1112L83.0366 73.1302L86.0556 70.1112C86.3671 69.7998 86.7368 69.5528 87.1437 69.3842C87.5506 69.2157 87.9867 69.1289 88.4272 69.1289C88.8676 69.1289 89.3037 69.2157 89.7106 69.3842C90.1175 69.5528 90.4873 69.7998 90.7987 70.1112C91.1101 70.4227 91.3572 70.7924 91.5257 71.1993C91.6943 71.6062 91.781 72.0423 91.781 72.4828C91.781 72.9232 91.6943 73.3593 91.5257 73.7662C91.3572 74.1732 91.1101 74.5429 90.7987 74.8543L87.7821 77.8733L90.7987 80.8899C91.2677 81.3584 91.5871 81.9555 91.7165 82.6056C91.8458 83.2558 91.7793 83.9297 91.5253 84.542C91.2714 85.1543 90.8414 85.6774 90.2899 86.0452C89.7383 86.4129 89.09 86.6087 88.4272 86.6077H88.4153Z" fill="black"/>
<path id="Vector_18" d="M90.2785 81.3942C90.7229 81.8966 90.9591 82.5495 90.9391 83.2199C90.9191 83.8904 90.6444 84.528 90.1708 85.0031C89.6973 85.4781 89.0605 85.7549 88.3901 85.777C87.7198 85.7991 87.0661 85.565 86.5623 85.1222L83.0287 81.6005L79.5069 85.1222C79.0106 85.6075 78.343 85.8775 77.6489 85.8737C76.9548 85.8699 76.2901 85.5926 75.7991 85.1019C75.3082 84.6113 75.0304 83.9468 75.0262 83.2527C75.022 82.5586 75.2916 81.8908 75.7765 81.3942L79.2982 77.8724L75.7765 74.3507C75.2818 73.856 75.0039 73.1851 75.0039 72.4855C75.0039 71.7859 75.2818 71.1149 75.7765 70.6203C76.2712 70.1256 76.9421 69.8477 77.6417 69.8477C78.3413 69.8477 79.0123 70.1256 79.5069 70.6203L83.0287 74.142L86.5623 70.6203C87.0589 70.1353 87.7267 69.8657 88.4208 69.8699C89.1149 69.8742 89.7794 70.1519 90.2701 70.6429C90.7607 71.1339 91.038 71.7985 91.0418 72.4926C91.0456 73.1867 90.7756 73.8544 90.2903 74.3507L86.7686 77.8724L90.2785 81.3942Z" fill="#FFF5F5"/>
</g>
</g>
</g>
</g>
<defs>
<clipPath id="clip0_8746_250673">
<rect width="120" height="120" fill="white"/>
</clipPath>
</defs>
</svg>
