<svg width="12" height="12" viewBox="0 0 12 12" fill="none" xmlns="http://www.w3.org/2000/svg">
<g id="Edit_fill">
<path id="Subtract" fill-rule="evenodd" clip-rule="evenodd" d="M8.96889 5.03006L9.4988 4.50015C10.0511 3.94787 10.0511 3.05244 9.4988 2.50015C8.94651 1.94787 8.05108 1.94787 7.4988 2.50015L6.95631 3.04264C7.41758 3.88329 8.11604 4.57611 8.96889 5.03006ZM5.50087 4.49807L2.85517 7.14377C2.43011 7.56883 2.21758 7.78136 2.07785 8.04246C1.93811 8.30356 1.87917 8.59828 1.76128 9.18773L1.64588 9.76472C1.57936 10.0973 1.5461 10.2636 1.64071 10.3582C1.73532 10.4528 1.90162 10.4196 2.23423 10.3531L2.23423 10.3531L2.81121 10.2377L2.81122 10.2377C3.40067 10.1198 3.69539 10.0608 3.95649 9.9211C4.21758 9.78137 4.4301 9.56884 4.85514 9.14381L4.85516 9.14379L4.85518 9.14377L7.5096 6.48935C6.70882 5.96919 6.02547 5.29029 5.50087 4.49807Z" fill="#FF6500"/>
</g>
</svg>
