<svg width="120" height="120" viewBox="0 0 120 120" fill="none" xmlns="http://www.w3.org/2000/svg">
<g id="Layer_1">
<g id="Group">
<g id="Group_2">
<path id="Vector" d="M10.0001 118H1.99992C0.896016 118 0 117.106 0 116C0 114.894 0.896016 114 1.99992 114H9.99984C11.1038 114 11.9998 114.894 11.9998 116C12 117.106 11.104 118 10.0001 118Z" fill="#D3B8AD"/>
<path id="Vector_2" d="M118 118H110C108.896 118 108 117.106 108 116C108 114.894 108.896 114 110 114H118C119.104 114 120 114.894 120 116C120 117.106 119.104 118 118 118Z" fill="#D3B8AD"/>
<path id="Vector_3" d="M38 118H81.9999V34H38V118Z" fill="#752300" fill-opacity="0.5"/>
</g>
<g id="Group_3">
<path id="Vector_4" d="M10 118H38.0001V70H10V118Z" fill="#752300" fill-opacity="0.3"/>
<path id="Vector_5" d="M82 118H110V70H82V118Z" fill="#752300" fill-opacity="0.3"/>
<path id="Vector_6" d="M54 118H66V98H54V118Z" fill="#D3B8AD"/>
</g>
<g id="Group_4">
<path id="Vector_7" d="M20 90H27.9999V78H20V90Z" fill="#752300" fill-opacity="0.2"/>
<path id="Vector_8" d="M20 110H27.9999V98H20V110Z" fill="#752300" fill-opacity="0.2"/>
<path id="Vector_9" d="M92 90H99.9999V78H92V90Z" fill="#752300" fill-opacity="0.2"/>
<path id="Vector_10" d="M92 110H99.9999V98H92V110Z" fill="#752300" fill-opacity="0.2"/>
</g>
<g id="Group_5">
<path id="Vector_11" d="M46 58.0001H54.0002V42H46V58.0001Z" fill="#D3B8AD"/>
<path id="Vector_12" d="M66 58.0001H73.9999V42H66V58.0001Z" fill="#D3B8AD"/>
<path id="Vector_13" d="M66 82.0001H73.9999V66H66V82.0001Z" fill="#D3B8AD"/>
<path id="Vector_14" d="M46 82.0001H54.0002V66H46V82.0001Z" fill="#D3B8AD"/>
</g>
<g id="Group 26989">
<path id="Vector_15" d="M81.55 46.25L92.768 36.2784C93.8158 35.3469 94.6544 34.204 95.2287 32.925C95.803 31.646 96.1 30.2599 96.1 28.8579C96.0996 27.0389 95.3767 25.2946 94.0903 24.0085C92.804 22.7225 91.0595 22 89.2405 22C87.4213 22.0002 85.6767 22.7231 84.3905 24.0095L81.55 26.85L78.7095 24.0095C77.4233 22.7231 75.6787 22.0002 73.8595 22C72.0405 22 70.296 22.7225 69.0097 24.0085C67.7233 25.2946 67.0004 27.0389 67 28.8579C67 30.2599 67.297 31.646 67.8713 32.925C68.4456 34.204 69.2842 35.3469 70.332 36.2784L81.55 46.25Z" fill="#AD3026"/>
<path id="Vector_16" d="M89.242 22C87.4229 22.0002 85.6783 22.7231 84.392 24.0095L81.5516 26.85L78.7095 24.0095C77.5245 22.8351 75.9504 22.1352 74.2846 22.042C73.5252 22.6794 72.914 23.4749 72.4938 24.3729C72.0735 25.2709 71.8544 26.2498 71.8516 27.2412C71.8516 28.6432 72.1485 30.0293 72.7228 31.3083C73.2971 32.5873 74.1357 33.7302 75.1835 34.6617L84.8835 43.2866L92.768 36.2784C93.8161 35.347 94.655 34.2042 95.2296 32.9252C95.8041 31.6462 96.1013 30.26 96.1016 28.8579C96.1011 27.0389 95.3782 25.2946 94.0919 24.0085C92.8055 22.7225 91.061 22 89.242 22Z" fill="#AD3026" fill-opacity="0.1"/>
</g>
</g>
</g>
</svg>
