<svg width="120" height="120" viewBox="0 0 120 120" fill="none" xmlns="http://www.w3.org/2000/svg">
<rect width="120" height="120" rx="60" fill="#FF6500" fill-opacity="0.2"/>
<path d="M66.3413 30.7188H59.8297C59.0896 30.7188 58.3798 31.0128 57.8564 31.5361C57.3331 32.0595 57.0391 32.7693 57.0391 33.5094V85.6024C57.0391 86.3425 57.3331 87.0524 57.8564 87.5757C58.3798 88.0991 59.0896 88.3931 59.8297 88.3931H66.3413C68.315 88.3931 70.2079 87.609 71.6035 86.2134C72.9991 84.8178 73.7831 82.9249 73.7831 80.9512V38.1606C73.7831 36.1869 72.9991 34.294 71.6035 32.8984C70.2079 31.5028 68.315 30.7188 66.3413 30.7188Z" fill="#51200B" fill-opacity="0.35"/>
<path d="M58.5022 24.1353C57.2265 23.1751 55.7417 22.5305 54.1692 22.2542C52.5966 21.9779 50.981 22.0777 49.4544 22.5455L27.129 29.2425C25.0158 29.866 23.1621 31.1588 21.8469 32.9265C20.5317 34.6942 19.826 36.8411 19.836 39.0444V80.0618C19.826 82.2651 20.5317 84.412 21.8469 86.1797C23.1621 87.9474 25.0158 89.2403 27.129 89.8638L49.4544 96.5607C50.4184 96.8516 51.4199 96.9997 52.4268 97.0003C55.1351 96.9883 57.7285 95.9043 59.6399 93.9854C61.5512 92.0665 62.625 89.4689 62.6264 86.7605V32.3457C62.6336 30.7492 62.2639 29.1734 61.5472 27.7468C60.8306 26.3201 59.7873 25.0827 58.5022 24.1353Z" fill="#752300"/>
<path d="M89.6038 71.6434C89.078 71.6433 88.563 71.4948 88.118 71.2149C87.6729 70.935 87.316 70.5351 87.0882 70.0613C86.8604 69.5875 86.771 69.0589 86.8303 68.5366C86.8897 68.0142 87.0953 67.5192 87.4235 67.1085L93.47 59.5504L87.4235 51.9923C86.963 51.4138 86.7506 50.6763 86.8331 49.9415C86.9156 49.2067 87.2862 48.5347 87.8635 48.0728C88.4409 47.6109 89.1779 47.3969 89.9129 47.4777C90.6479 47.5585 91.3208 47.9276 91.784 48.5039L99.2258 57.8062C99.621 58.3016 99.8363 58.9166 99.8363 59.5504C99.8363 60.1842 99.621 60.7991 99.2258 61.2946L91.784 70.5969C91.5225 70.9239 91.1907 71.1877 90.8133 71.3689C90.4358 71.5501 90.0224 71.6439 89.6038 71.6434Z" fill="#752300"/>
<path d="M93.3206 62.347H82.1579C81.4177 62.347 80.7079 62.053 80.1846 61.5296C79.6612 61.0063 79.3672 60.2965 79.3672 59.5563C79.3672 58.8162 79.6612 58.1064 80.1846 57.583C80.7079 57.0596 81.4177 56.7656 82.1579 56.7656H93.3206C94.0607 56.7656 94.7705 57.0596 95.2939 57.583C95.8172 58.1064 96.1112 58.8162 96.1112 59.5563C96.1112 60.2965 95.8172 61.0063 95.2939 61.5296C94.7705 62.053 94.0607 62.347 93.3206 62.347Z" fill="#752300"/>
<path d="M48.6735 67.9238C47.9334 67.9237 47.2237 67.6296 46.7004 67.1063C46.1771 66.5829 45.883 65.8732 45.8828 65.1332V53.9704C45.8828 53.2302 46.1768 52.5204 46.7002 51.9971C47.2235 51.4737 47.9334 51.1797 48.6735 51.1797C49.4136 51.1797 50.1234 51.4737 50.6468 51.9971C51.1701 52.5204 51.4642 53.2302 51.4642 53.9704V65.1332C51.464 65.8732 51.1699 66.5829 50.6466 67.1063C50.1233 67.6296 49.4136 67.9237 48.6735 67.9238Z" fill="#F3F5F7"/>
</svg>
