<svg width="16" height="17" viewBox="0 0 16 17" fill="none" xmlns="http://www.w3.org/2000/svg">
<g id="Icon">
<path id="Fill 77" fill-rule="evenodd" clip-rule="evenodd" d="M14.1648 11.0381C12.4061 8.90475 11.5294 9.09609 10.5654 9.56475C9.89811 9.88875 9.32211 10.1701 7.82478 8.67209C6.32744 7.17409 6.60811 6.59875 6.93211 5.93275C7.40211 4.96809 7.59278 4.08942 5.45744 2.33142C4.94878 1.91475 4.39411 1.75475 3.81678 1.86675C2.59478 2.09542 1.73144 3.45542 1.73278 3.45542C1.19144 4.21275 0.45011 6.49009 5.22811 11.2688C8.37078 14.4121 10.4314 15.1661 11.6821 15.1661C12.3334 15.1661 12.7641 14.9621 13.0134 14.7828C13.0274 14.7748 14.3994 13.9248 14.6308 12.6788C14.7388 12.0994 14.5821 11.5481 14.1648 11.0381Z" fill="black"/>
</g>
</svg>
