<svg width="80" height="80" viewBox="0 0 80 80" fill="none" xmlns="http://www.w3.org/2000/svg">
<g id="fi_13866541">
<g id="Group">
<path id="Vector" d="M32.499 56.375V56.25L28.374 42.875C27.999 42.125 28.374 41.125 29.249 40.75C30.124 40.375 30.999 40.875 31.374 41.625L35.124 50.5C35.374 51 35.874 51.375 36.499 51.25C37.124 51.125 37.499 50.625 37.499 50.125V25.5C37.499 24.625 38.249 23.875 39.124 23.875C39.999 23.875 40.749 24.625 40.749 25.5V41C40.749 41.625 41.249 42.25 41.999 42.25C42.624 42.25 43.249 41.75 43.249 41V39.25C43.249 38.375 43.999 37.625 44.874 37.625C45.749 37.625 46.499 38.375 46.499 39.25V42.875C46.499 43.5 46.999 44.125 47.749 44.125C48.374 44.125 48.999 43.625 48.999 42.875V40.75C48.999 39.875 49.749 39.125 50.624 39.125C51.499 39.125 52.249 39.875 52.249 40.75V44.5C52.249 45.125 52.749 45.75 53.499 45.75C54.124 45.75 54.749 45.25 54.749 44.5V42.75C55.374 42.125 56.499 42 57.124 42.625C57.374 43 57.624 43.375 57.624 43.75V46.875V47.125C57.749 54.625 56.124 60.5 53.499 62.875H35.874C33.874 61.625 32.749 57.75 32.499 56.375ZM34.999 68.75V65.25H54.624V68.75H34.999ZM55.749 63.125C59.124 58.5 59.374 50.625 59.374 47V46.875V46.75V43.625C59.374 42.5 58.999 41.5 58.249 40.75C57.499 40 56.499 39.625 55.374 39.625C54.874 39.625 54.499 39.75 53.999 39.875C53.624 38 51.999 36.625 49.999 36.625C49.249 36.625 48.499 36.875 47.874 37.25C47.249 36 45.874 35.125 44.374 35.125C43.749 35.125 43.249 35.25 42.749 35.5V29.75C46.874 28.125 49.624 24.125 49.624 19.625C49.624 13.625 44.749 8.75 38.749 8.75C32.749 8.75 27.874 13.625 27.874 19.625C27.874 24 30.624 28.125 34.749 29.75V44L33.374 40.75C32.749 39.25 31.249 38.25 29.624 38.25C29.124 38.25 28.624 38.375 28.124 38.5C26.124 39.375 25.124 41.75 25.874 43.625L29.999 56.75C30.124 57.5 30.999 61.125 33.124 63.5C32.749 63.875 32.499 64.5 32.499 65.125V68.75C32.499 70.125 33.624 71.125 34.874 71.125H54.499C55.874 71.125 56.874 70 56.874 68.75V65.25C56.999 64.375 56.499 63.5 55.749 63.125ZM39.749 21.5L43.374 18C43.874 17.5 43.874 16.75 43.374 16.25C42.874 15.75 42.124 15.75 41.624 16.25L37.249 20.625L35.999 19.375C35.499 18.875 34.749 18.875 34.249 19.375C33.749 19.875 33.749 20.625 34.249 21.125L35.874 22.75C35.249 23.5 34.749 24.5 34.749 25.5V27.125C32.124 25.625 30.374 22.875 30.374 19.75C30.374 15.125 34.124 11.375 38.749 11.375C43.374 11.375 47.124 15.125 47.124 19.75C47.124 22.875 45.374 25.75 42.749 27.125V25.5C42.874 23.5 41.499 22 39.749 21.5Z" fill="#2B2E63"/>
<path id="Vector_2" d="M47.25 19.7497C47.25 22.8747 45.5 25.7497 42.875 27.1247V25.4997C42.875 23.6247 41.5 21.9997 39.75 21.6247L43.375 18.1247C43.875 17.6247 43.875 16.8747 43.375 16.3747C42.875 15.8747 42.125 15.8747 41.625 16.3747L37.25 20.7497L36 19.4997C35.5 18.9997 34.75 18.9997 34.25 19.4997C33.75 19.9997 33.75 20.7497 34.25 21.2497L35.875 22.8747C35.25 23.6247 34.75 24.6247 34.75 25.6247V27.2497C32.125 25.7497 30.375 22.9997 30.375 19.8747C30.375 15.2497 34.125 11.4997 38.75 11.4997C43.5 11.2497 47.25 15.1247 47.25 19.7497Z" fill="#FFDC7C"/>
<path id="Vector_3" d="M56.8753 46.875V47.125C57.0003 54.625 55.3753 60.5 52.7503 62.875H35.8753C33.8753 61.625 32.7503 57.875 32.5003 56.375V56.25L28.3753 42.875C28.0003 42.125 28.3753 41.125 29.2503 40.75C30.1253 40.375 31.0003 40.875 31.3753 41.625L35.1253 50.5C35.3753 51 35.8753 51.375 36.5003 51.25C37.1253 51.125 37.5003 50.625 37.5003 50.125V25.5C37.5003 24.625 38.2503 23.875 39.1253 23.875C40.0003 23.875 40.7503 24.625 40.7503 25.5V41C40.7503 41.625 41.2503 42.25 42.0003 42.25C42.6253 42.25 43.2503 41.75 43.2503 41V39.25C43.2503 38.375 44.0003 37.625 44.8753 37.625C45.7503 37.625 46.5003 38.375 46.5003 39.25V42.875C46.5003 43.5 47.0003 44.125 47.7503 44.125C48.3753 44.125 49.0003 43.625 49.0003 42.875V40.75C49.0003 39.875 49.7503 39.125 50.6253 39.125C51.5003 39.125 52.2503 39.875 52.2503 40.75V44.5C52.2503 45.125 52.7503 45.75 53.5003 45.75C54.1253 45.75 54.7503 45.25 54.7503 44.5V42.75C55.3753 42.125 56.5003 42 57.1253 42.625C57.3753 43 57.6253 43.375 57.6253 43.75L56.8753 46.875Z" fill="#FFE5AB"/>
<g id="Group_2">
<path id="Vector_4" d="M32.0003 43.6236C31.6253 42.8736 30.6253 42.3736 29.7503 42.7486C29.1253 42.9986 28.7503 43.6236 28.6253 44.2486L28.2503 42.9986C27.8753 42.2486 28.2503 41.2486 29.1253 40.8736C30.0003 40.4986 30.8753 40.9986 31.2503 41.7486L32.0003 43.6236Z" fill="#F0D39A"/>
<path id="Vector_5" d="M40.375 25.5V28C40.375 27.125 39.625 26.375 38.75 26.375C37.875 26.375 37.125 27.125 37.125 28V25.5C37.125 24.625 37.875 23.875 38.75 23.875C39.75 23.875 40.375 24.5 40.375 25.5Z" fill="#F0D39A"/>
<path id="Vector_6" d="M46 39.25V41.75C46 40.875 45.25 40.125 44.375 40.125C43.75 40.125 43.125 40.375 42.75 40.875V39.125C42.75 38.25 43.5 37.5 44.375 37.5C45.375 37.625 46 38.375 46 39.25Z" fill="#F0D39A"/>
<path id="Vector_7" d="M51.625 40.625V43.125C51.625 42.25 50.875 41.5 50 41.5C49.25 41.5 48.625 42 48.375 42.625V40.5C48.375 39.625 49.125 38.875 50 38.875C50.875 39.125 51.625 39.875 51.625 40.625Z" fill="#F0D39A"/>
<path id="Vector_8" d="M56.875 46.8758V47.1258V48.6258V46.2508C56.875 45.8758 56.75 45.3757 56.375 45.1257C55.75 44.5007 54.375 44.6258 53.75 45.2508C53.875 45.0008 54 44.7507 54 44.5007V42.7508C54.625 42.1258 55.75 42.0007 56.375 42.6257C56.625 43.0007 56.875 43.3758 56.875 43.7508V46.8758Z" fill="#F0D39A"/>
</g>
<path id="Vector_9" d="M54.625 68.75H35V65.25H54.625V68.75Z" fill="#4EBDE5"/>
<path id="Vector_10" d="M47.25 19.75C47.25 22.875 45.5 25.75 42.875 27.125V25.625C44.75 24.375 46 22.125 46 19.625C46 15.625 42.75 12.5 38.875 12.5C34.875 12.5 31.75 15.75 31.75 19.625C31.75 22.125 33 24.25 34.875 25.625V27C32.25 25.5 30.5 22.75 30.5 19.625C30.5 15 34.25 11.25 38.875 11.25C43.5 11.25 47.25 15.125 47.25 19.75Z" fill="#ECC25D"/>
<path id="Vector_11" d="M10.875 8.875C4.875 8.875 0 13.75 0 19.75C0 25.75 4.875 30.625 10.875 30.625C16.875 30.625 21.75 25.75 21.75 19.75C21.75 13.75 16.875 8.875 10.875 8.875ZM10.875 28.125C6.25 28.125 2.5 24.375 2.5 19.75C2.375 15.125 6.25 11.25 10.875 11.25C15.5 11.25 19.25 15 19.25 19.625C19.25 24.375 15.5 28.125 10.875 28.125Z" fill="#2B2E63"/>
<path id="Vector_12" d="M10.875 28.125C15.5004 28.125 19.25 24.3754 19.25 19.75C19.25 15.1246 15.5004 11.375 10.875 11.375C6.24961 11.375 2.5 15.1246 2.5 19.75C2.5 24.3754 6.24961 28.125 10.875 28.125Z" fill="#F26E61"/>
<path id="Vector_13" d="M69.125 8.875C63.125 8.875 58.25 13.75 58.25 19.75C58.25 25.75 63.125 30.625 69.125 30.625C75.125 30.625 80 25.75 80 19.75C80 13.75 75.125 8.875 69.125 8.875ZM69.125 28.125C64.5 28.125 60.75 24.375 60.75 19.75C60.75 15.125 64.5 11.375 69.125 11.375C73.75 11.375 77.5 15.125 77.5 19.75C77.5 24.375 73.75 28.125 69.125 28.125Z" fill="#2B2E63"/>
<path id="Vector_14" d="M69.125 28.125C73.7504 28.125 77.5 24.3754 77.5 19.75C77.5 15.1246 73.7504 11.375 69.125 11.375C64.4996 11.375 60.75 15.1246 60.75 19.75C60.75 24.3754 64.4996 28.125 69.125 28.125Z" fill="#51BF9F"/>
<path id="Vector_15" d="M54.625 68.75H35V65.25H36.25V67.5H53.375V65.25H54.625V68.75Z" fill="#36A9DB"/>
<path id="Vector_16" d="M10.875 11.25C6.25 11.25 2.5 15 2.5 19.625C2.5 24.25 6.25 28 10.875 28C15.5 28 19.25 24.25 19.25 19.625C19.25 15.125 15.5 11.25 10.875 11.25ZM10.875 26.875C6.875 26.875 3.75 23.625 3.75 19.75C3.75 15.75 7 12.625 10.875 12.625C14.875 12.625 18 15.875 18 19.75C18 23.625 14.75 26.875 10.875 26.875Z" fill="#E15E5A"/>
<path id="Vector_17" d="M69.125 11.25C64.5 11.25 60.75 15 60.75 19.625C60.75 24.25 64.5 28 69.125 28C73.75 28 77.5 24.25 77.5 19.625C77.5 15 73.75 11.25 69.125 11.25ZM69.125 26.875C65.125 26.875 62 23.625 62 19.75C62 15.75 65.25 12.625 69.125 12.625C73.125 12.625 76.25 15.875 76.25 19.75C76.375 23.625 73.125 26.875 69.125 26.875Z" fill="#3DA580"/>
</g>
</g>
</svg>
