<svg width="16" height="16" viewBox="0 0 16 16" fill="none" xmlns="http://www.w3.org/2000/svg">
<g id="sort - chevron">
<path id="Combined Shape" fill-rule="evenodd" clip-rule="evenodd" d="M10.1879 7.02062H5.80955C5.63188 7.02062 5.46891 6.91757 5.38651 6.75353C5.30411 6.58922 5.31589 6.39078 5.41708 6.23856L7.66243 2.8597C7.74241 2.73912 7.87418 2.66761 8.01453 2.66797C8.15504 2.66863 8.28639 2.74102 8.36572 2.86196L10.5818 6.24076C10.682 6.39366 10.6928 6.59113 10.6103 6.75482C10.5276 6.91818 10.3651 7.02062 10.1879 7.02062ZM5.80955 8.98196H10.1879C10.3651 8.98196 10.5276 9.0844 10.6103 9.24772C10.6928 9.41144 10.682 9.60894 10.5818 9.76178L8.36572 13.1406C8.28639 13.2615 8.15503 13.334 8.01453 13.3346C7.87418 13.3349 7.74241 13.2634 7.66243 13.1429L5.41708 9.764C5.3159 9.61182 5.30411 9.41338 5.38651 9.24907C5.46891 9.08505 5.63188 8.98196 5.80955 8.98196Z" fill="#FF6500"/>
</g>
</svg>
