<svg width="16" height="16" viewBox="0 0 16 16" fill="none" xmlns="http://www.w3.org/2000/svg">
<g id="trash">
<g id="Union">
<path d="M6 6.5C6.27614 6.5 6.5 6.72386 6.5 7V13C6.5 13.2761 6.27614 13.5 6 13.5C5.72386 13.5 5.5 13.2761 5.5 13V7C5.5 6.72386 5.72386 6.5 6 6.5Z" fill="#999999"/>
<path d="M8.5 6.5C8.77614 6.5 9 6.72386 9 7V13C9 13.2761 8.77614 13.5 8.5 13.5C8.22386 13.5 8 13.2761 8 13V7C8 6.72386 8.22386 6.5 8.5 6.5Z" fill="#999999"/>
<path d="M11.5 7C11.5 6.72386 11.2761 6.5 11 6.5C10.7239 6.5 10.5 6.72386 10.5 7V13C10.5 13.2761 10.7239 13.5 11 13.5C11.2761 13.5 11.5 13.2761 11.5 13V7Z" fill="#999999"/>
<path fill-rule="evenodd" clip-rule="evenodd" d="M15 4C15 4.55228 14.5523 5 14 5H13.5V14C13.5 15.1046 12.6046 16 11.5 16H5.5C4.39543 16 3.5 15.1046 3.5 14V5H3C2.44772 5 2 4.55228 2 4V3C2 2.44772 2.44772 2 3 2H6.5C6.5 1.44772 6.94772 1 7.5 1H9.5C10.0523 1 10.5 1.44772 10.5 2H14C14.5523 2 15 2.44772 15 3V4ZM4.61803 5L4.5 5.05902V14C4.5 14.5523 4.94772 15 5.5 15H11.5C12.0523 15 12.5 14.5523 12.5 14V5.05902L12.382 5H4.61803ZM3 4V3H14V4H3Z" fill="#999999"/>
</g>
</g>
</svg>
