<svg width="11" height="12" viewBox="0 0 11 12" fill="none" xmlns="http://www.w3.org/2000/svg">
<g id="trash">
<g id="Union">
<path d="M3.76923 4.80769C3.96041 4.80769 4.11538 4.96267 4.11538 5.15385V9.30769C4.11538 9.49887 3.96041 9.65385 3.76923 9.65385C3.57806 9.65385 3.42308 9.49887 3.42308 9.30769V5.15385C3.42308 4.96267 3.57806 4.80769 3.76923 4.80769Z" fill="#FF6500"/>
<path d="M5.5 4.80769C5.69118 4.80769 5.84615 4.96267 5.84615 5.15385V9.30769C5.84615 9.49887 5.69118 9.65385 5.5 9.65385C5.30883 9.65385 5.15385 9.49887 5.15385 9.30769V5.15385C5.15385 4.96267 5.30883 4.80769 5.5 4.80769Z" fill="#FF6500"/>
<path d="M7.57692 5.15385C7.57692 4.96267 7.42194 4.80769 7.23077 4.80769C7.03959 4.80769 6.88462 4.96267 6.88462 5.15385V9.30769C6.88462 9.49887 7.03959 9.65385 7.23077 9.65385C7.42194 9.65385 7.57692 9.49887 7.57692 9.30769V5.15385Z" fill="#FF6500"/>
<path fill-rule="evenodd" clip-rule="evenodd" d="M10 3.07692C10 3.45927 9.69004 3.76923 9.30769 3.76923H8.96154V10C8.96154 10.7647 8.34163 11.3846 7.57692 11.3846H3.42308C2.65838 11.3846 2.03846 10.7647 2.03846 10V3.76923H1.69231C1.30996 3.76923 1 3.45927 1 3.07692V2.38462C1 2.00226 1.30996 1.69231 1.69231 1.69231H4.11538C4.11538 1.30996 4.42534 1 4.80769 1H6.19231C6.57466 1 6.88462 1.30996 6.88462 1.69231H9.30769C9.69004 1.69231 10 2.00226 10 2.38462V3.07692ZM2.81249 3.76923L2.73077 3.81009V10C2.73077 10.3824 3.04073 10.6923 3.42308 10.6923H7.57692C7.95927 10.6923 8.26923 10.3824 8.26923 10V3.81009L8.18751 3.76923H2.81249ZM1.69231 3.07692V2.38462H9.30769V3.07692H1.69231Z" fill="#FF6500"/>
</g>
</g>
</svg>
