<svg width="19" height="18" viewBox="0 0 19 18" fill="none" xmlns="http://www.w3.org/2000/svg">
<g clip-path="url(#clip0_9994_469177)">
<path d="M9.66406 0C4.69367 0 0.664062 4.0282 0.664062 9C0.664062 13.9718 4.69367 18 9.66406 18C14.6345 18 18.6641 13.9693 18.6641 9C18.6641 4.03066 14.6345 0 9.66406 0Z" fill="#99CFF9"/>
<path d="M0.664071 9.00001C0.662039 10.4876 1.03042 11.9523 1.73598 13.262C2.63489 13.5259 3.56699 13.6596 4.50384 13.6589C9.91438 13.6589 14.3005 9.27282 14.3005 3.86228C14.3013 2.91058 14.1634 1.96384 13.8913 1.05189C12.5902 0.35886 11.1382 -0.00244243 9.66407 1.24263e-05C4.69368 1.24263e-05 0.664071 4.02822 0.664071 9.00001Z" fill="#99CFF9"/>
<path d="M14.7963 7.50558L9.38679 13.1865C9.23937 13.3411 9.06225 13.4644 8.86604 13.549C8.66984 13.6336 8.45858 13.6777 8.24492 13.6787H8.23789C8.02542 13.6787 7.8151 13.6361 7.61943 13.5533C7.42376 13.4705 7.24672 13.3492 7.09882 13.1967L4.22832 10.24C4.08 10.0912 3.96273 9.9143 3.88331 9.71974C3.80389 9.52517 3.76391 9.31677 3.76568 9.10663C3.76745 8.89649 3.81094 8.6888 3.89363 8.4956C3.97631 8.3024 4.09654 8.12755 4.24735 7.9812C4.39815 7.83484 4.57652 7.71989 4.77211 7.64302C4.96769 7.56616 5.17659 7.5289 5.38669 7.53342C5.59679 7.53794 5.8039 7.58414 5.996 7.66934C6.1881 7.75454 6.36137 7.87705 6.50574 8.02976L8.22664 9.80233L12.4978 5.3171C12.6408 5.16368 12.8129 5.04015 13.004 4.95366C13.1952 4.86717 13.4015 4.81943 13.6112 4.8132C13.8209 4.80697 14.0298 4.84238 14.2257 4.91738C14.4216 4.99238 14.6007 5.10548 14.7526 5.25013C14.9046 5.39479 15.0263 5.56814 15.1108 5.76014C15.1953 5.95215 15.2409 6.15901 15.245 6.36875C15.2491 6.57849 15.2115 6.78696 15.1345 6.98209C15.0575 7.17722 14.9425 7.35515 14.7963 7.50558Z" fill="white"/>
</g>
<defs>
<clipPath id="clip0_9994_469177">
<rect width="18" height="18" fill="white" transform="translate(0.664062)"/>
</clipPath>
</defs>
</svg>
