<svg width="20" height="20" viewBox="0 0 20 20" fill="none" xmlns="http://www.w3.org/2000/svg">
<path d="M10 13.3359L9.29289 14.043L10 14.7502L10.7071 14.043L10 13.3359ZM11 3.33594C11 2.78365 10.5523 2.33594 10 2.33594C9.44772 2.33594 9 2.78365 9 3.33594L11 3.33594ZM4.29289 9.04304L9.29289 14.043L10.7071 12.6288L5.70711 7.62883L4.29289 9.04304ZM10.7071 14.043L15.7071 9.04304L14.2929 7.62883L9.29289 12.6288L10.7071 14.043ZM11 13.3359L11 3.33594L9 3.33594L9 13.3359L11 13.3359Z" fill="#FF6500"/>
<path d="M4.16797 17.5L15.8346 17.5" stroke="#FF6500" stroke-width="2"/>
</svg>
