<svg width="18" height="18" viewBox="0 0 18 18" fill="none" xmlns="http://www.w3.org/2000/svg">
<g clip-path="url(#clip0_9994_469175)">
<path d="M9 0C4.02961 0 0 4.0282 0 9C0 13.9718 4.02961 18 9 18C13.9704 18 18 13.9693 18 9C18 4.03066 13.9704 0 9 0Z" fill="#4CAF50"/>
<path d="M8.35807e-06 9.00001C-0.00202329 10.4876 0.366361 11.9523 1.07192 13.262C1.97083 13.5259 2.90293 13.6596 3.83977 13.6589C9.25032 13.6589 13.6364 9.27282 13.6364 3.86228C13.6372 2.91058 13.4994 1.96384 13.2272 1.05189C11.9261 0.35886 10.4741 -0.00244243 9.00001 1.24263e-05C4.02962 1.24263e-05 8.35807e-06 4.02822 8.35807e-06 9.00001Z" fill="#4CAF50"/>
<path d="M14.1322 7.50558L8.72273 13.1865C8.57531 13.3411 8.39819 13.4644 8.20198 13.549C8.00577 13.6336 7.79451 13.6777 7.58086 13.6787H7.57382C7.36136 13.6787 7.15104 13.6361 6.95537 13.5533C6.7597 13.4705 6.58266 13.3492 6.43476 13.1967L3.56425 10.24C3.41594 10.0912 3.29867 9.9143 3.21925 9.71974C3.13983 9.52517 3.09985 9.31677 3.10162 9.10663C3.10339 8.89649 3.14688 8.6888 3.22956 8.4956C3.31225 8.3024 3.43248 8.12755 3.58328 7.9812C3.73409 7.83484 3.91246 7.71989 4.10804 7.64302C4.30363 7.56616 4.51253 7.5289 4.72263 7.53342C4.93273 7.53794 5.13984 7.58414 5.33194 7.66934C5.52404 7.75454 5.6973 7.87705 5.84168 8.02976L7.56257 9.80233L11.8337 5.3171C11.9768 5.16368 12.1489 5.04015 12.34 4.95366C12.5311 4.86717 12.7375 4.81943 12.9472 4.8132C13.1569 4.80697 13.3657 4.84238 13.5616 4.91738C13.7575 4.99238 13.9366 5.10548 14.0886 5.25013C14.2405 5.39479 14.3623 5.56814 14.4468 5.76014C14.5313 5.95215 14.5769 6.15901 14.5809 6.36875C14.585 6.57849 14.5474 6.78696 14.4704 6.98209C14.3934 7.17722 14.2784 7.35515 14.1322 7.50558Z" fill="white"/>
</g>
<defs>
<clipPath id="clip0_9994_469175">
<rect width="18" height="18" fill="white"/>
</clipPath>
</defs>
</svg>
