<svg width="14" height="18" viewBox="0 0 14 18" fill="none" xmlns="http://www.w3.org/2000/svg">
<path d="M7.00021 0.429688C4.68855 0.429688 2.80797 2.31027 2.80797 4.62193V6.96777H2.77762C1.59598 6.96777 0.634766 7.92899 0.634766 9.11063V15.4297C0.634766 16.6113 1.59598 17.5725 2.77762 17.5725H11.2228C12.4044 17.5725 13.3657 16.6113 13.3657 15.4297V9.11063C13.3657 7.92899 12.4044 6.96777 11.2228 6.96777H11.1928V4.62193C11.1928 2.31027 9.31187 0.429688 7.00021 0.429688ZM4.23654 4.62193C4.23654 3.09814 5.47642 1.85826 7.00021 1.85826C8.52434 1.85826 9.76423 3.09814 9.76423 4.62193V6.96777H4.23654V4.62193ZM11.9371 9.11063V15.4297C11.9371 15.8235 11.6166 16.144 11.2228 16.144H2.77762C2.38386 16.144 2.06334 15.8235 2.06334 15.4297V9.11063C2.06334 8.71687 2.38386 8.39634 2.77762 8.39634H11.2228C11.6166 8.39634 11.9371 8.71687 11.9371 9.11063Z" fill="#8E8E8F"/>
<path d="M7.00084 10.0039C6.21296 10.0039 5.57227 10.6446 5.57227 11.4325C5.57227 11.959 5.86162 12.4146 6.28655 12.6624V13.823C6.28655 14.2174 6.60638 14.5372 7.00084 14.5372C7.3953 14.5372 7.71512 14.2174 7.71512 13.823V12.6624C8.14006 12.4146 8.42941 11.959 8.42941 11.4325C8.42941 10.6446 7.78871 10.0039 7.00084 10.0039Z" fill="#8E8E8F"/>
</svg>
