<svg width="14" height="18" viewBox="0 0 14 18" fill="none" xmlns="http://www.w3.org/2000/svg">
<g id="Group">
<path id="Vector" d="M6.99826 0.429688C4.68659 0.429688 2.80601 2.31027 2.80601 4.62193V6.96777H2.77567C1.59403 6.96777 0.632812 7.92899 0.632812 9.11063V15.4297C0.632812 16.6113 1.59403 17.5725 2.77567 17.5725H11.2208C12.4025 17.5725 13.3637 16.6113 13.3637 15.4297V9.11063C13.3637 7.92899 12.4025 6.96777 11.2208 6.96777H11.1908V4.62193C11.1908 2.31027 9.30992 0.429688 6.99826 0.429688ZM4.23458 4.62193C4.23458 3.09814 5.47447 1.85826 6.99826 1.85826C8.52239 1.85826 9.76228 3.09814 9.76228 4.62193V6.96777H4.23458V4.62193ZM11.9351 9.11063V15.4297C11.9351 15.8235 11.6146 16.144 11.2208 16.144H2.77567C2.38191 16.144 2.06138 15.8235 2.06138 15.4297V9.11063C2.06138 8.71687 2.38191 8.39634 2.77567 8.39634H11.2208C11.6146 8.39634 11.9351 8.71687 11.9351 9.11063Z" fill="#FF6500"/>
<path id="Vector_2" d="M6.99888 10.0039C6.21101 10.0039 5.57031 10.6446 5.57031 11.4325C5.57031 11.959 5.85966 12.4146 6.2846 12.6624V13.823C6.2846 14.2174 6.60442 14.5372 6.99888 14.5372C7.39335 14.5372 7.71317 14.2174 7.71317 13.823V12.6624C8.13811 12.4146 8.42746 11.959 8.42746 11.4325C8.42746 10.6446 7.78676 10.0039 6.99888 10.0039Z" fill="#FF6500"/>
</g>
</svg>
