<svg width="20" height="17" viewBox="0 0 20 17" fill="none" xmlns="http://www.w3.org/2000/svg">
<path d="M18.8281 4.72656V3.55469H11.6499C11.4729 3.05828 11.0823 2.66777 10.5859 2.49074V0H9.41406V2.49074C8.91766 2.66777 8.52715 3.05828 8.35012 3.55469H1.17188V4.72656H2.63687L0 11.1719C0 12.7872 1.31434 14.1016 2.92969 14.1016H4.10156C5.71691 14.1016 7.03125 12.7872 7.03125 11.1719L4.38246 4.72656H8.35016C8.52719 5.22297 8.9177 5.61348 9.4141 5.79051V14.1658C8.26898 14.4001 7.36312 15.2998 7.12965 16.4453H12.8704C12.637 15.2998 11.7311 14.4001 10.586 14.1658V5.79051C11.0824 5.61348 11.4729 5.22297 11.6499 4.72656H15.6057L12.9688 11.1719C12.9688 12.7872 14.2831 14.1016 15.8984 14.1016H17.0703C18.6857 14.1016 20 12.7872 20 11.1719L17.3512 4.72656H18.8281ZM5.56625 10.5859H1.465L3.51562 5.66383L5.56625 10.5859ZM18.535 10.5859H14.4338L16.4844 5.66383L18.535 10.5859Z" fill="#8E8E8F"/>
</svg>
