<svg width="48" height="48" viewBox="0 0 48 48" fill="none" xmlns="http://www.w3.org/2000/svg">
<path d="M37 44.0242C33.1164 46.6677 28.5815 48.0497 23.9591 47.9986C19.3366 47.9476 14.8302 46.4656 11 43.7369C11.2148 42.1454 11.967 40.689 13.1184 39.6352C14.2699 38.5813 15.7433 38.0007 17.2681 38H30.6967C32.269 38.0011 33.7847 38.6183 34.9495 39.7315C36.1144 40.8448 36.8452 42.3748 37 44.0242Z" fill="#FF6500"/>
<path d="M26.9946 29.4583C26.9946 27.6778 25.5513 26.2344 23.7708 26.2344C21.9903 26.2344 20.5469 27.6778 20.5469 29.4583V39.1299C20.5469 40.9104 21.9903 42.3538 23.7708 42.3538C25.5513 42.3538 26.9946 40.9104 26.9946 39.1299V29.4583Z" fill="#EFA492"/>
<path d="M13.0956 26.6365C15.0987 26.6365 16.7225 25.0127 16.7225 23.0097C16.7225 21.0066 15.0987 19.3828 13.0956 19.3828C11.0926 19.3828 9.46875 21.0066 9.46875 23.0097C9.46875 25.0127 11.0926 26.6365 13.0956 26.6365Z" fill="#EFA492"/>
<path d="M34.455 26.6365C36.4581 26.6365 38.0819 25.0127 38.0819 23.0097C38.0819 21.0066 36.4581 19.3828 34.455 19.3828C32.4519 19.3828 30.8281 21.0066 30.8281 23.0097C30.8281 25.0127 32.4519 26.6365 34.455 26.6365Z" fill="#EFA492"/>
<path d="M24.1742 6.89062H23.3682C17.5816 6.89062 12.8906 11.5816 12.8906 17.3682V24.622C12.8906 30.4086 17.5816 35.0996 23.3682 35.0996H24.1742C29.9608 35.0996 34.6518 30.4086 34.6518 24.622V17.3682C34.6518 11.5816 29.9608 6.89062 24.1742 6.89062Z" fill="#F4BBAB"/>
<path d="M19.1481 24.218C19.7045 24.218 20.1555 23.767 20.1555 23.2106C20.1555 22.6542 19.7045 22.2031 19.1481 22.2031C18.5917 22.2031 18.1406 22.6542 18.1406 23.2106C18.1406 23.767 18.5917 24.218 19.1481 24.218Z" fill="#1D1E1E"/>
<path d="M28.4137 24.218C28.9701 24.218 29.4212 23.767 29.4212 23.2106C29.4212 22.6542 28.9701 22.2031 28.4137 22.2031C27.8573 22.2031 27.4062 22.6542 27.4062 23.2106C27.4062 23.767 27.8573 24.218 28.4137 24.218Z" fill="#1D1E1E"/>
<path d="M20.5312 29.0625C20.8308 29.6675 21.2935 30.1768 21.8671 30.5329C22.4407 30.8889 23.1024 31.0776 23.7775 31.0776C24.4526 31.0776 25.1143 30.8889 25.6879 30.5329C26.2615 30.1768 26.7242 29.6675 27.0238 29.0625H20.5312Z" fill="white"/>
<path d="M29.4257 8.90943C29.4257 9.10644 29.4257 9.30346 29.4257 9.50047C29.3354 11.7419 28.5533 13.9005 27.1869 15.6796C27.066 15.8452 26.9317 16.0064 26.7974 16.1632H14.5153V16.5661C14.5153 17.0436 14.421 17.5163 14.2379 17.9572C14.0548 18.3981 13.7865 18.7985 13.4483 19.1355C13.1101 19.4724 12.7086 19.7393 12.2671 19.9208C11.8255 20.1023 11.3524 20.1948 10.875 20.193V15.4602C10.875 15.3109 10.875 15.1617 10.875 15.0124C10.9885 12.1754 12.1971 9.49276 14.247 7.52811C16.2968 5.56345 19.0282 4.46969 21.8675 4.47659H25.2929H25.8571C25.8571 4.47659 26.1347 4.47659 26.278 4.50346C26.4213 4.53033 26.5422 4.52585 26.6765 4.54824L27.1242 4.61092H27.2004L27.5854 4.68257C27.8183 4.73182 28.0332 4.79003 28.2839 4.85719L28.3735 4.87958H28.4093H28.4451L28.8481 5.01391L28.8705 5.09451C29.2408 6.33224 29.4278 7.61751 29.4257 8.90943Z" fill="#752300"/>
<path d="M28.852 5.06661L28.4491 4.93228H28.4132C27.7055 4.6314 26.9435 4.479 26.1744 4.48452H13.7043C12.2103 4.48452 10.7773 5.07707 9.71968 6.13221C8.66203 7.18735 8.06606 8.61891 8.0625 10.1129V10.5159C8.0625 12.0122 8.6569 13.4472 9.71494 14.5052C10.773 15.5632 12.208 16.1577 13.7043 16.1577H33.4506V18.1726C33.447 18.7059 33.6545 19.2189 34.0278 19.5998C34.4011 19.9806 34.9098 20.1983 35.4431 20.2054C35.7117 20.2054 35.9849 20.2054 36.2491 20.1785V15.4547C36.2518 13.1684 35.5404 10.9384 34.2142 9.07599C32.8881 7.21362 31.0134 5.81191 28.852 5.06661Z" fill="#51200B"/>
<path d="M47.6 23.9998V24C47.6 28.6676 46.2159 33.2305 43.6227 37.1115C41.0295 40.9925 37.3437 44.0173 33.0313 45.8035C28.719 47.5898 23.9738 48.0571 19.3959 47.1465C14.8179 46.2359 10.6128 43.9882 7.31229 40.6877C4.01177 37.3872 1.76409 33.1821 0.853478 28.6041C-0.0571329 24.0262 0.410226 19.281 2.19645 14.9687C3.98268 10.6563 7.00755 6.97052 10.8886 4.37732C14.7696 1.78412 19.3324 0.400002 24 0.400002L24.0002 0.400002C27.0997 0.398844 30.169 1.00848 33.0328 2.19408C35.8966 3.37967 38.4987 5.11798 40.6903 7.30966C42.882 9.50133 44.6203 12.1034 45.8059 14.9672C46.9915 17.831 47.6012 20.9003 47.6 23.9998Z" fill="#FF6500" fill-opacity="0.05" stroke="#752300" stroke-width="0.8"/>
</svg>
