<svg width="48" height="48" viewBox="0 0 48 48" fill="none" xmlns="http://www.w3.org/2000/svg">
<path d="M10.9531 19.3828H36.3412V33.8903H10.9531V19.3828Z" fill="#752300"/>
<path d="M37.1056 43.6556C33.1602 46.225 28.5466 47.578 23.8384 47.5461C19.1302 47.5143 14.5353 46.0991 10.625 43.4765C10.8292 41.9266 11.59 40.5038 12.7656 39.4732C13.9411 38.4427 15.4512 37.8746 17.0146 37.875H30.6892C32.284 37.8752 33.8222 38.466 35.0071 39.5335C36.192 40.601 36.9396 42.0694 37.1056 43.6556Z" fill="#FF6500"/>
<path d="M27.0806 29.4583C27.0806 27.6778 25.6372 26.2344 23.8567 26.2344C22.0762 26.2344 20.6328 27.6778 20.6328 29.4583V39.1299C20.6328 40.9104 22.0762 42.3538 23.8567 42.3538C25.6372 42.3538 27.0806 40.9104 27.0806 39.1299V29.4583Z" fill="#EFA492"/>
<path d="M13.1737 26.6365C15.1768 26.6365 16.8006 25.0127 16.8006 23.0097C16.8006 21.0066 15.1768 19.3828 13.1737 19.3828C11.1707 19.3828 9.54688 21.0066 9.54688 23.0097C9.54688 25.0127 11.1707 26.6365 13.1737 26.6365Z" fill="#EFA492"/>
<path d="M34.5331 26.6365C36.5362 26.6365 38.16 25.0127 38.16 23.0097C38.16 21.0066 36.5362 19.3828 34.5331 19.3828C32.5301 19.3828 30.9062 21.0066 30.9062 23.0097C30.9062 25.0127 32.5301 26.6365 34.5331 26.6365Z" fill="#EFA492"/>
<path d="M24.2523 6.89844H23.4464C17.6597 6.89844 12.9688 11.5894 12.9688 17.376V24.6298C12.9688 30.4164 17.6597 35.1074 23.4464 35.1074H24.2523C30.039 35.1074 34.7299 30.4164 34.7299 24.6298V17.376C34.7299 11.5894 30.039 6.89844 24.2523 6.89844Z" fill="#F4BBAB"/>
<path d="M19.2184 24.2259C19.7748 24.2259 20.2259 23.7748 20.2259 23.2184C20.2259 22.662 19.7748 22.2109 19.2184 22.2109C18.662 22.2109 18.2109 22.662 18.2109 23.2184C18.2109 23.7748 18.662 24.2259 19.2184 24.2259Z" fill="#1D1E1E"/>
<path d="M28.484 24.2259C29.0404 24.2259 29.4915 23.7748 29.4915 23.2184C29.4915 22.662 29.0404 22.2109 28.484 22.2109C27.9276 22.2109 27.4766 22.662 27.4766 23.2184C27.4766 23.7748 27.9276 24.2259 28.484 24.2259Z" fill="#1D1E1E"/>
<path d="M20.6094 29.0625C20.9089 29.6675 21.3716 30.1768 21.9452 30.5329C22.5188 30.8889 23.1805 31.0776 23.8556 31.0776C24.5308 31.0776 25.1925 30.8889 25.7661 30.5329C26.3397 30.1768 26.8023 29.6675 27.1019 29.0625H20.6094Z" fill="white"/>
<path d="M36.3462 15.4601C36.3468 14.018 36.0633 12.5898 35.5118 11.2572C34.9603 9.92468 34.1517 8.71383 33.1321 7.69385C32.1126 6.67387 30.902 5.86476 29.5697 5.31272C28.2374 4.76069 26.8093 4.47656 25.3671 4.47656H22.4657C22.1093 6.39527 22.1798 8.36892 22.6723 10.2573C23.1649 12.1456 24.0672 13.9023 25.3153 15.4026C26.5633 16.9029 28.1265 18.1098 29.8937 18.9377C31.6609 19.7657 33.5888 20.1942 35.5403 20.193C35.8089 20.193 36.0776 20.193 36.3462 20.1661V15.4601Z" fill="#752300"/>
<path d="M29.4904 8.90941C29.491 7.6096 29.3009 6.31674 28.9263 5.0721C27.7736 4.67582 26.563 4.47455 25.3442 4.47658H21.9367C20.4942 4.47599 19.0656 4.75969 17.7328 5.31145C16.3999 5.86322 15.1889 6.67224 14.1688 7.69228C13.1488 8.71232 12.3398 9.92337 11.788 11.2562C11.2362 12.5891 10.9525 14.0176 10.9531 15.4602V20.193H18.0591C24.086 20.193 29.2128 15.5228 29.477 9.50046C29.486 9.31538 29.4904 9.11837 29.4904 8.90941Z" fill="#51200B"/>
<path d="M47.6 23.9997V24C47.6 28.6676 46.2159 33.2304 43.6227 37.1115C41.0295 40.9924 37.3437 44.0173 33.0313 45.8035C28.719 47.5898 23.9738 48.0571 19.3959 47.1465C14.8179 46.2359 10.6128 43.9882 7.31229 40.6877C4.01177 37.3872 1.76409 33.1821 0.853478 28.6041C-0.0571329 24.0262 0.410226 19.281 2.19645 14.9687C3.98268 10.6563 7.00755 6.97052 10.8886 4.37732C14.7695 1.78412 19.3324 0.400007 24 0.400007L24.0003 0.400007C27.1001 0.397691 30.17 1.00653 33.0343 2.19171C35.8985 3.37688 38.5011 5.11514 40.693 7.30703C42.8849 9.49893 44.6231 12.1015 45.8083 14.9657C46.9935 17.83 47.6023 20.8999 47.6 23.9997Z" fill="#FF6500" fill-opacity="0.05" stroke="#752300" stroke-width="0.8"/>
</svg>
