<svg width="18" height="18" viewBox="0 0 18 18" fill="none" xmlns="http://www.w3.org/2000/svg">
<path fill-rule="evenodd" clip-rule="evenodd" d="M5.98532 5.6663L8.25449 1.1288C8.39532 0.846302 8.68365 0.667969 8.99949 0.667969C9.31532 0.667969 9.60365 0.846302 9.74532 1.1288L12.0112 5.66797H16.4995C16.8228 5.66797 17.117 5.85464 17.2545 6.14797C17.3912 6.44047 17.347 6.7863 17.1395 7.03464L12.9728 12.0346C12.6887 12.3755 12.1878 12.4338 11.8328 12.168L8.49949 9.66797C8.13115 9.39214 8.05699 8.86964 8.33282 8.5013C8.60865 8.13297 9.13116 8.0588 9.49949 8.33464L12.1995 10.3596L14.7203 7.33464H11.4953C11.1795 7.33464 10.8912 7.1563 10.7503 6.8738L8.99865 3.36547L7.24449 6.8738C7.10365 7.15714 6.81365 7.33547 6.49699 7.33464L3.51699 7.3263L6.27532 10.078C6.49032 10.293 6.57199 10.6071 6.48699 10.8996L5.43282 14.5438L8.53699 12.4746C8.81699 12.288 9.18199 12.288 9.46199 12.4746L14.462 15.808C14.8445 16.063 14.9478 16.5805 14.6928 16.9638C14.4378 17.3463 13.9203 17.4496 13.537 17.1946L8.99949 14.1696L4.46199 17.1946C4.17032 17.3888 3.78949 17.3805 3.50699 17.1738C3.22449 16.9671 3.10199 16.6055 3.19865 16.2696L4.74949 10.9096L0.906988 7.0763C0.667821 6.83797 0.596154 6.4788 0.726154 6.16714C0.855321 5.85547 1.16032 5.65214 1.49782 5.6538L5.98532 5.6663Z" fill="#8E8E8F"/>
</svg>
