<svg width="16" height="16" viewBox="0 0 16 16" fill="none" xmlns="http://www.w3.org/2000/svg">
<g id="star (2)">
<path id="path2" fill-rule="evenodd" clip-rule="evenodd" d="M5.58865 5.33204L7.40398 1.70204C7.51665 1.47604 7.74731 1.33337 7.99998 1.33337C8.25265 1.33337 8.48331 1.47604 8.59665 1.70204L10.4093 5.33337H14C14.2586 5.33337 14.494 5.48271 14.604 5.71737C14.7133 5.95137 14.678 6.22804 14.512 6.42671L11.1786 10.4267C10.9513 10.6994 10.5506 10.746 10.2666 10.5334L7.59998 8.53337C7.30531 8.31271 7.24598 7.89471 7.46665 7.60004C7.68731 7.30537 8.10531 7.24604 8.39998 7.46671L10.56 9.08671L12.5766 6.66671H9.99665C9.74398 6.66671 9.51331 6.52404 9.40065 6.29804L7.99931 3.49137L6.59598 6.29804C6.48331 6.52471 6.25131 6.66737 5.99798 6.66671L3.61398 6.66004L5.82065 8.86137C5.99265 9.03337 6.05798 9.28471 5.98998 9.51871L5.14665 12.434L7.62998 10.7787C7.85398 10.6294 8.14598 10.6294 8.36998 10.7787L12.37 13.4454C12.676 13.6494 12.7586 14.0634 12.5546 14.37C12.3506 14.676 11.9366 14.7587 11.63 14.5547L7.99998 12.1347L4.36998 14.5547C4.13665 14.71 3.83198 14.7034 3.60598 14.538C3.37998 14.3727 3.28198 14.0834 3.35931 13.8147L4.59998 9.52671L1.52598 6.46004C1.33465 6.26937 1.27731 5.98204 1.38131 5.73271C1.48465 5.48337 1.72865 5.32071 1.99865 5.32204L5.58865 5.33204Z" fill="#FF6500"/>
</g>
</svg>
