<svg width="18" height="18" viewBox="0 0 18 18" fill="none" xmlns="http://www.w3.org/2000/svg">
<path d="M9.49102 9.83472L7.57435 11.7431C7.49624 11.8205 7.43425 11.9127 7.39194 12.0142C7.34963 12.1158 7.32785 12.2247 7.32785 12.3347C7.32785 12.4447 7.34963 12.5536 7.39194 12.6552C7.43425 12.7567 7.49624 12.8489 7.57435 12.9264C7.65182 13.0045 7.74399 13.0665 7.84554 13.1088C7.94708 13.1511 8.05601 13.1729 8.16602 13.1729C8.27603 13.1729 8.38495 13.1511 8.4865 13.1088C8.58805 13.0665 8.68021 13.0045 8.75768 12.9264L12.091 9.59305C12.1669 9.5138 12.2264 9.42035 12.266 9.31805C12.3494 9.11517 12.3494 8.8876 12.266 8.68472C12.2264 8.58243 12.1669 8.48897 12.091 8.40972L8.75768 5.07639C8.67998 4.99869 8.58774 4.93705 8.48622 4.895C8.38471 4.85295 8.2759 4.83131 8.16602 4.83131C8.05613 4.83131 7.94733 4.85295 7.84581 4.895C7.74429 4.93705 7.65205 4.99869 7.57435 5.07639C7.49665 5.15408 7.43502 5.24633 7.39297 5.34784C7.35092 5.44936 7.32927 5.55817 7.32927 5.66805C7.32927 5.77793 7.35092 5.88674 7.39297 5.98826C7.43502 6.08978 7.49665 6.18202 7.57435 6.25972L9.49102 8.16805H1.49935C1.27834 8.16805 1.06637 8.25585 0.910093 8.41213C0.753813 8.56841 0.666016 8.78037 0.666016 9.00139C0.666016 9.2224 0.753813 9.43436 0.910093 9.59064C1.06637 9.74692 1.27834 9.83472 1.49935 9.83472H9.49102ZM8.99935 0.668052C7.44193 0.661099 5.91372 1.09073 4.58807 1.90821C3.26243 2.72569 2.19239 3.89831 1.49935 5.29305C1.39989 5.49196 1.38353 5.72224 1.45385 5.93322C1.52418 6.1442 1.67544 6.31859 1.87435 6.41805C2.07326 6.51751 2.30354 6.53387 2.51451 6.46355C2.72549 6.39322 2.89989 6.24196 2.99935 6.04305C3.52617 4.97915 4.32754 4.07523 5.32064 3.42471C6.31374 2.77418 7.46253 2.40065 8.64831 2.34271C9.83409 2.28477 11.0138 2.54453 12.0656 3.09514C13.1174 3.64576 14.0031 4.46724 14.6311 5.47471C15.2591 6.48219 15.6068 7.63909 15.638 8.82587C15.6693 10.0127 15.3831 11.1863 14.8089 12.2254C14.2348 13.2645 13.3936 14.1315 12.3723 14.7367C11.351 15.342 10.1865 15.6635 8.99935 15.6681C7.75675 15.6734 6.53781 15.3284 5.48243 14.6724C4.42704 14.0165 3.57798 13.0763 3.03268 11.9597C2.93323 11.7608 2.75883 11.6096 2.54785 11.5392C2.33687 11.4689 2.10659 11.4853 1.90768 11.5847C1.70877 11.6842 1.55751 11.8586 1.48719 12.0696C1.41686 12.2805 1.43323 12.5108 1.53268 12.7097C2.19337 14.0393 3.19728 15.1682 4.44057 15.9798C5.68387 16.7913 7.12139 17.2559 8.60445 17.3255C10.0875 17.3952 11.5623 17.0674 12.8761 16.376C14.19 15.6846 15.2953 14.6547 16.0777 13.3929C16.8601 12.1311 17.2912 10.6832 17.3264 9.19889C17.3616 7.71461 16.9996 6.24788 16.2779 4.95041C15.5562 3.65294 14.5009 2.57186 13.2212 1.81897C11.9416 1.06609 10.484 0.668749 8.99935 0.668052Z" fill="#8E8E8F"/>
</svg>
