<svg width="14" height="14" viewBox="0 0 14 14" fill="none" xmlns="http://www.w3.org/2000/svg">
<g id="options">
<g id="Group">
<path id="Vector" d="M0.998698 2.99992H3.12203C3.39803 3.77392 4.1307 4.33325 4.9987 4.33325C5.8667 4.33325 6.59936 3.77392 6.87536 2.99992H12.9987C13.3674 2.99992 13.6654 2.70192 13.6654 2.33325C13.6654 1.96459 13.3674 1.66659 12.9987 1.66659H6.87536C6.59936 0.892585 5.8667 0.333252 4.9987 0.333252C4.1307 0.333252 3.39803 0.892585 3.12203 1.66659H0.998698C0.630031 1.66659 0.332031 1.96459 0.332031 2.33325C0.332031 2.70192 0.630031 2.99992 0.998698 2.99992Z" fill="#1A1A1A"/>
<path id="Vector_2" d="M12.9987 6.33333H10.8754C10.5994 5.55933 9.8667 5 8.9987 5C8.1307 5 7.39803 5.55933 7.12203 6.33333H0.998698C0.630031 6.33333 0.332031 6.63133 0.332031 7C0.332031 7.36867 0.630031 7.66667 0.998698 7.66667H7.12203C7.39803 8.44067 8.13136 9 8.9987 9C9.86603 9 10.5994 8.44067 10.8754 7.66667H12.9987C13.3674 7.66667 13.6654 7.36867 13.6654 7C13.6654 6.63133 13.3674 6.33333 12.9987 6.33333Z" fill="#1A1A1A"/>
<path id="Vector_3" d="M12.9987 10.9998H6.87536C6.59936 10.2258 5.86603 9.6665 4.9987 9.6665C4.13136 9.6665 3.39803 10.2258 3.12203 10.9998H0.998698C0.630031 10.9998 0.332031 11.2978 0.332031 11.6665C0.332031 12.0352 0.630031 12.3332 0.998698 12.3332H3.12203C3.39803 13.1072 4.1307 13.6665 4.9987 13.6665C5.8667 13.6665 6.59936 13.1072 6.87536 12.3332H12.9987C13.3674 12.3332 13.6654 12.0352 13.6654 11.6665C13.6654 11.2978 13.3674 10.9998 12.9987 10.9998Z" fill="#1A1A1A"/>
</g>
</g>
</svg>
