<svg width="14" height="14" viewBox="0 0 14 14" fill="none" xmlns="http://www.w3.org/2000/svg">
<g id="options">
<g id="Group">
<path id="Vector" d="M0.999919 3.00004H3.12325C3.39925 3.77404 4.13192 4.33337 4.99992 4.33337C5.86792 4.33337 6.60058 3.77404 6.87658 3.00004H12.9999C13.3686 3.00004 13.6666 2.70204 13.6666 2.33337C13.6666 1.96471 13.3686 1.66671 12.9999 1.66671H6.87658C6.60058 0.892707 5.86792 0.333374 4.99992 0.333374C4.13192 0.333374 3.39925 0.892707 3.12325 1.66671H0.999919C0.631252 1.66671 0.333252 1.96471 0.333252 2.33337C0.333252 2.70204 0.631252 3.00004 0.999919 3.00004Z" fill="#ff6500"/>
<path id="Vector_2" d="M12.9999 6.33333H10.8766C10.6006 5.55933 9.86792 5 8.99992 5C8.13192 5 7.39925 5.55933 7.12325 6.33333H0.999919C0.631252 6.33333 0.333252 6.63133 0.333252 7C0.333252 7.36867 0.631252 7.66667 0.999919 7.66667H7.12325C7.39925 8.44067 8.13259 9 8.99992 9C9.86725 9 10.6006 8.44067 10.8766 7.66667H12.9999C13.3686 7.66667 13.6666 7.36867 13.6666 7C13.6666 6.63133 13.3686 6.33333 12.9999 6.33333Z" fill="#ff6500"/>
<path id="Vector_3" d="M12.9999 11.0001H6.87658C6.60058 10.2261 5.86725 9.66675 4.99992 9.66675C4.13259 9.66675 3.39925 10.2261 3.12325 11.0001H0.999919C0.631252 11.0001 0.333252 11.2981 0.333252 11.6667C0.333252 12.0354 0.631252 12.3334 0.999919 12.3334H3.12325C3.39925 13.1074 4.13192 13.6667 4.99992 13.6667C5.86792 13.6667 6.60058 13.1074 6.87658 12.3334H12.9999C13.3686 12.3334 13.6666 12.0354 13.6666 11.6667C13.6666 11.2981 13.3686 11.0001 12.9999 11.0001Z" fill="#ff6500"/>
</g>
</g>
</svg>