<svg width="18" height="18" viewBox="0 0 18 18" fill="none" xmlns="http://www.w3.org/2000/svg">
<path d="M1.49935 4.0013H4.15352C4.49852 4.9688 5.41435 5.66797 6.49935 5.66797C7.58435 5.66797 8.50018 4.9688 8.84518 4.0013H16.4993C16.9602 4.0013 17.3327 3.6288 17.3327 3.16797C17.3327 2.70714 16.9602 2.33464 16.4993 2.33464H8.84518C8.50018 1.36714 7.58435 0.667969 6.49935 0.667969C5.41435 0.667969 4.49852 1.36714 4.15352 2.33464H1.49935C1.03852 2.33464 0.666016 2.70714 0.666016 3.16797C0.666016 3.6288 1.03852 4.0013 1.49935 4.0013Z" fill="#8E8E8F"/>
<path d="M16.4993 8.16667H13.8452C13.5002 7.19917 12.5843 6.5 11.4993 6.5C10.4143 6.5 9.49852 7.19917 9.15352 8.16667H1.49935C1.03852 8.16667 0.666016 8.53917 0.666016 9C0.666016 9.46083 1.03852 9.83333 1.49935 9.83333H9.15352C9.49852 10.8008 10.4152 11.5 11.4993 11.5C12.5835 11.5 13.5002 10.8008 13.8452 9.83333H16.4993C16.9602 9.83333 17.3327 9.46083 17.3327 9C17.3327 8.53917 16.9602 8.16667 16.4993 8.16667Z" fill="#8E8E8F"/>
<path d="M16.4993 14.0026H8.84518C8.50018 13.0351 7.58352 12.3359 6.49935 12.3359C5.41518 12.3359 4.49852 13.0351 4.15352 14.0026H1.49935C1.03852 14.0026 0.666016 14.3751 0.666016 14.8359C0.666016 15.2968 1.03852 15.6693 1.49935 15.6693H4.15352C4.49852 16.6368 5.41435 17.3359 6.49935 17.3359C7.58435 17.3359 8.50018 16.6368 8.84518 15.6693H16.4993C16.9602 15.6693 17.3327 15.2968 17.3327 14.8359C17.3327 14.3751 16.9602 14.0026 16.4993 14.0026Z" fill="#8E8E8F"/>
</svg>
