<svg width="14" height="14" viewBox="0 0 14 14" fill="none" xmlns="http://www.w3.org/2000/svg">
<g id="fi_3438476" clip-path="url(#clip0_9380_144788)">
<g id="Group">
<path id="Vector" d="M13.1874 13.1797H12.1053V0.410156C12.1053 0.183641 11.9217 0 11.6952 0H2.3047C2.07819 0 1.89455 0.183641 1.89455 0.410156V13.1797H0.8125C0.585984 13.1797 0.402344 13.3633 0.402344 13.5898C0.402344 13.8164 0.585984 14 0.8125 14H13.1874C13.4139 14 13.5976 13.8164 13.5976 13.5898C13.5976 13.3633 13.4139 13.1797 13.1874 13.1797ZM5.60184 13.1797V10.3835H8.39804V13.1797H5.60184ZM9.21835 13.1797V9.97333C9.21835 9.74682 9.03471 9.56318 8.8082 9.56318H5.19168C4.96517 9.56318 4.78153 9.74682 4.78153 9.97333V13.1797H2.71486V0.820312H11.285V13.1797H9.21835Z" fill="#1A1A1A"/>
<path id="Vector_2" d="M6.11936 1.81299H4.10938C3.88286 1.81299 3.69922 1.99663 3.69922 2.22314V4.23313C3.69922 4.45964 3.88286 4.64329 4.10938 4.64329H6.11936C6.34587 4.64329 6.52952 4.45964 6.52952 4.23313V2.22314C6.52952 1.99663 6.34587 1.81299 6.11936 1.81299ZM5.7092 3.82297H4.51953V2.6333H5.7092V3.82297Z" fill="#1A1A1A"/>
<path id="Vector_3" d="M9.8928 1.81299H7.88281C7.6563 1.81299 7.47266 1.99663 7.47266 2.22314V4.23313C7.47266 4.45964 7.6563 4.64329 7.88281 4.64329H9.8928C10.1193 4.64329 10.303 4.45964 10.303 4.23313V2.22314C10.303 1.99663 10.1193 1.81299 9.8928 1.81299ZM9.48264 3.82297H8.29297V2.6333H9.48264V3.82297Z" fill="#1A1A1A"/>
<path id="Vector_4" d="M6.11936 5.63135H4.10938C3.88286 5.63135 3.69922 5.81499 3.69922 6.0415V8.05149C3.69922 8.278 3.88286 8.46164 4.10938 8.46164H6.11936C6.34587 8.46164 6.52952 8.278 6.52952 8.05149V6.0415C6.52952 5.81499 6.34587 5.63135 6.11936 5.63135ZM5.7092 7.64133H4.51953V6.45166H5.7092V7.64133Z" fill="#1A1A1A"/>
<path id="Vector_5" d="M9.8928 5.63135H7.88281C7.6563 5.63135 7.47266 5.81499 7.47266 6.0415V8.05149C7.47266 8.278 7.6563 8.46164 7.88281 8.46164H9.8928C10.1193 8.46164 10.303 8.278 10.303 8.05149V6.0415C10.303 5.81499 10.1193 5.63135 9.8928 5.63135ZM9.48264 7.64133H8.29297V6.45166H9.48264V7.64133Z" fill="#1A1A1A"/>
</g>
</g>
<defs>
<clipPath id="clip0_9380_144788">
<rect width="14" height="14" fill="white"/>
</clipPath>
</defs>
</svg>
