<svg width="14" height="14" viewBox="0 0 14 14" fill="none" xmlns="http://www.w3.org/2000/svg">
<g id="fi_158234" clip-path="url(#clip0_9374_143891)">
<g id="Group">
<path id="Vector" d="M13.7945 13.041H13.3425V7.31497H13.7945C13.8695 7.31497 13.9386 7.27413 13.9747 7.20837C14.0107 7.14262 14.0081 7.06243 13.9679 6.99917L12.4337 4.58821C12.3959 4.52892 12.3306 4.49303 12.2603 4.49303H8.18099L7.20548 3.51755V2.71223H9.19179C9.26757 2.71223 9.33721 2.67054 9.37296 2.60371C9.40872 2.53692 9.4048 2.45582 9.36275 2.39278L9.00039 1.84922L9.36277 1.30566C9.40483 1.24262 9.40872 1.16152 9.37299 1.09473C9.33721 1.02791 9.26757 0.986208 9.19179 0.986208H7.20548V0.753331C7.20548 0.639852 7.11348 0.547852 7.00001 0.547852C6.88653 0.547852 6.79453 0.639852 6.79453 0.753331V3.51755L5.81902 4.49306H1.73973C1.66948 4.49306 1.60409 4.52895 1.56636 4.58823L0.0321147 6.99919C-0.00813192 7.06245 -0.0107347 7.14265 0.0253475 7.2084C0.0614571 7.27412 0.130498 7.31497 0.205485 7.31497H0.657539V13.041H0.205485C0.0920051 13.041 5.06202e-06 13.133 5.06202e-06 13.2465C5.06202e-06 13.36 0.0920051 13.452 0.205485 13.452H13.7945C13.908 13.452 14 13.36 14 13.2465C14 13.133 13.908 13.041 13.7945 13.041ZM12.1475 4.90402L13.4202 6.90402H10.592L8.59195 4.90402H12.1475ZM8.80784 1.39717L8.58244 1.73525C8.53642 1.80426 8.53642 1.89418 8.58244 1.96319L8.80784 2.30128H7.20548V1.39717H8.80784ZM1.85253 4.90402H5.40803L3.40803 6.90402H0.579813L1.85253 4.90402ZM1.0685 7.31497H3.4931C3.4999 7.31497 3.50669 7.31462 3.51348 7.31393C3.51639 7.31366 3.51924 7.31311 3.52211 7.3127C3.52587 7.31215 3.52962 7.31171 3.53338 7.31097C3.53672 7.31032 3.53995 7.30938 3.54324 7.30856C3.54644 7.30777 3.54968 7.30703 3.55285 7.3061C3.55609 7.30511 3.55924 7.30388 3.56242 7.30275C3.56557 7.30163 3.56872 7.30059 3.57184 7.2993C3.57483 7.29807 3.57768 7.29662 3.58058 7.29525C3.58373 7.29374 3.58694 7.29234 3.59003 7.29067C3.59285 7.28917 3.59551 7.28744 3.59825 7.28582C3.60127 7.28404 3.60433 7.28232 3.60727 7.28034C3.61033 7.27829 3.61321 7.27602 3.61614 7.2738C3.61855 7.27199 3.62105 7.27032 3.62338 7.26837C3.62864 7.26407 3.63368 7.25952 3.63847 7.2547L7.00001 3.89322L10.3615 7.25473C10.3663 7.25952 10.3714 7.26407 10.3766 7.2684C10.379 7.27032 10.3814 7.27199 10.3838 7.2738C10.3868 7.27602 10.3897 7.27832 10.3928 7.28037C10.3957 7.28232 10.3987 7.28402 10.4017 7.2858C10.4045 7.28747 10.4072 7.28919 10.41 7.2907C10.4131 7.29234 10.4162 7.29374 10.4194 7.29522C10.4223 7.29662 10.4252 7.29807 10.4282 7.29933C10.4313 7.30059 10.4344 7.3016 10.4375 7.30273C10.4407 7.30388 10.4439 7.30511 10.4472 7.30613C10.4503 7.30708 10.4535 7.30777 10.4566 7.30856C10.46 7.30941 10.4633 7.31034 10.4667 7.311C10.4703 7.31171 10.4739 7.31215 10.4776 7.31267C10.4806 7.31311 10.4835 7.31366 10.4866 7.31396C10.4933 7.31462 10.5001 7.31497 10.5068 7.31497H12.9315V13.041H8.52055V10.178C8.52055 9.82297 8.23173 9.53415 7.87672 9.53415H6.12329C5.76828 9.53415 5.47946 9.82297 5.47946 10.178V13.041H1.0685V7.31497ZM8.10959 10.4109H5.89042V10.178C5.89042 10.0496 5.99488 9.94511 6.12329 9.94511H7.87672C8.00513 9.94511 8.10959 10.0496 8.10959 10.178V10.4109ZM5.89042 10.8218H6.79453V13.041H5.89042V10.8218ZM7.20548 10.8218H8.10959V13.041H7.20548V10.8218Z" fill="white"/>
<path id="Vector_2" d="M7.00102 8.8492C7.83946 8.8492 8.52156 8.16709 8.52156 7.32865C8.52156 6.49022 7.83946 5.80811 7.00102 5.80811C6.16258 5.80811 5.48047 6.49022 5.48047 7.32865C5.48047 8.16709 6.16258 8.8492 7.00102 8.8492ZM7.00102 6.21906C7.61285 6.21906 8.11061 6.71682 8.11061 7.32865C8.11061 7.94049 7.61285 8.43824 7.00102 8.43824C6.38918 8.43824 5.89143 7.94049 5.89143 7.32865C5.89143 6.71682 6.38918 6.21906 7.00102 6.21906Z" fill="white"/>
<path id="Vector_3" d="M6.99973 7.53431C7.11321 7.53431 7.20521 7.44231 7.20521 7.32883V6.6713C7.20521 6.55782 7.11321 6.46582 6.99973 6.46582C6.88625 6.46582 6.79425 6.55782 6.79425 6.6713V7.12335H6.3422C6.22872 7.12335 6.13672 7.21535 6.13672 7.32883C6.13672 7.44231 6.22872 7.53431 6.3422 7.53431H6.99973Z" fill="white"/>
<path id="Vector_4" d="M4.80918 10.6299H3.71329C3.59981 10.6299 3.50781 10.7219 3.50781 10.8354V12.1504C3.50781 12.2639 3.59981 12.3559 3.71329 12.3559H4.80918C4.92266 12.3559 5.01466 12.2639 5.01466 12.1504V10.8354C5.01466 10.7219 4.92266 10.6299 4.80918 10.6299ZM4.6037 11.0408V11.2874H3.91877V11.0408H4.6037ZM3.91877 11.945V11.6984H4.6037V11.945H3.91877Z" fill="white"/>
<path id="Vector_5" d="M2.83653 10.6299H1.74064C1.62716 10.6299 1.53516 10.7219 1.53516 10.8354V12.1504C1.53516 12.2639 1.62716 12.3559 1.74064 12.3559H2.83653C2.95001 12.3559 3.04201 12.2639 3.04201 12.1504V10.8354C3.04201 10.7219 2.95001 10.6299 2.83653 10.6299ZM2.63105 11.0408V11.2874H1.94612V11.0408H2.63105ZM1.94612 11.945V11.6984H2.63105V11.945H1.94612Z" fill="white"/>
<path id="Vector_6" d="M4.74069 8H3.78179C3.63072 8 3.50781 8.1229 3.50781 8.27397V9.73973C3.50781 9.85321 3.59981 9.94521 3.71329 9.94521H4.80918C4.92266 9.94521 5.01466 9.85321 5.01466 9.73973V8.27397C5.01466 8.1229 4.89176 8 4.74069 8ZM4.6037 8.41096V8.87671H3.91877V8.41096H4.6037ZM3.91877 9.53425V9.28767H4.6037V9.53425H3.91877Z" fill="white"/>
<path id="Vector_7" d="M2.76803 8H1.80913C1.65806 8 1.53516 8.1229 1.53516 8.27397V9.73973C1.53516 9.85321 1.62716 9.94521 1.74064 9.94521H2.83653C2.95001 9.94521 3.04201 9.85321 3.04201 9.73973V8.27397C3.04201 8.1229 2.9191 8 2.76803 8ZM2.63105 8.41096V8.87671H1.94612V8.41096H2.63105ZM1.94612 9.53425V9.28767H2.63105V9.53425H1.94612Z" fill="white"/>
<path id="Vector_8" d="M11.1625 12.3559H12.2584C12.3719 12.3559 12.4639 12.2639 12.4639 12.1504V10.8354C12.4639 10.7219 12.3719 10.6299 12.2584 10.6299H11.1625C11.049 10.6299 10.957 10.7219 10.957 10.8354V12.1504C10.957 12.2639 11.049 12.3559 11.1625 12.3559ZM11.368 11.945V11.6984H12.0529V11.945H11.368ZM12.0529 11.0408V11.2874H11.368V11.0408H12.0529Z" fill="white"/>
<path id="Vector_9" d="M9.18985 12.3559H10.2857C10.3992 12.3559 10.4912 12.2639 10.4912 12.1504V10.8354C10.4912 10.7219 10.3992 10.6299 10.2857 10.6299H9.18985C9.07637 10.6299 8.98438 10.7219 8.98438 10.8354V12.1504C8.98438 12.2639 9.07637 12.3559 9.18985 12.3559ZM9.39533 11.945V11.6984H10.0803V11.945H9.39533ZM10.0803 11.0408V11.2874H9.39533V11.0408H10.0803Z" fill="white"/>
<path id="Vector_10" d="M11.1625 9.94521H12.2584C12.3719 9.94521 12.4639 9.85321 12.4639 9.73973V8.27397C12.4639 8.1229 12.341 8 12.1899 8H11.231C11.0799 8 10.957 8.1229 10.957 8.27397V9.73973C10.957 9.85321 11.049 9.94521 11.1625 9.94521ZM11.368 9.53425V9.28767H12.0529V9.53425H11.368ZM12.0529 8.41096V8.87671H11.368V8.41096H12.0529Z" fill="white"/>
<path id="Vector_11" d="M9.18985 9.94521H10.2857C10.3992 9.94521 10.4912 9.85321 10.4912 9.73973V8.27397C10.4912 8.1229 10.3683 8 10.2173 8H9.25835C9.10728 8 8.98438 8.1229 8.98438 8.27397V9.73973C8.98438 9.85321 9.07637 9.94521 9.18985 9.94521ZM9.39533 9.53425V9.28767H10.0803V9.53425H9.39533ZM10.0803 8.41096V8.87671H9.39533V8.41096H10.0803Z" fill="white"/>
</g>
</g>
<defs>
<clipPath id="clip0_9374_143891">
<rect width="14" height="14" fill="white"/>
</clipPath>
</defs>
</svg>
