<svg width="40" height="40" viewBox="0 0 40 40" fill="none" xmlns="http://www.w3.org/2000/svg">
<rect width="40" height="40" rx="6" fill="#F7F7F7"/>
<path d="M33.6674 26.0896C33.5245 26.0896 33.3969 26.0896 33.2834 26.0755C33.041 26.0615 32.7998 26.0475 32.5574 26.0475C32.4005 26.0475 32.4005 26.0475 32.3864 25.8905L32.1581 23.2993L31.9297 21.1495L31.7728 19.8252L31.6299 18.6718L31.3734 16.878C31.2879 16.2375 31.1884 15.6111 31.0608 14.9693C31.0468 14.8698 31.0468 14.8558 31.1604 14.8417C31.6018 14.7562 32.0573 14.7141 32.5128 14.7141H32.6697C32.7411 14.7282 32.7832 14.7715 32.7973 14.857L32.8547 15.8394L33.2527 21.1508L33.4518 23.5851L33.5794 24.9809L33.6674 26.0896ZM16.21 14.7129H16.4664C16.594 14.7129 16.6234 14.755 16.6234 14.8838L16.7369 16.6075L16.9934 20.1811L17.1503 22.0464L17.2639 23.4843L17.491 25.962C17.491 26.0755 17.4769 26.0896 17.3634 26.0896L16.3376 26.0475C16.2661 26.0615 16.224 26.0194 16.224 25.948L16.1819 25.4491C16.1398 25.0217 16.0965 24.5943 16.0684 24.1528L15.84 21.9035L15.5976 19.8673L15.4266 18.4294L15.2416 17.1191C15.1562 16.5348 15.0566 15.9377 14.9571 15.3533L14.8857 14.9553C14.8716 14.8838 14.8857 14.8558 14.9571 14.8417C15.3552 14.769 15.7405 14.6988 16.21 14.7129ZM30.5352 20.4516C30.8912 20.4516 30.9333 20.4656 30.9907 20.8076C31.0621 21.235 31.1183 21.6624 31.1616 22.0885L31.3186 23.4703L31.6171 26.4034C31.6311 26.4749 31.6171 26.5029 31.5457 26.5029L30.4344 26.6305C30.3209 26.6446 30.2915 26.6305 30.2775 26.517L29.637 23.2419L29.2389 21.0627L29.1815 20.7642C29.1675 20.7068 29.1956 20.6647 29.253 20.6506C29.6944 20.5511 30.1218 20.4797 30.5352 20.4516ZM14.3447 20.4516C14.7287 20.4376 14.7721 20.4797 14.8142 20.8356C14.9137 21.42 14.9852 21.989 15.0426 22.5733L15.2276 24.2817L15.3412 25.4351L15.4407 26.3601C15.4407 26.4876 15.4266 26.517 15.3131 26.531L14.2592 26.6305C14.1457 26.6446 14.1163 26.6305 14.1023 26.517L13.2335 22.0451L13.0051 20.7782C12.991 20.7068 13.0191 20.6647 13.0906 20.6506C13.5333 20.5511 13.9454 20.4797 14.3447 20.4516ZM19.7836 24.8648V26.6879C19.7977 26.7734 19.7556 26.8155 19.6701 26.8015H19.3282C19.0858 26.8015 18.8446 26.8155 18.6022 26.8296C18.4746 26.8436 18.4593 26.8436 18.4453 26.6867L18.2182 24.1248L18.1046 22.8579L17.9337 20.9211C17.9196 20.7642 17.9477 20.7361 18.0766 20.7221C18.4759 20.68 18.874 20.68 19.2733 20.694L19.5719 20.7361C19.6854 20.7782 19.6994 20.7935 19.6994 20.9071L19.7415 21.6764L19.7556 22.5312C19.7696 23.3133 19.7836 24.0814 19.7836 24.8648ZM35.9461 24.9502V26.702C35.9461 26.7734 35.918 26.8155 35.8465 26.8015H35.3337C35.1346 26.8015 34.9343 26.8155 34.7493 26.8296C34.6358 26.8436 34.6217 26.8296 34.6064 26.702L34.3079 23.3695L34.1509 21.7173L34.0935 20.8777C34.0795 20.7642 34.1076 20.7348 34.2211 20.7348C34.6906 20.6774 35.1754 20.6634 35.645 20.7208C35.83 20.7349 35.858 20.7923 35.8733 20.9773L35.9154 22.8706L35.9461 24.9502ZM30.1218 17.4177C30.2647 17.4177 30.3923 17.4317 30.4918 17.4457C30.5633 17.4598 30.5913 17.4878 30.6054 17.5593L30.7904 19.5381C30.8325 19.7091 30.8044 19.7371 30.6334 19.7371L30.1499 19.7652C30.0504 19.7792 30.007 19.7933 30.007 19.6376L29.808 18.0288L29.7505 17.5733C29.7365 17.4878 29.7646 17.4457 29.8501 17.4304L30.1218 17.4177ZM13.9888 17.4177C14.1023 17.4177 14.2171 17.4317 14.3167 17.4457C14.3741 17.4598 14.4021 17.4878 14.4162 17.5593L14.4736 18.0581L14.6165 19.6096C14.6305 19.7231 14.6305 19.7371 14.517 19.7371L13.962 19.7652C13.8484 19.7792 13.8344 19.7652 13.8191 19.6517L13.6915 18.5123L13.5779 17.558C13.5639 17.4865 13.592 17.4444 13.6634 17.4444C13.7604 17.4317 13.8752 17.4177 13.9888 17.4177ZM19.6701 18.8415V19.8239C19.6841 19.9808 19.6561 19.9808 19.5272 19.9808C19.3422 19.9808 19.1712 19.9668 19.0003 19.9528C18.8867 19.9387 18.8727 19.9387 18.8867 19.8252L18.8446 18.6144C18.8446 18.3439 18.8446 18.0734 18.8306 17.803C18.8166 17.6754 18.8306 17.6601 18.9582 17.6601C19.1572 17.6601 19.3562 17.6741 19.5565 17.7022C19.6701 17.7022 19.6701 17.7302 19.6701 17.8451V18.8415ZM35.8453 18.8555V19.8379C35.8453 19.9655 35.8312 19.9808 35.7024 19.9808L35.1614 19.9528C35.0759 19.9387 35.0338 19.8953 35.0479 19.8252L35.0058 17.7889C35.0058 17.6754 35.0198 17.6613 35.1333 17.6613C35.3183 17.6613 35.4893 17.6754 35.6603 17.6894C35.8733 17.7034 35.8453 17.7468 35.8453 17.9025V18.8555ZM13.5473 19.6249C13.5613 19.7958 13.5473 19.8239 13.3764 19.8379L13.0344 19.9234C12.9209 19.9655 12.9068 19.9374 12.8915 19.8379L12.5356 17.8298C12.4935 17.7022 12.5215 17.6728 12.6491 17.6588L13.148 17.5733C13.2615 17.5593 13.2909 17.5593 13.2909 17.6728C13.333 17.9152 13.3764 18.1564 13.4044 18.3988L13.5473 19.5381V19.6249ZM28.698 17.6741C28.911 17.632 29.1394 17.6026 29.3678 17.5746C29.4392 17.5605 29.4673 17.6027 29.4813 17.6741L29.5949 18.4575C29.6523 18.8415 29.6944 19.2268 29.7084 19.6108V19.7244C29.7225 19.7818 29.6944 19.8239 29.637 19.8379L29.1815 19.9374C29.1101 19.9515 29.082 19.9234 29.068 19.852L28.698 17.7302V17.6741ZM18.5882 19.2128C18.5882 19.4411 18.5741 19.6542 18.5601 19.8532C18.5601 19.9247 18.532 19.9528 18.4606 19.9668L18.0192 20.0089C17.9477 20.0229 17.9196 19.9808 17.9196 19.9094C17.8916 19.6963 17.8775 19.496 17.8622 19.2829C17.8342 18.8989 17.8048 18.4996 17.7908 18.1015L17.7627 17.817C17.7487 17.7596 17.7767 17.7315 17.8342 17.7315L18.4185 17.6894C18.518 17.6894 18.5461 17.7034 18.5461 17.817L18.5882 19.2128ZM34.7353 18.9844C34.7493 19.2549 34.7493 19.5394 34.7353 19.8099C34.7493 19.9374 34.7212 19.9668 34.5924 19.9668L34.193 20.0089C34.1216 20.0229 34.0795 19.9808 34.0795 19.9094C34.0655 19.5534 34.0374 19.1834 34.008 18.8275L33.9506 17.831C33.9366 17.7596 33.9647 17.7315 34.0221 17.7315L34.5924 17.6894C34.6919 17.6894 34.7059 17.7034 34.7059 17.817C34.7353 18.201 34.7493 18.6004 34.7353 18.9844ZM12.9923 23.8403C13.2207 24.1107 13.2628 24.4093 13.1633 24.7372C13.0778 25.051 12.9209 25.3215 12.6938 25.5486C12.3238 25.9326 11.8964 26.2465 11.4269 26.4889C10.6154 26.9163 9.77464 27.2149 8.87772 27.3718C8.23725 27.4994 7.59677 27.5849 6.95502 27.6282C6.75599 27.6423 6.55696 27.6423 6.35665 27.6423H5.92924C5.81569 27.6423 5.78635 27.6142 5.77232 27.4994L5.6728 26.1176L5.40232 23.3975L5.10377 20.8063L4.93281 19.4246L4.74781 18.1002C4.6483 17.3743 4.51943 16.6483 4.39185 15.9211C4.29233 15.3367 4.19282 14.7537 4.06396 14.1694C4.04992 14.0979 4.06396 14.0418 4.13541 14.0265L6.11424 13.2035C6.24183 13.1461 6.35665 13.104 6.48424 13.076C6.56972 13.0619 6.61182 13.09 6.59779 13.1755C6.59779 13.4038 6.59779 13.6309 6.58375 13.8734L6.56972 14.0584C6.55568 14.8838 6.55568 15.7106 6.56972 16.5501C6.58375 17.276 6.62713 18.0173 6.66923 18.7433C6.74068 19.8826 6.85423 21.0219 6.96778 22.1459C6.96778 22.2595 6.98182 22.2595 7.11068 22.2455C7.35309 22.2033 7.58019 22.188 7.8226 22.188C8.5779 22.188 9.33192 22.2735 10.0579 22.4585C10.6984 22.6154 11.3108 22.8285 11.9232 23.099C12.2217 23.2419 12.4922 23.4116 12.7486 23.6119C12.8494 23.6833 12.9209 23.7548 12.9923 23.8403ZM29.0399 23.7114C29.3385 23.9538 29.438 24.2804 29.3525 24.6657C29.281 24.9796 29.1394 25.2501 28.9251 25.4912C28.5832 25.8752 28.1851 26.1751 27.7436 26.4162C26.8888 26.8857 25.9779 27.2136 25.0095 27.3846C24.4826 27.4841 23.9557 27.5696 23.4287 27.6129C23.1302 27.641 22.8023 27.655 22.4744 27.641H22.0904C22.0049 27.655 21.9628 27.6129 21.9628 27.5275C21.9347 27.1294 21.9054 26.73 21.8633 26.332L21.6349 23.8977L21.3925 21.7759L21.0939 19.3837C21.0518 18.9704 20.9944 18.5429 20.923 18.1309L20.6665 16.536C20.553 15.782 20.4101 15.0267 20.2532 14.2714L20.2391 14.1719C20.2111 14.1005 20.2391 14.0443 20.3106 14.029C21.0085 13.7445 21.6923 13.4306 22.3889 13.1602C22.5739 13.0887 22.8023 13.0032 22.7883 13.1742C22.7309 13.7011 22.7462 14.228 22.7309 14.7409C22.7168 15.1683 22.7168 15.5957 22.7449 16.0078V16.3357C22.7449 16.8486 22.7589 17.3615 22.8023 17.8591C22.8304 18.5289 22.8737 19.2115 22.9299 19.8813L23.0575 21.3192C23.0715 21.5897 23.0996 21.8461 23.1429 22.1166C23.1429 22.2735 23.171 22.2595 23.2999 22.2442C23.5563 22.2021 23.8128 22.1868 24.0692 22.1868C24.9661 22.2008 25.835 22.3437 26.6885 22.5848C27.2729 22.7418 27.8279 22.9548 28.3688 23.2393C28.6125 23.3695 28.8256 23.5264 29.0399 23.7114ZM8.44904 26.2184C8.6621 26.0908 9.03338 25.8344 9.54499 25.4351C10.0579 25.0217 10.3705 24.7512 10.4993 24.6096C9.72999 24.2677 8.93258 23.9691 8.10711 23.6986L8.44904 26.2184ZM26.6337 24.6798C26.6758 24.6377 26.6617 24.6083 26.6196 24.5802L26.2777 24.4374C25.6793 24.1809 25.0822 23.9525 24.4698 23.7535L24.3843 23.7254C24.3563 23.7114 24.3269 23.7254 24.2848 23.7395L24.6268 26.2031C24.6689 26.2031 24.6982 26.1891 24.7122 26.1751C25.2672 25.7757 25.8235 25.3636 26.3785 24.9222L26.6337 24.6798Z" fill="#069DD0"/>
</svg>
