<svg width="20" height="20" viewBox="0 0 20 20" fill="none" xmlns="http://www.w3.org/2000/svg">
<g id="Rounded - Bold/fi-br-caret-down">
<path id="Vector" d="M5.34487 7.5H14.6549C14.8197 7.50004 14.9807 7.54893 15.1178 7.6405C15.2548 7.73207 15.3615 7.8622 15.4246 8.01445C15.4877 8.1667 15.5042 8.33423 15.472 8.49586C15.4399 8.65748 15.3605 8.80595 15.244 8.9225L10.589 13.5775C10.4328 13.7337 10.2208 13.8215 9.99987 13.8215C9.7789 13.8215 9.56698 13.7337 9.41071 13.5775L4.75571 8.9225C4.6392 8.80595 4.55986 8.65748 4.52772 8.49586C4.49558 8.33423 4.51208 8.1667 4.57514 8.01445C4.6382 7.8622 4.74498 7.73207 4.88199 7.6405C5.019 7.54893 5.18008 7.50004 5.34487 7.5Z" fill="#FF6500"/>
</g>
</svg>
