<svg width="36" height="36" viewBox="0 0 36 36" fill="none" xmlns="http://www.w3.org/2000/svg">
<path d="M0 12.8C0 8.31958 0 6.07937 0.871948 4.36808C1.63893 2.86278 2.86278 1.63893 4.36808 0.871948C6.07937 0 8.31958 0 12.8 0H23.2C27.6804 0 29.9206 0 31.6319 0.871948C33.1372 1.63893 34.3611 2.86278 35.1281 4.36808C36 6.07937 36 8.31958 36 12.8V23.2C36 27.6804 36 29.9206 35.1281 31.6319C34.3611 33.1372 33.1372 34.3611 31.6319 35.1281C29.9206 36 27.6804 36 23.2 36H12.8C8.31958 36 6.07937 36 4.36808 35.1281C2.86278 34.3611 1.63893 33.1372 0.871948 31.6319C0 29.9206 0 27.6804 0 23.2V12.8Z" fill="#FF6500"/>
<path fill-rule="evenodd" clip-rule="evenodd" d="M10.5 18C10.5 14.7125 10.5 13.0688 11.408 11.9624C11.5742 11.7599 11.7599 11.5742 11.9624 11.408C13.0688 10.5 14.7125 10.5 18 10.5C21.2875 10.5 22.9312 10.5 24.0376 11.408C24.2401 11.5742 24.4258 11.7599 24.592 11.9624C25.5 13.0688 25.5 14.7125 25.5 18C25.5 21.2875 25.5 22.9312 24.592 24.0376C24.4258 24.2401 24.2401 24.4258 24.0376 24.592C22.9312 25.5 21.2875 25.5 18 25.5C14.7125 25.5 13.0688 25.5 11.9624 24.592C11.7599 24.4258 11.5742 24.2401 11.408 24.0376C10.5 22.9312 10.5 21.2875 10.5 18ZM23 14.25C23 14.9404 22.4404 15.5 21.75 15.5C21.0596 15.5 20.5 14.9404 20.5 14.25C20.5 13.5596 21.0596 13 21.75 13C22.4404 13 23 13.5596 23 14.25ZM19.3333 18.8333C19.3333 19.5697 18.7364 20.1667 18 20.1667C17.2636 20.1667 16.6667 19.5697 16.6667 18.8333C16.6667 18.097 17.2636 17.5 18 17.5C18.7364 17.5 19.3333 18.097 19.3333 18.8333ZM21.3333 18.8333C21.3333 20.6743 19.8409 22.1667 18 22.1667C16.1591 22.1667 14.6667 20.6743 14.6667 18.8333C14.6667 16.9924 16.1591 15.5 18 15.5C19.8409 15.5 21.3333 16.9924 21.3333 18.8333Z" fill="white"/>
</svg>
