<svg width="16" height="17" viewBox="0 0 16 17" fill="none" xmlns="http://www.w3.org/2000/svg">
<g id="Iconly/Sharp/Bold/Location">
<path id="Fill 278" fill-rule="evenodd" clip-rule="evenodd" d="M7.99985 9.153C6.99385 9.153 6.17518 8.335 6.17518 7.329C6.17518 6.323 6.99385 5.50433 7.99985 5.50433C9.00585 5.50433 9.82385 6.323 9.82385 7.329C9.82385 8.335 9.00585 9.153 7.99985 9.153ZM11.7425 3.25767C10.7219 2.205 9.39252 1.625 7.99985 1.625C6.60585 1.625 5.27652 2.205 4.25518 3.25833C3.21852 4.32767 2.64918 5.76433 2.69385 7.20033C2.81985 11.2697 7.61318 14.4383 7.81785 14.571L7.99718 14.6877L8.17852 14.573C8.38252 14.4437 13.1792 11.3517 13.3059 7.19967C13.3499 5.76433 12.7799 4.327 11.7425 3.25767Z" fill="#FF6500"/>
</g>
</svg>
