<svg width="155" height="22" viewBox="0 0 155 22" fill="none" xmlns="http://www.w3.org/2000/svg">
<g id="Group">
<g id="Group_2">
<path id="Vector" d="M61.7199 8.75911L64.1212 2.44678H65.0623L67.4541 8.75911H66.6312L65.9644 7.02467H63.2191L62.5523 8.75911H61.7188H61.7199ZM63.3574 6.38622H65.8166L64.5811 3.14197L63.3562 6.38622H63.3574Z" fill="#FF6600"/>
<path id="Vector_2" d="M68.3957 8.75911V2.44678H69.1985V8.13249H72.561V8.75911H68.3945H68.3957Z" fill="#FF6600"/>
<path id="Vector_3" d="M73.2812 8.75911V2.44678H74.084V8.75911H73.2812Z" fill="#FF6600"/>
<path id="Vector_4" d="M75.2188 8.75911V2.44678H79.3545V3.08286H76.0215V5.28904H78.9915V5.91566H76.0215V8.75793H75.2188V8.75911Z" fill="#FF6600"/>
<path id="Vector_5" d="M79.0129 8.75911L81.4142 2.44678H82.3553L84.7471 8.75911H83.9242L83.2574 7.02467H80.5121L79.8452 8.75911H79.0117H79.0129ZM80.6504 6.38622H83.1096L81.8741 3.14197L80.6492 6.38622H80.6504Z" fill="#FF6600"/>
<path id="Vector_6" d="M87.6719 8.75911V2.44678H88.4747V8.75911H87.6719Z" fill="#FF6600"/>
<path id="Vector_7" d="M89.6211 8.75911V2.44678H90.3458L93.9436 7.52478V2.44678H94.7476V8.75911H94.0122L90.4251 3.69056V8.75911H89.6223H89.6211Z" fill="#FF6600"/>
<path id="Vector_8" d="M97.5701 8.75911V3.08286H95.4727V2.44678H100.471V3.08286H98.374V8.75911H97.5713H97.5701Z" fill="#FF6600"/>
<path id="Vector_9" d="M101.215 8.75911V2.44678H105.478V3.08286H102.018V5.28904H105.125V5.91566H102.018V8.13131H105.478V8.75793H101.215V8.75911Z" fill="#FF6600"/>
<path id="Vector_10" d="M106.406 8.75911V2.44678H109.18C109.86 2.44678 110.354 2.62294 110.665 2.97645C110.976 3.32878 111.131 3.80643 111.131 4.40704C111.131 4.87169 111.017 5.25712 110.793 5.56452C110.568 5.87192 110.232 6.07764 109.789 6.1805C109.919 6.25853 110.018 6.34957 110.088 6.45007C110.157 6.55175 110.227 6.68653 110.298 6.85678L111.121 8.75793H110.298L109.496 6.92535C109.41 6.72909 109.308 6.5884 109.186 6.50327C109.064 6.41933 108.851 6.37558 108.544 6.37558H107.211V8.75793H106.409L106.406 8.75911ZM107.209 5.75014H108.953C109.377 5.75014 109.713 5.64373 109.958 5.43092C110.203 5.21929 110.326 4.8776 110.326 4.40586C110.326 3.52386 109.905 3.08286 109.061 3.08286H107.208V5.74896L107.209 5.75014Z" fill="#FF6600"/>
<path id="Vector_11" d="M112.074 8.75911V2.44678H112.799L116.397 7.52478V2.44678H117.201V8.75911H116.465L112.877 3.69056V8.75911H112.074Z" fill="#FF6600"/>
<path id="Vector_12" d="M118.114 8.75911L120.516 2.44678H121.457L123.849 8.75911H123.026L122.359 7.02467H119.614L118.947 8.75911H118.113H118.114ZM119.752 6.38622H122.211L120.976 3.14197L119.751 6.38622H119.752Z" fill="#FF6600"/>
<path id="Vector_13" d="M125.656 8.75911V3.08286H123.559V2.44678H128.557V3.08286H126.46V8.75911H125.657H125.656Z" fill="#FF6600"/>
<path id="Vector_14" d="M129.297 8.75911V2.44678H130.1V8.75911H129.297Z" fill="#FF6600"/>
<path id="Vector_15" d="M133.942 8.85682C132.956 8.85682 132.224 8.59789 131.747 8.07768C131.269 7.55864 131.031 6.73458 131.031 5.60311C131.031 4.47164 131.269 3.64758 131.747 3.12854C132.224 2.60951 132.956 2.35059 133.942 2.35059C134.928 2.35059 135.669 2.60951 136.144 3.12854C136.618 3.64876 136.854 4.47283 136.854 5.60311C136.854 6.7334 136.618 7.55983 136.144 8.07768C135.669 8.59789 134.935 8.85682 133.942 8.85682ZM133.942 8.17108C134.42 8.17108 134.813 8.0895 135.123 7.92634C135.433 7.76318 135.666 7.49362 135.82 7.11764C135.973 6.74167 136.05 6.23683 136.05 5.60311C136.05 4.96939 135.973 4.46573 135.82 4.08976C135.666 3.71378 135.434 3.44304 135.123 3.28106C134.812 3.1179 134.419 3.03632 133.942 3.03632C133.466 3.03632 133.072 3.1179 132.762 3.28106C132.451 3.44422 132.219 3.71378 132.066 4.08976C131.912 4.46573 131.835 4.97058 131.835 5.60311C131.835 6.23564 131.912 6.74167 132.066 7.11764C132.219 7.49362 132.451 7.76437 132.762 7.92634C133.073 8.0895 133.467 8.17108 133.942 8.17108Z" fill="#FF6600"/>
<path id="Vector_16" d="M137.781 8.75911V2.44678H138.506L142.104 7.52478V2.44678H142.908V8.75911H142.172L138.585 3.69056V8.75911H137.782H137.781Z" fill="#FF6600"/>
<path id="Vector_17" d="M143.841 8.75911L146.242 2.44678H147.183L149.575 8.75911H148.752L148.085 7.02467H145.34L144.673 8.75911H143.84H143.841ZM145.479 6.38622H147.938L146.702 3.14197L145.477 6.38622H145.479Z" fill="#FF6600"/>
<path id="Vector_18" d="M150.501 8.75911V2.44678H151.304V8.13249H154.666V8.75911H150.5H150.501Z" fill="#FF6600"/>
<path id="Vector_19" d="M63.7716 18.6609C62.9877 18.6609 62.3528 18.5627 61.8693 18.3665V17.6512C62.1436 17.7564 62.4368 17.8356 62.7477 17.8912C63.0587 17.9456 63.3755 17.9739 63.703 17.9739C64.2646 17.9739 64.6855 17.8971 64.9681 17.7434C65.2495 17.5897 65.389 17.3142 65.389 16.9146C65.389 16.6663 65.3322 16.4689 65.2176 16.3223C65.1017 16.1745 64.9149 16.0515 64.6536 15.9498C64.3923 15.8482 64.0423 15.7453 63.6049 15.6401C62.9109 15.4698 62.4249 15.2499 62.1436 14.978C61.8622 14.7072 61.7227 14.3431 61.7227 13.8855C61.7227 13.3488 61.9154 12.9267 62.3008 12.6157C62.6862 12.3048 63.2738 12.1499 64.066 12.1499C64.4313 12.1499 64.7718 12.1759 65.0851 12.2268C65.3996 12.2788 65.6408 12.3355 65.8111 12.3935V13.1005C65.5758 13.0154 65.3204 12.9491 65.0461 12.9042C64.773 12.8581 64.4881 12.8356 64.1937 12.8356C63.6569 12.8356 63.2455 12.9137 62.9582 13.0709C62.6697 13.2282 62.5266 13.4989 62.5266 13.8843C62.5266 14.0995 62.5775 14.2745 62.6791 14.4081C62.7808 14.5429 62.9511 14.6564 63.1946 14.7522C63.4358 14.8467 63.7728 14.9461 64.2031 15.0513C64.7198 15.1754 65.1218 15.3232 65.4091 15.497C65.6976 15.6696 65.8997 15.8742 66.0168 16.1094C66.135 16.3435 66.193 16.6131 66.193 16.9122C66.193 17.4679 65.9908 17.8971 65.5864 18.2009C65.1809 18.506 64.5767 18.6561 63.7728 18.6561L63.7716 18.6609Z" fill="#FF6600"/>
<path id="Vector_20" d="M69.9537 18.6612C69.2738 18.6612 68.7099 18.5324 68.263 18.2746C67.8161 18.0169 67.4815 17.6539 67.2592 17.1869C67.0369 16.7187 66.9258 16.1713 66.9258 15.5447C66.9258 14.8577 67.031 14.2607 67.2391 13.7499C67.4484 13.2403 67.7759 12.8466 68.2192 12.57C68.6638 12.291 69.2396 12.1538 69.9442 12.1538C70.3107 12.1538 70.6418 12.1798 70.9385 12.2307C71.2365 12.2827 71.5155 12.356 71.778 12.447V13.1529C71.5167 13.0535 71.2377 12.9779 70.9433 12.9223C70.6489 12.8679 70.3391 12.8395 70.0128 12.8395C69.4441 12.8395 68.9925 12.9483 68.6602 13.1635C68.328 13.3787 68.088 13.6896 67.9449 14.0952C67.8007 14.4995 67.7286 14.9842 67.7286 15.5458C67.7286 16.3226 67.913 16.922 68.2831 17.3441C68.652 17.7662 69.2348 17.9767 70.0329 17.9767C70.3273 17.9767 70.6264 17.9542 70.9303 17.9081C71.2341 17.8632 71.5167 17.7899 71.7792 17.6929V18.4082C71.5238 18.4862 71.2471 18.5489 70.9492 18.595C70.6524 18.6399 70.3214 18.6624 69.9549 18.6624L69.9537 18.6612Z" fill="#FF6600"/>
<path id="Vector_21" d="M72.707 18.5614V12.249H73.5098V15.0913H76.8427V12.249H77.6455V18.5614H76.8427V15.7191H73.5098V18.5614H72.707Z" fill="#FF6600"/>
<path id="Vector_22" d="M81.4929 18.66C80.5068 18.66 79.775 18.4011 79.2973 17.8809C78.8197 17.3619 78.582 16.5378 78.582 15.4063C78.582 14.2749 78.8197 13.4508 79.2973 12.9318C79.775 12.4127 80.5068 12.1538 81.4929 12.1538C82.4789 12.1538 83.2202 12.4127 83.6943 12.9318C84.1684 13.452 84.4049 14.276 84.4049 15.4063C84.4049 16.5366 84.1684 17.363 83.6943 17.8809C83.2202 18.4011 82.486 18.66 81.4929 18.66ZM81.4929 17.9743C81.9705 17.9743 82.3642 17.8927 82.674 17.7296C82.9849 17.5664 83.2167 17.2968 83.3704 16.9209C83.5241 16.5449 83.6009 16.04 83.6009 15.4063C83.6009 14.7726 83.5241 14.269 83.3704 13.893C83.2167 13.517 82.9849 13.2463 82.674 13.0843C82.363 12.9223 81.9693 12.8395 81.4929 12.8395C81.0164 12.8395 80.6227 12.9211 80.3129 13.0843C80.002 13.2474 79.7702 13.517 79.6165 13.893C79.4628 14.269 79.386 14.7738 79.386 15.4063C79.386 16.0389 79.4628 16.5449 79.6165 16.9209C79.7702 17.2968 80.002 17.5676 80.3129 17.7296C80.6239 17.8927 81.0176 17.9743 81.4929 17.9743Z" fill="#FF6600"/>
<path id="Vector_23" d="M88.0476 18.66C87.0615 18.66 86.3297 18.4011 85.852 17.8809C85.3744 17.3619 85.1367 16.5378 85.1367 15.4063C85.1367 14.2749 85.3744 13.4508 85.852 12.9318C86.3297 12.4127 87.0615 12.1538 88.0476 12.1538C89.0336 12.1538 89.7749 12.4127 90.249 12.9318C90.7231 13.452 90.9596 14.276 90.9596 15.4063C90.9596 16.5366 90.7231 17.363 90.249 17.8809C89.7749 18.4011 89.0407 18.66 88.0476 18.66ZM88.0476 17.9743C88.5252 17.9743 88.9189 17.8927 89.2287 17.7296C89.5396 17.5664 89.7714 17.2968 89.9251 16.9209C90.0788 16.5449 90.1556 16.04 90.1556 15.4063C90.1556 14.7726 90.0788 14.269 89.9251 13.893C89.7714 13.517 89.5396 13.2463 89.2287 13.0843C88.9177 12.9223 88.524 12.8395 88.0476 12.8395C87.5711 12.8395 87.1774 12.9211 86.8676 13.0843C86.5567 13.2474 86.3249 13.517 86.1712 13.893C86.0175 14.269 85.9407 14.7738 85.9407 15.4063C85.9407 16.0389 86.0175 16.5449 86.1712 16.9209C86.3249 17.2968 86.5567 17.5676 86.8676 17.7296C87.1786 17.8927 87.5723 17.9743 88.0476 17.9743Z" fill="#FF6600"/>
<path id="Vector_24" d="M91.9035 18.5614V12.249H92.7063V17.9347H96.0688V18.5614H91.9023H91.9035Z" fill="#FF6600"/>
<path id="Vector_25" d="M98.4513 18.6609C97.6674 18.6609 97.0325 18.5627 96.5489 18.3665V17.6512C96.8232 17.7564 97.1165 17.8356 97.4274 17.8912C97.7383 17.9456 98.0552 17.9739 98.3827 17.9739C98.9443 17.9739 99.3652 17.8971 99.6478 17.7434C99.9292 17.5897 100.069 17.3142 100.069 16.9146C100.069 16.6663 100.012 16.4689 99.8972 16.3223C99.7814 16.1745 99.5946 16.0515 99.3333 15.9498C99.072 15.8482 98.722 15.7453 98.2846 15.6401C97.5906 15.4698 97.1046 15.2499 96.8232 14.978C96.5419 14.7072 96.4023 14.3431 96.4023 13.8855C96.4023 13.3488 96.5951 12.9267 96.9805 12.6157C97.3659 12.3048 97.9535 12.1499 98.7457 12.1499C99.111 12.1499 99.4515 12.1759 99.7648 12.2268C100.079 12.2788 100.321 12.3355 100.491 12.3935V13.1005C100.255 13.0154 100 12.9491 99.7258 12.9042C99.4527 12.8581 99.1678 12.8356 98.8734 12.8356C98.3366 12.8356 97.9251 12.9137 97.6378 13.0709C97.3494 13.2282 97.2063 13.4989 97.2063 13.8843C97.2063 14.0995 97.2571 14.2745 97.3588 14.4081C97.4605 14.5429 97.6308 14.6564 97.8743 14.7522C98.1155 14.8467 98.4525 14.9461 98.8828 15.0513C99.3995 15.1754 99.8015 15.3232 100.089 15.497C100.377 15.6696 100.579 15.8742 100.696 16.1094C100.815 16.3435 100.873 16.6131 100.873 16.9122C100.873 17.4679 100.67 17.8971 100.266 18.2009C99.8606 18.506 99.2564 18.6561 98.4525 18.6561L98.4513 18.6609Z" fill="#FF6600"/>
<path id="Vector_26" d="M103.816 18.5614V12.249H106.286C107.2 12.249 107.871 12.4973 108.295 12.9939C108.719 13.4904 108.932 14.3074 108.932 15.4436C108.932 16.5798 108.724 17.3117 108.31 17.8118C107.895 18.3119 107.22 18.5614 106.286 18.5614H103.816ZM104.619 17.9347H106.138C106.582 17.9347 106.952 17.8685 107.246 17.7337C107.541 17.599 107.761 17.353 107.908 16.9936C108.055 16.6342 108.128 16.1175 108.128 15.4448C108.128 14.7721 108.062 14.2601 107.927 13.8877C107.794 13.5153 107.581 13.2552 107.291 13.1086C106.999 12.9608 106.616 12.8875 106.14 12.8875H104.62V17.9359L104.619 17.9347Z" fill="#FF6600"/>
<path id="Vector_27" d="M109.122 18.5614L111.524 12.249H112.465L114.856 18.5614H114.034L113.367 16.8269H110.621L109.955 18.5614H109.121H109.122ZM110.76 16.1885H113.219L111.983 12.9442L110.759 16.1885H110.76Z" fill="#FF6600"/>
<path id="Vector_28" d="M116.656 18.5614V12.8851H114.559V12.249H119.557V12.8851H117.46V18.5614H116.657H116.656Z" fill="#FF6600"/>
<path id="Vector_29" d="M119.267 18.5614L121.668 12.249H122.609L125.001 18.5614H124.178L123.511 16.8269H120.766L120.099 18.5614H119.266H119.267ZM120.904 16.1885H123.364L122.128 12.9442L120.903 16.1885H120.904Z" fill="#FF6600"/>
<path id="Vector_30" d="M125.935 18.5614V12.249H128.855C129.476 12.249 129.932 12.3944 130.223 12.6841C130.514 12.9761 130.658 13.3852 130.658 13.9149C130.658 14.2613 130.588 14.5498 130.448 14.7827C130.307 15.0144 130.113 15.1894 129.865 15.3076C130.185 15.3857 130.438 15.5382 130.624 15.7628C130.811 15.9887 130.904 16.3197 130.904 16.7572C130.904 17.372 130.744 17.826 130.424 18.1192C130.102 18.4136 129.633 18.5602 129.011 18.5602H125.934L125.935 18.5614ZM126.738 15.0133H128.805C129.204 15.0133 129.488 14.9163 129.654 14.7236C129.821 14.5309 129.904 14.2814 129.904 13.974C129.904 13.6075 129.819 13.332 129.65 13.1464C129.479 12.9596 129.149 12.8662 128.66 12.8662H126.739V15.0133H126.738ZM126.738 17.9537H128.875C129.3 17.9537 129.611 17.8602 129.807 17.6734C130.002 17.4878 130.101 17.1721 130.101 16.7288C130.101 16.3623 130.004 16.0868 129.812 15.8988C129.619 15.7132 129.264 15.6198 128.747 15.6198H126.738V17.9525V17.9537Z" fill="#FF6600"/>
<path id="Vector_31" d="M131.298 18.5614L133.699 12.249H134.64L137.032 18.5614H136.209L135.543 16.8269H132.797L132.13 18.5614H131.297H131.298ZM132.936 16.1885H135.395L134.159 12.9442L132.934 16.1885H132.936Z" fill="#FF6600"/>
<path id="Vector_32" d="M139.272 18.6609C138.488 18.6609 137.853 18.5627 137.369 18.3665V17.6512C137.644 17.7564 137.937 17.8356 138.248 17.8912C138.559 17.9456 138.876 17.9739 139.203 17.9739C139.765 17.9739 140.186 17.8971 140.468 17.7434C140.749 17.5897 140.889 17.3142 140.889 16.9146C140.889 16.6663 140.832 16.4689 140.718 16.3223C140.602 16.1745 140.415 16.0515 140.154 15.9498C139.892 15.8482 139.542 15.7453 139.105 15.6401C138.411 15.4698 137.925 15.2499 137.644 14.978C137.362 14.7072 137.223 14.3431 137.223 13.8855C137.223 13.3488 137.415 12.9267 137.801 12.6157C138.186 12.3048 138.774 12.1499 139.566 12.1499C139.931 12.1499 140.272 12.1759 140.585 12.2268C140.9 12.2788 141.141 12.3355 141.311 12.3935V13.1005C141.076 13.0154 140.82 12.9491 140.546 12.9042C140.273 12.8581 139.988 12.8356 139.694 12.8356C139.157 12.8356 138.745 12.9137 138.458 13.0709C138.17 13.2282 138.027 13.4989 138.027 13.8843C138.027 14.0995 138.077 14.2745 138.179 14.4081C138.281 14.5429 138.451 14.6564 138.695 14.7522C138.936 14.8467 139.273 14.9461 139.703 15.0513C140.22 15.1754 140.622 15.3232 140.909 15.497C141.198 15.6696 141.4 15.8742 141.517 16.1094C141.635 16.3435 141.693 16.6131 141.693 16.9122C141.693 17.4679 141.491 17.8971 141.086 18.2009C140.681 18.506 140.077 18.6561 139.273 18.6561L139.272 18.6609Z" fill="#FF6600"/>
<path id="Vector_33" d="M142.625 18.5614V12.249H146.888V12.8851H143.428V15.0913H146.535V15.7179H143.428V17.9336H146.888V18.5602H142.625V18.5614Z" fill="#FF6600"/>
</g>
<g id="Group_3">
<path id="Vector_34" d="M0 18.8667L6.35962 2.21631H10.1867L16.5204 18.8655H12.9001L11.3229 14.8575H5.19624L3.64505 18.8655H0V18.8667ZM5.7129 12.1713H10.8063L8.24658 5.47593L5.7129 12.1713Z" fill="#FF6600"/>
<path id="Vector_35" d="M18.3008 18.8667V2.21631H21.791V18.8655H18.3008V18.8667Z" fill="#FF6600"/>
<path id="Vector_36" d="M29.2713 19.1257C28.2013 19.1257 27.207 19.0488 26.2848 18.8939C25.3626 18.7379 24.5657 18.5144 23.8942 18.2212V15.1437C24.652 15.4546 25.4714 15.7041 26.3498 15.8944C27.2283 16.0836 28.089 16.1782 28.9343 16.1782C30.1415 16.1782 31.0282 16.0659 31.5969 15.8424C32.1656 15.6189 32.4505 15.1105 32.4505 14.3172C32.4505 13.8171 32.3287 13.421 32.0887 13.129C31.8475 12.8358 31.429 12.5733 30.8343 12.3404C30.2396 12.1087 29.399 11.845 28.3136 11.553C26.5733 11.0694 25.3484 10.4664 24.6426 9.74288C23.9355 9.01812 23.582 8.02026 23.582 6.74455C23.582 5.2111 24.1413 4.02879 25.2621 3.20236C26.3817 2.37593 28.0109 1.96094 30.1486 1.96094C31.1476 1.96094 32.0781 2.02951 32.9412 2.16784C33.8031 2.30617 34.4994 2.47051 35.0338 2.65968V5.73604C33.621 5.20164 32.1467 4.93562 30.6132 4.93562C29.5279 4.93562 28.6742 5.05149 28.0535 5.2844C27.434 5.51732 27.123 6.00443 27.123 6.74573C27.123 7.17609 27.2354 7.52014 27.46 7.78025C27.6835 8.03799 28.0665 8.27091 28.6104 8.47781C29.1531 8.68471 29.9156 8.91645 30.897 9.17655C32.2578 9.53834 33.31 9.9687 34.0514 10.4688C34.7915 10.9689 35.3058 11.5376 35.5895 12.1749C35.8745 12.8121 36.0152 13.5274 36.0152 14.3208C36.0152 15.7691 35.463 16.9325 34.3611 17.8109C33.258 18.6906 31.5602 19.1292 29.2677 19.1292L29.2713 19.1257Z" fill="#FF6600"/>
<path id="Vector_37" d="M37.8086 18.8667V2.21631H44.7889C47.2883 2.21631 49.1717 2.8583 50.4392 4.14229C51.7054 5.42627 52.338 7.58516 52.338 10.6178C52.338 13.4801 51.7137 15.5693 50.464 16.8875C49.2143 18.2058 47.3238 18.8655 44.7889 18.8655H37.8086V18.8667ZM41.2988 16.177H44.2983C45.2796 16.177 46.1072 16.0268 46.7788 15.7253C47.4515 15.4239 47.9551 14.8717 48.2909 14.0713C48.6279 13.2697 48.7958 12.1193 48.7958 10.619C48.7958 9.11861 48.6409 7.97414 48.3299 7.18081C48.019 6.38749 47.5366 5.84599 46.8816 5.55159C46.2266 5.25838 45.3647 5.11296 44.2971 5.11296H41.2976V16.177H41.2988Z" fill="#FF6600"/>
</g>
<path id="Vector_38" d="M57.1531 0.124512H56.7617V21.0915H57.1531V0.124512Z" fill="#FF6600"/>
</g>
</svg>
