<svg width="15" height="16" viewBox="0 0 15 16" fill="none" xmlns="http://www.w3.org/2000/svg">
<path d="M12.7713 4.33162C13.9655 4.33162 14.9371 3.36003 14.9371 2.16581C14.9371 0.971594 13.9655 0 12.7713 0C11.5771 0 10.6055 0.971594 10.6055 2.16581C10.6055 3.36003 11.5771 4.33162 12.7713 4.33162ZM12.7713 0.9375C13.4486 0.9375 13.9996 1.48853 13.9996 2.16581C13.9996 2.84309 13.4486 3.39412 12.7712 3.39412C12.094 3.39412 11.5429 2.84309 11.5429 2.16581C11.5429 1.48853 12.094 0.9375 12.7713 0.9375Z" fill="white"/>
<path d="M2.22831 0C1.03409 0 0.0625 0.971594 0.0625 2.16581C0.0625 3.36003 1.03409 4.33162 2.22831 4.33162C3.42256 4.33162 4.39416 3.36003 4.39416 2.16581C4.39416 0.971594 3.42256 0 2.22831 0ZM2.22831 3.39412C1.55103 3.39412 1 2.84309 1 2.16581C1 1.48853 1.55103 0.9375 2.22831 0.9375C2.90562 0.9375 3.45666 1.48853 3.45666 2.16581C3.45666 2.84309 2.90562 3.39412 2.22831 3.39412Z" fill="white"/>
<path d="M13.2952 6.96875C13.0542 6.96875 12.8268 7.02856 12.6272 7.13409C12.3844 6.68491 11.9091 6.37909 11.3637 6.37909C11.1227 6.37909 10.8953 6.43888 10.6957 6.54441C10.4531 6.09522 9.978 5.78941 9.43281 5.78941C9.25816 5.78941 9.09075 5.82075 8.93581 5.87819C8.93578 5.164 8.93578 4.40622 8.93575 3.78772C9.401 3.37616 9.66738 2.78837 9.66738 2.16584C9.66734 0.971594 8.69575 0 7.5015 0C6.30728 0 5.33569 0.971594 5.33569 2.16581C5.33569 2.79297 5.60066 3.37706 6.06709 3.78856L6.06719 8.0975H5.86791C5.07706 8.0975 4.43366 8.74113 4.43366 9.53222L4.43359 10.5083C4.4335 11.9792 5.01006 13.4145 6.022 14.4779V15.5312C6.022 15.6555 6.07141 15.7748 6.15931 15.8627C6.24722 15.9506 6.36644 16 6.49075 16H13.0114C13.2703 16 13.4802 15.7901 13.4802 15.5312V14.4452C14.2874 13.3664 14.7302 12.0398 14.7302 10.6906V8.40378C14.7302 7.61247 14.0864 6.96875 13.2952 6.96875ZM7.5015 0.9375C8.17881 0.9375 8.72984 1.48853 8.72984 2.16581C8.72984 2.34984 8.68869 2.52856 8.61206 2.69062C8.34884 2.36872 7.94881 2.16281 7.5015 2.16281C7.05403 2.16281 6.65387 2.36888 6.39062 2.69097C6.31422 2.52938 6.27319 2.35094 6.27319 2.16578C6.27319 1.48853 6.82422 0.9375 7.5015 0.9375ZM13.7927 10.6905C13.7927 11.8848 13.3846 13.0583 12.6437 13.995C12.5782 14.0778 12.5426 14.1803 12.5426 14.2858V15.0624H6.95947V14.2858C6.95947 14.1597 6.90869 14.039 6.81859 13.9508C5.89859 13.0503 5.371 11.7956 5.37106 10.5083L5.37112 9.53222C5.37112 9.25803 5.59397 9.03497 5.86788 9.03497H6.53594C6.66028 9.03497 6.77947 8.98556 6.86741 8.89766C6.95531 8.80975 7.00469 8.69053 7.00469 8.56619L7.00456 3.59719C7.00456 3.32319 7.2275 3.10028 7.50147 3.10028C7.77534 3.10028 7.99816 3.32297 7.99819 3.59675C7.99831 5.26953 7.99831 8.23516 7.99831 8.23516C7.99831 8.49403 8.20819 8.70391 8.46706 8.70391C8.72591 8.70391 8.93581 8.49403 8.93581 8.23516L8.93584 7.22378C8.93588 6.94975 9.15878 6.72684 9.43278 6.72684C9.70678 6.72684 9.92972 6.95 9.92972 7.22431L9.92975 8.82481C9.92975 9.08369 10.1396 9.29356 10.3985 9.29356C10.6574 9.29356 10.8672 9.08369 10.8672 8.82481V7.81297C10.8672 7.53922 11.09 7.3165 11.3637 7.3165C11.638 7.3165 11.8612 7.53969 11.8612 7.81397V9.70931C11.8612 9.96819 12.0711 10.1781 12.33 10.1781C12.5888 10.1781 12.7987 9.96819 12.7987 9.70931V8.40263C12.7987 8.12887 13.0214 7.90616 13.2952 7.90616C13.5695 7.90616 13.7927 8.12934 13.7927 8.40362L13.7927 10.6905Z" fill="white"/>
</svg>
