<svg width="33" height="32" viewBox="0 0 33 32" fill="none" xmlns="http://www.w3.org/2000/svg">
<g clip-path="url(#clip0_12466_58302)">
<path d="M22.5664 23.8918L29.5363 11.8164L30.4742 12.3577L23.5028 24.4323L22.5664 23.8918Z" fill="#51200B"/>
<path d="M21.0285 23.625L23.1005 24.8207L20.7852 26.439L21.0285 23.625Z" fill="#51200B"/>
<path d="M22.1726 5.89531C21.9202 5.89531 21.7148 5.68994 21.7148 5.43756V1.17188L26.4383 5.89531H22.1726Z" fill="#51200B"/>
<path d="M21.1641 23.0824L28.1354 11.0078L29.0711 11.5478L22.1013 23.6233L21.1641 23.0824Z" fill="#51200B"/>
<path d="M1.38744 11.2042C1.13506 11.2042 0.929688 10.9988 0.929688 10.7464V5.028C0.929688 4.77563 1.13506 4.57031 1.38744 4.57031H16.9448C17.1972 4.57031 17.4025 4.77563 17.4025 5.028V10.7464C17.4025 10.9988 17.1971 11.2042 16.9448 11.2042H1.38744ZM11.1991 8.59188L11.4699 9.55544C11.5021 9.67031 11.6079 9.75056 11.7271 9.75056C11.7512 9.75056 11.7756 9.74719 11.7996 9.74044C11.8683 9.72113 11.9254 9.67625 11.9604 9.61394C11.9953 9.55169 12.0039 9.47956 11.9846 9.41081L11.0913 6.23213C11.0591 6.11731 10.9532 6.03713 10.834 6.03713H10.3556C10.2364 6.03713 10.1306 6.11725 10.0983 6.232L9.20312 9.41069C9.16319 9.55263 9.24612 9.7005 9.388 9.7405C9.41175 9.74719 9.43619 9.75056 9.46062 9.75056C9.57969 9.75056 9.68544 9.67038 9.71781 9.55563L9.98919 8.59188H11.1991ZM7.93994 9.62081C7.98875 9.702 8.07456 9.7505 8.16944 9.7505C8.21763 9.7505 8.26519 9.73731 8.30681 9.71231C8.43312 9.63637 8.47419 9.47175 8.39825 9.34544L7.52606 7.89381L8.39825 6.44213C8.47412 6.31581 8.43313 6.15119 8.30675 6.07519C8.26519 6.05025 8.21769 6.03706 8.1695 6.03706C8.07456 6.03706 7.98875 6.0855 7.93994 6.16669L7.21419 7.37469L6.48844 6.16669C6.43963 6.0855 6.35387 6.037 6.259 6.037C6.21075 6.037 6.16325 6.05019 6.12156 6.07525C5.99525 6.15119 5.95425 6.31575 6.03013 6.44213L6.90231 7.89381L6.03013 9.34544C5.95425 9.47181 5.99525 9.63637 6.12162 9.71238C6.16325 9.73731 6.21075 9.75056 6.259 9.75056C6.35387 9.75056 6.43969 9.70206 6.48844 9.62087L7.21425 8.41294L7.93994 9.62081ZM2.84881 6.03713C2.70144 6.03713 2.5815 6.15706 2.5815 6.30444V9.48313C2.5815 9.6305 2.70144 9.75044 2.84881 9.75044H4.75869C4.90606 9.75044 5.026 9.63056 5.026 9.48313C5.026 9.33569 4.90606 9.21581 4.75869 9.21581H3.11619V7.98638H4.62794C4.77531 7.98638 4.89525 7.86644 4.89525 7.71906C4.89525 7.57169 4.77537 7.45175 4.62794 7.45175H3.11612V6.57175H4.75863C4.906 6.57175 5.02594 6.45188 5.02594 6.30444C5.02594 6.157 4.906 6.03713 4.75863 6.03713H2.84881ZM15.2161 9.47006C15.2161 9.61744 15.336 9.73737 15.4834 9.73737C15.6307 9.73737 15.7507 9.6175 15.7507 9.47006V6.29594C15.7508 6.28806 15.7506 6.28113 15.7501 6.27419C15.7477 6.2365 15.7377 6.20075 15.7204 6.16763C15.7032 6.13456 15.6798 6.10606 15.6506 6.08275C15.6248 6.06194 15.5957 6.04638 15.5643 6.03644C15.538 6.02806 15.5112 6.02381 15.4847 6.02381C15.4786 6.02381 15.4726 6.02406 15.4665 6.0245C15.4284 6.02694 15.3926 6.03694 15.3596 6.05431C15.3265 6.07156 15.298 6.095 15.2747 6.12406C15.2702 6.12969 15.2661 6.13538 15.262 6.14125L14.3714 7.415L13.4813 6.14188C13.4768 6.13525 13.4726 6.12969 13.4683 6.12425C13.4447 6.09463 13.4156 6.07081 13.3821 6.05363C13.3493 6.03669 13.3141 6.02694 13.2773 6.02456C13.2704 6.02406 13.2642 6.02381 13.2581 6.02381C13.2326 6.02381 13.2067 6.02775 13.1813 6.03556C13.1489 6.0455 13.1189 6.06138 13.0922 6.08269C13.0631 6.10613 13.0396 6.13475 13.0224 6.16769C13.0052 6.20069 12.9952 6.23625 12.9928 6.27356C12.9923 6.28081 12.9921 6.28775 12.9922 6.29475V9.47C12.9922 9.61737 13.1121 9.73731 13.2596 9.73731C13.407 9.73731 13.5269 9.61744 13.5269 9.47V7.14013L14.1523 8.03475C14.2022 8.10619 14.2842 8.14887 14.3714 8.14887C14.4587 8.14887 14.5406 8.10619 14.5905 8.03475L15.216 7.14013V9.47006H15.2161Z" fill="white"/>
<path d="M28.4023 10.5483L28.6671 10.0898L31.0034 11.4389L30.739 11.8967L28.4023 10.5483Z" fill="#51200B"/>
<path d="M10.1406 8.05734L10.5956 6.44141L11.0497 8.05734H10.1406Z" fill="#FD465F"/>
<path d="M10.2227 7.9945H10.9668L10.5951 6.67188L10.2227 7.9945Z" fill="#51200B"/>
<path d="M28.9336 9.62159L29.2728 9.03409C29.4526 8.72172 29.8084 8.53516 30.2245 8.53516C30.4871 8.53516 30.7533 8.60853 30.9947 8.74728C31.3123 8.93084 31.5499 9.20772 31.6637 9.52709C31.772 9.83128 31.7525 10.1355 31.609 10.3837L31.27 10.9707L28.9336 9.62159Z" fill="#51200B"/>
<path d="M3.17809 6.63319V7.38819H4.62734C4.80953 7.38819 4.95716 7.53587 4.95716 7.718C4.95716 7.90013 4.80953 8.04781 4.62734 8.04781H3.17809V9.15225H4.75816C4.94034 9.15225 5.08797 9.29994 5.08797 9.48206C5.08797 9.66419 4.94028 9.81187 4.75816 9.81187H2.84828C2.66609 9.81187 2.51847 9.66419 2.51847 9.48206V6.30337C2.51847 6.12125 2.66616 5.97356 2.84828 5.97356H4.75816C4.94034 5.97356 5.08797 6.12125 5.08797 6.30337C5.08797 6.4855 4.94028 6.63319 4.75816 6.63319H3.17809ZM12.0442 9.39281C12.0935 9.56819 11.9913 9.75031 11.8159 9.79956C11.786 9.80794 11.756 9.812 11.7265 9.812C11.5824 9.812 11.45 9.71687 11.4092 9.57131L11.1512 8.65331H10.036L9.77741 9.5715C9.72797 9.74675 9.54585 9.84894 9.37053 9.79956C9.19516 9.75019 9.09303 9.56806 9.14241 9.39269L10.0375 6.214C10.0776 6.07187 10.2073 5.97362 10.355 5.97362H10.8335C10.9813 5.97362 11.111 6.07194 11.151 6.21419L12.0442 9.39281ZM10.9658 7.99369L10.5942 6.67106L10.2217 7.99369H10.9658ZM8.33847 6.02062C8.18234 5.92687 7.97972 5.97744 7.88584 6.1335L7.21366 7.25231L6.54147 6.13344C6.44772 5.97731 6.24509 5.92675 6.08891 6.02056C5.93272 6.11444 5.88222 6.31706 5.97603 6.47325L6.82884 7.89269L5.97603 9.31213C5.88222 9.46831 5.93272 9.67094 6.08891 9.76481C6.14209 9.79675 6.20066 9.81194 6.25847 9.81194C6.37047 9.81194 6.47966 9.75488 6.54153 9.65194L7.21372 8.53312L7.88591 9.65194C7.94778 9.75488 8.05697 9.81194 8.16897 9.81194C8.22678 9.81194 8.28535 9.79675 8.33853 9.76481C8.49466 9.67094 8.54522 9.46831 8.45141 9.31213L7.59853 7.89269L8.45141 6.47325C8.54516 6.31706 8.49459 6.1145 8.33847 6.02062ZM16.4602 24.3583H5.78034C5.59816 24.3583 5.45053 24.5059 5.45053 24.6881C5.45053 24.8702 5.59822 25.0179 5.78034 25.0179H16.4602C16.6424 25.0179 16.79 24.8702 16.79 24.6881C16.79 24.5059 16.6423 24.3583 16.4602 24.3583ZM16.4602 21.144H5.78034C5.59816 21.144 5.45053 21.2917 5.45053 21.4738C5.45053 21.6559 5.59822 21.8036 5.78034 21.8036H16.4602C16.6424 21.8036 16.79 21.6559 16.79 21.4738C16.79 21.2917 16.6423 21.144 16.4602 21.144ZM15.7753 6.13756C15.7548 6.09812 15.7259 6.06225 15.6892 6.03288C15.6579 6.00769 15.6219 5.98819 15.5827 5.97575C15.543 5.96312 15.5017 5.95806 15.4613 5.96106C15.4142 5.96406 15.3697 5.977 15.33 5.99781C15.2905 6.01844 15.2547 6.04725 15.2253 6.08394C15.2199 6.09075 15.2147 6.09769 15.2098 6.10494L14.3709 7.30487L13.532 6.10494C13.5272 6.09781 13.522 6.09088 13.5167 6.08419C13.4868 6.04675 13.4503 6.0175 13.41 5.99681C13.3708 5.97662 13.3272 5.96406 13.2808 5.961C13.2412 5.958 13.2012 5.96275 13.1625 5.97462C13.122 5.987 13.0848 6.00694 13.0527 6.03275C13.0159 6.06219 12.987 6.09812 12.9664 6.13769C12.9458 6.17719 12.9329 6.22144 12.9298 6.26837C12.9293 6.27712 12.929 6.28587 12.9292 6.29469V9.46881C12.9292 9.65094 13.0768 9.79862 13.259 9.79862C13.4411 9.79862 13.5888 9.65094 13.5888 9.46881V7.33744L14.1005 8.06938C14.1622 8.15763 14.2632 8.21019 14.3708 8.21019C14.4785 8.21019 14.5794 8.15769 14.6412 8.06938L15.153 7.33737V9.46881C15.153 9.65094 15.3007 9.79862 15.4828 9.79862C15.6649 9.79862 15.8126 9.65094 15.8126 9.46881V6.29469C15.8127 6.286 15.8125 6.27737 15.8119 6.26875C15.809 6.22175 15.7961 6.17731 15.7753 6.13756ZM16.4602 27.5725H5.78034C5.59816 27.5725 5.45053 27.7202 5.45053 27.9023C5.45053 28.0844 5.59822 28.2321 5.78034 28.2321H16.4602C16.6424 28.2321 16.79 28.0844 16.79 27.9023C16.79 27.7201 16.6423 27.5725 16.4602 27.5725ZM32.1274 10.6844L27.412 18.8516V30.7522C27.412 31.3339 26.9388 31.8071 26.3572 31.8071H4.07416C3.49247 31.8071 3.01928 31.3339 3.01928 30.7522V11.8003H1.38691C0.805219 11.8002 0.332031 11.327 0.332031 10.7453V5.02694C0.332031 4.44525 0.805219 3.97206 1.38691 3.97206H3.01928V1.25019C3.01928 0.6685 3.49247 0.195312 4.07416 0.195312H21.446C21.5335 0.195312 21.6174 0.230063 21.6792 0.291875L27.3153 5.928C27.3772 5.98987 27.412 6.07375 27.412 6.16125V11.0671L28.7568 8.73775C29.2253 7.92375 30.3637 7.69662 31.2943 8.23181C31.735 8.48644 32.0663 8.87587 32.2275 9.32862C32.3956 9.80062 32.36 10.2821 32.1274 10.6844ZM21.2497 23.0598L22.0786 23.5381L28.986 11.5709L28.1585 11.0934L21.2497 23.0598ZM21.0833 23.7253L20.86 26.3083L22.9852 24.8229L21.0833 23.7253ZM21.7758 5.43625C21.7758 5.65419 21.9532 5.83156 22.1711 5.83156H26.2859L21.7758 1.3215V5.43625ZM16.9442 11.1406C17.1622 11.1406 17.3395 10.9633 17.3395 10.7453V5.02694C17.3395 4.809 17.1622 4.63169 16.9442 4.63169H1.38691C1.16897 4.63169 0.991656 4.809 0.991656 5.02694V10.7453C0.991656 10.9633 1.16897 11.1406 1.38691 11.1406H16.9442ZM26.7523 19.9941L23.8845 24.9614C23.8603 25.0031 23.8273 25.0391 23.7878 25.0668L20.6595 27.2532C20.6029 27.2928 20.5368 27.3127 20.4705 27.3127C20.4137 27.3127 20.3568 27.2981 20.3056 27.2685C20.1947 27.2044 20.1308 27.082 20.1419 26.9544L20.4708 23.1515C20.475 23.1034 20.4897 23.0568 20.5138 23.0149L26.7523 12.2096V6.49119H22.1711C21.5894 6.49119 21.1162 6.01794 21.1162 5.43625V0.855H4.07416C3.85622 0.855 3.67891 1.03231 3.67891 1.25025V3.97213H16.9442C17.5259 3.97213 17.9991 4.44531 17.9991 5.027V10.7454C17.9991 11.3271 17.5258 11.8003 16.9442 11.8003H3.67891V30.7522C3.67891 30.9701 3.85622 31.1474 4.07416 31.1474H26.3571C26.575 31.1474 26.7523 30.9701 26.7523 30.7522V19.9941ZM30.387 12.3794L29.5573 11.9006L22.65 23.8679L23.4781 24.3458L30.387 12.3794ZM30.9187 11.4586L28.6905 10.172L28.4883 10.5222L30.7168 11.8081L30.9187 11.4586ZM31.6061 9.55C31.4973 9.24463 31.2696 8.97944 30.9648 8.80338C30.35 8.44981 29.6157 8.568 29.3283 9.06725L29.0204 9.60063L31.2485 10.8872L31.5562 10.3543C31.6905 10.1221 31.7082 9.83656 31.6061 9.55ZM5.78034 15.3751H21.446C21.6282 15.3751 21.7758 15.2274 21.7758 15.0453C21.7758 14.8632 21.6282 14.7155 21.446 14.7155H5.78034C5.59816 14.7155 5.45053 14.8632 5.45053 15.0453C5.45047 15.2274 5.59816 15.3751 5.78034 15.3751ZM5.78034 18.5894H21.446C21.6282 18.5894 21.7758 18.4417 21.7758 18.2596C21.7758 18.0774 21.6282 17.9298 21.446 17.9298H5.78034C5.59816 17.9298 5.45053 18.0774 5.45053 18.2596C5.45047 18.4417 5.59816 18.5894 5.78034 18.5894Z" fill="#51200B"/>
</g>
<defs>
<clipPath id="clip0_12466_58302">
<rect width="32" height="32" fill="white" transform="translate(0.332031)"/>
</clipPath>
</defs>
</svg>
