<svg width="18" height="18" viewBox="0 0 18 18" fill="none" xmlns="http://www.w3.org/2000/svg">
<g id="SUCCESS">
<path id="Vector" d="M9 0C4.02961 0 0 4.0282 0 9C0 13.9718 4.02961 18 9 18C13.9704 18 18 13.9693 18 9C18 4.03066 13.9704 0 9 0Z" fill="#2AD352"/>
<path id="Vector_2" d="M8.35807e-06 9.00001C-0.00202329 10.4876 0.366361 11.9523 1.07192 13.262C1.97083 13.5259 2.90293 13.6596 3.83977 13.6589C9.25032 13.6589 13.6364 9.27282 13.6364 3.86228C13.6372 2.91058 13.4994 1.96384 13.2272 1.05189C11.9261 0.35886 10.4741 -0.00244243 9.00001 1.24263e-05C4.02962 1.24263e-05 8.35807e-06 4.02822 8.35807e-06 9.00001Z" fill="#74DA7F"/>
<path id="Vector_3" d="M14.1322 7.50948L8.72273 13.1904C8.57531 13.345 8.39819 13.4683 8.20198 13.5529C8.00577 13.6375 7.79451 13.6816 7.58086 13.6826H7.57382C7.36136 13.6826 7.15104 13.64 6.95537 13.5572C6.7597 13.4744 6.58266 13.3531 6.43476 13.2006L3.56425 10.2439C3.41594 10.0951 3.29867 9.91821 3.21925 9.72364C3.13983 9.52908 3.09985 9.32068 3.10162 9.11054C3.10339 8.9004 3.14688 8.69271 3.22956 8.49951C3.31225 8.30631 3.43248 8.13146 3.58328 7.9851C3.73409 7.83875 3.91246 7.7238 4.10804 7.64693C4.30363 7.57006 4.51253 7.53281 4.72263 7.53732C4.93273 7.54184 5.13984 7.58804 5.33194 7.67325C5.52404 7.75845 5.6973 7.88096 5.84168 8.03366L7.56257 9.80624L11.8337 5.32101C11.9768 5.16759 12.1489 5.04406 12.34 4.95757C12.5311 4.87107 12.7375 4.82333 12.9472 4.81711C13.1569 4.81088 13.3657 4.84629 13.5616 4.92129C13.7575 4.99628 13.9366 5.10938 14.0886 5.25404C14.2405 5.3987 14.3623 5.57204 14.4468 5.76405C14.5313 5.95606 14.5769 6.16291 14.5809 6.37266C14.585 6.5824 14.5474 6.79087 14.4704 6.986C14.3934 7.18113 14.2784 7.35906 14.1322 7.50948Z" fill="white"/>
</g>
</svg>
